<?xml version="1.0" encoding="utf-8"?>
<!-- Generator: Adobe Illustrator 15.0.2, SVG Export Plug-In . SVG Version: 6.00 Build 0)  -->
<!DOCTYPE svg PUBLIC "-//W3C//DTD SVG 1.1//EN" "http://www.w3.org/Graphics/SVG/1.1/DTD/svg11.dtd">
<svg version="1.1" id="Livello_1" xmlns="http://www.w3.org/2000/svg" xmlns:xlink="http://www.w3.org/1999/xlink" x="0px" y="0px"
	 width="61.102px" height="80.281px" viewBox="0 0 61.102 80.281" enable-background="new 0 0 61.102 80.281" xml:space="preserve">
<g>
	<defs>
		<rect id="SVGID_1_" y="0" width="61.102" height="80.281"/>
	</defs>
	<clipPath id="SVGID_2_">
		<use xlink:href="#SVGID_1_"  overflow="visible"/>
	</clipPath>
	<path clip-path="url(#SVGID_2_)" fill-rule="evenodd" clip-rule="evenodd" fill="#585E5B" d="M22.263,37.227
		c6.112,4.064,14.565,2.099,18.881-4.389c-0.715-0.471-2.563-1.697-4.695-3.122c-2.483,3.735-7.352,4.865-10.869,2.525l-0.05-0.034
		l1.752-2.578l-7.996,2.143l1.642,7.408l1.285-1.987L22.263,37.227z"/>
	<path clip-path="url(#SVGID_2_)" fill-rule="evenodd" clip-rule="evenodd" fill="#585E5B" d="M38.149,15.376
		c-6.11-4.065-14.551-2.118-18.851,4.347c4.21,2.73,4.232,2.795,4.693,3.123c2.477-3.722,7.336-4.842,10.854-2.501l0.052,0.034
		l-1.746,2.568l7.982-2.124l-1.652-7.392l-1.278,1.979L38.149,15.376z"/>
	<path clip-path="url(#SVGID_2_)" fill="none" stroke="#58595B" stroke-width="0.963" d="M30.215,50.629
		c13.439,0,24.331-10.891,24.331-24.332c0-13.432-10.892-24.328-24.331-24.328c-13.437,0-24.33,10.896-24.33,24.328
		C5.885,39.738,16.778,50.629,30.215,50.629z"/>
	<path clip-path="url(#SVGID_2_)" fill="#58595B" d="M8.215,58.753h1.069v0.999h0.021c0.13-0.551,0.809-1.141,1.509-1.141
		c0.259,0,0.33,0.021,0.429,0.031v1.099c-0.16-0.02-0.33-0.05-0.489-0.05c-0.78,0-1.399,0.629-1.399,1.77v2.459h-1.14V58.753z"/>
	<path clip-path="url(#SVGID_2_)" fill="#58595B" d="M12.445,61.631c0,0.81,0.439,1.528,1.389,1.528c0.66,0,1.059-0.29,1.259-0.858
		h1.079c-0.25,1.129-1.209,1.759-2.338,1.759c-1.619,0-2.529-1.129-2.529-2.719c0-1.47,0.96-2.729,2.499-2.729
		c1.629,0,2.628,1.471,2.439,3.02H12.445z M15.103,60.882c-0.04-0.721-0.529-1.37-1.299-1.37c-0.79,0-1.329,0.599-1.359,1.37H15.103
		z"/>
	<polygon clip-path="url(#SVGID_2_)" fill="#58595B" points="16.605,58.753 17.844,58.753 19.154,62.721 19.173,62.721 
		20.433,58.753 21.613,58.753 19.763,63.92 18.484,63.92 	"/>
	<path clip-path="url(#SVGID_2_)" fill="#58595B" d="M23.195,61.631c0,0.81,0.439,1.528,1.389,1.528c0.66,0,1.059-0.29,1.259-0.858
		h1.079c-0.25,1.129-1.209,1.759-2.338,1.759c-1.619,0-2.529-1.129-2.529-2.719c0-1.47,0.96-2.729,2.499-2.729
		c1.629,0,2.628,1.471,2.439,3.02H23.195z M25.853,60.882c-0.04-0.721-0.529-1.37-1.299-1.37c-0.79,0-1.329,0.599-1.359,1.37H25.853
		z"/>
	<path clip-path="url(#SVGID_2_)" fill="#58595B" d="M27.865,58.753h1.069v0.999h0.021c0.13-0.551,0.809-1.141,1.509-1.141
		c0.259,0,0.33,0.021,0.429,0.031v1.099c-0.16-0.02-0.33-0.05-0.489-0.05c-0.78,0-1.398,0.629-1.398,1.77v2.459h-1.14V58.753z"/>
	<path clip-path="url(#SVGID_2_)" fill="#58595B" d="M32.244,62.261c0.061,0.659,0.56,0.898,1.17,0.898
		c0.43,0,1.179-0.089,1.149-0.679c-0.03-0.6-0.86-0.67-1.689-0.86c-0.84-0.179-1.66-0.479-1.66-1.528
		c0-1.129,1.221-1.479,2.16-1.479c1.059,0,2.019,0.44,2.158,1.589h-1.189c-0.1-0.54-0.549-0.689-1.049-0.689
		c-0.33,0-0.939,0.08-0.939,0.529c0,0.561,0.839,0.641,1.679,0.829c0.83,0.191,1.669,0.491,1.669,1.511
		c0,1.229-1.239,1.679-2.309,1.679c-1.299,0-2.27-0.58-2.289-1.799H32.244z"/>
	<path clip-path="url(#SVGID_2_)" fill="#58595B" d="M36.605,56.783h1.139v1.08h-1.139V56.783z M36.605,58.752h1.139v5.167h-1.139
		V58.752z"/>
	<path clip-path="url(#SVGID_2_)" fill="#58595B" d="M39.016,56.782h1.139v2.64h0.021c0.31-0.499,0.959-0.81,1.539-0.81
		c1.629,0,2.419,1.239,2.419,2.749c0,1.388-0.7,2.698-2.229,2.698c-0.699,0-1.448-0.17-1.788-0.851h-0.021v0.711h-1.079V56.782z
		 M41.564,59.512c-0.96,0-1.449,0.729-1.449,1.829c0,1.04,0.529,1.818,1.449,1.818c1.039,0,1.429-0.919,1.429-1.818
		C42.993,60.401,42.504,59.512,41.564,59.512"/>
	<rect x="45.126" y="56.783" clip-path="url(#SVGID_2_)" fill="#58595B" width="1.139" height="7.137"/>
	<path clip-path="url(#SVGID_2_)" fill="#58595B" d="M48.396,61.631c0,0.81,0.439,1.528,1.389,1.528c0.66,0,1.06-0.29,1.26-0.858
		h1.079c-0.25,1.129-1.209,1.759-2.339,1.759c-1.618,0-2.528-1.129-2.528-2.719c0-1.47,0.96-2.729,2.499-2.729
		c1.629,0,2.628,1.471,2.438,3.02H48.396z M51.054,60.882c-0.04-0.721-0.529-1.37-1.299-1.37c-0.79,0-1.329,0.599-1.359,1.37H51.054
		z"/>
	
		<line clip-path="url(#SVGID_2_)" fill="none" stroke="#58595B" stroke-width="0.466" x1="5.011" y1="53.79" x2="55.421" y2="53.79"/>
</g>
</svg>
