<?xml version="1.0" encoding="utf-8"?>
<!-- Generator: Adobe Illustrator 15.0.2, SVG Export Plug-In . SVG Version: 6.00 Build 0)  -->
<!DOCTYPE svg PUBLIC "-//W3C//DTD SVG 1.1//EN" "http://www.w3.org/Graphics/SVG/1.1/DTD/svg11.dtd">
<svg version="1.1" id="Livello_1" xmlns="http://www.w3.org/2000/svg" xmlns:xlink="http://www.w3.org/1999/xlink" x="0px" y="0px"
	 width="61.102px" height="80.281px" viewBox="0 0 61.102 80.281" enable-background="new 0 0 61.102 80.281" xml:space="preserve">
<g>
	<defs>
		<rect id="SVGID_1_" y="0" width="61.102" height="80.281"/>
	</defs>
	<clipPath id="SVGID_2_">
		<use xlink:href="#SVGID_1_"  overflow="visible"/>
	</clipPath>
	<path clip-path="url(#SVGID_2_)" fill="none" stroke="#58595B" stroke-width="0.963" d="M30.038,51.013
		c13.439,0,24.33-10.891,24.33-24.332c0-13.432-10.891-24.328-24.33-24.328c-13.436,0-24.329,10.896-24.329,24.328
		C5.709,40.122,16.602,51.013,30.038,51.013z"/>
	<path clip-path="url(#SVGID_2_)" fill="#152A6E" d="M17.526,35.54l0.035-0.031c0.151,0.11,0.403,0.103,0.778,0.031
		c1.527-0.293,5.673-2.523,11.529-2.549h0.092h0.091c5.856,0.026,10.002,2.256,11.53,2.549c0.374,0.072,0.627,0.079,0.778-0.031
		l0.034,0.031l-0.063,0.93c-0.024,1.626,1.323,5.488,1.217,6.664c-0.009,0.585-0.159,0.799-0.695,0.799
		c-1.175,0-3.284-0.813-6.821-1.934c-1.934-0.613-4.23-0.773-6.167-0.773c-1.936,0-4.232,0.16-6.165,0.773
		c-3.537,1.12-5.457,1.934-6.631,1.934c-0.537,0-0.686-0.214-0.697-0.799c-0.105-1.176,1.242-5.038,1.218-6.664L17.526,35.54z"/>
	<path clip-path="url(#SVGID_2_)" fill="none" stroke="#FFFFFF" stroke-width="0.506" stroke-miterlimit="3.864" d="M17.526,35.54
		l0.035-0.031c0.151,0.11,0.403,0.103,0.778,0.031c1.527-0.293,5.673-2.523,11.529-2.549h0.092h0.091
		c5.856,0.026,10.002,2.256,11.53,2.549c0.374,0.072,0.627,0.079,0.778-0.031l0.034,0.031l-0.063,0.93
		c-0.024,1.626,1.323,5.488,1.217,6.664c-0.009,0.585-0.159,0.799-0.695,0.799c-1.175,0-3.284-0.813-6.821-1.934
		c-1.934-0.613-4.23-0.773-6.167-0.773c-1.936,0-4.232,0.16-6.165,0.773c-3.537,1.12-5.457,1.934-6.631,1.934
		c-0.537,0-0.686-0.214-0.697-0.799c-0.105-1.176,1.242-5.038,1.218-6.664L17.526,35.54z"/>
	<path clip-path="url(#SVGID_2_)" fill="#58585A" d="M17.526,35.54l0.035-0.031c0.151,0.11,0.403,0.103,0.778,0.031
		c1.527-0.293,5.673-2.523,11.529-2.549h0.092h0.091c5.856,0.026,10.002,2.256,11.53,2.549c0.374,0.072,0.627,0.079,0.778-0.031
		l0.034,0.031l-0.063,0.93c-0.024,1.626,1.323,5.488,1.217,6.664c-0.009,0.585-0.159,0.799-0.695,0.799
		c-1.175,0-4.571-1.29-6.821-1.934c-1.951-0.559-4.23-0.773-6.167-0.773c-1.936,0-3.916,0.167-6.165,0.773
		c-3.582,0.967-5.457,1.934-6.631,1.934c-0.537,0-0.686-0.214-0.697-0.799c-0.105-1.176,1.242-5.038,1.218-6.664L17.526,35.54z"/>
	<path clip-path="url(#SVGID_2_)" fill="none" stroke="#58595B" stroke-width="0.5" stroke-miterlimit="3.864" d="M17.526,35.54
		l0.035-0.031c0.151,0.11,0.403,0.103,0.778,0.031c1.527-0.293,5.673-2.523,11.529-2.549h0.092h0.091
		c5.856,0.026,10.002,2.256,11.53,2.549c0.374,0.072,0.627,0.079,0.778-0.031l0.034,0.031l-0.063,0.93
		c-0.024,1.626,1.323,5.488,1.217,6.664c-0.009,0.585-0.159,0.799-0.695,0.799c-1.175,0-4.571-1.29-6.821-1.934
		c-1.951-0.559-4.23-0.773-6.167-0.773c-1.936,0-3.916,0.167-6.165,0.773c-3.582,0.967-5.457,1.934-6.631,1.934
		c-0.537,0-0.686-0.214-0.697-0.799c-0.105-1.176,1.242-5.038,1.218-6.664L17.526,35.54z"/>
	<path clip-path="url(#SVGID_2_)" fill="none" stroke="#58595B" stroke-width="0.5" stroke-miterlimit="3.864" d="M29.959,33.526
		c-5.903,0-10.084,2.254-11.62,2.548c-0.549,0.106-0.836,0.073-0.928-0.27c-0.998-4.794-0.731-8.883,0.552-11.995
		c1.519-3.681,4.949-6.847,11.996-6.847c7.048,0,10.478,3.166,11.997,6.847c1.283,3.112,1.551,7.201,0.552,11.995
		c-0.09,0.343-0.378,0.376-0.927,0.27C40.045,35.78,35.864,33.526,29.959,33.526z"/>
	<path clip-path="url(#SVGID_2_)" fill="none" stroke="#58595B" stroke-width="0.5" stroke-miterlimit="3.864" d="M29.959,33.526
		c-5.903,0-10.084,2.254-11.62,2.548c-0.549,0.106-0.836,0.073-0.928-0.27c-0.998-4.794-0.731-8.883,0.552-11.995
		c1.519-3.681,4.949-6.847,11.996-6.847c7.048,0,10.478,3.166,11.997,6.847c1.283,3.112,1.551,7.201,0.552,11.995
		c-0.09,0.343-0.378,0.376-0.927,0.27C40.045,35.78,35.864,33.526,29.959,33.526z"/>
	<path clip-path="url(#SVGID_2_)" fill="none" stroke="#FFFFFF" stroke-width="0.375" stroke-miterlimit="3.864" d="M28.711,17.698
		c0-0.373,0.577-0.678,1.289-0.678c0.711,0,1.289,0.305,1.289,0.678c0,0.105-0.047,0.206-0.128,0.295
		c-0.39-0.022-0.788-0.031-1.201-0.031c-0.386,0-0.761,0.009-1.124,0.027C28.756,17.902,28.711,17.803,28.711,17.698z"/>
	<path clip-path="url(#SVGID_2_)" fill="none" stroke="#58595B" stroke-width="0.5" stroke-miterlimit="3.864" d="M28.711,17.698
		c0-0.373,0.577-0.678,1.289-0.678c0.711,0,1.289,0.305,1.289,0.678c0,0.105-0.047,0.206-0.128,0.295
		c-0.39-0.022-0.788-0.031-1.201-0.031c-0.386,0-0.761,0.009-1.124,0.027C28.756,17.902,28.711,17.803,28.711,17.698z"/>
	<path clip-path="url(#SVGID_2_)" fill="#FFFFFF" d="M38.837,19.645c5.107,4.547,3.148,12.758,2.744,16.429"/>
	<path clip-path="url(#SVGID_2_)" fill="none" stroke="#58595B" stroke-width="0.5" stroke-miterlimit="3.864" d="M38.837,19.645
		c5.107,4.547,3.148,12.758,2.744,16.429"/>
	<path clip-path="url(#SVGID_2_)" fill="none" stroke="#58595B" stroke-width="0.5" stroke-miterlimit="3.864" d="M21.74,19.102
		l-0.657,0.543c-5.108,4.547-3.149,12.758-2.744,16.429"/>
	<g clip-path="url(#SVGID_2_)" enable-background="new    ">
		<path fill="#58595B" d="M3.597,59.032h0.859v-1.55h1.14v1.55h1.029v0.85H5.596v2.758c0,0.47,0.04,0.71,0.55,0.71
			c0.16,0,0.319,0,0.479-0.04v0.88c-0.25,0.02-0.489,0.06-0.739,0.06c-1.189,0-1.409-0.46-1.43-1.319v-3.048H3.597V59.032z"/>
		<path fill="#58595B" d="M7.207,61.61c0-1.579,0.949-2.718,2.608-2.718s2.608,1.139,2.608,2.718c0,1.59-0.949,2.729-2.608,2.729
			S7.207,63.2,7.207,61.61z M11.284,61.61c0-0.89-0.449-1.818-1.469-1.818s-1.47,0.929-1.47,1.818c0,0.899,0.45,1.829,1.47,1.829
			S11.284,62.51,11.284,61.61z"/>
		<path fill="#58595B" d="M13.406,59.032h1.079v0.699h0.021c0.319-0.59,0.939-0.839,1.599-0.839c1.629,0,2.419,1.239,2.419,2.748
			c0,1.39-0.699,2.698-2.229,2.698c-0.66,0-1.369-0.239-1.729-0.81h-0.02v2.579h-1.14V59.032z M15.955,59.792
			c-0.96,0-1.449,0.729-1.449,1.829c0,1.039,0.529,1.818,1.449,1.818c1.039,0,1.429-0.919,1.429-1.818
			C17.384,60.682,16.895,59.792,15.955,59.792z"/>
		<path fill="#58595B" d="M22.297,59.032h1.079v0.699h0.02c0.32-0.59,0.939-0.839,1.6-0.839c1.629,0,2.419,1.239,2.419,2.748
			c0,1.39-0.7,2.698-2.229,2.698c-0.659,0-1.369-0.239-1.729-0.81h-0.021v2.579h-1.139V59.032z M24.845,59.792
			c-0.959,0-1.449,0.729-1.449,1.829c0,1.039,0.53,1.818,1.449,1.818c1.04,0,1.43-0.919,1.43-1.818
			C26.274,60.682,25.784,59.792,24.845,59.792z"/>
		<path fill="#58595B" d="M28.376,59.032h1.069v0.999h0.021c0.13-0.55,0.81-1.139,1.509-1.139c0.26,0,0.33,0.02,0.43,0.029v1.1
			c-0.16-0.02-0.33-0.05-0.49-0.05c-0.779,0-1.398,0.63-1.398,1.769v2.459h-1.14V59.032z"/>
		<path fill="#58595B" d="M31.477,61.61c0-1.579,0.949-2.718,2.607-2.718c1.66,0,2.609,1.139,2.609,2.718
			c0,1.59-0.949,2.729-2.609,2.729C32.426,64.339,31.477,63.2,31.477,61.61z M35.554,61.61c0-0.89-0.45-1.818-1.47-1.818
			s-1.469,0.929-1.469,1.818c0,0.899,0.449,1.829,1.469,1.829S35.554,62.51,35.554,61.61z"/>
		<path fill="#58595B" d="M42.513,64.199h-1.079V63.5h-0.02c-0.301,0.589-0.95,0.839-1.6,0.839c-1.629,0-2.419-1.209-2.419-2.758
			c0-1.869,1.109-2.688,2.239-2.688c0.649,0,1.369,0.239,1.719,0.81h0.02v-2.639h1.14V64.199z M39.965,63.439
			c1.02,0,1.449-0.93,1.449-1.829c0-1.139-0.551-1.818-1.43-1.818c-1.069,0-1.449,0.949-1.449,1.879
			C38.535,62.561,38.975,63.439,39.965,63.439z"/>
		<path fill="#58595B" d="M48.293,64.199h-1.119v-0.72h-0.02c-0.28,0.52-0.9,0.859-1.469,0.859c-1.35,0-1.93-0.68-1.93-2.028v-3.278
			h1.14V62.2c0,0.909,0.37,1.239,0.989,1.239c0.949,0,1.27-0.609,1.27-1.409v-2.998h1.139V64.199z"/>
		<path fill="#58595B" d="M52.984,60.761c-0.091-0.629-0.551-0.969-1.18-0.969c-0.59,0-1.42,0.31-1.42,1.879
			c0,0.859,0.381,1.769,1.369,1.769c0.66,0,1.12-0.439,1.23-1.179h1.139c-0.21,1.339-1.039,2.078-2.369,2.078
			c-1.619,0-2.508-1.149-2.508-2.668c0-1.56,0.85-2.778,2.549-2.778c1.199,0,2.219,0.6,2.328,1.868H52.984z"/>
		<path fill="#58595B" d="M54.536,59.032h0.859v-1.55h1.14v1.55h1.029v0.85h-1.029v2.758c0,0.47,0.039,0.71,0.549,0.71
			c0.16,0,0.32,0,0.48-0.04v0.88c-0.25,0.02-0.49,0.06-0.74,0.06c-1.189,0-1.408-0.46-1.429-1.319v-3.048h-0.859V59.032z"/>
	</g>
</g>
<g>
	<defs>
		<path id="SVGID_3_" d="M5.63,26.542c0,13.441,10.892,24.331,24.329,24.331c13.439,0,24.33-10.89,24.33-24.331
			c0-13.432-10.891-24.328-24.33-24.328C16.522,2.214,5.63,13.11,5.63,26.542"/>
	</defs>
	<clipPath id="SVGID_4_">
		<use xlink:href="#SVGID_3_"  overflow="visible"/>
	</clipPath>
	<polygon clip-path="url(#SVGID_4_)" fill="#58595B" points="51.274,2.914 1.356,27.55 -11.184,8.144 38.734,-16.494 	"/>
</g>
<g>
	<defs>
		<rect id="SVGID_5_" y="0" width="61.102" height="80.281"/>
	</defs>
	<clipPath id="SVGID_6_">
		<use xlink:href="#SVGID_5_"  overflow="visible"/>
	</clipPath>
	
		<line clip-path="url(#SVGID_6_)" fill="none" stroke="#58595B" stroke-width="0.466" x1="5.011" y1="53.79" x2="55.421" y2="53.79"/>
	<g clip-path="url(#SVGID_6_)">
		<path fill="#FFFFFF" d="M14.446,11.45l-2.195,1.108l-0.4-0.792l5.343-2.699l0.4,0.793l-2.206,1.114l3.245,6.423l-0.942,0.476
			L14.446,11.45z"/>
		<path fill="#FFFFFF" d="M25.66,9.225c1.254,2.483,0.411,4.563-1.431,5.493c-1.905,0.962-3.989,0.162-5.093-2.022
			c-1.158-2.291-0.49-4.509,1.436-5.482C22.542,6.218,24.578,7.083,25.66,9.225z M20.121,12.171c0.779,1.541,2.311,2.5,3.778,1.759
			c1.478-0.746,1.626-2.527,0.798-4.165c-0.725-1.435-2.23-2.555-3.783-1.771C19.372,8.773,19.32,10.586,20.121,12.171z"/>
		<path fill="#FFFFFF" d="M25.131,5.164c0.412-0.302,0.969-0.663,1.718-1.042c0.921-0.465,1.703-0.592,2.327-0.423
			c0.568,0.143,1.068,0.548,1.394,1.19c0.328,0.653,0.396,1.264,0.221,1.823c-0.227,0.772-0.895,1.446-1.804,1.905
			c-0.279,0.142-0.541,0.261-0.782,0.314l1.46,2.891l-0.932,0.471L25.131,5.164z M27.821,8.173c0.229-0.049,0.498-0.158,0.809-0.314
			c1.124-0.568,1.533-1.46,1.03-2.456c-0.481-0.953-1.388-1.072-2.416-0.553c-0.407,0.206-0.701,0.395-0.84,0.518L27.821,8.173z"/>
	</g>
</g>
</svg>
