<?xml version="1.0" encoding="utf-8"?>
<!-- Generator: Adobe Illustrator 15.0.2, SVG Export Plug-In . SVG Version: 6.00 Build 0)  -->
<!DOCTYPE svg PUBLIC "-//W3C//DTD SVG 1.1//EN" "http://www.w3.org/Graphics/SVG/1.1/DTD/svg11.dtd">
<svg version="1.1" id="Livello_1" xmlns="http://www.w3.org/2000/svg" xmlns:xlink="http://www.w3.org/1999/xlink" x="0px" y="0px"
	 width="61.102px" height="53.948px" viewBox="0 0 61.102 53.948" enable-background="new 0 0 61.102 53.948" xml:space="preserve">
<g>
	<defs>
		<rect id="SVGID_1_" y="0" width="61.102" height="80.281"/>
	</defs>
	<clipPath id="SVGID_2_">
		<use xlink:href="#SVGID_1_"  overflow="visible"/>
	</clipPath>
	<path clip-path="url(#SVGID_2_)" fill="none" stroke="#58595B" stroke-width="0.963" d="M29.915,51.449
		c13.438,0,24.33-10.891,24.33-24.332c0-13.431-10.892-24.327-24.33-24.327c-13.436,0-24.329,10.896-24.329,24.327
		C5.586,40.558,16.479,51.449,29.915,51.449z"/>
	<path clip-path="url(#SVGID_2_)" fill="#58595B" d="M40.947,41.681H22.494c-0.95,0-1.723-0.774-1.723-1.725v-7.559
		c0-0.066,0.054-0.12,0.12-0.12h11.757c0.955,0,1.731-0.777,1.731-1.732v-5.657c0-0.955-0.776-1.733-1.731-1.733H20.891
		c-0.066,0-0.12-0.053-0.12-0.119v-8.753c0-0.952,0.774-1.724,1.723-1.724h12.326c0.065,0,0.119,0.053,0.119,0.12v5.825
		c0,0.819,0.665,1.485,1.482,1.485h6.131c0.066,0,0.12,0.054,0.12,0.12v19.847C42.672,40.907,41.898,41.681,40.947,41.681
		 M21.011,32.516v7.44c0,0.819,0.665,1.483,1.483,1.483h18.454c0.819,0,1.484-0.665,1.484-1.483V20.228h-6.011
		c-0.949,0-1.723-0.773-1.723-1.723v-5.707H22.494c-0.818,0-1.483,0.666-1.483,1.485v8.633h11.637c1.087,0,1.971,0.884,1.971,1.972
		v5.657c0,1.087-0.884,1.971-1.971,1.971H21.011z"/>
	<path clip-path="url(#SVGID_2_)" fill="none" stroke="#58595B" stroke-width="0.5" d="M40.947,41.681H22.494
		c-0.95,0-1.723-0.774-1.723-1.725v-7.559c0-0.066,0.054-0.12,0.12-0.12h11.757c0.955,0,1.731-0.777,1.731-1.732v-5.657
		c0-0.955-0.776-1.733-1.731-1.733H20.891c-0.066,0-0.12-0.053-0.12-0.119v-8.753c0-0.952,0.774-1.724,1.723-1.724h12.326
		c0.065,0,0.119,0.053,0.119,0.12v5.825c0,0.819,0.665,1.485,1.482,1.485h6.131c0.066,0,0.12,0.054,0.12,0.12v19.847
		C42.672,40.907,41.898,41.681,40.947,41.681z M21.011,32.516v7.44c0,0.819,0.665,1.483,1.483,1.483h18.454
		c0.819,0,1.484-0.665,1.484-1.483V20.228h-6.011c-0.949,0-1.723-0.773-1.723-1.723v-5.707H22.494c-0.818,0-1.483,0.666-1.483,1.485
		v8.633h11.637c1.087,0,1.971,0.884,1.971,1.972v5.657c0,1.087-0.884,1.971-1.971,1.971H21.011z"/>
	<path clip-path="url(#SVGID_2_)" fill="#333333" d="M42.552,20.229h-6.131c-0.949,0-1.722-0.774-1.722-1.724v-5.826
		c0-0.049,0.028-0.092,0.073-0.111c0.044-0.019,0.095-0.009,0.129,0.024l7.733,7.43c0.035,0.035,0.046,0.087,0.028,0.131
		C42.645,20.199,42.601,20.229,42.552,20.229 M34.938,12.96v5.545c0,0.819,0.665,1.485,1.482,1.485h5.833L34.938,12.96z"/>
	<path clip-path="url(#SVGID_2_)" fill="none" stroke="#58595B" stroke-width="0.5" d="M42.552,20.229h-6.131
		c-0.949,0-1.722-0.774-1.722-1.724v-5.826c0-0.049,0.028-0.092,0.073-0.111c0.044-0.019,0.095-0.009,0.129,0.024l7.733,7.43
		c0.035,0.035,0.046,0.087,0.028,0.131C42.645,20.199,42.601,20.229,42.552,20.229z M34.938,12.96v5.545
		c0,0.819,0.665,1.485,1.482,1.485h5.833L34.938,12.96z"/>
	<path clip-path="url(#SVGID_2_)" fill="#333333" d="M20.891,32.516h-1.76c-1.087,0-1.971-0.884-1.971-1.971v-5.657
		c0-1.088,0.884-1.972,1.971-1.972h1.76c0.067,0,0.12,0.054,0.12,0.121c0,0.065-0.053,0.118-0.12,0.118h-1.76
		c-0.955,0-1.732,0.778-1.732,1.733v5.657c0,0.955,0.777,1.732,1.732,1.732h1.76c0.067,0,0.12,0.054,0.12,0.12
		S20.958,32.516,20.891,32.516"/>
	<path clip-path="url(#SVGID_2_)" fill="none" stroke="#58595B" stroke-width="0.5" d="M20.891,32.516h-1.76
		c-1.087,0-1.971-0.884-1.971-1.971v-5.657c0-1.088,0.884-1.972,1.971-1.972h1.76c0.067,0,0.12,0.054,0.12,0.121
		c0,0.065-0.053,0.118-0.12,0.118h-1.76c-0.955,0-1.732,0.778-1.732,1.733v5.657c0,0.955,0.777,1.732,1.732,1.732h1.76
		c0.067,0,0.12,0.054,0.12,0.12S20.958,32.516,20.891,32.516z"/>
	<path clip-path="url(#SVGID_2_)" fill="#58595B" d="M22.378,28.325h-0.699v1.065c0,0.153-0.036,0.268-0.107,0.348
		c-0.071,0.079-0.163,0.118-0.271,0.118c-0.116,0-0.209-0.039-0.278-0.117c-0.072-0.078-0.106-0.193-0.106-0.344v-2.9
		c0-0.168,0.039-0.288,0.116-0.36c0.078-0.073,0.199-0.108,0.367-0.108h0.978c0.289,0,0.513,0.021,0.669,0.066
		c0.153,0.044,0.287,0.114,0.398,0.213c0.112,0.1,0.197,0.221,0.256,0.365c0.058,0.144,0.085,0.306,0.085,0.486
		c0,0.383-0.116,0.674-0.353,0.872C23.197,28.227,22.846,28.325,22.378,28.325 M22.194,26.601h-0.515v1.15h0.515
		c0.179,0,0.329-0.019,0.45-0.057c0.121-0.037,0.212-0.098,0.276-0.184c0.064-0.087,0.094-0.198,0.094-0.336
		c0-0.167-0.047-0.302-0.146-0.406C22.758,26.655,22.534,26.601,22.194,26.601"/>
	<path clip-path="url(#SVGID_2_)" fill="#58595B" d="M24.897,26.027h0.992c0.259,0,0.481,0.024,0.666,0.073
		c0.184,0.047,0.352,0.137,0.504,0.269c0.392,0.336,0.587,0.845,0.587,1.531c0,0.225-0.018,0.431-0.058,0.617
		c-0.039,0.187-0.1,0.355-0.183,0.506c-0.082,0.149-0.188,0.283-0.316,0.402c-0.1,0.089-0.211,0.162-0.33,0.217
		c-0.121,0.054-0.25,0.094-0.387,0.116c-0.139,0.022-0.294,0.033-0.467,0.033h-0.993c-0.138,0-0.242-0.02-0.314-0.063
		c-0.069-0.042-0.115-0.1-0.136-0.176c-0.022-0.077-0.032-0.175-0.032-0.297v-2.76c0-0.164,0.036-0.284,0.111-0.358
		C24.613,26.064,24.732,26.027,24.897,26.027 M25.192,26.63v2.555h0.576c0.128,0,0.228-0.003,0.299-0.01
		c0.072-0.007,0.146-0.024,0.224-0.051c0.078-0.027,0.144-0.065,0.2-0.115c0.255-0.216,0.383-0.589,0.383-1.115
		c0-0.371-0.055-0.649-0.168-0.835c-0.112-0.185-0.25-0.301-0.415-0.352c-0.164-0.052-0.362-0.077-0.595-0.077H25.192z"/>
	<path clip-path="url(#SVGID_2_)" fill="#58595B" d="M30.566,26.615h-1.502v0.963h1.256c0.116,0,0.203,0.026,0.26,0.078
		c0.058,0.053,0.087,0.123,0.087,0.209c0,0.087-0.029,0.157-0.088,0.208c-0.059,0.052-0.144,0.078-0.259,0.078h-1.256v1.239
		c0,0.159-0.037,0.275-0.107,0.351c-0.072,0.076-0.162,0.115-0.273,0.115c-0.114,0-0.204-0.039-0.277-0.117
		c-0.07-0.077-0.106-0.193-0.106-0.349v-2.896c0-0.108,0.016-0.199,0.049-0.268c0.033-0.07,0.083-0.12,0.153-0.153
		c0.068-0.03,0.157-0.046,0.265-0.046h1.798c0.121,0,0.212,0.027,0.271,0.08c0.06,0.055,0.088,0.125,0.088,0.212
		c0,0.09-0.028,0.161-0.088,0.215C30.778,26.588,30.688,26.615,30.566,26.615"/>
</g>
</svg>
