<?xml version="1.0" encoding="utf-8"?>
<!-- Generator: Adobe Illustrator 15.0.2, SVG Export Plug-In . SVG Version: 6.00 Build 0)  -->
<!DOCTYPE svg PUBLIC "-//W3C//DTD SVG 1.1//EN" "http://www.w3.org/Graphics/SVG/1.1/DTD/svg11.dtd">
<svg version="1.1" id="Livello_1" xmlns="http://www.w3.org/2000/svg" xmlns:xlink="http://www.w3.org/1999/xlink" x="0px" y="0px"
	 width="61.102px" height="53.781px" viewBox="0 0 61.102 53.781" enable-background="new 0 0 61.102 53.781" xml:space="preserve">
<g>
	<defs>
		<rect id="SVGID_1_" y="0" width="61.102" height="80.281"/>
	</defs>
	<clipPath id="SVGID_2_">
		<use xlink:href="#SVGID_1_"  overflow="visible"/>
	</clipPath>
	<path clip-path="url(#SVGID_2_)" fill="none" stroke="#5D595B" stroke-width="0.963" d="M29.923,51.741
		c13.439,0,24.33-10.891,24.33-24.332c0-13.432-10.891-24.328-24.33-24.328c-13.436,0-24.329,10.896-24.329,24.328
		C5.594,40.85,16.487,51.741,29.923,51.741z"/>
	<path clip-path="url(#SVGID_2_)" fill="none" stroke="#58595B" stroke-linecap="round" stroke-linejoin="round" d="M22.94,41.065
		c-4.957-2.541-8.35-7.701-8.35-13.654c0-8.469,6.865-15.334,15.333-15.334c8.469,0,15.334,6.865,15.334,15.334
		c0,6.607-4.179,12.237-10.037,14.393"/>
	<polygon clip-path="url(#SVGID_2_)" fill="#58595B" points="22.964,35.603 29.923,42.744 20.26,45.202 	"/>
	<path clip-path="url(#SVGID_2_)" fill="#58595B" d="M22.274,28.422c-0.032,0.916,0.512,1.527,1.445,1.527
		c0.76,0,1.477-0.454,1.477-1.279c0-0.817-0.618-1.222-1.385-1.222h-0.439V27.01h0.439c0.536,0.008,1.172-0.321,1.172-1.048
		c0-0.759-0.57-1.09-1.264-1.09c-0.867,0-1.329,0.603-1.312,1.462h-0.52c0.008-1.09,0.701-1.899,1.824-1.899
		c0.907,0,1.791,0.446,1.791,1.47c0,0.627-0.355,1.13-0.974,1.279v0.017c0.752,0.123,1.189,0.668,1.189,1.427
		c0,1.131-0.925,1.758-1.99,1.758c-1.196,0-2.055-0.726-1.972-1.964H22.274z"/>
	<path clip-path="url(#SVGID_2_)" fill="#58595B" d="M29.722,25.946c-0.09-0.636-0.536-1.073-1.204-1.073
		c-1.346,0-1.594,1.536-1.594,2.584h0.017c0.272-0.57,0.883-0.958,1.535-0.958c1.156,0,1.907,0.801,1.907,1.932
		c0,1.122-0.817,1.956-1.956,1.956c-1.404,0-2.022-0.818-2.022-3.07c0-0.686,0.173-2.882,2.063-2.882
		c1.015,0,1.651,0.504,1.774,1.511H29.722z M27.031,28.464c0,0.817,0.438,1.485,1.445,1.485c0.826,0,1.388-0.685,1.388-1.485
		c0-0.842-0.513-1.527-1.396-1.527C27.559,26.937,27.031,27.614,27.031,28.464"/>
	<path clip-path="url(#SVGID_2_)" fill="#58595B" d="M34.975,27.407c0,1.354-0.329,2.979-2.014,2.979s-2.014-1.625-2.014-2.971
		c0-1.354,0.329-2.98,2.014-2.98S34.975,26.061,34.975,27.407 M31.468,27.407c0,1.007,0.173,2.542,1.493,2.542
		c1.321,0,1.495-1.535,1.495-2.542c0-0.999-0.174-2.535-1.495-2.535C31.641,24.872,31.468,26.408,31.468,27.407"/>
	<path clip-path="url(#SVGID_2_)" fill="#58595B" d="M36.909,24.435c0.66,0,1.188,0.529,1.188,1.189s-0.528,1.189-1.188,1.189
		s-1.188-0.529-1.188-1.189S36.249,24.435,36.909,24.435 M36.909,26.49c0.479,0,0.867-0.388,0.867-0.867
		c0-0.478-0.388-0.867-0.867-0.867c-0.479,0-0.867,0.389-0.867,0.867C36.042,26.103,36.431,26.49,36.909,26.49"/>
</g>
</svg>
