<?xml version="1.0" encoding="utf-8"?>
<!-- Generator: Adobe Illustrator 15.0.2, SVG Export Plug-In . SVG Version: 6.00 Build 0)  -->
<!DOCTYPE svg PUBLIC "-//W3C//DTD SVG 1.1//EN" "http://www.w3.org/Graphics/SVG/1.1/DTD/svg11.dtd">
<svg version="1.1" id="Livello_1" xmlns="http://www.w3.org/2000/svg" xmlns:xlink="http://www.w3.org/1999/xlink" x="0px" y="0px"
	 width="61.102px" height="80.281px" viewBox="0 0 61.102 80.281" enable-background="new 0 0 61.102 80.281" xml:space="preserve">
<g>
	<defs>
		<rect id="SVGID_1_" y="0" width="61.102" height="80.281"/>
	</defs>
	<clipPath id="SVGID_2_">
		<use xlink:href="#SVGID_1_"  overflow="visible"/>
	</clipPath>
	<path clip-path="url(#SVGID_2_)" fill="#58595B" d="M20.884,57.341h1.14v2.647h0.019c0.28-0.469,0.87-0.818,1.55-0.818
		c1.119,0,1.828,0.6,1.828,1.759v3.548h-1.139v-3.248c-0.02-0.81-0.339-1.159-1.009-1.159c-0.76,0-1.249,0.6-1.249,1.359v3.048
		h-1.14V57.341z"/>
	<path clip-path="url(#SVGID_2_)" fill="#58595B" d="M26.654,57.34h1.139v1.079h-1.139V57.34z M26.654,59.31h1.139v5.167h-1.139
		V59.31z"/>
	<path clip-path="url(#SVGID_2_)" fill="#58595B" d="M33.812,64.207c0,1.549-0.909,2.318-2.538,2.318
		c-1.039,0-2.208-0.399-2.31-1.608h1.14c0.14,0.649,0.66,0.758,1.239,0.758c0.92,0,1.329-0.469,1.329-1.318v-0.789h-0.02
		c-0.32,0.568-0.909,0.908-1.549,0.908c-1.64,0-2.32-1.238-2.32-2.719c0-1.388,0.87-2.587,2.339-2.587
		c0.649,0,1.239,0.27,1.529,0.85h0.02v-0.711h1.14V64.207z M32.672,61.778c0-0.891-0.399-1.709-1.389-1.709
		c-1.01,0-1.359,0.938-1.359,1.799c0,0.849,0.41,1.709,1.359,1.709C32.292,63.577,32.672,62.658,32.672,61.778"/>
	<path clip-path="url(#SVGID_2_)" fill="#58595B" d="M34.964,57.341h1.14v2.647h0.02c0.28-0.469,0.87-0.818,1.55-0.818
		c1.119,0,1.828,0.6,1.828,1.759v3.548h-1.139v-3.248c-0.021-0.81-0.34-1.159-1.01-1.159c-0.76,0-1.249,0.6-1.249,1.359v3.048h-1.14
		V57.341z"/>
	<polygon clip-path="url(#SVGID_2_)" fill="#58595B" points="11.751,68.31 12.99,68.31 14.3,72.277 14.319,72.277 15.579,68.31 
		16.759,68.31 14.909,73.477 13.63,73.477 	"/>
	<path clip-path="url(#SVGID_2_)" fill="#58595B" d="M17.481,66.34h1.139v1.079h-1.139V66.34z M17.481,68.31h1.139v5.167h-1.139
		V68.31z"/>
	<path clip-path="url(#SVGID_2_)" fill="#58595B" d="M20.721,71.817c0.061,0.66,0.56,0.898,1.17,0.898
		c0.43,0,1.179-0.089,1.149-0.679c-0.03-0.6-0.86-0.669-1.689-0.86c-0.84-0.179-1.659-0.479-1.659-1.528
		c0-1.129,1.219-1.479,2.159-1.479c1.059,0,2.018,0.439,2.158,1.588H22.82c-0.1-0.54-0.549-0.688-1.049-0.688
		c-0.33,0-0.94,0.08-0.94,0.529c0,0.56,0.839,0.64,1.679,0.829c0.83,0.19,1.669,0.49,1.669,1.51c0,1.229-1.239,1.68-2.309,1.68
		c-1.298,0-2.268-0.58-2.289-1.8H20.721z"/>
	<path clip-path="url(#SVGID_2_)" fill="#58595B" d="M25.082,66.34h1.139v1.079h-1.139V66.34z M25.082,68.31h1.139v5.167h-1.139
		V68.31z"/>
	<path clip-path="url(#SVGID_2_)" fill="#58595B" d="M27.492,66.34h1.139v2.64h0.02c0.31-0.5,0.959-0.81,1.54-0.81
		c1.629,0,2.419,1.239,2.419,2.748c0,1.389-0.7,2.699-2.229,2.699c-0.699,0-1.448-0.17-1.788-0.851h-0.021v0.709h-1.079V66.34z
		 M30.041,69.069c-0.96,0-1.449,0.729-1.449,1.829c0,1.039,0.529,1.817,1.449,1.817c1.039,0,1.429-0.918,1.429-1.817
		C31.47,69.959,30.98,69.069,30.041,69.069"/>
	<path clip-path="url(#SVGID_2_)" fill="#58595B" d="M33.603,66.34h1.14v1.079h-1.14V66.34z M33.603,68.31h1.14v5.167h-1.14V68.31z"
		/>
	<rect x="36.013" y="66.34" clip-path="url(#SVGID_2_)" fill="#58595B" width="1.14" height="7.137"/>
	<path clip-path="url(#SVGID_2_)" fill="#58595B" d="M38.423,66.34h1.139v1.079h-1.139V66.34z M38.423,68.31h1.139v5.167h-1.139
		V68.31z"/>
	<path clip-path="url(#SVGID_2_)" fill="#58595B" d="M40.283,68.31h0.859v-1.549h1.14v1.549h1.029v0.85h-1.029v2.758
		c0,0.471,0.04,0.709,0.55,0.709c0.159,0,0.319,0,0.479-0.04v0.881c-0.25,0.02-0.49,0.06-0.739,0.06c-1.189,0-1.409-0.459-1.43-1.32
		v-3.047h-0.859V68.31z"/>
	<path clip-path="url(#SVGID_2_)" fill="#58595B" d="M43.563,68.31h1.249l1.35,3.857h0.02l1.31-3.857h1.189l-2.009,5.447
		c-0.37,0.93-0.64,1.769-1.829,1.769c-0.271,0-0.53-0.021-0.79-0.06v-0.961c0.18,0.031,0.36,0.071,0.54,0.071
		c0.529,0,0.659-0.281,0.8-0.72l0.13-0.4L43.563,68.31z"/>
	<path clip-path="url(#SVGID_2_)" fill="none" stroke="#58595B" stroke-width="0.963" d="M30.215,50.629
		c13.439,0,24.331-10.891,24.331-24.332c0-13.432-10.892-24.328-24.331-24.328c-13.437,0-24.33,10.896-24.33,24.328
		C5.885,39.738,16.778,50.629,30.215,50.629z"/>
	<path clip-path="url(#SVGID_2_)" fill="#58595B" d="M27.704,13.99l-0.017,0.03L15.229,35.594l-0.017,0.031
		c-0.463,0.908-0.437,1.976,0.073,2.859c0.507,0.881,1.421,1.439,2.441,1.49l0.033,0.002h24.912l0.035-0.002
		c1.019-0.05,1.932-0.608,2.441-1.491c0.51-0.882,0.533-1.949,0.072-2.857l-0.018-0.032L32.745,14.019l-0.018-0.029
		c-0.555-0.857-1.494-1.369-2.512-1.369C29.199,12.621,28.257,13.133,27.704,13.99"/>
	<path clip-path="url(#SVGID_2_)" fill="#FFEC00" d="M43.968,36.266l-0.08-0.139l-3.922-6.793l-8.339-14.445l-0.081-0.137
		c-0.281-0.437-0.771-0.726-1.329-0.726c-0.559,0-1.051,0.29-1.331,0.726l-0.08,0.137l-8.339,14.445l-3.922,6.793l-0.08,0.139
		c-0.237,0.462-0.243,1.031,0.037,1.514c0.279,0.484,0.775,0.764,1.293,0.79h0.159h24.524h0.158c0.521-0.026,1.016-0.306,1.295-0.79
		C44.208,37.298,44.204,36.729,43.968,36.266"/>
	<path clip-path="url(#SVGID_2_)" fill="#58585A" d="M28.628,36.815c-0.433-0.434-0.65-0.968-0.65-1.601
		c0-0.615,0.22-1.14,0.663-1.574c0.444-0.435,0.973-0.652,1.588-0.652c0.616,0,1.145,0.217,1.589,0.652
		c0.439,0.434,0.663,0.959,0.663,1.574c0,0.633-0.217,1.167-0.65,1.601c-0.436,0.435-0.967,0.651-1.602,0.651
		C29.597,37.466,29.064,37.25,28.628,36.815 M28.341,30.101c0,0.56,0.174,1.016,0.517,1.371c0.346,0.353,0.797,0.53,1.357,0.53
		c0.56,0,1.017-0.177,1.371-0.53c0.354-0.355,0.531-0.811,0.531-1.371v-9.985c0-0.559-0.177-1.011-0.531-1.355
		c-0.354-0.346-0.812-0.519-1.371-0.519c-0.542,0-0.99,0.177-1.344,0.532c-0.353,0.354-0.531,0.802-0.531,1.342V30.101z"/>
	
		<line clip-path="url(#SVGID_2_)" fill="none" stroke="#58595B" stroke-width="0.466" x1="5.011" y1="53.79" x2="55.421" y2="53.79"/>
</g>
</svg>
