<?xml version="1.0" encoding="utf-8"?>
<!-- Generator: Adobe Illustrator 15.0.2, SVG Export Plug-In . SVG Version: 6.00 Build 0)  -->
<!DOCTYPE svg PUBLIC "-//W3C//DTD SVG 1.1//EN" "http://www.w3.org/Graphics/SVG/1.1/DTD/svg11.dtd">
<svg version="1.1" id="Livello_1" xmlns="http://www.w3.org/2000/svg" xmlns:xlink="http://www.w3.org/1999/xlink" x="0px" y="0px"
	 width="61.102px" height="80.281px" viewBox="0 0 61.102 80.281" enable-background="new 0 0 61.102 80.281" xml:space="preserve">
<g>
	<defs>
		<rect id="SVGID_1_" y="0" width="61.102" height="80.281"/>
	</defs>
	<clipPath id="SVGID_2_">
		<use xlink:href="#SVGID_1_"  overflow="visible"/>
	</clipPath>
	<path clip-path="url(#SVGID_2_)" fill="none" stroke="#58595B" stroke-width="0.973" d="M30.216,50.892
		c13.582,0,24.59-11.008,24.59-24.595c0-13.577-11.008-24.591-24.59-24.591S5.626,12.719,5.626,26.296
		C5.626,39.883,16.634,50.892,30.216,50.892z"/>
	<path clip-path="url(#SVGID_2_)" fill-rule="evenodd" clip-rule="evenodd" fill="#58595B" d="M15.247,11.127
		c1.468,0.523,3.179,0.804,4.646,1.327c0.176,0.173-0.27,0.403-0.463,0.599c-0.237,0.235-0.438,0.535-0.664,0.664
		c2.428,2.261,5.466,3.915,9.692,4.381c-0.062,0.468-0.134,0.926-0.132,1.461c-2.766-0.288-5.016-1.093-6.972-2.192
		c0.856,1.932,1.912,4.241,2.125,7.038c-0.509,0.022-0.917,0.144-1.46,0.133c-0.442-4.23-2.149-7.191-4.315-9.694
		c-0.471,0.328-0.914,1.035-1.33,1.196c-0.493-1.519-0.808-3.219-1.327-4.713c-0.005-0.095-0.01-0.188,0.067-0.2H15.247z"/>
	<path clip-path="url(#SVGID_2_)" fill-rule="evenodd" clip-rule="evenodd" fill="#58595B" d="M45.188,11.127h0.199v0.2
		c-0.522,1.467-0.803,3.178-1.327,4.646c-0.172,0.176-0.402-0.27-0.599-0.464c-0.234-0.236-0.535-0.438-0.664-0.665
		c-2.27,2.422-3.905,5.477-4.381,9.694c-0.469-0.062-0.927-0.135-1.461-0.133c0.274-2.802,1.137-5.016,2.192-7.038
		c-2.025,1.052-4.229,1.924-7.039,2.192c-0.021-0.51-0.144-0.918-0.132-1.461c4.228-0.443,7.189-2.148,9.693-4.315
		c-0.328-0.47-1.035-0.913-1.195-1.329C41.993,11.959,43.693,11.645,45.188,11.127"/>
	<path clip-path="url(#SVGID_2_)" fill-rule="evenodd" clip-rule="evenodd" fill="#58595B" d="M15.047,41.268
		c0.523-1.468,0.804-3.179,1.327-4.647c0.173-0.176,0.403,0.269,0.599,0.464c0.235,0.237,0.535,0.438,0.663,0.663
		c2.269-2.42,3.932-5.45,4.383-9.692c0.467,0.063,0.927,0.135,1.46,0.133c-0.284,2.769-1.094,5.015-2.192,6.972
		c1.932-0.856,4.241-1.912,7.038-2.125c0.022,0.509,0.145,0.917,0.133,1.46c-4.228,0.442-7.19,2.15-9.692,4.315
		c0.326,0.471,1.033,0.914,1.194,1.329c-1.518,0.494-3.219,0.809-4.713,1.328c-0.095,0.006-0.188,0.011-0.2-0.066V41.268z"/>
	<path clip-path="url(#SVGID_2_)" fill-rule="evenodd" clip-rule="evenodd" fill="#58595B" d="M45.387,41.268v0.199h-0.199
		c-1.468-0.522-3.179-0.805-4.646-1.328c-0.176-0.173,0.27-0.403,0.464-0.599c0.235-0.234,0.438-0.535,0.665-0.663
		c-2.42-2.271-5.451-3.932-9.694-4.382c0.063-0.468,0.135-0.927,0.133-1.46c2.767,0.288,5.016,1.093,6.973,2.191
		c-0.855-1.935-1.916-4.237-2.126-7.038c0.51-0.022,0.918-0.144,1.461-0.133c0.441,4.23,2.148,7.191,4.314,9.692
		c0.471-0.326,0.914-1.033,1.329-1.193C44.554,38.073,44.869,39.771,45.387,41.268"/>
	
		<line clip-path="url(#SVGID_2_)" fill="none" stroke="#58595B" stroke-width="0.466" x1="5.011" y1="53.79" x2="55.421" y2="53.79"/>
	<path clip-path="url(#SVGID_2_)" fill="#58595B" d="M5.795,62.261c0.061,0.659,0.56,0.898,1.17,0.898
		c0.43,0,1.179-0.089,1.149-0.679c-0.03-0.6-0.86-0.67-1.689-0.86c-0.84-0.179-1.659-0.479-1.659-1.528
		c0-1.129,1.219-1.479,2.159-1.479c1.059,0,2.018,0.44,2.158,1.589H7.894c-0.1-0.54-0.549-0.689-1.049-0.689
		c-0.33,0-0.94,0.08-0.94,0.529c0,0.561,0.839,0.641,1.679,0.829c0.83,0.191,1.669,0.491,1.669,1.511
		c0,1.229-1.239,1.679-2.309,1.679c-1.298,0-2.268-0.58-2.289-1.799H5.795z"/>
	<path clip-path="url(#SVGID_2_)" fill="#58595B" d="M9.606,58.753h0.859v-1.55h1.14v1.55h1.029v0.85h-1.029v2.757
		c0,0.471,0.04,0.71,0.55,0.71c0.159,0,0.319,0,0.479-0.04v0.88c-0.25,0.021-0.49,0.061-0.739,0.061c-1.189,0-1.41-0.46-1.43-1.32
		v-3.047H9.606V58.753z"/>
	<path clip-path="url(#SVGID_2_)" fill="#58595B" d="M13.456,58.753h1.069v0.999h0.021c0.13-0.551,0.809-1.141,1.509-1.141
		c0.259,0,0.33,0.021,0.429,0.031v1.099c-0.16-0.02-0.33-0.05-0.489-0.05c-0.78,0-1.399,0.629-1.399,1.77v2.459h-1.14V58.753z"/>
	<path clip-path="url(#SVGID_2_)" fill="#58595B" d="M17.686,61.631c0,0.81,0.439,1.528,1.389,1.528c0.66,0,1.059-0.29,1.259-0.858
		h1.079c-0.25,1.129-1.209,1.759-2.338,1.759c-1.619,0-2.529-1.129-2.529-2.719c0-1.47,0.96-2.729,2.499-2.729
		c1.629,0,2.628,1.471,2.439,3.02H17.686z M20.344,60.882c-0.04-0.721-0.529-1.37-1.299-1.37c-0.79,0-1.329,0.599-1.359,1.37H20.344
		z"/>
	<path clip-path="url(#SVGID_2_)" fill="#58595B" d="M21.836,58.753h0.859v-1.55h1.14v1.55h1.029v0.85h-1.029v2.757
		c0,0.471,0.04,0.71,0.55,0.71c0.159,0,0.319,0,0.479-0.04v0.88c-0.25,0.021-0.49,0.061-0.739,0.061c-1.189,0-1.409-0.46-1.43-1.32
		v-3.047h-0.859V58.753z"/>
	<path clip-path="url(#SVGID_2_)" fill="#58595B" d="M29.174,60.481c-0.09-0.63-0.55-0.971-1.18-0.971
		c-0.59,0-1.419,0.312-1.419,1.88c0,0.86,0.38,1.77,1.37,1.77c0.66,0,1.119-0.44,1.229-1.18h1.14c-0.21,1.34-1.04,2.079-2.369,2.079
		c-1.62,0-2.509-1.149-2.509-2.669c0-1.559,0.849-2.778,2.549-2.778c1.199,0,2.218,0.599,2.329,1.869H29.174z"/>
	<path clip-path="url(#SVGID_2_)" fill="#58595B" d="M31.245,56.783h1.14v2.648h0.02c0.28-0.469,0.87-0.819,1.55-0.819
		c1.119,0,1.828,0.6,1.828,1.76v3.548h-1.139v-3.248c-0.021-0.81-0.34-1.16-1.01-1.16c-0.76,0-1.249,0.6-1.249,1.359v3.049h-1.14
		V56.783z"/>
	<path clip-path="url(#SVGID_2_)" fill="#58595B" d="M41.313,62.77c0,0.28,0.06,0.391,0.27,0.391c0.069,0,0.16,0,0.278-0.021v0.79
		c-0.169,0.059-0.528,0.13-0.718,0.13c-0.46,0-0.79-0.161-0.88-0.63c-0.45,0.44-1.18,0.63-1.789,0.63c-0.93,0-1.769-0.5-1.769-1.509
		c0-1.29,1.029-1.5,1.988-1.61c0.819-0.149,1.549-0.059,1.549-0.729c0-0.59-0.609-0.7-1.069-0.7c-0.64,0-1.089,0.259-1.139,0.82
		h-1.14c0.08-1.33,1.209-1.721,2.349-1.721c1.01,0,2.069,0.41,2.069,1.499V62.77z M40.174,61.331c-0.35,0.229-0.899,0.22-1.399,0.31
		c-0.489,0.08-0.93,0.259-0.93,0.859c0,0.51,0.649,0.66,1.05,0.66c0.5,0,1.279-0.261,1.279-0.979V61.331z"/>
	<path clip-path="url(#SVGID_2_)" fill="#58595B" d="M42.575,56.782h1.139v2.64h0.021c0.31-0.499,0.959-0.81,1.539-0.81
		c1.629,0,2.419,1.239,2.419,2.749c0,1.388-0.7,2.698-2.229,2.698c-0.7,0-1.449-0.17-1.789-0.851h-0.021v0.711h-1.079V56.782z
		 M45.124,59.512c-0.96,0-1.449,0.729-1.449,1.829c0,1.04,0.529,1.818,1.449,1.818c1.039,0,1.429-0.919,1.429-1.818
		C46.553,60.401,46.063,59.512,45.124,59.512"/>
	<rect x="48.686" y="56.783" clip-path="url(#SVGID_2_)" fill="#58595B" width="1.14" height="7.137"/>
	<path clip-path="url(#SVGID_2_)" fill="#58595B" d="M51.955,61.631c0,0.81,0.439,1.528,1.39,1.528c0.659,0,1.059-0.29,1.259-0.858
		h1.079c-0.25,1.129-1.209,1.759-2.338,1.759c-1.619,0-2.529-1.129-2.529-2.719c0-1.47,0.96-2.729,2.499-2.729
		c1.629,0,2.628,1.471,2.438,3.02H51.955z M54.613,60.882c-0.04-0.721-0.529-1.37-1.299-1.37c-0.79,0-1.329,0.599-1.359,1.37H54.613
		z"/>
</g>
</svg>
