<?xml version="1.0" encoding="utf-8"?>
<!-- Generator: Adobe Illustrator 15.0.2, SVG Export Plug-In . SVG Version: 6.00 Build 0)  -->
<!DOCTYPE svg PUBLIC "-//W3C//DTD SVG 1.1//EN" "http://www.w3.org/Graphics/SVG/1.1/DTD/svg11.dtd">
<svg version="1.1" id="Livello_1" xmlns="http://www.w3.org/2000/svg" xmlns:xlink="http://www.w3.org/1999/xlink" x="0px" y="0px"
	 width="61.102px" height="53.781px" viewBox="0 0 61.102 53.781" enable-background="new 0 0 61.102 53.781" xml:space="preserve">
<g>
	<defs>
		<rect id="SVGID_1_" y="0" width="61.102" height="80.281"/>
	</defs>
	<clipPath id="SVGID_2_">
		<use xlink:href="#SVGID_1_"  overflow="visible"/>
	</clipPath>
	<path clip-path="url(#SVGID_2_)" fill="none" stroke="#5D595B" stroke-width="0.963" d="M29.923,51.741
		c13.439,0,24.33-10.891,24.33-24.332c0-13.432-10.891-24.328-24.33-24.328c-13.436,0-24.329,10.896-24.329,24.328
		C5.594,40.85,16.487,51.741,29.923,51.741z"/>
	<path clip-path="url(#SVGID_2_)" fill="none" stroke="#58595B" stroke-linecap="round" stroke-linejoin="round" d="M22.94,41.065
		c-4.957-2.541-8.35-7.701-8.35-13.654c0-8.469,6.865-15.334,15.333-15.334c8.469,0,15.334,6.865,15.334,15.334
		c0,6.607-4.179,12.237-10.037,14.393"/>
	<polygon clip-path="url(#SVGID_2_)" fill="#58595B" points="22.964,35.603 29.923,42.744 20.26,45.202 	"/>
	<g clip-path="url(#SVGID_2_)">
		<path fill="#58595B" d="M17.883,30.072l-1.726-5.286h0.737l0.824,2.604c0.227,0.713,0.423,1.356,0.564,1.976h0.016
			c0.149-0.612,0.369-1.278,0.604-1.968l0.894-2.612h0.729l-1.89,5.286H17.883z"/>
		<path fill="#58595B" d="M21.78,24.786v5.286h-0.682v-5.286H21.78z"/>
		<path fill="#58595B" d="M22.972,24.856c0.345-0.07,0.839-0.109,1.31-0.109c0.729,0,1.2,0.133,1.529,0.431
			c0.267,0.235,0.416,0.596,0.416,1.004c0,0.698-0.439,1.161-0.996,1.349v0.023c0.408,0.141,0.651,0.518,0.776,1.066
			c0.172,0.737,0.298,1.247,0.408,1.451h-0.706c-0.086-0.157-0.204-0.604-0.353-1.263c-0.157-0.729-0.439-1.004-1.059-1.027h-0.643
			v2.29h-0.682V24.856z M23.654,27.264h0.698c0.729,0,1.192-0.4,1.192-1.004c0-0.683-0.494-0.98-1.215-0.988
			c-0.33,0-0.565,0.031-0.675,0.063V27.264z"/>
		<path fill="#58595B" d="M28.265,25.366h-1.608v-0.581h3.914v0.581h-1.616v4.706h-0.69V25.366z"/>
		<path fill="#58595B" d="M31.84,24.786v3.129c0,1.184,0.525,1.686,1.231,1.686c0.784,0,1.286-0.518,1.286-1.686v-3.129h0.69v3.082
			c0,1.624-0.855,2.291-2,2.291c-1.082,0-1.898-0.62-1.898-2.259v-3.114H31.84z"/>
		<path fill="#58595B" d="M36.82,28.409l-0.549,1.663h-0.706l1.796-5.286h0.823l1.804,5.286H39.26l-0.565-1.663H36.82z
			 M38.554,27.876l-0.518-1.522c-0.118-0.345-0.196-0.659-0.274-0.964h-0.017c-0.078,0.313-0.164,0.635-0.267,0.957l-0.518,1.53
			H38.554z"/>
		<path fill="#58595B" d="M40.764,24.786h0.683v4.713h2.259v0.573h-2.941V24.786z"/>
	</g>
</g>
</svg>
