<?xml version="1.0" encoding="utf-8"?>
<!-- Generator: Adobe Illustrator 15.0.2, SVG Export Plug-In . SVG Version: 6.00 Build 0)  -->
<!DOCTYPE svg PUBLIC "-//W3C//DTD SVG 1.1//EN" "http://www.w3.org/Graphics/SVG/1.1/DTD/svg11.dtd">
<svg version="1.1" id="Livello_1" xmlns="http://www.w3.org/2000/svg" xmlns:xlink="http://www.w3.org/1999/xlink" x="0px" y="0px"
	 width="61.102px" height="66.031px" viewBox="0 0 61.102 66.031" enable-background="new 0 0 61.102 66.031" xml:space="preserve">
<g>
	<defs>
		<rect id="SVGID_1_" width="61.102" height="80.281"/>
	</defs>
	<clipPath id="SVGID_2_">
		<use xlink:href="#SVGID_1_"  overflow="visible"/>
	</clipPath>
	<g clip-path="url(#SVGID_2_)">
		<defs>
			<rect id="SVGID_3_" y="0" width="61.102" height="80.281"/>
		</defs>
		<clipPath id="SVGID_4_">
			<use xlink:href="#SVGID_3_"  overflow="visible"/>
		</clipPath>
		<path clip-path="url(#SVGID_4_)" fill="none" stroke="#58595B" stroke-width="0.963" d="M29.719,51.07
			c13.439,0,24.331-10.891,24.331-24.332c0-13.432-10.892-24.328-24.331-24.328c-13.437,0-24.33,10.896-24.33,24.328
			C5.389,40.179,16.282,51.07,29.719,51.07z"/>
		<g clip-path="url(#SVGID_4_)">
			<g>
				<defs>
					<rect id="SVGID_5_" x="15.607" y="17.625" width="10.9" height="7.913"/>
				</defs>
				<clipPath id="SVGID_6_">
					<use xlink:href="#SVGID_5_"  overflow="visible"/>
				</clipPath>
				<polygon clip-path="url(#SVGID_6_)" fill="#FFD400" points="26.283,25.537 15.607,20.52 18.451,17.625 26.507,24 				"/>
			</g>
		</g>
		<g clip-path="url(#SVGID_4_)">
			<g>
				<defs>
					<rect id="SVGID_7_" x="13.311" y="19.534" width="13.089" height="6.984"/>
				</defs>
				<clipPath id="SVGID_8_">
					<use xlink:href="#SVGID_7_"  overflow="visible"/>
				</clipPath>
				<polygon clip-path="url(#SVGID_8_)" fill="#F19300" points="25.997,26.518 13.311,25.203 15.237,19.533 26.399,25.15 				"/>
			</g>
		</g>
		<g clip-path="url(#SVGID_4_)">
			<g>
				<defs>
					<rect id="SVGID_9_" x="16.773" y="24.186" width="9.626" height="4.336"/>
				</defs>
				<clipPath id="SVGID_10_">
					<use xlink:href="#SVGID_9_"  overflow="visible"/>
				</clipPath>
				<polygon clip-path="url(#SVGID_10_)" fill="#E1001A" points="26.399,27.528 18.292,28.521 16.773,24.186 25.824,26.085 				"/>
			</g>
		</g>
		<g clip-path="url(#SVGID_4_)">
			<g>
				<defs>
					<rect id="SVGID_11_" x="13.831" y="27.189" width="12.568" height="5.247"/>
				</defs>
				<clipPath id="SVGID_12_">
					<use xlink:href="#SVGID_11_"  overflow="visible"/>
				</clipPath>
				<polygon clip-path="url(#SVGID_12_)" fill="#BD0926" points="26.399,28.583 15.112,32.436 13.832,27.853 25.909,27.189 				"/>
			</g>
		</g>
		<g clip-path="url(#SVGID_4_)">
			<g>
				<defs>
					<rect id="SVGID_13_" x="16.773" y="28.233" width="10.722" height="7.7"/>
				</defs>
				<clipPath id="SVGID_14_">
					<use xlink:href="#SVGID_13_"  overflow="visible"/>
				</clipPath>
				<polygon clip-path="url(#SVGID_14_)" fill="#673A15" points="27.496,29.195 17.813,35.933 16.773,31.347 26.276,28.233 				"/>
			</g>
		</g>
		<g clip-path="url(#SVGID_4_)">
			<g>
				<defs>
					<rect id="SVGID_15_" x="14.477" y="29.146" width="13.852" height="9.628"/>
				</defs>
				<clipPath id="SVGID_16_">
					<use xlink:href="#SVGID_15_"  overflow="visible"/>
				</clipPath>
				<polygon clip-path="url(#SVGID_16_)" fill="#41281B" points="28.328,29.76 20.719,38.774 14.476,35.933 26.901,29.146 				"/>
			</g>
		</g>
		<g clip-path="url(#SVGID_4_)">
			<g>
				<defs>
					<rect id="SVGID_17_" x="19.67" y="29.867" width="9.608" height="11.129"/>
				</defs>
				<clipPath id="SVGID_18_">
					<use xlink:href="#SVGID_17_"  overflow="visible"/>
				</clipPath>
				<polygon clip-path="url(#SVGID_18_)" fill="#604C3F" points="29.278,30.09 22.585,40.997 19.67,38.876 27.741,29.867 				"/>
			</g>
		</g>
		<g clip-path="url(#SVGID_4_)">
			<g>
				<defs>
					<rect id="SVGID_19_" x="22.903" y="30.164" width="7.378" height="11.611"/>
				</defs>
				<clipPath id="SVGID_20_">
					<use xlink:href="#SVGID_19_"  overflow="visible"/>
				</clipPath>
				<polygon clip-path="url(#SVGID_20_)" fill="#E30E6F" points="30.281,30.164 28.199,41.775 22.903,38.188 28.74,30.345 				"/>
			</g>
		</g>
		<g clip-path="url(#SVGID_4_)">
			<g>
				<defs>
					<rect id="SVGID_21_" x="27.102" y="29.974" width="5.162" height="11.755"/>
				</defs>
				<clipPath id="SVGID_22_">
					<use xlink:href="#SVGID_21_"  overflow="visible"/>
				</clipPath>
				<polygon clip-path="url(#SVGID_22_)" fill="#D40050" points="31.27,29.974 32.263,41.729 27.102,38.028 29.827,30.549 				"/>
			</g>
		</g>
		<g clip-path="url(#SVGID_4_)">
			<g>
				<defs>
					<rect id="SVGID_23_" x="30.837" y="29.536" width="6.003" height="14.534"/>
				</defs>
				<clipPath id="SVGID_24_">
					<use xlink:href="#SVGID_23_"  overflow="visible"/>
				</clipPath>
				<polygon clip-path="url(#SVGID_24_)" fill="#A00D59" points="32.176,29.536 36.84,42.162 30.837,44.07 30.931,30.465 				"/>
			</g>
		</g>
		<g clip-path="url(#SVGID_4_)">
			<g>
				<defs>
					<rect id="SVGID_25_" x="31.975" y="28.878" width="7.699" height="9.896"/>
				</defs>
				<clipPath id="SVGID_26_">
					<use xlink:href="#SVGID_25_"  overflow="visible"/>
				</clipPath>
				<polygon clip-path="url(#SVGID_26_)" fill="#92117E" points="32.937,28.878 39.674,38.561 34.563,38.774 31.975,30.097 				"/>
			</g>
		</g>
		<g clip-path="url(#SVGID_4_)">
			<g>
				<defs>
					<rect id="SVGID_27_" x="32.888" y="28.045" width="9.628" height="13.269"/>
				</defs>
				<clipPath id="SVGID_28_">
					<use xlink:href="#SVGID_27_"  overflow="visible"/>
				</clipPath>
				<polygon clip-path="url(#SVGID_28_)" fill="#622280" points="33.501,28.045 42.516,35.655 40.445,41.314 32.888,29.473 				"/>
			</g>
		</g>
		<g clip-path="url(#SVGID_4_)">
			<g>
				<defs>
					<rect id="SVGID_29_" x="33.608" y="27.095" width="9.698" height="11.679"/>
				</defs>
				<clipPath id="SVGID_30_">
					<use xlink:href="#SVGID_29_"  overflow="visible"/>
				</clipPath>
				<polygon clip-path="url(#SVGID_30_)" fill="#13235B" points="33.832,27.095 42.936,31.085 43.307,38.774 33.608,28.632 				"/>
			</g>
		</g>
		<g clip-path="url(#SVGID_4_)">
			<g>
				<defs>
					<rect id="SVGID_31_" x="33.905" y="26.092" width="11.61" height="6.633"/>
				</defs>
				<clipPath id="SVGID_32_">
					<use xlink:href="#SVGID_31_"  overflow="visible"/>
				</clipPath>
				<polygon clip-path="url(#SVGID_32_)" fill="#0D3082" points="33.905,26.092 45.516,28.175 43.015,32.725 34.087,27.634 				"/>
			</g>
		</g>
		<g clip-path="url(#SVGID_4_)">
			<g>
				<defs>
					<rect id="SVGID_33_" x="33.716" y="22.469" width="12.413" height="6.563"/>
				</defs>
				<clipPath id="SVGID_34_">
					<use xlink:href="#SVGID_33_"  overflow="visible"/>
				</clipPath>
				<polygon clip-path="url(#SVGID_34_)" fill="#0A71B3" points="33.716,25.104 45.927,22.469 46.129,29.032 34.291,26.547 				"/>
			</g>
		</g>
		<g clip-path="url(#SVGID_4_)">
			<g>
				<defs>
					<rect id="SVGID_35_" x="32.888" y="20.197" width="12.446" height="5.34"/>
				</defs>
				<clipPath id="SVGID_36_">
					<use xlink:href="#SVGID_35_"  overflow="visible"/>
				</clipPath>
				<polygon clip-path="url(#SVGID_36_)" fill="#37A8DB" points="32.888,23.754 44.375,20.196 45.333,23.025 33.337,25.537 				"/>
			</g>
		</g>
		<g clip-path="url(#SVGID_4_)">
			<g>
				<defs>
					<rect id="SVGID_37_" x="33.554" y="18.887" width="8.962" height="5.512"/>
				</defs>
				<clipPath id="SVGID_38_">
					<use xlink:href="#SVGID_37_"  overflow="visible"/>
				</clipPath>
				<polygon clip-path="url(#SVGID_38_)" fill="#009F95" points="33.554,23.264 38.652,18.887 42.516,21.971 33.839,24.399 				"/>
			</g>
		</g>
		<g clip-path="url(#SVGID_4_)">
			<g>
				<defs>
					<rect id="SVGID_39_" x="32.264" y="13.858" width="8.562" height="9.628"/>
				</defs>
				<clipPath id="SVGID_40_">
					<use xlink:href="#SVGID_39_"  overflow="visible"/>
				</clipPath>
				<polygon clip-path="url(#SVGID_40_)" fill="#36A862" points="32.263,22.469 39.396,13.858 40.826,18.516 33.214,23.486 				"/>
			</g>
		</g>
		<g clip-path="url(#SVGID_4_)">
			<g>
				<defs>
					<rect id="SVGID_41_" x="30.837" y="11.371" width="9.608" height="11.725"/>
				</defs>
				<clipPath id="SVGID_42_">
					<use xlink:href="#SVGID_41_"  overflow="visible"/>
				</clipPath>
				<polygon clip-path="url(#SVGID_42_)" fill="#00632E" points="30.837,22.542 35.824,11.371 40.445,13.756 32.263,23.097 				"/>
			</g>
		</g>
		<g clip-path="url(#SVGID_4_)">
			<g>
				<defs>
					<rect id="SVGID_43_" x="29.833" y="9.728" width="7.006" height="12.741"/>
				</defs>
				<clipPath id="SVGID_44_">
					<use xlink:href="#SVGID_43_"  overflow="visible"/>
				</clipPath>
				<polygon clip-path="url(#SVGID_44_)" fill="#00892E" points="29.833,22.469 31.488,9.728 36.84,13.65 31.376,22.287 				"/>
			</g>
		</g>
		<g clip-path="url(#SVGID_4_)">
			<g>
				<defs>
					<rect id="SVGID_45_" x="25.818" y="10.245" width="6.956" height="12.413"/>
				</defs>
				<clipPath id="SVGID_46_">
					<use xlink:href="#SVGID_45_"  overflow="visible"/>
				</clipPath>
				<polygon clip-path="url(#SVGID_46_)" fill="#40A52B" points="28.845,22.658 25.818,10.858 32.773,10.245 30.282,22.469 				"/>
			</g>
		</g>
		<g clip-path="url(#SVGID_4_)">
			<g>
				<defs>
					<rect id="SVGID_47_" x="25.018" y="9.41" width="4.167" height="13.686"/>
				</defs>
				<clipPath id="SVGID_48_">
					<use xlink:href="#SVGID_47_"  overflow="visible"/>
				</clipPath>
				<polygon clip-path="url(#SVGID_48_)" fill="#96BD0D" points="27.94,23.097 25.019,15.292 26.778,9.411 29.185,22.167 				"/>
			</g>
		</g>
		<g clip-path="url(#SVGID_4_)">
			<g>
				<defs>
					<rect id="SVGID_49_" x="21.896" y="14.019" width="6.245" height="9.735"/>
				</defs>
				<clipPath id="SVGID_50_">
					<use xlink:href="#SVGID_49_"  overflow="visible"/>
				</clipPath>
				<polygon clip-path="url(#SVGID_50_)" fill="#DEDA00" points="27.179,23.754 21.896,15.929 25.35,14.019 28.141,22.535 				"/>
			</g>
		</g>
		<g clip-path="url(#SVGID_4_)">
			<g>
				<defs>
					<rect id="SVGID_51_" x="15.96" y="13.032" width="11.267" height="10.968"/>
				</defs>
				<clipPath id="SVGID_52_">
					<use xlink:href="#SVGID_51_"  overflow="visible"/>
				</clipPath>
				<polygon clip-path="url(#SVGID_52_)" fill="#FFEC00" points="26.507,24 15.961,16.7 20.614,13.032 27.227,23.16 				"/>
			</g>
		</g>
		<g clip-path="url(#SVGID_4_)">
			<g>
				<defs>
					<rect id="SVGID_53_" x="20.275" y="16.795" width="19.116" height="19.116"/>
				</defs>
				<clipPath id="SVGID_54_">
					<use xlink:href="#SVGID_53_"  overflow="visible"/>
				</clipPath>
				<path clip-path="url(#SVGID_54_)" fill="#FFFFFF" d="M39.392,26.354c0,5.279-4.279,9.558-9.558,9.558s-9.558-4.279-9.558-9.558
					c0-5.279,4.279-9.558,9.558-9.558S39.392,21.075,39.392,26.354"/>
			</g>
		</g>
		<path clip-path="url(#SVGID_4_)" fill="#FFFFFF" d="M36.603,26.354c0,3.738-3.031,6.769-6.769,6.769s-6.769-3.031-6.769-6.769
			c0-3.738,3.031-6.769,6.769-6.769S36.603,22.616,36.603,26.354"/>
		
			<line clip-path="url(#SVGID_4_)" fill="none" stroke="#58595B" stroke-width="0.466" x1="5.011" y1="53.79" x2="55.421" y2="53.79"/>
		<g clip-path="url(#SVGID_4_)" enable-background="new    ">
			<path fill="#58595B" d="M14.908,62.98c0,0.279,0.06,0.389,0.27,0.389c0.07,0,0.16,0,0.28-0.02v0.789
				c-0.17,0.061-0.53,0.131-0.72,0.131c-0.459,0-0.79-0.16-0.879-0.629c-0.45,0.439-1.179,0.629-1.789,0.629
				c-0.93,0-1.769-0.5-1.769-1.51c0-1.289,1.029-1.498,1.989-1.609c0.82-0.148,1.549-0.059,1.549-0.729
				c0-0.59-0.61-0.699-1.069-0.699c-0.64,0-1.089,0.26-1.14,0.818H10.49c0.08-1.328,1.209-1.719,2.349-1.719
				c1.009,0,2.069,0.41,2.069,1.5V62.98z M13.769,61.541c-0.35,0.23-0.9,0.219-1.399,0.311c-0.49,0.078-0.93,0.26-0.93,0.859
				c0,0.51,0.65,0.658,1.05,0.658c0.5,0,1.279-0.26,1.279-0.979V61.541z"/>
			<path fill="#58595B" d="M16.17,56.994h1.139v7.135H16.17V56.994z"/>
			<path fill="#58595B" d="M18.58,56.994h1.139v7.135H18.58V56.994z"/>
			<path fill="#58595B" d="M27.229,60.691c-0.09-0.629-0.55-0.969-1.18-0.969c-0.589,0-1.419,0.309-1.419,1.879
				c0,0.859,0.38,1.768,1.369,1.768c0.66,0,1.12-0.439,1.229-1.178h1.139c-0.21,1.338-1.04,2.078-2.369,2.078
				c-1.619,0-2.509-1.15-2.509-2.668c0-1.561,0.85-2.779,2.549-2.779c1.199,0,2.219,0.6,2.329,1.869H27.229z"/>
			<path fill="#58595B" d="M29.06,61.541c0-1.58,0.95-2.719,2.608-2.719c1.66,0,2.609,1.139,2.609,2.719
				c0,1.59-0.949,2.729-2.609,2.729C30.01,64.27,29.06,63.131,29.06,61.541z M33.137,61.541c0-0.891-0.449-1.818-1.469-1.818
				s-1.469,0.928-1.469,1.818c0,0.898,0.449,1.828,1.469,1.828S33.137,62.439,33.137,61.541z"/>
			<path fill="#58595B" d="M35.26,56.994h1.139v7.135H35.26V56.994z"/>
			<path fill="#58595B" d="M37.4,61.541c0-1.58,0.949-2.719,2.607-2.719c1.66,0,2.609,1.139,2.609,2.719
				c0,1.59-0.949,2.729-2.609,2.729C38.35,64.27,37.4,63.131,37.4,61.541z M41.477,61.541c0-0.891-0.449-1.818-1.469-1.818
				s-1.469,0.928-1.469,1.818c0,0.898,0.449,1.828,1.469,1.828S41.477,62.439,41.477,61.541z"/>
			<path fill="#58595B" d="M43.57,58.963h1.068v0.998h0.02c0.131-0.549,0.811-1.139,1.51-1.139c0.26,0,0.33,0.02,0.43,0.029v1.1
				c-0.16-0.02-0.33-0.049-0.49-0.049c-0.779,0-1.398,0.629-1.398,1.768v2.459H43.57V58.963z"/>
			<path fill="#58595B" d="M47.949,62.471c0.061,0.66,0.561,0.898,1.17,0.898c0.43,0,1.18-0.09,1.148-0.68
				c-0.029-0.6-0.859-0.668-1.689-0.859c-0.838-0.18-1.658-0.479-1.658-1.529c0-1.129,1.219-1.479,2.158-1.479
				c1.061,0,2.02,0.439,2.16,1.59h-1.189c-0.102-0.541-0.551-0.689-1.051-0.689c-0.33,0-0.939,0.08-0.939,0.529
				c0,0.559,0.84,0.639,1.68,0.83c0.83,0.189,1.67,0.488,1.67,1.508c0,1.23-1.24,1.68-2.311,1.68c-1.299,0-2.268-0.58-2.287-1.799
				H47.949z"/>
		</g>
	</g>
</g>
</svg>
