<?xml version="1.0" encoding="utf-8"?>
<!-- Generator: Adobe Illustrator 15.0.2, SVG Export Plug-In . SVG Version: 6.00 Build 0)  -->
<!DOCTYPE svg PUBLIC "-//W3C//DTD SVG 1.1//EN" "http://www.w3.org/Graphics/SVG/1.1/DTD/svg11.dtd">
<svg version="1.1" id="Livello_1" xmlns="http://www.w3.org/2000/svg" xmlns:xlink="http://www.w3.org/1999/xlink" x="0px" y="0px"
	 width="61.102px" height="80.281px" viewBox="0 0 61.102 80.281" enable-background="new 0 0 61.102 80.281" xml:space="preserve">
<g>
	<defs>
		<rect id="SVGID_1_" y="0" width="61.102" height="80.281"/>
	</defs>
	<clipPath id="SVGID_2_">
		<use xlink:href="#SVGID_1_"  overflow="visible"/>
	</clipPath>
	<path clip-path="url(#SVGID_2_)" fill="none" stroke="#58595B" stroke-width="0.963" d="M30.215,50.629
		c13.439,0,24.331-10.891,24.331-24.332c0-13.432-10.892-24.328-24.331-24.328c-13.437,0-24.33,10.896-24.33,24.328
		C5.885,39.738,16.778,50.629,30.215,50.629z"/>
	<polyline clip-path="url(#SVGID_2_)" fill="#58595B" points="30.219,11.426 30.213,11.432 30.219,11.426 	"/>
	<path clip-path="url(#SVGID_2_)" fill="#58595B" d="M45.402,30.377c-0.082,0.039-0.061,0.172-0.1,0.243
		c-0.044,0.08-0.054,0.065-0.127,0.107c0.028-0.088,0.077-0.171,0.106-0.263c0.023-0.075,0.123-0.385,0.014-0.431
		c-0.094-0.039-0.086,0.263-0.102,0.322s-0.034,0.129-0.07,0.179c-0.029,0.039-0.077,0.059-0.102,0.099
		c0.063-0.104,0.055-0.235,0.074-0.351c0.007-0.042,0.055-0.446-0.059-0.353c-0.076,0.063-0.038,0.299-0.052,0.387
		c-0.013,0.084-0.048,0.282-0.155,0.296c0.082-0.139,0.133-0.345,0.113-0.506c-0.007-0.054-0.016-0.241-0.053-0.276
		c-0.067-0.062-0.11,0.043-0.11,0.098c-0.001,0.242-0.082,0.621-0.216,0.673c0.025-0.07,0.023-0.084,0.064-0.197
		c0.032-0.086,0.064-0.238,0.03-0.329c-0.057-0.15-0.19,0.198-0.209,0.249c-0.05,0.129-0.056,0.124-0.124,0.197
		c-0.108,0.113-0.138,0.181-0.134,0.333c0.003,0.093,0.034,0.211-0.023,0.364l-0.072,0.221c-0.159,0.347-0.753,1.342-0.984,1.039
		c-0.132-0.174-0.249-0.686-0.358-1.149c-0.107-0.458,0.012-0.917-0.181-1.348c-0.252-0.563-0.476-0.709-0.973-0.947
		c-0.285-0.136-0.422-0.263-0.491-0.425c-0.033-0.178-0.049-0.356-0.02-0.535c0.016,0.003,0.247,0.001,0.252-0.006
		c0.247-0.348,0.282-0.451,0.259-0.935c-0.015-0.293-0.024-0.768-0.104-1.09c-0.238-0.958-1.018-1.186-1.92-1.038
		c-0.706,0.116-1.418,0.642-1.352,1.456c0.029,0.362,0.242,0.708,0.404,1.047c0.121,0.254,0.175,0.891,0.398,1.012
		c-0.021-0.001-0.042-0.002-0.063-0.004c-0.356-0.035-0.635-0.278-0.958-0.391c-0.135-0.046-0.292-0.081-0.457-0.106
		c-0.383-0.386-0.692-0.816-0.84-1.3c-0.004-0.012-0.006-0.025-0.009-0.038c-0.007,0.007-0.014,0.013-0.021,0.019
		c-0.032-0.167-0.098-0.336-0.106-0.508c-0.008-0.113,0.005-0.226,0.027-0.34c0.074-0.048,0.145-0.103,0.207-0.164
		c0.287-0.28,0.275-0.755,0.204-1.131c-0.074-0.388-0.215-0.77-0.357-1.148c-0.012-0.439-0.03-0.878-0.072-1.315
		c-0.044-0.456-0.393-1.12-0.153-1.546c0.011-0.02,0.022-0.036,0.036-0.051c0.003-0.022,0.004-0.042-0.002-0.059
		c-0.044-0.132-0.161-0.108-0.201-0.202c-0.158-0.378-0.253-0.621-0.215-1.039c0.044-0.483-0.085-0.751-0.158-1.193
		c-0.072-0.434,0.07-0.861,0.006-1.3c-0.112-0.763-0.247-1.457-0.887-1.801c-0.328-0.4-0.918-0.724-1.439-0.908
		c-0.245-0.087-1.194-0.516-1.218-0.531c-0.049-0.034,0.053-0.171,0.076-0.208c0.046-0.074,0.111-0.149,0.15-0.242
		c0.079-0.183,0.148-0.386,0.198-0.567c0.02-0.068,0.038-0.136,0.057-0.205c-0.001-0.047,0.007-0.21,0.007-0.235
		c0-0.217,0.021-0.347,0.146-0.477l0.037-0.037c-0.011,0.034-0.017,0.071-0.021,0.11c0.076-0.145,0.151-0.289,0.226-0.434
		c0.007,0.032,0.024,0.06,0.025,0.094c0.095-0.209,0.021-0.444-0.073-0.647c-0.1-0.219-0.339-0.409-0.406-0.63
		c0.019,0.026,0.043,0.045,0.063,0.069c-0.047-0.22-0.099-0.346-0.268-0.523c-0.103-0.108-0.25-0.322-0.41-0.336
		c0.035-0.068,0.124-0.111,0.138-0.19c-0.132,0.035-0.319-0.009-0.464-0.002c-0.147,0.008-0.246,0.005-0.38,0.063
		c0.031-0.104,0.11-0.183,0.124-0.293c-0.142,0.149-0.276,0.166-0.47,0.204c-0.214,0.043-0.379,0.135-0.567,0.218
		c-0.003-0.046-0.001-0.094-0.005-0.139c-0.074,0.131-0.226,0.237-0.355,0.318c0.021-0.059,0.048-0.134,0.047-0.199
		c-0.35,0.477-0.848,0.994-0.791,1.64c-0.007-0.029-0.019-0.057-0.026-0.085c0,0.297-0.003,0.595,0.081,0.885
		c-0.312,0.06-0.105,0.687,0.039,1.048c-0.796,0.704-1.873,0.583-2.603,1.294c-0.762,0.743-1.185,1.952-1.516,2.974
		c-0.414,1.28-1.243,2.539-1.411,3.878c-0.143,1.147,0.519,1.331,1.246,2.176c0.432,0.502,0.703,0.87,1.118,1.048
		c-0.143,0.825-0.695,2.405-0.699,3.18c0.046,0.13,0.066,0.268,0.048,0.412c-0.016,0.137-0.034,0.274-0.052,0.41
		c0.013-0.001,0.026-0.002,0.039-0.004c0.074,0.865,0.025,1.701,0.024,2.576c-0.001,0.916,0.561,1.492,0.674,2.335
		c0.059,0.434-0.09,0.819-0.052,1.245c0.037,0.396,0.255,0.713,0.26,1.141c0.009,0.868,0.193,1.671,0.364,2.543
		c0.179,0.904,0.473,1.74,0.725,2.645c0.114,0.409,0.31,0.959,0.221,1.363c-0.102,0.457-0.28,0.458-0.051,0.958
		c0.073,0.158,0.208,0.249,0.247,0.428c0.047,0.221-0.118,0.422-0.053,0.623c0.134,0.416,0.625,0.44,1.026,0.479
		c0.322,0.032,0.888,0.215,1.204,0.135c0.527-0.135,0.387-0.559,0.403-0.912c0.022-0.438,0.076-0.757-0.042-1.261
		c-0.142-0.608,0.165-0.502,0.356-1.034c0.249-0.694-0.425-1.868-0.56-2.542c-0.167-0.842-0.299-1.802-0.584-2.635
		c-0.145-0.423-0.29-0.56-0.247-1.049c0.036-0.398,0.042-0.826,0.063-1.245c0.036-0.773,0.195-1.5,0.195-2.286
		c0-0.751-0.029-1.516,0.008-2.263c0.852,0.682,1.122,4.201,1.306,5.085c0.445,2.13,0.337,3.714,0.243,5.537
		c-0.04,0.771-0.42,1.817-0.014,2.488c0.098,0.163,0.248,0.275,0.363,0.427c0.107,0.142,0.188,0.351,0.271,0.454
		c0.257,0.323,0.537,0.428,0.987,0.468c0.342,0.029,0.974,0.028,1.092-0.363c0.114-0.377-0.469-0.792-0.421-1.144
		c0.061-0.445,0.639-0.53,0.577-1.1c-0.056-0.513-0.445-0.446-0.639-0.805c-0.314-0.585,0.4-1.85,0.431-2.506
		c0.041-0.879,0.188-1.917,0.051-2.8c-0.069-0.444-0.331-0.63-0.145-1.078c0.065-0.155-0.145-1.988-0.209-2.394
		c-0.063-0.406-0.297-0.994-0.219-1.404c0.053-0.276,0.255-0.351,0.353-0.622c0.138-0.382-0.085-0.894-0.21-1.246
		c-0.241-0.68-0.216-1.38-0.297-2.115c-0.02-0.182-0.046-0.364-0.076-0.546c0.235-0.356,0.196-0.939,0.176-1.333
		c-0.047-0.91,0.098-1.777,0.107-2.646c0.005-0.432,0.051-0.889,0.051-1.337c0-0.469-0.17-1.085,0.012-1.512
		c0.335,0.25,0.62,0.824,0.716,1.241c0.119,0.516-0.146,0.612-0.253,1.027c0.1,0.071,0.162,0.141,0.202,0.21
		c0.031,0.025,0.058,0.058,0.074,0.102c0.318,0.825,0.628,1.653,0.924,2.486l-0.008,0.011c0.112,0.322-0.065,0.73-0.145,1.102
		c-0.063-0.072-0.139-0.122-0.25-0.115c-0.057,0.45,0.336,1.485,0.576,1.965c-0.009-0.004-0.018-0.006-0.026-0.01
		c0.356,0.642,0.541,1.485,1.083,1.979c0.648,0.591,1.462,0.613,1.295,1.63c-0.145,0.877-0.431,1.747-0.775,2.583
		c-0.201,0.487-0.632,1.067-0.264,1.452c0.135,0.14,0.293,0.212,0.445,0.264c-0.181,0.493-0.385,1.07-0.389,1.584
		c-0.005,0.501,0.122,0.992,0.095,1.519c-0.021,0.385-0.078,0.917-0.104,1.392c-0.026,0.197-0.032,0.383-0.009,0.549v0.01h0.002
		c0.004,0.026,0.007,0.053,0.013,0.078c0.086,0.386,0.517,0.476,0.665,0.79c0.082,0.174-0.039,0.428,0.011,0.612
		c0.053,0.197,0.21,0.341,0.326,0.516c0.174,0.259,0.507,0.68,0.504,0.988c-0.003,0.367-0.358,0.62-0.532,0.922
		c-0.187,0.325-0.399,0.736,0.066,0.842c0.349,0.078,0.688-0.271,0.995-0.41c0.022,0.036,0.048,0.073,0.08,0.107
		c0.288,0.314,0.749,0.286,1.049,0.078c0.809-0.561,0.864-1.313,0.987-2.168c0.121-0.839,0.438-1.679,0.312-2.543
		c-0.072-0.494-0.008-0.699,0.107-1.189c0.097-0.41-0.003-0.827-0.003-1.249c0-0.406,0.062-0.849,0.102-1.245
		c0.048-0.48-0.081-0.854-0.101-1.297c-0.027-0.599,0.032-1.682,0.362-2.186c0.388,0.686,0.921,1.475,1.41,1.395
		c0.544-0.087,1.432-1.853,1.556-2.221c0.004-0.003,0.007-0.007,0.011-0.009c0.228-0.173,0.359-0.193,0.454-0.449
		c0.046-0.122,0.126-0.307,0.168-0.436C45.428,30.627,45.474,30.433,45.402,30.377 M26.535,21.826
		c-1.245-1.139-0.247-2.55,0.049-3.18c0.031,0.441,0.124,1.202-0.171,1.504c0.087,0.012,0.175,0.059,0.242,0.072
		C26.304,20.529,26.535,21.826,26.535,21.826"/>
	<path clip-path="url(#SVGID_2_)" fill="#58595B" d="M24.974,42.369c-0.574-0.161-0.878-0.638-1.191-1.101
		c-0.213-0.05-0.277-0.24-0.358-0.497c-0.194-0.61-0.175-1.566-0.118-2.129c0.25-0.045,0.865-0.05,0.695-0.472
		c-0.232-0.573-0.084-1.329-0.108-1.935c-0.058-1.456-0.262-2.704,0.089-4.146c0.339-1.394,1.012-2.694,1.178-4.131
		c0.071-0.621,0.266-1.302,0.179-1.925c-0.091-0.644-0.451-1.199-0.66-1.805c0.046-0.185,0.233-0.672,0.174-0.92
		c-0.088-0.365-0.359-0.449-0.285-0.854c0.116-0.639,0.367-1.249,0.322-1.91c-0.034-0.494-0.249-0.969-0.369-1.445
		c-0.135-0.531-0.354-1.017-0.456-1.538c-0.058-0.293-0.067-0.589-0.128-0.898c0-0.003-0.001-0.006-0.002-0.01
		c0.086,0.09,0.176,0.174,0.27,0.254c0.065,0.052,0.097,0.079,0.162,0.132c-0.061-0.057-0.092-0.085-0.153-0.142
		c-0.105-0.096-0.203-0.2-0.293-0.309c-0.016-0.064-0.036-0.131-0.059-0.197c0.036,0.04,0.06,0.068,0.1,0.114
		c-0.043-0.055-0.066-0.084-0.108-0.138c-0.11-0.309-0.286-0.62-0.458-0.788c-0.052-0.116-0.1-0.234-0.145-0.354
		c0.016,0.008,0.033,0.015,0.049,0.02c0.051,0.108,0.103,0.216,0.159,0.321c0.083,0.157,0.178,0.308,0.278,0.452
		c0.042,0.057,0.064,0.084,0.106,0.14c-0.039-0.058-0.059-0.087-0.099-0.144c-0.092-0.149-0.179-0.303-0.254-0.462
		c-0.044-0.095-0.086-0.191-0.126-0.287c0.006,0.002,0.012,0.004,0.018,0.005c0.017,0.03,0.034,0.058,0.06,0.096
		c-0.022-0.038-0.038-0.065-0.053-0.094c0.007,0.002,0.015,0.003,0.022,0.005c0.114,0.225,0.238,0.441,0.382,0.639
		c0.103,0.135,0.211,0.266,0.33,0.384c0.045,0.049,0.073,0.07,0.123,0.114c-0.048-0.047-0.073-0.069-0.115-0.121
		c-0.112-0.122-0.213-0.258-0.307-0.397c-0.122-0.19-0.226-0.394-0.323-0.605c0.013,0.002,0.026,0.004,0.038,0.005
		c0.025,0.036,0.05,0.072,0.077,0.108c0.047,0.064,0.076,0.092,0.126,0.153c-0.047-0.064-0.074-0.093-0.118-0.16
		c-0.023-0.033-0.045-0.067-0.066-0.101c0.017-0.001,0.034-0.001,0.048-0.002c0.023,0.031,0.046,0.063,0.07,0.093
		c0.136,0.169,0.292,0.323,0.461,0.46c0.07,0.051,0.105,0.077,0.176,0.128c-0.068-0.055-0.101-0.083-0.168-0.137
		c-0.161-0.145-0.308-0.306-0.432-0.479c-0.016-0.022-0.031-0.046-0.046-0.068c0.027-0.002,0.055-0.003,0.087-0.005
		c0.003,0.003,0.004,0.005,0.006,0.008c0.046,0.059,0.074,0.085,0.123,0.141c-0.046-0.059-0.073-0.086-0.115-0.147
		c0-0.001-0.001-0.002-0.002-0.003c0.003,0,0.005,0,0.008,0c-0.003,0-0.005,0-0.008,0c-0.11-0.148-0.199-0.311-0.278-0.475
		c-0.174-0.373-0.274-0.774-0.356-1.177c0.007,0.022,0.016,0.044,0.025,0.065c0.071,0.259,0.153,0.513,0.257,0.755
		c0.073,0.165,0.156,0.328,0.252,0.479c0.039,0.06,0.061,0.088,0.102,0.146c-0.038-0.06-0.058-0.089-0.094-0.151
		c-0.089-0.154-0.163-0.319-0.228-0.486c-0.108-0.294-0.187-0.601-0.254-0.914c0.127,0.467,0.288,0.923,0.538,1.302
		c0.093,0.144,0.2,0.279,0.32,0.397c0.046,0.049,0.07,0.072,0.122,0.115c-0.049-0.046-0.071-0.071-0.115-0.121
		c-0.111-0.123-0.21-0.262-0.293-0.409c-0.281-0.483-0.417-1.067-0.559-1.653c-0.143-0.588-0.293-1.209-0.592-1.766
		c-0.032-0.061-0.067-0.121-0.103-0.18c-0.095-0.394-0.281-0.732-0.534-0.895c-0.194-0.124-0.405-0.196-0.619-0.221
		c-0.03-0.027-0.059-0.053-0.089-0.065c-0.103-0.043-0.305-0.031-0.441-0.01c-0.204,0.03-0.401,0.139-0.562,0.256
		c-0.213,0.156-0.384,0.374-0.531,0.607c-0.016,0.018-0.031,0.035-0.046,0.053c-0.432,0.457-0.699,1.111-0.855,1.696
		c-0.193,0.598-0.329,1.184-0.596,1.712c-0.077,0.162-0.164,0.318-0.26,0.462c-0.037,0.059-0.057,0.086-0.098,0.14
		c0.044-0.052,0.066-0.078,0.107-0.135c0.102-0.14,0.198-0.294,0.283-0.452c0.157-0.296,0.311-0.615,0.408-0.939
		c-0.024,0.094-0.052,0.187-0.081,0.28c-0.003,0.007-0.005,0.014-0.008,0.02c-0.019,0.047-0.028,0.07-0.047,0.117
		c0.011-0.023,0.02-0.041,0.03-0.058c-0.103,0.303-0.23,0.601-0.373,0.88c-0.085,0.159-0.182,0.312-0.291,0.449
		c-0.044,0.053-0.065,0.082-0.114,0.129c0.052-0.044,0.074-0.072,0.122-0.123c0.116-0.131,0.222-0.282,0.316-0.437l0.074-0.128
		c-0.103,0.217-0.22,0.428-0.365,0.612c-0.025,0.03-0.05,0.06-0.077,0.089c-0.032-0.004-0.066-0.006-0.098-0.006
		c-0.722,0.005-1.152,0.468-1.341,0.946c-0.101,0.255-0.124,0.539-0.203,0.802c-0.159,0.529-0.358,1.026-0.575,1.493
		c-0.114,0.246-0.19,0.508-0.309,0.729c-0.107,0.199-0.277,0.347-0.324,0.528c-0.119,0.465,0.244,0.731,0.437,0.996
		c0.579,0.792,1.147,1.47,1.774,2.187c0.258,0.294,0.571,0.701,0.872,0.882c0.193,0.116,0.295,0.357,0.533,0.384
		c-0.061,0.139-0.073,0.367-0.122,0.533c-0.082,0.279,0.041,0.272,0.231,0.407c-0.015,1.047-0.457,1.99-0.412,3.154
		c0.059,1.476,0.393,2.914,0.523,4.377c0.14,1.573,0.085,3.276-0.089,4.845c-0.061,0.555-0.158,1.056-0.115,1.641
		c0.017,0.235,0.732,0.329,0.918,0.395c0.01,0.329,0.116,0.644,0.19,0.961c0.112,0.485-0.044,0.736-0.091,1.189
		c-0.012,0.106,0.024,0.22,0.023,0.319c-0.003,0.326-0.01,0.699-0.131,0.958c-0.108,0.232-0.701,0.521-0.477,0.902
		c0.091,0.155,0.457,0.143,0.617,0.156c0.478,0.037,0.996,0.068,1.212-0.23c0.173-0.243-0.007-0.619-0.073-0.983
		c-0.022-0.122-0.05-0.255-0.068-0.378c-0.022-0.148-0.07-0.311-0.07-0.397c0.001-0.126,0.063-0.215,0.06-0.286
		c-0.012-0.283-0.146-0.473-0.136-0.78c0.018-0.513,0.207-1.006,0.187-1.523c0.712-0.312,0.346-1.306,0.496-2.012
		c0.133,0.346-0.171,0.842,0.065,1.144c0.127,0.163,0.411,0.075,0.655,0.134c0.141,0.686,0.25,1.521,0.25,2.299
		c0.001,0.076-0.112,0.054-0.111,0.129c-0.048,0.375-0.202,0.618-0.237,0.885c-0.059,0.448,0.243,0.566,0.615,0.68
		c0.24,0.072,0.55,0.116,0.76,0.185c0.531,0.177,1.045,0.357,1.576,0.327c0.258-0.014,0.691-0.116,0.702-0.313
		C25.596,42.6,25.08,42.526,24.974,42.369 M23.293,15.494c-0.001-0.001-0.002-0.001-0.002-0.001
		c-0.004-0.007-0.006-0.014-0.009-0.02C23.285,15.48,23.289,15.487,23.293,15.494 M18.952,13.969l0.02-0.046
		c-0.011,0.03-0.022,0.059-0.033,0.088C18.944,13.997,18.948,13.983,18.952,13.969 M18.885,13.882
		c-0.001,0.005-0.003,0.01-0.004,0.015c-0.005,0.01-0.01,0.019-0.015,0.029C18.872,13.911,18.879,13.897,18.885,13.882
		 M18.884,14.772l-0.009,0.036l-0.061,0.17l-0.007,0.006C18.833,14.914,18.857,14.844,18.884,14.772L18.884,14.772z M18.855,14.626
		c-0.026,0.071-0.05,0.142-0.074,0.212c-0.018,0.027-0.036,0.054-0.055,0.08c0.012-0.035,0.024-0.069,0.036-0.103
		c0.014-0.041,0.029-0.084,0.044-0.126C18.823,14.668,18.839,14.647,18.855,14.626 M18.664,14.999
		c-0.008,0.011-0.016,0.021-0.024,0.031c0.03-0.081,0.06-0.164,0.091-0.249l0.017-0.02C18.719,14.841,18.692,14.921,18.664,14.999
		 M18.676,15.025l-0.009,0.031c-0.005,0.001-0.011,0.002-0.017,0.003l0.004-0.009C18.662,15.042,18.669,15.034,18.676,15.025
		 M18.673,14.552c-0.063,0.096-0.134,0.189-0.208,0.275c0.064-0.119,0.122-0.24,0.176-0.362c0.024-0.059,0.048-0.117,0.072-0.177
		c0.012-0.015,0.024-0.031,0.036-0.047c0.019-0.025,0.038-0.052,0.057-0.078C18.766,14.293,18.721,14.423,18.673,14.552
		 M18.711,14.623l-0.002,0.004l-0.001,0.002C18.709,14.627,18.71,14.625,18.711,14.623 M18.608,14.451
		c-0.055,0.142-0.116,0.285-0.186,0.424c-0.019,0.022-0.038,0.043-0.058,0.064c-0.048,0.048-0.072,0.072-0.119,0.12
		c0.052-0.044,0.077-0.066,0.13-0.11c0.006-0.005,0.012-0.012,0.018-0.017c-0.009,0.017-0.017,0.034-0.026,0.051
		c-0.04,0.069-0.055,0.105-0.099,0.172c0.047-0.065,0.065-0.1,0.108-0.167c0.015-0.028,0.031-0.056,0.047-0.083
		c0.064-0.061,0.127-0.125,0.187-0.193c-0.019,0.045-0.038,0.09-0.058,0.135c-0.044,0.057-0.09,0.113-0.14,0.166
		c-0.09,0.101-0.19,0.194-0.298,0.274c-0.03-0.004-0.061-0.008-0.092-0.014c0.011-0.012,0.023-0.027,0.037-0.043
		c0.122-0.147,0.227-0.309,0.32-0.474c0.033-0.06,0.064-0.12,0.094-0.18c0.054-0.056,0.105-0.115,0.154-0.177
		C18.621,14.416,18.614,14.434,18.608,14.451 M18.441,15.08c-0.033,0.062-0.068,0.124-0.106,0.186
		c-0.019,0.01-0.039,0.018-0.062,0.022c-0.033,0.006-0.068,0.006-0.105,0.004C18.264,15.229,18.356,15.158,18.441,15.08
		 M18.527,14.999L18.527,14.999c0.03-0.029,0.059-0.059,0.088-0.089c-0.02,0.061-0.04,0.121-0.06,0.179
		c-0.068,0.041-0.115,0.101-0.171,0.145C18.435,15.157,18.483,15.078,18.527,14.999 M18.641,14.882
		c0.006-0.006,0.012-0.013,0.018-0.019c-0.023,0.071-0.045,0.142-0.067,0.211c-0.01,0.003-0.019,0.006-0.027,0.01
		C18.59,15.018,18.615,14.951,18.641,14.882 M18.721,14.878l-0.023,0.077c-0.005,0.006-0.009,0.012-0.014,0.018L18.721,14.878z
		 M18.697,15.002c0.017-0.018,0.033-0.037,0.049-0.056c-0.001,0.003-0.002,0.006-0.003,0.008c-0.009,0.029-0.018,0.058-0.028,0.087
		c-0.012,0.004-0.023,0.009-0.036,0.012C18.685,15.036,18.691,15.019,18.697,15.002 M18.763,14.961l0.024-0.063l0.003-0.005
		c-0.014,0.045-0.028,0.089-0.041,0.132c-0.004,0.003-0.007,0.005-0.011,0.008c0,0-0.001,0-0.002,0
		C18.745,15.009,18.754,14.985,18.763,14.961 M18.701,14.065c0.009-0.015,0.017-0.031,0.025-0.047
		c0.029-0.058,0.057-0.118,0.083-0.178c-0.038,0.138-0.082,0.276-0.13,0.412c-0.052,0.082-0.107,0.164-0.166,0.241
		C18.583,14.353,18.646,14.21,18.701,14.065 M18.556,14.246c-0.012,0.031-0.025,0.061-0.037,0.092
		c-0.009,0.015-0.018,0.031-0.027,0.046c-0.003,0.005-0.005,0.008-0.007,0.012C18.509,14.346,18.532,14.296,18.556,14.246
		 M17.978,15.192c0.194-0.218,0.346-0.473,0.48-0.74c0.01-0.013,0.022-0.028,0.034-0.044c-0.033,0.08-0.067,0.16-0.104,0.239
		c-0.028,0.032-0.048,0.056-0.081,0.095c0.028-0.027,0.047-0.046,0.068-0.067c-0.01,0.021-0.018,0.042-0.029,0.063
		c-0.083,0.168-0.179,0.333-0.294,0.485c-0.014,0.019-0.026,0.035-0.038,0.049c-0.032-0.005-0.065-0.01-0.097-0.015
		C17.938,15.236,17.958,15.214,17.978,15.192 M17.243,20.445c-0.123-0.14-0.54-0.437-0.494-0.69c0.012-0.065,0.224-0.24,0.299-0.324
		c0.299-0.341,0.531-0.701,0.746-1.083c-0.03-0.082-0.035-0.156-0.018-0.241c0.002,0.001,0.02-0.003,0.02-0.002
		c0.175,0.548,0.295,1.122,0.353,1.768c0.083,0.933,0.479,1.734,0.709,2.508C18.377,21.732,17.809,21.085,17.243,20.445
		 M19.006,14.944L19.006,14.944L19.006,14.944L19.006,14.944z M19.002,14.642c-0.036,0.1-0.069,0.198-0.101,0.295
		c-0.01,0.001-0.019,0.002-0.029,0.005c-0.003,0-0.006,0.003-0.008,0.004l0.037-0.11c0.03-0.073,0.062-0.148,0.094-0.221
		c0.008-0.006,0.015-0.012,0.022-0.017L19.002,14.642z M19.062,14.949h-0.003l0.022-0.06C19.073,14.909,19.068,14.929,19.062,14.949
		 M19.18,14.774l-0.014,0.04c0.008-0.024,0.014-0.041,0.021-0.06C19.185,14.76,19.183,14.766,19.18,14.774 M19.382,14.794
		c-0.001-0.005-0.001-0.009-0.003-0.014c0.004-0.006,0.008-0.011,0.012-0.016C19.388,14.774,19.385,14.784,19.382,14.794
		 M19.453,14.73c-0.011,0.011-0.022,0.022-0.033,0.032c0.006-0.018,0.013-0.035,0.019-0.053c0.007-0.002,0.014-0.004,0.022-0.006
		C19.458,14.712,19.455,14.721,19.453,14.73 M19.609,11.093L19.609,11.093L19.609,11.093L19.609,11.093z M22.241,15.341
		c-0.016-0.003-0.032-0.006-0.047-0.01c0.003-0.031,0.008-0.062,0.018-0.084c0.001,0.012,0.006,0.029-0.005,0.031
		c0.015,0.009,0.015-0.022,0.021-0.045c0,0.002,0.001,0.005,0.002,0.008c-0.001-0.004-0.001-0.007-0.002-0.01
		c0.003-0.012,0.007-0.022,0.016-0.024C22.267,15.246,22.254,15.294,22.241,15.341 M22.423,15.355c0-0.004,0.001-0.009,0.001-0.013
		l0.007,0.013C22.428,15.355,22.426,15.355,22.423,15.355 M22.479,15.356c-0.008-0.056-0.015-0.113-0.023-0.168
		c0.01-0.035,0.022-0.07,0.034-0.104c0.023,0.091,0.045,0.182,0.067,0.274C22.53,15.357,22.505,15.357,22.479,15.356 M22.534,11.314
		c-0.001-0.002-0.001-0.004-0.002-0.006c0.01,0.017,0.019,0.035,0.028,0.052C22.551,11.345,22.542,11.33,22.534,11.314
		 M23.354,15.24c-0.008-0.021-0.017-0.042-0.026-0.063c0.003,0.004,0.005,0.009,0.007,0.013c0.013,0.02,0.023,0.038,0.033,0.054
		C23.363,15.243,23.359,15.241,23.354,15.24 M23.495,15.276c-0.026-0.058-0.052-0.116-0.077-0.176
		c0.035,0.061,0.071,0.122,0.112,0.181C23.518,15.28,23.507,15.278,23.495,15.276 M23.551,15.284
		c-0.08-0.13-0.148-0.266-0.209-0.402l-0.023-0.057c0.003,0.002,0.006,0.003,0.009,0.005c0.078,0.159,0.168,0.311,0.272,0.455
		C23.585,15.285,23.569,15.284,23.551,15.284 M23.315,14.814l-0.032-0.076c0.014,0.028,0.028,0.056,0.041,0.084
		C23.321,14.82,23.318,14.817,23.315,14.814 M23.455,14.827c0.088,0.159,0.184,0.316,0.299,0.458c-0.033,0-0.062,0-0.09,0
		c-0.192-0.292-0.327-0.614-0.423-0.943C23.303,14.508,23.374,14.67,23.455,14.827 M23.401,15.254
		c-0.008-0.002-0.016-0.003-0.024-0.006c-0.01-0.019-0.02-0.039-0.034-0.063c-0.024-0.049-0.048-0.1-0.071-0.15
		c-0.044-0.113-0.086-0.229-0.129-0.347C23.225,14.881,23.31,15.071,23.401,15.254 M22.899,13.585
		c0.004,0.02,0.009,0.041,0.013,0.061C22.907,13.626,22.903,13.605,22.899,13.585c-0.001-0.002-0.001-0.002-0.001-0.002
		C22.899,13.583,22.899,13.584,22.899,13.585 M22.797,14.821c0.015,0.047,0.03,0.094,0.046,0.141c-0.007-0.01-0.015-0.02-0.021-0.03
		c-0.012-0.043-0.023-0.085-0.035-0.128C22.791,14.809,22.793,14.815,22.797,14.821 M22.723,15.361
		c-0.013-0.072-0.026-0.143-0.041-0.215l0.064,0.216C22.739,15.362,22.731,15.362,22.723,15.361 M22.807,15.365
		c-0.045-0.212-0.091-0.425-0.146-0.637c0.005-0.008,0.009-0.017,0.014-0.025c0.064,0.177,0.125,0.355,0.183,0.532
		c0.014,0.045,0.029,0.092,0.044,0.138C22.871,15.37,22.839,15.367,22.807,15.365 M22.935,15.376
		c-0.013-0.05-0.026-0.101-0.038-0.151c-0.021-0.085-0.043-0.171-0.066-0.258c0.007,0.009,0.015,0.019,0.023,0.028
		c0.043,0.13,0.089,0.26,0.139,0.39C22.973,15.382,22.954,15.379,22.935,15.376 M22.966,14.002
		c-0.008-0.044-0.016-0.087-0.023-0.131c0.012,0.031,0.025,0.062,0.04,0.093c0.016,0.069,0.035,0.138,0.054,0.207
		C23.013,14.115,22.989,14.058,22.966,14.002 M23.051,14.66c0.075,0.188,0.152,0.373,0.236,0.553
		c-0.017-0.007-0.033-0.015-0.049-0.023C23.173,15.015,23.112,14.838,23.051,14.66"/>
	<path clip-path="url(#SVGID_2_)" fill="#58595B" d="M6.206,59.011h0.85V58.58c0-1.318,0.689-1.54,1.429-1.54
		c0.36,0,0.619,0.021,0.799,0.071V58c-0.149-0.039-0.3-0.059-0.529-0.059c-0.31,0-0.56,0.109-0.56,0.539v0.53h0.969v0.85H8.195
		v4.317H7.056V59.86h-0.85V59.011z"/>
	<path clip-path="url(#SVGID_2_)" fill="#58595B" d="M14.193,63.027c0,0.28,0.059,0.391,0.269,0.391c0.07,0,0.16,0,0.279-0.021v0.79
		c-0.169,0.06-0.529,0.13-0.718,0.13c-0.46,0-0.79-0.161-0.88-0.63c-0.45,0.44-1.18,0.63-1.789,0.63c-0.93,0-1.769-0.5-1.769-1.509
		c0-1.29,1.03-1.5,1.989-1.61c0.819-0.149,1.548-0.059,1.548-0.729c0-0.59-0.609-0.7-1.069-0.7c-0.64,0-1.089,0.259-1.139,0.82
		H9.775c0.08-1.33,1.209-1.72,2.348-1.72c1.01,0,2.07,0.409,2.07,1.498V63.027z M13.053,61.589c-0.35,0.229-0.899,0.22-1.399,0.31
		c-0.49,0.08-0.93,0.259-0.93,0.859c0,0.51,0.649,0.66,1.05,0.66c0.5,0,1.279-0.261,1.279-0.979V61.589z"/>
	<path clip-path="url(#SVGID_2_)" fill="#58595B" d="M15.424,59.011h1.079v0.719h0.03c0.34-0.509,0.77-0.86,1.589-0.86
		c0.63,0,1.22,0.271,1.449,0.86c0.38-0.53,0.871-0.86,1.62-0.86c1.089,0,1.729,0.481,1.729,1.74v3.568h-1.14v-3.02
		c0-0.818-0.049-1.389-0.939-1.389c-0.77,0-1.1,0.51-1.1,1.38v3.028h-1.138v-3.318c0-0.71-0.221-1.09-0.91-1.09
		c-0.59,0-1.129,0.479-1.129,1.34v3.068h-1.14V59.011z"/>
	<path clip-path="url(#SVGID_2_)" fill="#58595B" d="M24.155,57.041h1.139v1.08h-1.139V57.041z M24.155,59.01h1.139v5.168h-1.139
		V59.01z"/>
	<rect x="26.565" y="57.041" clip-path="url(#SVGID_2_)" fill="#58595B" width="1.139" height="7.138"/>
	<path clip-path="url(#SVGID_2_)" fill="#58595B" d="M28.375,59.011h1.249l1.35,3.856h0.019l1.31-3.856h1.189l-2.009,5.445
		c-0.37,0.931-0.639,1.771-1.829,1.771c-0.27,0-0.53-0.021-0.79-0.062v-0.959c0.18,0.031,0.361,0.071,0.54,0.071
		c0.53,0,0.659-0.281,0.8-0.72l0.131-0.401L28.375,59.011z"/>
	<path clip-path="url(#SVGID_2_)" fill="#58595B" d="M37.775,62.519c0.061,0.659,0.559,0.898,1.17,0.898
		c0.43,0,1.178-0.089,1.148-0.679c-0.029-0.6-0.859-0.67-1.689-0.86c-0.84-0.179-1.658-0.479-1.658-1.528
		c0-1.129,1.219-1.479,2.158-1.479c1.061,0,2.02,0.44,2.158,1.589h-1.189c-0.1-0.54-0.549-0.689-1.049-0.689
		c-0.33,0-0.939,0.08-0.939,0.529c0,0.561,0.84,0.641,1.68,0.829c0.83,0.191,1.668,0.491,1.668,1.511
		c0,1.229-1.238,1.679-2.309,1.679c-1.299,0-2.268-0.58-2.287-1.799H37.775z"/>
	<path clip-path="url(#SVGID_2_)" fill="#58595B" d="M42.137,57.041h1.14v1.08h-1.14V57.041z M42.137,59.01h1.14v5.168h-1.14V59.01z
		"/>
	<polygon clip-path="url(#SVGID_2_)" fill="#58595B" points="44.336,59.011 48.533,59.011 48.533,59.81 45.576,63.278 
		48.684,63.278 48.684,64.178 44.137,64.178 44.137,63.378 46.994,59.909 44.336,59.909 	"/>
	<path clip-path="url(#SVGID_2_)" fill="#58595B" d="M50.406,61.889c0,0.81,0.439,1.528,1.389,1.528c0.66,0,1.059-0.29,1.26-0.858
		h1.078c-0.25,1.129-1.209,1.759-2.338,1.759c-1.619,0-2.529-1.129-2.529-2.719c0-1.47,0.961-2.729,2.5-2.729
		c1.629,0,2.627,1.47,2.438,3.02H50.406z M53.064,61.14c-0.041-0.721-0.529-1.37-1.299-1.37c-0.791,0-1.33,0.599-1.359,1.37H53.064z
		"/>
	
		<line clip-path="url(#SVGID_2_)" fill="none" stroke="#58595B" stroke-width="0.466" x1="5.011" y1="53.79" x2="55.421" y2="53.79"/>
</g>
</svg>
