<?xml version="1.0" encoding="utf-8"?>
<!-- Generator: Adobe Illustrator 15.0.2, SVG Export Plug-In . SVG Version: 6.00 Build 0)  -->
<!DOCTYPE svg PUBLIC "-//W3C//DTD SVG 1.1//EN" "http://www.w3.org/Graphics/SVG/1.1/DTD/svg11.dtd">
<svg version="1.1" id="Livello_1" xmlns="http://www.w3.org/2000/svg" xmlns:xlink="http://www.w3.org/1999/xlink" x="0px" y="0px"
	 width="61.102px" height="80.281px" viewBox="0 0 61.102 80.281" enable-background="new 0 0 61.102 80.281" xml:space="preserve">
<g>
	<defs>
		<rect id="SVGID_1_" y="0" width="61.102" height="80.281"/>
	</defs>
	<clipPath id="SVGID_2_">
		<use xlink:href="#SVGID_1_"  overflow="visible"/>
	</clipPath>
	<path clip-path="url(#SVGID_2_)" fill="#58595B" d="M14.712,59.204h1.079v0.699h0.021c0.319-0.588,0.939-0.838,1.598-0.838
		c1.629,0,2.419,1.239,2.419,2.748c0,1.389-0.7,2.699-2.229,2.699c-0.659,0-1.369-0.24-1.729-0.811h-0.02v2.578h-1.139V59.204z
		 M17.261,59.965c-0.96,0-1.449,0.729-1.449,1.829c0,1.039,0.529,1.817,1.449,1.817c1.039,0,1.429-0.918,1.429-1.817
		C18.69,60.854,18.2,59.965,17.261,59.965"/>
	<path clip-path="url(#SVGID_2_)" fill="#58595B" d="M20.552,61.784c0-1.579,0.95-2.719,2.609-2.719c1.659,0,2.609,1.14,2.609,2.719
		c0,1.589-0.95,2.729-2.609,2.729C21.502,64.513,20.552,63.373,20.552,61.784 M24.63,61.784c0-0.891-0.449-1.819-1.469-1.819
		c-1.019,0-1.469,0.929-1.469,1.819c0,0.898,0.45,1.828,1.469,1.828C24.181,63.612,24.63,62.683,24.63,61.784"/>
	<path clip-path="url(#SVGID_2_)" fill="#58595B" d="M30.21,60.935c-0.09-0.63-0.55-0.971-1.18-0.971
		c-0.59,0-1.419,0.311-1.419,1.88c0,0.859,0.38,1.769,1.37,1.769c0.66,0,1.119-0.44,1.229-1.179h1.14
		c-0.21,1.339-1.04,2.079-2.369,2.079c-1.62,0-2.509-1.149-2.509-2.669c0-1.56,0.849-2.778,2.549-2.778
		c1.199,0,2.218,0.599,2.329,1.869H30.21z"/>
	<polygon clip-path="url(#SVGID_2_)" fill="#58595B" points="32.312,57.236 33.45,57.236 33.45,61.294 35.511,59.205 36.909,59.205 
		34.931,61.104 37.099,64.372 35.71,64.372 34.13,61.863 33.45,62.523 33.45,64.372 32.312,64.372 	"/>
	<path clip-path="url(#SVGID_2_)" fill="#58595B" d="M38.542,62.084c0,0.81,0.439,1.527,1.389,1.527c0.66,0,1.059-0.289,1.26-0.858
		h1.078c-0.25,1.13-1.209,1.76-2.338,1.76c-1.619,0-2.529-1.13-2.529-2.719c0-1.47,0.961-2.729,2.5-2.729
		c1.629,0,2.627,1.47,2.438,3.02H38.542z M41.2,61.334c-0.041-0.721-0.529-1.369-1.299-1.369c-0.791,0-1.33,0.599-1.359,1.369H41.2z
		"/>
	<path clip-path="url(#SVGID_2_)" fill="#58595B" d="M42.692,59.205h0.859v-1.549h1.139v1.549h1.029v0.85H44.69v2.758
		c0,0.471,0.041,0.709,0.551,0.709c0.158,0,0.318,0,0.479-0.04v0.881c-0.25,0.02-0.49,0.06-0.738,0.06
		c-1.189,0-1.41-0.459-1.43-1.32v-3.047h-0.859V59.205z"/>
	<path clip-path="url(#SVGID_2_)" fill="none" stroke="#58585A" stroke-width="0.963" d="M30.215,50.629
		c13.439,0,24.331-10.891,24.331-24.332c0-13.432-10.892-24.328-24.331-24.328c-13.437,0-24.33,10.896-24.33,24.328
		C5.885,39.738,16.778,50.629,30.215,50.629z"/>
	<path clip-path="url(#SVGID_2_)" fill="#FFFFFF" d="M38.696,20.889c0,0,0.327,0.52,0.253,1.223
		c-0.169,1.603-2.873,1.684-2.873,1.684"/>
	<path clip-path="url(#SVGID_2_)" fill="none" stroke="#58585A" stroke-width="0.325" d="M38.696,20.889c0,0,0.327,0.52,0.253,1.223
		c-0.169,1.603-2.873,1.684-2.873,1.684"/>
	<path clip-path="url(#SVGID_2_)" fill="#FFFFFF" d="M37.431,18.143c0,0,2.292-0.1,2.339,1.298c0.047,1.361-1.073,1.449-1.073,1.449
		l-2.754-0.007"/>
	<path clip-path="url(#SVGID_2_)" fill="none" stroke="#58585A" stroke-width="0.325" d="M37.431,18.143c0,0,2.292-0.1,2.339,1.298
		c0.047,1.361-1.073,1.449-1.073,1.449l-2.754-0.007"/>
	<path clip-path="url(#SVGID_2_)" fill="#FFFFFF" d="M38.527,14.772c0,0,1.24,0.463,1.224,1.266
		c-0.058,2.802-3.678,2.141-3.665,1.878"/>
	<path clip-path="url(#SVGID_2_)" fill="none" stroke="#58585A" stroke-width="0.325" d="M38.527,14.772c0,0,1.24,0.463,1.224,1.266
		c-0.058,2.802-3.678,2.141-3.665,1.878"/>
	<polygon clip-path="url(#SVGID_2_)" fill="#FFFFFF" points="19.226,24.776 19.579,24.104 40.5,24.104 41.205,24.776 41.205,38.624 
		30.182,45.883 19.226,38.489 	"/>
	<polygon clip-path="url(#SVGID_2_)" fill="none" stroke="#58585A" stroke-width="0.325" points="19.226,24.776 19.579,24.104 
		40.5,24.104 41.205,24.776 41.205,38.624 30.182,45.883 19.226,38.489 	"/>
	<polygon clip-path="url(#SVGID_2_)" fill="#FFFFFF" points="21.535,26.77 21.805,26.256 37.818,26.256 38.358,26.77 38.358,37.369 
		29.921,42.925 21.535,37.266 	"/>
	<polygon clip-path="url(#SVGID_2_)" fill="none" stroke="#58585A" stroke-width="0.325" points="21.535,26.77 21.805,26.256 
		37.818,26.256 38.358,26.77 38.358,37.369 29.921,42.925 21.535,37.266 	"/>
	<rect x="23.288" y="15.55" clip-path="url(#SVGID_2_)" fill="#58585A" width="12.844" height="8.641"/>
	<polyline clip-path="url(#SVGID_2_)" fill="#FFFFFF" points="30.892,6.884 25.872,13.169 25.872,15.601 	"/>
	<polyline clip-path="url(#SVGID_2_)" fill="none" stroke="#58585A" stroke-width="0.325" points="30.892,6.884 25.872,13.169 
		25.872,15.601 	"/>
	<path clip-path="url(#SVGID_2_)" fill="#FFFFFF" d="M33.676,13.422l-3.333,6.455c0,0-0.332,1.291,0.549,1.772
		c1.393,0.759,2.573-0.422,2.573-0.422s4.936-6.328,5.063-6.455c0.128-0.126,0.338-8.058,0.338-8.058"/>
	<path clip-path="url(#SVGID_2_)" fill="none" stroke="#58585A" stroke-width="0.325" d="M33.676,13.422l-3.333,6.455
		c0,0-0.332,1.291,0.549,1.772c1.393,0.759,2.573-0.422,2.573-0.422s4.936-6.328,5.063-6.455c0.128-0.126,0.338-8.058,0.338-8.058"
		/>
	
		<line clip-path="url(#SVGID_2_)" fill="none" stroke="#58585A" stroke-width="0.466" x1="5.011" y1="53.79" x2="55.421" y2="53.79"/>
</g>
</svg>
