<?xml version="1.0" encoding="utf-8"?>
<!-- Generator: Adobe Illustrator 15.0.2, SVG Export Plug-In . SVG Version: 6.00 Build 0)  -->
<!DOCTYPE svg PUBLIC "-//W3C//DTD SVG 1.1//EN" "http://www.w3.org/Graphics/SVG/1.1/DTD/svg11.dtd">
<svg version="1.1" id="Livello_1" xmlns="http://www.w3.org/2000/svg" xmlns:xlink="http://www.w3.org/1999/xlink" x="0px" y="0px"
	 width="61.102px" height="80.281px" viewBox="0 0 61.102 80.281" enable-background="new 0 0 61.102 80.281" xml:space="preserve">
<g>
	<defs>
		<rect id="SVGID_1_" width="61.102" height="80.281"/>
	</defs>
	<clipPath id="SVGID_2_">
		<use xlink:href="#SVGID_1_"  overflow="visible"/>
	</clipPath>
	<g clip-path="url(#SVGID_2_)">
		<defs>
			<rect id="SVGID_3_" y="0" width="61.102" height="80.281"/>
		</defs>
		<clipPath id="SVGID_4_">
			<use xlink:href="#SVGID_3_"  overflow="visible"/>
		</clipPath>
		<path clip-path="url(#SVGID_4_)" fill="none" stroke="#58595B" stroke-width="0.963" d="M30.215,50.629
			c13.439,0,24.331-10.891,24.331-24.332c0-13.432-10.892-24.328-24.331-24.328c-13.437,0-24.33,10.896-24.33,24.328
			C5.885,39.738,16.778,50.629,30.215,50.629z"/>
		<g clip-path="url(#SVGID_4_)">
			<g>
				<defs>
					<rect id="SVGID_5_" x="29.2" y="13.983" width="10.43" height="24.63"/>
				</defs>
				<clipPath id="SVGID_6_">
					<use xlink:href="#SVGID_5_"  overflow="visible"/>
				</clipPath>
				<path clip-path="url(#SVGID_6_)" fill="#58595B" d="M39.116,20.534c-0.096-0.164-0.188-0.119-0.339-0.164
					c-0.15-0.046-0.21-0.133-0.393-0.239c-0.184-0.105-0.833-0.887-1.172-1.066c-0.339-0.178-1.396-0.196-1.564-0.224
					c-0.169-0.027-0.238-0.087-0.266-0.238c-0.027-0.15,0.201-0.548,0.201-0.548s0.064,0.081,0.151,0.091
					c0.087,0.009,0.174-0.147,0.256-0.361c0.082-0.216,0.055-0.472,0.046-0.527s0.141-0.339,0.196-0.499
					c0.043-0.124,0.015-0.206-0.001-0.238l0.038,0.069c0,0,0.005-0.064,0.027-0.132c0.023-0.069,0.023-0.252,0.037-0.271
					c0.014-0.018,0.046,0.138,0.063,0.179c0.019,0.041-0.005-0.11-0.031-0.334c-0.028-0.224-0.284-0.833-0.641-1.208
					c-0.357-0.375-0.942-0.59-0.942-0.59l0.123-0.059l-0.06-0.01c0,0-0.206,0.083-0.247,0.042c-0.041-0.042-0.252-0.184-0.329-0.22
					c-0.078-0.037,0.009,0.229-0.032,0.242c-0.041,0.014-0.188-0.146-0.211-0.155c-0.022-0.01-0.004,0.114-0.109,0.073
					s-0.183-0.05-0.183-0.05s0.045,0.132,0.018,0.183c-0.027,0.05,0,0-0.196,0.068c-0.197,0.069-0.453,0.435-0.604,0.577
					c-0.15,0.142-0.375,0.329-0.435,0.467c-0.06,0.137-0.142,0.182-0.142,0.182s0.192-0.032,0.142,0.042
					c-0.05,0.073-0.031,0.293-0.027,0.32c0.005,0.027,0,0-0.004-0.096c-0.005-0.096,0.063-0.069,0.114-0.114
					c0.05-0.046,0,0.054-0.037,0.164c-0.036,0.11-0.041,0.128-0.064,0.178c-0.022,0.051,0.124-0.169,0.092-0.054
					c-0.032,0.114,0.064,0.393,0.045,0.567c-0.018,0.174,0.011,0.183,0.033,0.27c0.022,0.087,0.041,0.147,0.041,0.147
					s-0.009,0.022-0.087,0.109c-0.078,0.087,0.01,0.348,0.019,0.375c0.009,0.028,0.027,0.046,0.077,0.252
					c0.051,0.206,0.229,0.161,0.229,0.161s0.019,0.1,0.082,0.333c0.063,0.233,0.366,0.421,0.438,0.608
					c0.074,0.188-0.127,0.362-0.127,0.362s-0.129,0.092-0.229,0.174c-0.102,0.083-0.375,0.22-0.713,0.476
					c-0.339,0.256-0.522,0.594-0.714,1.08c-0.192,0.485-0.256,1.674-0.303,1.811c-0.046,0.138,0,0.156-0.072,0.33
					c-0.073,0.174-0.064,0.137-0.064,0.475c0,0.339,0.156,0.642,0.485,0.915c0.329,0.275,0.529,0.074,0.622,0.019
					c0.091-0.055,0.512-0.97,0.512-0.97s0,0.092,0.046,0.238s-0.146,0.732-0.229,0.942c-0.082,0.211-0.138,0.174-0.247,0.458
					c-0.109,0.284-0.009,0.348-0.146,0.567c-0.137,0.22-0.311,0.888-0.43,1.162c-0.119,0.274,0,0.348-0.156,0.55
					c-0.155,0.2-0.009,0.466,0.028,0.704c0.036,0.238-0.11,0.732-0.293,1.153c-0.184,0.421-0.184,1.098-0.531,2.141
					s-0.064,1.236-0.073,1.263c0,0-0.092,0.933-0.174,1.203s-0.05,0.664-0.261,0.947c-0.21,0.284-0.178,0.915-0.288,1.167
					c-0.11,0.251-0.178,0.151-0.288,0.261s-0.165,0.178-0.279,0.425c-0.115,0.247,0.1,0.632,0.064,0.654
					c-0.037,0.023-0.014,0.01-0.311,0.275c-0.298,0.265,0.132,0.856,0.571,0.943c0.44,0.086,0.934-0.229,1.048-0.39
					c0.115-0.16,0.646-0.599,0.705-0.672c0.06-0.073,0.115,0,0.229-0.06c0.113-0.059,0.196-0.31,0.283-0.416
					c0.087-0.105,0.027-0.192-0.027-0.329c-0.056-0.137-0.023-0.174,0.014-0.289c0.036-0.114,0.055-0.421,0.046-0.544
					c-0.01-0.123,0.077-0.142,0.389-0.453c0.311-0.311,0.22-1.203,0.224-1.615c0.005-0.412,0.17-0.91,0.293-1.126
					c0.124-0.215,0.243-0.397,0.431-0.658c0.188-0.261,0.581-1.615,0.645-1.757c0.064-0.142,0.192-0.06,0.225,0.037
					c0.032,0.096,0.16,0.416,0.119,0.539c-0.042,0.124,0.338,0.476,0.425,0.682s0.142,0.851,0.184,1.185
					c0.041,0.334-0.151,0.76-0.202,1.167c-0.05,0.407,0.216,0.919,0.353,1.166s0.435,0.641,0.394,0.796
					c-0.041,0.156,0.398,0.687,0.402,0.705c0.005,0.019,0.069,0.087-0.004,0.224c-0.073,0.138,0.128,0.197,0.087,0.293
					c-0.041,0.096,0.146,0.398,0.142,0.513c-0.005,0.114,0.225,0.109,0.288,0.211c0.064,0.1,0.133,0.159,0.092,0.305
					c-0.041,0.147,0.279,0.353,0.586,0.49c0.307,0.137,0.878-0.045,0.979-0.219c0.101-0.175-0.165-0.509-0.283-0.692
					c-0.119-0.183-0.032-0.242,0.022-0.525c0.055-0.284-0.311-0.431-0.348-0.472c-0.036-0.041,0.078-0.082,0.247-0.357
					c0.169-0.274-0.005-0.434-0.188-0.7c-0.183-0.265-0.366-1.153-0.302-1.482c0.063-0.33-0.032-0.933-0.078-1.125
					c-0.046-0.193-0.041-0.582-0.16-0.948c-0.118-0.366-0.009-1.125,0.014-1.459c0.023-0.334,0.005-1.167,0.023-1.62
					c0.018-0.452,0.055-1.345,0.068-1.359c0.014-0.013,0.165-0.013,0.324-0.132c0.161-0.119,0.083-0.165,0.01-0.357
					s-0.312-1.629-0.312-1.629l0.091,0.014c0.093,0.014,0.417-0.16,0.514-0.22c0.096-0.059,0.233-0.201,0.321-0.32
					c0.086-0.119,0.278-0.504,0.278-0.504s0.242,0.06,0.348,0.069c0.104,0.009,0.027-0.169,0.114-0.498
					c0.087-0.33,0.32-0.815,0.383-1.126c0.065-0.311,0.193-0.814,0.253-1.02s0.05-0.151,0.073-0.389
					C39.651,21.257,39.212,20.699,39.116,20.534 M38.241,22.166c-0.031,0.202-0.031,0.348-0.129,0.72
					c-0.097,0.372-0.158,0.335-0.207,0.427c-0.049,0.091,0.013,0.048-0.092,0.159c-0.104,0.109-0.188,0.176-0.207,0.201
					c-0.019,0.024-0.183,0.122-0.183,0.122s-0.116-0.293-0.086-0.854c0.03-0.562,0.03-0.921,0.092-1.086
					c0.061-0.165,0.171-0.409,0.195-0.397c0.024,0.013,0.207,0.153,0.323,0.232c0.116,0.08,0.22,0.067,0.262,0.189
					C38.253,22.001,38.271,21.965,38.241,22.166"/>
			</g>
		</g>
		<g clip-path="url(#SVGID_4_)">
			<g>
				<defs>
					<rect id="SVGID_7_" x="20.802" y="14.209" width="7.553" height="24.338"/>
				</defs>
				<clipPath id="SVGID_8_">
					<use xlink:href="#SVGID_7_"  overflow="visible"/>
				</clipPath>
				<path clip-path="url(#SVGID_8_)" fill="#58595B" d="M28.232,34.67c-0.054-0.088-0.974-0.183-1.181-0.334
					c-0.207-0.152-0.213-0.223-0.291-0.422c-0.078-0.201-0.02-0.36-0.145-0.571c-0.125-0.212-0.154-0.152-0.192-0.429
					c-0.037-0.277,0.114-0.678,0.177-1.044c0.062-0.366-0.242-0.852-0.214-1.065c0.029-0.212-0.037-0.288-0.092-0.6
					s-0.058-0.719,0.169-1.139c0.228-0.419,0.089-0.884,0.164-1.226c0.074-0.342-0.215-1.277-0.215-1.277s0.024-0.024,0.195-0.072
					c0.169-0.048,0.34-0.161,0.486-0.374s-0.229-0.706-0.23-0.9c-0.001-0.194-0.065-0.937-0.065-0.937l0.031,0.02
					c-0.026-0.142-0.034-0.28-0.043-0.424c-0.012-0.026-0.023-0.053-0.033-0.081c-0.084-0.256-0.103-0.502-0.089-0.744
					c-0.02-0.096-0.037-0.193-0.047-0.292c-0.053-0.064-0.093-0.137-0.12-0.215l-0.022,0.001c0,0-0.042-0.065-0.06-0.083
					c-0.017-0.017-0.071-0.134-0.096-0.305c-0.024-0.171-0.162-0.435-0.293-0.676c-0.131-0.241-0.311-0.717-0.311-0.717
					s0.041-0.018,0.1,0.006c0.059,0.023,0.207-0.014,0.207-0.014s-0.089-0.005-0.208-0.14c-0.119-0.134-0.167-0.387-0.119-0.27
					s0.202,0.217,0.202,0.217s-0.113-0.088-0.156-0.406c-0.044-0.318-0.209-0.34-0.345-0.451c-0.136-0.111-0.304-0.581-0.275-0.682
					c0.028-0.1,0.081-0.218,0.081-0.218s0.117-0.031,0.164-0.054c0.047-0.024-0.006-0.095-0.006-0.095s0.023-0.017,0.064-0.047
					c0.041-0.03,0.059-0.06,0.105-0.125c0.047-0.065,0.076-0.277,0.076-0.277s0.07-0.013,0.128-0.101
					c0.059-0.089-0.042-0.141-0.096-0.376c-0.055-0.236,0.033-0.269,0.033-0.269l0.15-0.036l-0.115-0.044
					c0,0,0.176-0.169,0.412-0.462c0.237-0.293-0.033-1.139-0.034-1.219c0-0.079,0,0-0.099-0.335c-0.1-0.335-1.465-1.069-1.925-1.146
					c-0.46-0.076-1.103,0.22-1.648,0.824c-0.544,0.605-0.685,2.02-0.867,2.577c-0.182,0.558-0.354,2.628-0.362,2.813
					c-0.007,0.186,0.011,0.265,0.003,0.336c-0.009,0.07-0.088,0.212-0.148,0.381c-0.061,0.168,0.066,0.609,0.028,0.371
					c-0.036-0.238,0.087-0.275,0.166-0.417c0.079-0.142,0.08,0.159,0.02,0.407c-0.03,0.123-0.082,0.198-0.127,0.243
					c0.098-0.027,0.19-0.164,0.19-0.164s-0.409,1.045-0.494,1.638c-0.085,0.593,0.155,0.644,0.155,0.644
					c0.29,0.219,1.651,0.263,1.651,0.263l0.226,0.353c0,0,0.065,0.022-0.069,0.194c-0.134,0.172-0.07,0.166,0.049,0.33
					c0.119,0.164,0.08,0.477,0.05,0.542c-0.028,0.065,0.002,0.294-0.067,0.448c-0.07,0.153-0.112,0.925-0.2,1.079
					c-0.087,0.154,0.058,0.754,0.06,1.06s0.394,0.764,0.43,0.899c0.037,0.135-0.099,0.195-0.103,0.431s0.156,1.365,0.1,1.755
					c-0.057,0.389,0.129,1.714,0.117,1.79c-0.011,0.077,0.242,1.789,0.278,1.996c0.037,0.205,0.116,0.676,0.213,0.988
					c0.096,0.312,0.265,0.912,0.265,0.912s-0.016,0.217,0.02,0.424c0.037,0.206,0.362,0.262,0.503,0.338
					c0.142,0.076,1.218,0.752,1.767,0.861c0.549,0.108,0.981-0.56,0.961-0.796c-0.019-0.236-1.378-0.887-1.32-0.975
					c0.058-0.089-0.119-0.194-0.143-0.264c-0.024-0.071-0.137-0.353-0.109-0.483c0.029-0.13-0.048-0.118-0.192-0.452
					c-0.143-0.335,0.092-0.396,0.11-0.396c0.017,0,0.077,0.023,0.301,0.04c0.224,0.016,1.173,0.139,1.533,0.219
					c0.36,0.08,0.666,0.067,0.86-0.082C28.459,35.199,28.285,34.758,28.232,34.67"/>
			</g>
		</g>
		<polygon clip-path="url(#SVGID_4_)" fill="#58595B" points="9.815,56.775 10.955,56.775 10.955,60.833 13.013,58.744 
			14.414,58.744 12.434,60.644 14.603,63.911 13.212,63.911 11.633,61.402 10.955,62.063 10.955,63.911 9.815,63.911 		"/>
		<path clip-path="url(#SVGID_4_)" fill="#58595B" d="M15.186,56.775h1.139v1.079h-1.139V56.775z M15.186,58.744h1.139v5.167h-1.139
			V58.744z"/>
		<path clip-path="url(#SVGID_4_)" fill="#58595B" d="M22.433,63.911h-1.079v-0.699h-0.021c-0.3,0.589-0.949,0.839-1.598,0.839
			c-1.629,0-2.419-1.21-2.419-2.758c0-1.87,1.109-2.688,2.239-2.688c0.649,0,1.369,0.238,1.719,0.81h0.019v-2.639h1.14V63.911z
			 M19.884,63.151c1.02,0,1.449-0.93,1.449-1.828c0-1.14-0.549-1.819-1.428-1.819c-1.07,0-1.45,0.949-1.45,1.878
			C18.455,62.272,18.895,63.151,19.884,63.151"/>
		<path clip-path="url(#SVGID_4_)" fill="#58595B" d="M23.846,59.014c0.479-0.061,0.609-0.449,0.609-0.89h-0.609v-1.349h1.249v1.349
			c0,0.771-0.479,1.369-1.249,1.47V59.014z"/>
		<path clip-path="url(#SVGID_4_)" fill="#58595B" d="M26.575,62.252c0.061,0.66,0.56,0.898,1.17,0.898
			c0.43,0,1.179-0.089,1.149-0.678c-0.03-0.601-0.86-0.67-1.689-0.861c-0.84-0.179-1.659-0.479-1.659-1.528
			c0-1.129,1.219-1.479,2.159-1.479c1.059,0,2.018,0.439,2.158,1.588h-1.189c-0.1-0.54-0.549-0.688-1.049-0.688
			c-0.33,0-0.94,0.08-0.94,0.528c0,0.561,0.839,0.641,1.679,0.83c0.83,0.19,1.669,0.49,1.669,1.51c0,1.229-1.239,1.68-2.309,1.68
			c-1.298,0-2.268-0.58-2.289-1.8H26.575z"/>
		<path clip-path="url(#SVGID_4_)" fill="#58595B" d="M34.546,62.252c0.061,0.66,0.56,0.898,1.17,0.898
			c0.43,0,1.179-0.089,1.149-0.678c-0.03-0.601-0.86-0.67-1.689-0.861c-0.84-0.179-1.659-0.479-1.659-1.528
			c0-1.129,1.22-1.479,2.159-1.479c1.06,0,2.019,0.439,2.158,1.588h-1.189c-0.1-0.54-0.549-0.688-1.049-0.688
			c-0.33,0-0.939,0.08-0.939,0.528c0,0.561,0.839,0.641,1.679,0.83c0.83,0.19,1.669,0.49,1.669,1.51c0,1.229-1.239,1.68-2.309,1.68
			c-1.299,0-2.269-0.58-2.289-1.8H34.546z"/>
		<path clip-path="url(#SVGID_4_)" fill="#58595B" d="M38.907,56.775h1.139v1.079h-1.139V56.775z M38.907,58.744h1.139v5.167h-1.139
			V58.744z"/>
		<polygon clip-path="url(#SVGID_4_)" fill="#58595B" points="41.107,58.744 45.305,58.744 45.305,59.544 42.347,63.012 
			45.455,63.012 45.455,63.911 40.907,63.911 40.907,63.112 43.766,59.643 41.107,59.643 		"/>
		<path clip-path="url(#SVGID_4_)" fill="#58595B" d="M47.177,61.623c0,0.81,0.439,1.527,1.39,1.527
			c0.659,0,1.059-0.289,1.259-0.858h1.079c-0.25,1.13-1.209,1.76-2.338,1.76c-1.619,0-2.529-1.13-2.529-2.719
			c0-1.471,0.96-2.729,2.499-2.729c1.629,0,2.628,1.469,2.438,3.02H47.177z M49.835,60.873c-0.04-0.721-0.529-1.369-1.299-1.369
			c-0.79,0-1.329,0.599-1.359,1.369H49.835z"/>
		
			<line clip-path="url(#SVGID_4_)" fill="none" stroke="#58595B" stroke-width="0.466" x1="5.011" y1="53.79" x2="55.421" y2="53.79"/>
	</g>
</g>
</svg>
