<?xml version="1.0" encoding="utf-8"?>
<!-- Generator: Adobe Illustrator 15.0.2, SVG Export Plug-In . SVG Version: 6.00 Build 0)  -->
<!DOCTYPE svg PUBLIC "-//W3C//DTD SVG 1.1//EN" "http://www.w3.org/Graphics/SVG/1.1/DTD/svg11.dtd">
<svg version="1.1" id="Livello_1" xmlns="http://www.w3.org/2000/svg" xmlns:xlink="http://www.w3.org/1999/xlink" x="0px" y="0px"
	 width="61.102px" height="80.281px" viewBox="0 0 61.102 80.281" enable-background="new 0 0 61.102 80.281" xml:space="preserve">
<g>
	<defs>
		<rect id="SVGID_1_" y="0" width="61.102" height="80.281"/>
	</defs>
	<clipPath id="SVGID_2_">
		<use xlink:href="#SVGID_1_"  overflow="visible"/>
	</clipPath>
	
		<path clip-path="url(#SVGID_2_)" fill="none" stroke="#55595B" stroke-width="0.327" stroke-linecap="round" stroke-linejoin="round" stroke-miterlimit="57" d="
		M38.433,8.395c0,0-0.233-1.056,1.335-0.71c0.783,0.172,1.07,0.474,1.054,0.769"/>
	
		<path clip-path="url(#SVGID_2_)" fill="none" stroke="#55595B" stroke-width="0.327" stroke-linecap="round" stroke-linejoin="round" stroke-miterlimit="57" d="
		M38.629,8.297c0,0,1.814-0.074,1.973,2.379c0.161,2.451-0.22,6.019-1.891,10.007c-1.673,3.989-2.729,8.526-2.848,8.709
		l-0.158,0.257c0,0,1.99,0.366,4.418,0.109c2.431-0.256,6.852,0.054,8.543-0.549c1.693-0.604,2.728-1.719,3.126-4.994
		c0.4-3.275,0.062-7.576-2.727-10.704c-2.789-3.129-7.346-4.444-8.303-4.738S38.629,8.297,38.629,8.297z"/>
	
		<path clip-path="url(#SVGID_2_)" fill="none" stroke="#55595B" stroke-width="0.327" stroke-linecap="round" stroke-linejoin="round" stroke-miterlimit="57" d="
		M19.594,22.77c0,0-0.021-0.348,0.279-0.787c0.297-0.44,3.305-6.953,3.884-7.922c0.575-0.97,1.99-3.862,5.314-4.904
		c3.325-1.043,6.452-1.189,9.558-0.86c0,0,1.814-0.073,1.973,2.38c0.16,2.45-0.22,6.018-1.891,10.006
		c-1.673,3.989-2.728,8.526-2.848,8.71l-0.158,0.256c0,0-8.287-2.013-12.626-4.464c0,0-1.832-1.043-3.247-2.16L19.594,22.77z"/>
	
		<path clip-path="url(#SVGID_2_)" fill="none" stroke="#55595B" stroke-width="0.327" stroke-linecap="round" stroke-linejoin="round" stroke-miterlimit="57" d="
		M12.067,26.74c-2.551,1.609-3.566,1.865-3.566,2.433c0,0.566,1.215,2.305,3.684,4.354c2.468,2.049,5.378,4.574,9.399,4.574
		c4.022,0,7.169-1.939,7.169-1.939c8.582-4.538,9.787-6.313,9.787-6.313c-1.655,0.017-2.835-0.2-2.835-0.2
		s-8.287-2.013-12.625-4.465c0,0-1.832-1.043-3.247-2.159l-0.238-0.255C19.594,22.771,13.014,26.143,12.067,26.74z"/>
	
		<path clip-path="url(#SVGID_2_)" fill="none" stroke="#55595B" stroke-width="0.196" stroke-linecap="round" stroke-linejoin="round" stroke-miterlimit="57" stroke-dasharray="1.31,1.31" d="
		M36.035,29.055c-0.133-0.02-0.205-0.032-0.205-0.032s-8.284-2.012-12.623-4.465c0,0-1.832-1.043-3.247-2.158l-0.179-0.192"/>
	
		<path clip-path="url(#SVGID_2_)" fill="none" stroke="#55595B" stroke-width="0.196" stroke-linecap="round" stroke-linejoin="round" stroke-miterlimit="57" stroke-dasharray="1.31,1.31" d="
		M34.853,29.411l0.159-0.257c0.12-0.183,1.174-4.72,2.845-8.708c1.673-3.988,2.055-7.556,1.893-10.008
		c-0.085-1.298-0.631-1.888-1.128-2.157"/>
	
		<path clip-path="url(#SVGID_2_)" fill="none" stroke="#55595B" stroke-width="0.196" stroke-linecap="round" stroke-linejoin="round" stroke-miterlimit="57" stroke-dasharray="1.31,1.31" d="
		M35.991,29.701c-0.698,0.389-7.312,4.677-8.146,5.119c0,0-0.724,0.436-1.821,0.848c-1.157,0.435-2.72,0.851-4.44,0.851
		c-1.593,0-3.011-0.494-4.367-1.276c-0.701-0.405-1.358-0.87-1.982-1.349c-0.666-0.512-1.293-1.041-1.896-1.541
		c-0.21-0.175-3.823-3.803-4.002-3.971"/>
	
		<path clip-path="url(#SVGID_2_)" fill="none" stroke="#55595B" stroke-width="0.196" stroke-linecap="round" stroke-linejoin="round" stroke-miterlimit="57" stroke-dasharray="1.31,1.31" d="
		M35.099,29.501c-0.637,0.353-6.961,4.252-7.704,4.646c0,0-0.688,0.41-1.696,0.789c-1.09,0.41-2.54,0.793-4.114,0.793
		c-1.386,0-2.645-0.427-3.909-1.156c-0.668-0.385-1.292-0.829-1.889-1.287c-0.657-0.505-1.276-1.027-1.87-1.519
		c-0.196-0.164-3.684-3.641-3.853-3.796"/>
	
		<path clip-path="url(#SVGID_2_)" fill="none" stroke="#55595B" stroke-width="0.196" stroke-linecap="round" stroke-linejoin="round" stroke-miterlimit="57" stroke-dasharray="1.31,1.31" d="
		M34.019,29.226c-0.565,0.311-6.437,3.909-7.074,4.246c0,0-0.65,0.385-1.571,0.733c-1.026,0.385-2.361,0.733-3.789,0.733
		c-1.179,0-2.279-0.36-3.451-1.034c-0.635-0.367-1.228-0.789-1.794-1.224c-0.647-0.498-1.258-1.014-1.847-1.501
		c-0.169-0.141-3.551-3.5-3.694-3.636"/>
	
		<path clip-path="url(#SVGID_2_)" fill="none" stroke="#55595B" stroke-width="0.196" stroke-linecap="round" stroke-linejoin="round" stroke-miterlimit="57" stroke-dasharray="1.31,1.31" d="
		M32.937,28.891c-0.422,0.23-5.984,3.665-6.439,3.906c0,0-0.612,0.359-1.451,0.675c-0.957,0.36-2.18,0.675-3.462,0.675
		c-0.972,0-1.916-0.292-2.993-0.913c-0.601-0.348-1.164-0.749-1.699-1.16c-0.64-0.493-1.244-1.001-1.822-1.482
		c-0.128-0.106-3.469-3.407-3.579-3.512"/>
	
		<path clip-path="url(#SVGID_2_)" fill="none" stroke="#55595B" stroke-width="0.196" stroke-linecap="round" stroke-miterlimit="57" stroke-dasharray="1.31,1.31" d="
		M40.824,8.848c0.401,0.327,0.775,0.915,0.845,1.968c0.158,2.451-0.221,6.019-1.894,10.008c-1.671,3.987-2.728,8.525-2.848,8.708
		l-0.158,0.256"/>
	
		<path clip-path="url(#SVGID_2_)" fill="none" stroke="#55595B" stroke-width="0.327" stroke-linecap="round" stroke-linejoin="round" stroke-miterlimit="57" d="
		M38.433,8.395c0,0-7.059,2.603-7.54,5.707c-0.313,2.016,0.818,3.384-2.73,4.744c-2.031,0.778-4.219,3.23-4.925,6.339"/>
	
		<path clip-path="url(#SVGID_2_)" fill="none" stroke="#55595B" stroke-width="0.196" stroke-linecap="round" stroke-linejoin="round" stroke-miterlimit="57" stroke-dasharray="1.31,1.31" d="
		M39.333,8.878c0,0-7.059,2.604-7.54,5.708c-0.312,2.016,0.818,3.384-2.73,4.744c-2.031,0.778-4.219,3.229-4.925,6.338"/>
	
		<path clip-path="url(#SVGID_2_)" fill="none" stroke="#55595B" stroke-width="0.196" stroke-linecap="round" stroke-linejoin="round" stroke-miterlimit="57" stroke-dasharray="1.31,1.31" d="
		M37.271,8.218c0,0-6.933,2.538-7.407,5.565c-0.306,1.966,0.805,3.3-2.681,4.626c-1.995,0.759-4.147,3.15-4.84,6.181"/>
	<path clip-path="url(#SVGID_2_)" fill="none" stroke="#55595B" stroke-width="0.963" d="M30.215,50.629
		c13.439,0,24.331-10.891,24.331-24.332c0-13.432-10.892-24.328-24.331-24.328c-13.437,0-24.33,10.896-24.33,24.328
		C5.885,39.738,16.778,50.629,30.215,50.629z"/>
</g>
<g>
	<defs>
		<path id="SVGID_3_" d="M5.886,26.296c0,13.441,10.893,24.333,24.33,24.333c13.438,0,24.33-10.892,24.33-24.333
			c0-13.431-10.892-24.328-24.33-24.328C16.779,1.968,5.886,12.865,5.886,26.296"/>
	</defs>
	<clipPath id="SVGID_4_">
		<use xlink:href="#SVGID_3_"  overflow="visible"/>
	</clipPath>
	<path clip-path="url(#SVGID_4_)" fill-rule="evenodd" clip-rule="evenodd" fill="#242424" d="M23.185,13.127
		c-0.611-0.576-1.25-1.123-1.527-2.035C22.167,11.771,22.8,12.323,23.185,13.127"/>
	<path clip-path="url(#SVGID_4_)" fill-rule="evenodd" clip-rule="evenodd" fill="#242424" d="M9.577,4.226
		c0.674,0.343,1.027,1.007,1.525,1.526C10.542,5.296,10.034,4.788,9.577,4.226"/>
	<path clip-path="url(#SVGID_4_)" fill-rule="evenodd" clip-rule="evenodd" fill="#242424" d="M25.981,15.417
		c-0.137-0.263,0.354-0.507,0.508-0.635C27.25,14.151,26.726,14.85,25.981,15.417"/>
	<path clip-path="url(#SVGID_4_)" fill-rule="evenodd" clip-rule="evenodd" fill="#242424" d="M24.456,13.764
		c-0.24-0.372,0.752-0.6,0.764-1.145C25.513,13.047,24.575,13.327,24.456,13.764"/>
	<path clip-path="url(#SVGID_4_)" fill-rule="evenodd" clip-rule="evenodd" fill="#242424" d="M19.114,10.33
		c-0.162,0.559-0.65,0.13-0.762,0.254c-0.234-0.19-0.318-0.531-0.636-0.636C18.132,9.715,18.468,10.712,19.114,10.33"/>
	<path clip-path="url(#SVGID_4_)" fill-rule="evenodd" clip-rule="evenodd" fill="#242424" d="M16.063,1.682
		c0.832,0.609,2.33,0.55,3.178,1.144c0.011,0.201,0.324,0.101,0.256,0.382c-1.747-0.331-4.184-0.65-4.325-2.162
		C15.664,1.063,15.674,1.562,16.063,1.682"/>
	<path clip-path="url(#SVGID_4_)" fill-rule="evenodd" clip-rule="evenodd" fill="#58595B" d="M24.457,10.711
		c0.029-0.099,0.159,0.151,0.763,0c0.327-0.082,0.358-1.23-0.129-1.272V9.186c0.19-0.92,0.805-2.378-0.253-2.799
		c-0.709-0.816-1.149-1.902-2.036-2.543c-0.168-0.34-0.804-0.211-1.144-0.381c-0.819-0.198-1.36-0.674-2.416-0.636
		c0.012,0.201,0.324,0.1,0.256,0.382c-1.746-0.331-4.184-0.65-4.325-2.162c0.491,0.017,0.502,0.515,0.891,0.636
		c-0.267-0.752-1.086-0.948-1.527-1.526c-0.932-0.552-1.463-1.506-2.16-2.289c-0.321-0.105-0.403-0.446-0.637-0.636
		c-0.555,0.083-0.611,0.661-1.145,0.763C9.883-1.444,9.139-0.917,8.56-0.225C8.087,0.319,7.563,0.813,6.907,1.174
		C7.5,1.981,8.858,3.121,9.578,4.226c0.674,0.343,1.027,1.007,1.525,1.526c0.227,0.239,0.344,0.589,0.637,0.763
		c1.502,2.101,1.746,5.459,3.814,6.995c0.717,0.51,1.313,1.144,2.162,1.525c0.639,0.003,1.088-0.184,1.018-0.89
		c0.922-0.074,0.97,0.876,1.751,0.876c0.781,0,0.858-0.895,1.046-1.003c0.043,0,0.933,0.561,1.313,0.471
		c0.594-0.14,0.491-1.021,0.891-0.875c0.953,0.998,2.226,2.165,3.009,3.329c0.164,0.261,0.157,0.302,0.637,0.635
		c0.479,0.333,1.105,0.199,1.144-0.507C27.639,14.479,25.838,12.803,24.457,10.711 M23.692,9.822
		c-0.658-1.079-1.447-2.028-1.906-3.307c0.006-0.077,0.017-0.151,0.125-0.128c0.775,0.329,0.867,1.339,1.527,1.781v0.128
		c-0.012,0.18-0.021,0.359,0.127,0.38C23.375,9.215,23.903,9.684,23.692,9.822"/>
</g>
<g>
	<defs>
		<rect id="SVGID_5_" y="0" width="61.102" height="80.281"/>
	</defs>
	<clipPath id="SVGID_6_">
		<use xlink:href="#SVGID_5_"  overflow="visible"/>
	</clipPath>
	<path clip-path="url(#SVGID_6_)" fill="none" stroke="#55595B" stroke-miterlimit="10" d="M30.215,50.629
		c13.439,0,24.331-10.891,24.331-24.332c0-13.432-10.892-24.328-24.331-24.328c-13.437,0-24.33,10.896-24.33,24.328
		C5.885,39.738,16.778,50.629,30.215,50.629z"/>
	
		<line clip-path="url(#SVGID_6_)" fill="none" stroke="#55595B" stroke-width="0.466" x1="5.011" y1="53.79" x2="55.421" y2="53.79"/>
	<path clip-path="url(#SVGID_6_)" fill="#58595B" d="M8.477,62.261c0.061,0.659,0.56,0.898,1.17,0.898
		c0.43,0,1.179-0.089,1.149-0.679c-0.03-0.6-0.86-0.67-1.689-0.86c-0.84-0.179-1.659-0.479-1.659-1.528
		c0-1.129,1.219-1.479,2.159-1.479c1.059,0,2.018,0.44,2.158,1.589h-1.189c-0.1-0.54-0.549-0.689-1.049-0.689
		c-0.33,0-0.94,0.08-0.94,0.529c0,0.561,0.839,0.641,1.679,0.829c0.83,0.191,1.669,0.491,1.669,1.511
		c0,1.229-1.239,1.679-2.309,1.679c-1.298,0-2.268-0.58-2.289-1.799H8.477z"/>
	<path clip-path="url(#SVGID_6_)" fill="#58595B" d="M12.568,61.331c0-1.579,0.95-2.72,2.609-2.72c1.659,0,2.609,1.141,2.609,2.72
		c0,1.589-0.95,2.729-2.609,2.729C13.518,64.06,12.568,62.92,12.568,61.331 M16.646,61.331c0-0.891-0.449-1.819-1.469-1.819
		c-1.019,0-1.469,0.929-1.469,1.819c0,0.898,0.45,1.829,1.469,1.829C16.197,63.16,16.646,62.229,16.646,61.331"/>
	<path clip-path="url(#SVGID_6_)" fill="#58595B" d="M18.228,58.753h0.85v-0.431c0-1.318,0.689-1.54,1.429-1.54
		c0.36,0,0.619,0.021,0.799,0.071v0.889c-0.149-0.039-0.3-0.059-0.529-0.059c-0.31,0-0.56,0.109-0.56,0.539v0.53h0.969v0.85h-0.969
		v4.317h-1.139v-4.317h-0.85V58.753z"/>
	<path clip-path="url(#SVGID_6_)" fill="#58595B" d="M21.368,58.753h0.859v-1.55h1.14v1.55h1.029v0.85h-1.029v2.757
		c0,0.471,0.04,0.71,0.55,0.71c0.159,0,0.319,0,0.479-0.04v0.88c-0.25,0.021-0.49,0.061-0.739,0.061c-1.189,0-1.409-0.46-1.43-1.32
		v-3.047h-0.859V58.753z"/>
	<path clip-path="url(#SVGID_6_)" fill="#58595B" d="M27.478,58.753h0.859v-1.55h1.14v1.55h1.029v0.85h-1.029v2.757
		c0,0.471,0.04,0.71,0.55,0.71c0.158,0,0.318,0,0.479-0.04v0.88c-0.25,0.021-0.49,0.061-0.739,0.061c-1.189,0-1.41-0.46-1.43-1.32
		v-3.047h-0.859V58.753z"/>
	<path clip-path="url(#SVGID_6_)" fill="#58595B" d="M31.087,61.331c0-1.579,0.95-2.72,2.609-2.72s2.608,1.141,2.608,2.72
		c0,1.589-0.949,2.729-2.608,2.729S31.087,62.92,31.087,61.331 M35.165,61.331c0-0.891-0.449-1.819-1.469-1.819
		s-1.47,0.929-1.47,1.819c0,0.898,0.45,1.829,1.47,1.829S35.165,62.229,35.165,61.331"/>
	<path clip-path="url(#SVGID_6_)" fill="#58595B" d="M41.794,63.92h-1.119v-0.721h-0.02c-0.28,0.521-0.899,0.86-1.47,0.86
		c-1.349,0-1.929-0.68-1.929-2.03v-3.276h1.14v3.168c0,0.909,0.369,1.238,0.989,1.238c0.949,0,1.27-0.608,1.27-1.408v-2.998h1.139
		V63.92z"/>
	<path clip-path="url(#SVGID_6_)" fill="#58595B" d="M46.485,60.481c-0.09-0.63-0.55-0.971-1.18-0.971
		c-0.59,0-1.419,0.312-1.419,1.88c0,0.86,0.38,1.77,1.37,1.77c0.658,0,1.118-0.44,1.229-1.18h1.14
		c-0.21,1.34-1.04,2.079-2.368,2.079c-1.62,0-2.51-1.149-2.51-2.669c0-1.559,0.85-2.778,2.55-2.778c1.198,0,2.218,0.599,2.328,1.869
		H46.485z"/>
	<path clip-path="url(#SVGID_6_)" fill="#58595B" d="M48.557,56.783h1.14v2.648h0.02c0.279-0.469,0.87-0.819,1.55-0.819
		c1.119,0,1.828,0.6,1.828,1.76v3.548h-1.139v-3.248c-0.021-0.81-0.34-1.16-1.01-1.16c-0.76,0-1.249,0.6-1.249,1.359v3.049h-1.14
		V56.783z"/>
</g>
</svg>
