<?xml version="1.0" encoding="utf-8"?>
<!-- Generator: Adobe Illustrator 15.0.2, SVG Export Plug-In . SVG Version: 6.00 Build 0)  -->
<!DOCTYPE svg PUBLIC "-//W3C//DTD SVG 1.1//EN" "http://www.w3.org/Graphics/SVG/1.1/DTD/svg11.dtd">
<svg version="1.1" id="Livello_1" xmlns="http://www.w3.org/2000/svg" xmlns:xlink="http://www.w3.org/1999/xlink" x="0px" y="0px"
	 width="61.102px" height="53.948px" viewBox="0 0 61.102 53.948" enable-background="new 0 0 61.102 53.948" xml:space="preserve">
<g>
	<defs>
		<rect id="SVGID_1_" y="0" width="61.102" height="80.281"/>
	</defs>
	<clipPath id="SVGID_2_">
		<use xlink:href="#SVGID_1_"  overflow="visible"/>
	</clipPath>
	<path clip-path="url(#SVGID_2_)" fill="none" stroke="#58595B" stroke-width="0.963" d="M30.019,51.449
		c13.439,0,24.331-10.891,24.331-24.332c0-13.431-10.892-24.327-24.331-24.327C16.583,2.79,5.69,13.686,5.69,27.117
		C5.69,40.558,16.583,51.449,30.019,51.449z"/>
	
		<circle clip-path="url(#SVGID_2_)" fill="none" stroke="#58595B" stroke-width="1.026" stroke-miterlimit="10" cx="25.791" cy="21.755" r="2.522"/>
	
		<polyline clip-path="url(#SVGID_2_)" fill="none" stroke="#58595B" stroke-width="0.617" stroke-linecap="round" stroke-linejoin="round" stroke-miterlimit="10" points="
		47.439,28.791 43.131,24.482 31.591,35.661 	"/>
	
		<polyline clip-path="url(#SVGID_2_)" fill="none" stroke="#58595B" stroke-width="0.617" stroke-linecap="round" stroke-linejoin="round" stroke-miterlimit="10" points="
		34.483,32.286 30.024,27.827 26.107,31.744 	"/>
	
		<line clip-path="url(#SVGID_2_)" fill="none" stroke="#58595B" stroke-width="0.617" stroke-linecap="round" stroke-linejoin="round" stroke-miterlimit="10" x1="25.022" y1="32.769" x2="23.967" y2="33.884"/>
	
		<path clip-path="url(#SVGID_2_)" fill="none" stroke="#58595B" stroke-width="1.018" stroke-linecap="round" stroke-linejoin="round" stroke-miterlimit="10" d="
		M39.979,38.157l-19.402,4.711c-1.985,0.461-3.984-0.773-4.442-2.746l-3.543-15.254c-0.458-1.971,0.791-3.961,2.776-4.422
		l4.146-0.963"/>
	<path clip-path="url(#SVGID_2_)" fill="none" stroke="#58595B" stroke-miterlimit="10" d="M41.969,38.151H24.485
		c-3.118,0-5.669-2.551-5.669-5.669V22.221c0-3.118,2.551-5.67,5.669-5.67h17.484c3.118,0,5.67,2.552,5.67,5.67v10.261
		C47.639,35.6,45.087,38.151,41.969,38.151z"/>
</g>
</svg>
