<?xml version="1.0" encoding="utf-8"?>
<!-- Generator: Adobe Illustrator 15.0.2, SVG Export Plug-In . SVG Version: 6.00 Build 0)  -->
<!DOCTYPE svg PUBLIC "-//W3C//DTD SVG 1.1//EN" "http://www.w3.org/Graphics/SVG/1.1/DTD/svg11.dtd">
<svg version="1.1" id="Livello_1" xmlns="http://www.w3.org/2000/svg" xmlns:xlink="http://www.w3.org/1999/xlink" x="0px" y="0px"
	 width="61.102px" height="53.781px" viewBox="0 0 61.102 53.781" enable-background="new 0 0 61.102 53.781" xml:space="preserve">
<g>
	<defs>
		<rect id="SVGID_1_" y="0" width="61.102" height="80.281"/>
	</defs>
	<clipPath id="SVGID_2_">
		<use xlink:href="#SVGID_1_"  overflow="visible"/>
	</clipPath>
	<path clip-path="url(#SVGID_2_)" fill="none" stroke="#58595B" stroke-width="0.963" d="M30.122,51.425
		c13.438,0,24.33-10.891,24.33-24.332c0-13.431-10.892-24.328-24.33-24.328c-13.438,0-24.331,10.897-24.331,24.328
		C5.792,40.534,16.685,51.425,30.122,51.425z"/>
	<path clip-path="url(#SVGID_2_)" fill="#58595B" d="M35.31,37.403c-1.982,0.893-3.7,1.19-6.046,1.19
		c-5.485,0-10.309-3.932-10.309-10.408c0-6.741,4.89-12.589,12.357-12.589c5.815,0,9.979,3.998,9.979,9.549
		c0,4.824-2.71,7.863-6.278,7.863c-1.553,0-2.676-0.792-2.841-2.543h-0.066c-1.024,1.685-2.511,2.543-4.262,2.543
		c-2.147,0-3.7-1.585-3.7-4.294c0-4.032,2.973-7.699,7.731-7.699c1.454,0,3.105,0.363,3.933,0.825l-0.991,6.114
		c-0.331,1.949-0.1,2.841,0.825,2.874c1.421,0.033,3.205-1.784,3.205-5.584c0-4.296-2.775-7.633-7.896-7.633
		c-5.056,0-9.483,3.965-9.483,10.276c0,5.518,3.535,8.657,8.459,8.657c1.685,0,3.469-0.363,4.791-1.057L35.31,37.403z
		 M32.369,23.757c-0.265-0.066-0.595-0.132-1.025-0.132c-2.181,0-3.897,2.148-3.897,4.692c0,1.255,0.561,2.048,1.652,2.048
		c1.222,0,2.511-1.552,2.808-3.469L32.369,23.757z"/>
</g>
</svg>
