<?xml version="1.0" encoding="utf-8"?>
<!-- Generator: Adobe Illustrator 15.0.2, SVG Export Plug-In . SVG Version: 6.00 Build 0)  -->
<!DOCTYPE svg PUBLIC "-//W3C//DTD SVG 1.1//EN" "http://www.w3.org/Graphics/SVG/1.1/DTD/svg11.dtd">
<svg version="1.1" id="Livello_1" xmlns="http://www.w3.org/2000/svg" xmlns:xlink="http://www.w3.org/1999/xlink" x="0px" y="0px"
	 width="61.102px" height="80.281px" viewBox="0 0 61.102 80.281" enable-background="new 0 0 61.102 80.281" xml:space="preserve">
<g>
	<defs>
		<rect id="SVGID_1_" width="61.102" height="80.281"/>
	</defs>
	<clipPath id="SVGID_2_">
		<use xlink:href="#SVGID_1_"  overflow="visible"/>
	</clipPath>
	<g clip-path="url(#SVGID_2_)">
		<defs>
			<rect id="SVGID_3_" y="0" width="61.102" height="80.281"/>
		</defs>
		<clipPath id="SVGID_4_">
			<use xlink:href="#SVGID_3_"  overflow="visible"/>
		</clipPath>
		<path clip-path="url(#SVGID_4_)" fill="#58595B" d="M5.051,62.664c0.061,0.66,0.56,0.898,1.17,0.898
			c0.43,0,1.179-0.089,1.149-0.679c-0.03-0.6-0.86-0.669-1.689-0.86c-0.84-0.179-1.659-0.479-1.659-1.528
			c0-1.129,1.219-1.479,2.159-1.479c1.059,0,2.018,0.439,2.158,1.588H7.15c-0.1-0.54-0.549-0.688-1.049-0.688
			c-0.33,0-0.94,0.08-0.94,0.529c0,0.56,0.839,0.64,1.679,0.829c0.83,0.19,1.669,0.49,1.669,1.51c0,1.229-1.239,1.68-2.309,1.68
			c-1.298,0-2.268-0.58-2.288-1.8H5.051z"/>
		<path clip-path="url(#SVGID_4_)" fill="#58595B" d="M13.919,64.323H12.8v-0.721h-0.02c-0.28,0.521-0.899,0.861-1.469,0.861
			c-1.349,0-1.929-0.68-1.929-2.03v-3.277h1.14v3.168c0,0.91,0.369,1.238,0.989,1.238c0.949,0,1.269-0.608,1.269-1.408v-2.998h1.139
			V64.323z"/>
		<path clip-path="url(#SVGID_4_)" fill="#58595B" d="M15.152,57.187h1.139v2.64h0.02c0.31-0.5,0.959-0.81,1.539-0.81
			c1.629,0,2.419,1.239,2.419,2.748c0,1.389-0.7,2.699-2.228,2.699c-0.7,0-1.449-0.17-1.789-0.851h-0.021v0.709h-1.079V57.187z
			 M17.701,59.916c-0.96,0-1.449,0.729-1.449,1.829c0,1.039,0.529,1.817,1.449,1.817c1.039,0,1.429-0.918,1.429-1.817
			C19.13,60.806,18.64,59.916,17.701,59.916"/>
		<rect x="21.263" y="57.188" clip-path="url(#SVGID_4_)" fill="#58595B" width="1.139" height="7.136"/>
		<path clip-path="url(#SVGID_4_)" fill="#58595B" d="M23.673,57.188h1.139v1.079h-1.139V57.188z M23.673,59.156h1.139v5.167h-1.139
			V59.156z"/>
		<path clip-path="url(#SVGID_4_)" fill="#58595B" d="M26.053,59.156h1.079v0.72h0.03c0.34-0.51,0.77-0.86,1.589-0.86
			c0.63,0,1.22,0.271,1.449,0.86c0.381-0.53,0.871-0.86,1.619-0.86c1.091,0,1.73,0.48,1.73,1.74v3.567h-1.14v-3.02
			c0-0.818-0.05-1.388-0.939-1.388c-0.771,0-1.1,0.51-1.1,1.379v3.028h-1.138v-3.318c0-0.709-0.221-1.089-0.91-1.089
			c-0.59,0-1.129,0.479-1.129,1.339v3.068h-1.14V59.156z"/>
		<path clip-path="url(#SVGID_4_)" fill="#58595B" d="M39.081,63.173c0,0.281,0.06,0.391,0.27,0.391c0.069,0,0.16,0,0.279-0.02
			v0.789c-0.17,0.06-0.529,0.131-0.719,0.131c-0.46,0-0.79-0.161-0.88-0.63c-0.45,0.439-1.18,0.63-1.789,0.63
			c-0.93,0-1.77-0.5-1.77-1.51c0-1.289,1.03-1.499,1.989-1.61c0.819-0.148,1.549-0.059,1.549-0.729c0-0.59-0.609-0.699-1.069-0.699
			c-0.64,0-1.089,0.259-1.139,0.819h-1.14c0.08-1.329,1.209-1.72,2.349-1.72c1.01,0,2.069,0.409,2.069,1.499V63.173z M37.941,61.735
			c-0.35,0.229-0.899,0.22-1.399,0.31c-0.489,0.08-0.93,0.259-0.93,0.859c0,0.51,0.649,0.659,1.05,0.659
			c0.5,0,1.279-0.261,1.279-0.979V61.735z"/>
		<path clip-path="url(#SVGID_4_)" fill="#58595B" d="M39.793,59.156h0.859v-1.549h1.14v1.549h1.029v0.85h-1.029v2.758
			c0,0.471,0.04,0.709,0.55,0.709c0.159,0,0.319,0,0.479-0.04v0.88c-0.25,0.021-0.49,0.061-0.739,0.061
			c-1.189,0-1.41-0.459-1.43-1.32v-3.047h-0.859V59.156z"/>
		<path clip-path="url(#SVGID_4_)" fill="#58595B" d="M43.673,57.188h1.139v1.079h-1.139V57.188z M43.673,59.156h1.139v5.167h-1.139
			V59.156z"/>
		<path clip-path="url(#SVGID_4_)" fill="#58595B" d="M45.813,61.735c0-1.579,0.95-2.72,2.609-2.72s2.608,1.141,2.608,2.72
			c0,1.589-0.949,2.729-2.608,2.729S45.813,63.324,45.813,61.735 M49.891,61.735c0-0.891-0.449-1.819-1.469-1.819
			s-1.47,0.929-1.47,1.819c0,0.898,0.45,1.828,1.47,1.828S49.891,62.634,49.891,61.735"/>
		<path clip-path="url(#SVGID_4_)" fill="#58595B" d="M51.982,59.156h1.079v0.76l0.021,0.019c0.34-0.568,0.93-0.919,1.609-0.919
			c1.119,0,1.828,0.601,1.828,1.76v3.548h-1.139v-3.248c-0.021-0.811-0.34-1.159-1.01-1.159c-0.76,0-1.249,0.599-1.249,1.359v3.048
			h-1.14V59.156z"/>
		<path clip-path="url(#SVGID_4_)" fill="#58595B" d="M13.393,68.155h1.079v0.699h0.021c0.319-0.588,0.939-0.838,1.598-0.838
			c1.629,0,2.419,1.239,2.419,2.748c0,1.389-0.7,2.699-2.228,2.699c-0.66,0-1.37-0.24-1.73-0.811h-0.02v2.578h-1.139V68.155z
			 M15.941,68.916c-0.96,0-1.449,0.729-1.449,1.829c0,1.039,0.529,1.817,1.449,1.817c1.039,0,1.429-0.918,1.429-1.817
			C17.371,69.806,16.88,68.916,15.941,68.916"/>
		<path clip-path="url(#SVGID_4_)" fill="#58595B" d="M19.473,68.156h1.069v1h0.021c0.13-0.551,0.809-1.141,1.509-1.141
			c0.259,0,0.33,0.021,0.429,0.03v1.099c-0.16-0.019-0.33-0.05-0.489-0.05c-0.78,0-1.399,0.63-1.399,1.771v2.458h-1.14V68.156z"/>
		<path clip-path="url(#SVGID_4_)" fill="#58595B" d="M23.022,66.188h1.139v1.079h-1.139V66.188z M23.022,68.156h1.139v5.167h-1.139
			V68.156z"/>
		<path clip-path="url(#SVGID_4_)" fill="#58595B" d="M25.402,68.156h1.079v0.76l0.021,0.019c0.339-0.568,0.929-0.919,1.609-0.919
			c1.119,0,1.828,0.601,1.828,1.76v3.548H28.8v-3.248c-0.02-0.811-0.339-1.159-1.009-1.159c-0.76,0-1.249,0.599-1.249,1.359v3.048
			h-1.14V68.156z"/>
		<path clip-path="url(#SVGID_4_)" fill="#58595B" d="M30.623,68.156h0.859v-1.549h1.14v1.549h1.029v0.85h-1.029v2.758
			c0,0.471,0.04,0.709,0.55,0.709c0.159,0,0.319,0,0.479-0.04v0.88c-0.25,0.021-0.49,0.061-0.739,0.061
			c-1.19,0-1.41-0.459-1.43-1.32v-3.047h-0.859V68.156z"/>
		<path clip-path="url(#SVGID_4_)" fill="#58595B" d="M34.503,66.188h1.139v1.079h-1.139V66.188z M34.503,68.156h1.139v5.167h-1.139
			V68.156z"/>
		<path clip-path="url(#SVGID_4_)" fill="#58595B" d="M36.883,68.156h1.079v0.76l0.021,0.019c0.34-0.568,0.93-0.919,1.609-0.919
			c1.119,0,1.828,0.601,1.828,1.76v3.548h-1.139v-3.248c-0.021-0.811-0.34-1.159-1.01-1.159c-0.76,0-1.249,0.599-1.249,1.359v3.048
			h-1.14V68.156z"/>
		<path clip-path="url(#SVGID_4_)" fill="#58595B" d="M47.4,73.054c0,1.549-0.91,2.318-2.538,2.318c-1.04,0-2.209-0.399-2.31-1.608
			h1.14c0.14,0.649,0.66,0.758,1.239,0.758c0.92,0,1.329-0.469,1.329-1.318v-0.789H46.24c-0.319,0.568-0.908,0.908-1.548,0.908
			c-1.64,0-2.319-1.238-2.319-2.719c0-1.388,0.87-2.587,2.339-2.587c0.649,0,1.239,0.27,1.528,0.85h0.021v-0.711h1.14V73.054z
			 M46.261,70.625c0-0.891-0.399-1.709-1.389-1.709c-1.01,0-1.359,0.938-1.359,1.799c0,0.849,0.41,1.709,1.359,1.709
			C45.881,72.424,46.261,71.505,46.261,70.625"/>
		<path clip-path="url(#SVGID_4_)" fill="none" stroke="#58595B" stroke-width="0.963" d="M30.215,50.629
			c13.439,0,24.331-10.891,24.331-24.332c0-13.432-10.892-24.328-24.331-24.328c-13.437,0-24.33,10.896-24.33,24.328
			C5.885,39.738,16.778,50.629,30.215,50.629z"/>
		<g opacity="0.8" clip-path="url(#SVGID_4_)">
			<g>
				<defs>
					<rect id="SVGID_5_" x="20.257" y="29.748" width="9.566" height="9.84"/>
				</defs>
				<clipPath id="SVGID_6_">
					<use xlink:href="#SVGID_5_"  overflow="visible"/>
				</clipPath>
				<path clip-path="url(#SVGID_6_)" fill="#1A171B" d="M25.04,29.747c2.642,0,4.783,2.203,4.783,4.92
					c0,2.717-2.141,4.92-4.783,4.92s-4.784-2.203-4.784-4.92C20.256,31.95,22.398,29.747,25.04,29.747"/>
			</g>
		</g>
		<g clip-path="url(#SVGID_4_)">
			<g>
				<defs>
					<rect id="SVGID_7_" x="25.04" y="33.37" width="9.566" height="9.84"/>
				</defs>
				<clipPath id="SVGID_8_">
					<use xlink:href="#SVGID_7_"  overflow="visible"/>
				</clipPath>
				<path clip-path="url(#SVGID_8_)" fill="#34A8DB" d="M29.823,33.37c2.642,0,4.783,2.203,4.783,4.92
					c0,2.717-2.142,4.918-4.783,4.918c-2.642,0-4.783-2.202-4.783-4.918C25.04,35.573,27.181,33.37,29.823,33.37"/>
			</g>
		</g>
		<g clip-path="url(#SVGID_4_)">
			<g>
				<defs>
					<rect id="SVGID_9_" x="25.04" y="26.499" width="9.566" height="9.84"/>
				</defs>
				<clipPath id="SVGID_10_">
					<use xlink:href="#SVGID_9_"  overflow="visible"/>
				</clipPath>
				<path clip-path="url(#SVGID_10_)" fill="#E32283" d="M29.823,26.498c2.642,0,4.783,2.203,4.783,4.92
					c0,2.717-2.142,4.92-4.783,4.92c-2.642,0-4.783-2.203-4.783-4.92C25.04,28.701,27.181,26.498,29.823,26.498"/>
			</g>
		</g>
		<g clip-path="url(#SVGID_4_)">
			<g>
				<defs>
					<rect id="SVGID_11_" x="30.608" y="29.748" width="9.566" height="9.84"/>
				</defs>
				<clipPath id="SVGID_12_">
					<use xlink:href="#SVGID_11_"  overflow="visible"/>
				</clipPath>
				<path clip-path="url(#SVGID_12_)" fill="#F7E723" d="M35.392,29.747c2.642,0,4.783,2.203,4.783,4.92
					c0,2.717-2.142,4.92-4.783,4.92s-4.783-2.203-4.783-4.92C30.608,31.95,32.75,29.747,35.392,29.747"/>
			</g>
		</g>
		<path clip-path="url(#SVGID_4_)" fill="#58595B" d="M32.829,13.813h-2.291V13.11c0-0.328-0.029-0.537-0.088-0.627
			c-0.06-0.09-0.156-0.135-0.293-0.135c-0.148,0-0.261,0.061-0.337,0.182c-0.076,0.121-0.114,0.304-0.114,0.552
			c0,0.316,0.043,0.554,0.129,0.714c0.081,0.161,0.313,0.354,0.696,0.58c1.099,0.652,1.79,1.187,2.075,1.605
			c0.284,0.418,0.428,1.092,0.428,2.021c0,0.676-0.079,1.174-0.237,1.495c-0.158,0.32-0.464,0.588-0.917,0.805
			s-0.98,0.325-1.582,0.325c-0.66,0-1.224-0.125-1.691-0.375c-0.466-0.25-0.772-0.568-0.917-0.955
			c-0.144-0.386-0.216-0.935-0.216-1.646V17.03h2.291v1.154c0,0.356,0.032,0.584,0.096,0.686c0.065,0.101,0.179,0.152,0.343,0.152
			s0.286-0.064,0.366-0.193s0.12-0.321,0.12-0.575c0-0.558-0.076-0.923-0.229-1.095c-0.156-0.172-0.541-0.459-1.154-0.862
			c-0.614-0.406-1.02-0.701-1.219-0.884c-0.199-0.184-0.364-0.438-0.495-0.762c-0.131-0.324-0.197-0.738-0.197-1.242
			c0-0.727,0.093-1.258,0.279-1.594c0.185-0.336,0.485-0.599,0.899-0.788c0.414-0.19,0.914-0.284,1.5-0.284
			c0.641,0,1.187,0.103,1.638,0.31s0.75,0.468,0.896,0.782c0.146,0.315,0.22,0.849,0.22,1.603V13.813z"/>
		
			<line clip-path="url(#SVGID_4_)" fill="none" stroke="#58595B" stroke-width="0.466" x1="5.011" y1="53.79" x2="55.421" y2="53.79"/>
	</g>
</g>
</svg>
