<?xml version="1.0" encoding="utf-8"?>
<!-- Generator: Adobe Illustrator 15.0.2, SVG Export Plug-In . SVG Version: 6.00 Build 0)  -->
<!DOCTYPE svg PUBLIC "-//W3C//DTD SVG 1.1//EN" "http://www.w3.org/Graphics/SVG/1.1/DTD/svg11.dtd">
<svg version="1.1" id="Livello_1" xmlns="http://www.w3.org/2000/svg" xmlns:xlink="http://www.w3.org/1999/xlink" x="0px" y="0px"
	 width="61.102px" height="53.948px" viewBox="0 0 61.102 53.948" enable-background="new 0 0 61.102 53.948" xml:space="preserve">
<g>
	<defs>
		<rect id="SVGID_1_" y="0" width="61.102" height="80.281"/>
	</defs>
	<clipPath id="SVGID_2_">
		<use xlink:href="#SVGID_1_"  overflow="visible"/>
	</clipPath>
	<path clip-path="url(#SVGID_2_)" fill="none" stroke="#58595B" stroke-width="0.963" d="M30.206,51.358
		c13.438,0,24.33-10.891,24.33-24.332c0-13.431-10.892-24.328-24.33-24.328c-13.437,0-24.33,10.897-24.33,24.328
		C5.876,40.467,16.77,51.358,30.206,51.358z"/>
	<path clip-path="url(#SVGID_2_)" fill="#58595B" d="M30.025,21.951h-9.212c-0.515,0-0.931,0.417-0.931,0.931
		c0,0.513,0.416,0.93,0.931,0.93h9.212c0.514,0,0.93-0.417,0.93-0.93C30.955,22.368,30.539,21.951,30.025,21.951"/>
	<path clip-path="url(#SVGID_2_)" fill="#58595B" d="M30.025,25.021h-9.212c-0.515,0-0.931,0.417-0.931,0.93
		c0,0.514,0.416,0.931,0.931,0.931h9.212c0.514,0,0.93-0.417,0.93-0.931C30.955,25.438,30.539,25.021,30.025,25.021"/>
	<path clip-path="url(#SVGID_2_)" fill="#58595B" d="M30.025,28.092h-9.212c-0.515,0-0.931,0.417-0.931,0.93
		c0,0.514,0.416,0.931,0.931,0.931h9.212c0.514,0,0.93-0.417,0.93-0.931C30.955,28.509,30.539,28.092,30.025,28.092"/>
	<path clip-path="url(#SVGID_2_)" fill="#58595B" d="M41.378,35.303c0,0.253-0.213,0.466-0.466,0.466H39.4v-2.333
		c0.68-0.766,1.093-1.775,1.093-2.878c0-2.392-1.94-4.338-4.326-4.338s-4.328,1.946-4.328,4.338c0,1.103,0.415,2.112,1.094,2.878
		v2.333H19.137c-0.251,0-0.465-0.213-0.465-0.466V19.67c0-0.252,0.214-0.465,0.465-0.465h21.775c0.253,0,0.466,0.213,0.466,0.465
		V35.303z M36.683,37.461c-0.155-0.105-0.336-0.157-0.516-0.157c-0.181,0-0.36,0.052-0.517,0.157l-0.856,0.57v-3.36
		c0.432,0.145,0.893,0.225,1.373,0.225c0.479,0,0.94-0.08,1.372-0.225v3.36L36.683,37.461z M36.167,33.034
		c-1.36,0-2.467-1.11-2.467-2.476c0-1.366,1.106-2.477,2.467-2.477c1.359,0,2.466,1.111,2.466,2.477
		C38.633,31.924,37.526,33.034,36.167,33.034 M40.912,17.344H19.137c-1.282,0-2.326,1.043-2.326,2.326v15.634
		c0,1.282,1.044,2.326,2.326,2.326h13.795v2.14c0,0.344,0.189,0.659,0.492,0.821c0.302,0.162,0.67,0.144,0.955-0.046l1.787-1.191
		l1.787,1.191c0.155,0.104,0.335,0.156,0.516,0.156c0.15,0,0.302-0.037,0.439-0.11c0.303-0.162,0.491-0.477,0.491-0.82V37.63h1.512
		c1.283,0,2.326-1.044,2.326-2.326V19.67C43.239,18.387,42.195,17.344,40.912,17.344"/>
</g>
</svg>
