<?xml version="1.0" encoding="utf-8"?>
<!-- Generator: Adobe Illustrator 15.0.2, SVG Export Plug-In . SVG Version: 6.00 Build 0)  -->
<!DOCTYPE svg PUBLIC "-//W3C//DTD SVG 1.1//EN" "http://www.w3.org/Graphics/SVG/1.1/DTD/svg11.dtd">
<svg version="1.1" id="Livello_1" xmlns="http://www.w3.org/2000/svg" xmlns:xlink="http://www.w3.org/1999/xlink" x="0px" y="0px"
	 width="61.102px" height="80.281px" viewBox="0 0 61.102 80.281" enable-background="new 0 0 61.102 80.281" xml:space="preserve">
<g>
	<defs>
		<rect id="SVGID_1_" width="61.102" height="80.281"/>
	</defs>
	<clipPath id="SVGID_2_">
		<use xlink:href="#SVGID_1_"  overflow="visible"/>
	</clipPath>
	<g clip-path="url(#SVGID_2_)">
		<defs>
			<path id="SVGID_3_" d="M34.575,22.362c-2.903,6.28-5.763,6.017-9.737,5.957c-3.973-0.06-5.871,5.022-9.723,8.229
				c-1.546,1.288-3.146,2.425-4.768,3.429c4.383,6.259,11.648,10.35,19.87,10.35c13.386,0,24.239-10.851,24.239-24.239
				c0-1.018-0.063-2.021-0.184-3.005c-2.236-0.288-4.798-0.705-7.856-1.223c-2.904-0.492-5.776-1.665-8.089-1.664
				C36.768,20.196,35.464,20.729,34.575,22.362"/>
		</defs>
		<clipPath id="SVGID_4_">
			<use xlink:href="#SVGID_3_"  overflow="visible"/>
		</clipPath>
		<defs>
			<filter id="Adobe_OpacityMaskFilter" filterUnits="userSpaceOnUse" x="7.971" y="16.716" width="48.861" height="37.089">
				<feColorMatrix  type="matrix" values="1 0 0 0 0  0 1 0 0 0  0 0 1 0 0  0 0 0 1 0"/>
			</filter>
		</defs>
		<mask maskUnits="userSpaceOnUse" x="7.971" y="16.716" width="48.861" height="37.089" id="SVGID_5_">
			<g filter="url(#Adobe_OpacityMaskFilter)">
				
					<linearGradient id="SVGID_6_" gradientUnits="userSpaceOnUse" x1="0" y1="80.4531" x2="1" y2="80.4531" gradientTransform="matrix(90.3093 7.1674 6.7458 -85.0138 -557.682 6871.1538)">
					<stop  offset="0" style="stop-color:#FFFFFF"/>
					<stop  offset="0.166" style="stop-color:#FBFBFB"/>
					<stop  offset="0.3192" style="stop-color:#F0F0F0"/>
					<stop  offset="0.4676" style="stop-color:#DDDDDD"/>
					<stop  offset="0.6129" style="stop-color:#C3C3C3"/>
					<stop  offset="0.756" style="stop-color:#A1A1A1"/>
					<stop  offset="0.8955" style="stop-color:#787878"/>
					<stop  offset="1" style="stop-color:#545454"/>
				</linearGradient>
				<polygon clip-path="url(#SVGID_4_)" fill="url(#SVGID_6_)" points="10.623,16.716 56.832,20.384 54.18,53.806 7.971,50.139 				
					"/>
			</g>
		</mask>
		
			<linearGradient id="SVGID_7_" gradientUnits="userSpaceOnUse" x1="0" y1="80.4531" x2="1" y2="80.4531" gradientTransform="matrix(90.3093 7.1674 6.7458 -85.0138 -557.682 6871.1538)">
			<stop  offset="0" style="stop-color:#FFFFFF"/>
			<stop  offset="0.1677" style="stop-color:#FBFBFB"/>
			<stop  offset="0.3227" style="stop-color:#F0F0F0"/>
			<stop  offset="0.4726" style="stop-color:#DDDDDE"/>
			<stop  offset="0.6194" style="stop-color:#C3C3C4"/>
			<stop  offset="0.7641" style="stop-color:#A1A1A2"/>
			<stop  offset="0.9051" style="stop-color:#78787A"/>
			<stop  offset="1" style="stop-color:#58585A"/>
		</linearGradient>
		<polygon clip-path="url(#SVGID_4_)" mask="url(#SVGID_5_)" fill="url(#SVGID_7_)" points="10.623,16.716 56.832,20.384 
			54.18,53.806 7.971,50.139 		"/>
	</g>
	<g clip-path="url(#SVGID_2_)">
		<defs>
			<path id="SVGID_8_" d="M5.975,26.088c0,13.388,10.853,24.239,24.242,24.239c13.386,0,24.239-10.851,24.239-24.239
				c0-13.388-10.854-24.243-24.239-24.243C16.828,1.845,5.975,12.7,5.975,26.088"/>
		</defs>
		<clipPath id="SVGID_9_">
			<use xlink:href="#SVGID_8_"  overflow="visible"/>
		</clipPath>
		<path clip-path="url(#SVGID_9_)" fill="none" stroke="#58595B" stroke-width="1.394" stroke-miterlimit="10" d="M-15.898,47.578
			c0,0,17.568,0.167,31.014-11.03c3.85-3.207,5.748-8.289,9.722-8.229c3.974,0.06,6.834,0.323,9.737-5.957
			c2.206-4.055,6.979-1.326,11.841-0.502c13.628,2.309,17.373,2.606,26.496-1.575c9.12-4.182-3.864,58.156-9.573,63.529
			C57.627,89.188-24.18,74.638-15.898,47.578z"/>
	</g>
	<g clip-path="url(#SVGID_2_)">
		<defs>
			<rect id="SVGID_10_" y="0" width="61.102" height="80.281"/>
		</defs>
		<clipPath id="SVGID_11_">
			<use xlink:href="#SVGID_10_"  overflow="visible"/>
		</clipPath>
		<path clip-path="url(#SVGID_11_)" fill="none" stroke="#58595B" stroke-width="0.963" d="M30.215,50.617
			c13.439,0,24.331-10.891,24.331-24.332c0-13.432-10.892-24.328-24.331-24.328c-13.437,0-24.33,10.896-24.33,24.328
			C5.885,39.726,16.778,50.617,30.215,50.617z"/>
		<path clip-path="url(#SVGID_11_)" fill-rule="evenodd" clip-rule="evenodd" fill="#58595B" d="M29.905,23.315l-2.408-12.442
			c-0.204-1.052-1.469-1.489-2.279-0.787l-9.571,8.307c-0.809,0.702-0.555,2.016,0.458,2.366l11.98,4.136
			C29.097,25.245,30.108,24.367,29.905,23.315"/>
		<path clip-path="url(#SVGID_11_)" fill="#58595B" d="M8.477,61.75c0.061,0.659,0.56,0.898,1.17,0.898
			c0.43,0,1.179-0.089,1.149-0.679c-0.03-0.6-0.86-0.67-1.689-0.86c-0.84-0.179-1.659-0.479-1.659-1.528
			c0-1.129,1.219-1.479,2.159-1.479c1.059,0,2.018,0.44,2.158,1.589h-1.189c-0.1-0.54-0.549-0.689-1.049-0.689
			c-0.33,0-0.94,0.08-0.94,0.529c0,0.561,0.839,0.641,1.679,0.829c0.83,0.191,1.669,0.491,1.669,1.511
			c0,1.229-1.239,1.679-2.309,1.679c-1.298,0-2.268-0.58-2.289-1.799H8.477z"/>
		<path clip-path="url(#SVGID_11_)" fill="#58595B" d="M12.568,60.82c0-1.579,0.95-2.72,2.609-2.72c1.659,0,2.609,1.141,2.609,2.72
			c0,1.589-0.95,2.729-2.609,2.729C13.518,63.549,12.568,62.409,12.568,60.82 M16.646,60.82c0-0.891-0.449-1.819-1.469-1.819
			c-1.019,0-1.469,0.929-1.469,1.819c0,0.898,0.45,1.829,1.469,1.829C16.197,62.649,16.646,61.719,16.646,60.82"/>
		<path clip-path="url(#SVGID_11_)" fill="#58595B" d="M18.228,58.242h0.85v-0.431c0-1.318,0.689-1.54,1.429-1.54
			c0.36,0,0.619,0.021,0.799,0.071v0.89c-0.149-0.04-0.3-0.06-0.529-0.06c-0.31,0-0.56,0.109-0.56,0.539v0.53h0.969v0.85h-0.969
			v4.317h-1.139v-4.317h-0.85V58.242z"/>
		<path clip-path="url(#SVGID_11_)" fill="#58595B" d="M21.368,58.242h0.859v-1.55h1.14v1.55h1.029v0.85h-1.029v2.757
			c0,0.471,0.04,0.71,0.55,0.71c0.159,0,0.319,0,0.479-0.04v0.881c-0.25,0.02-0.49,0.06-0.739,0.06c-1.189,0-1.409-0.46-1.43-1.32
			v-3.047h-0.859V58.242z"/>
		<path clip-path="url(#SVGID_11_)" fill="#58595B" d="M27.478,58.242h0.859v-1.55h1.14v1.55h1.029v0.85h-1.029v2.757
			c0,0.471,0.04,0.71,0.55,0.71c0.158,0,0.318,0,0.479-0.04v0.881c-0.25,0.02-0.49,0.06-0.739,0.06c-1.189,0-1.41-0.46-1.43-1.32
			v-3.047h-0.859V58.242z"/>
		<path clip-path="url(#SVGID_11_)" fill="#58595B" d="M31.087,60.82c0-1.579,0.95-2.72,2.609-2.72s2.608,1.141,2.608,2.72
			c0,1.589-0.949,2.729-2.608,2.729S31.087,62.409,31.087,60.82 M35.165,60.82c0-0.891-0.449-1.819-1.469-1.819
			s-1.47,0.929-1.47,1.819c0,0.898,0.45,1.829,1.47,1.829S35.165,61.719,35.165,60.82"/>
		<path clip-path="url(#SVGID_11_)" fill="#58595B" d="M41.794,63.409h-1.119v-0.721h-0.02c-0.28,0.521-0.899,0.86-1.47,0.86
			c-1.349,0-1.929-0.68-1.929-2.03v-3.276h1.14v3.168c0,0.909,0.369,1.239,0.989,1.239c0.949,0,1.27-0.609,1.27-1.409v-2.998h1.139
			V63.409z"/>
		<path clip-path="url(#SVGID_11_)" fill="#58595B" d="M46.485,59.971c-0.09-0.63-0.55-0.971-1.18-0.971
			c-0.59,0-1.419,0.312-1.419,1.88c0,0.86,0.38,1.77,1.37,1.77c0.658,0,1.118-0.44,1.229-1.18h1.14
			c-0.21,1.34-1.04,2.079-2.368,2.079c-1.62,0-2.51-1.149-2.51-2.669c0-1.559,0.85-2.778,2.55-2.778
			c1.198,0,2.218,0.599,2.328,1.869H46.485z"/>
		<path clip-path="url(#SVGID_11_)" fill="#58595B" d="M48.557,56.272h1.14v2.648h0.02c0.279-0.469,0.87-0.819,1.55-0.819
			c1.119,0,1.828,0.6,1.828,1.76v3.548h-1.139v-3.248c-0.021-0.81-0.34-1.16-1.01-1.16c-0.76,0-1.249,0.6-1.249,1.359v3.049h-1.14
			V56.272z"/>
		
			<line clip-path="url(#SVGID_11_)" fill="none" stroke="#58595B" stroke-width="0.466" x1="5.011" y1="53.79" x2="55.421" y2="53.79"/>
	</g>
</g>
</svg>
