<?xml version="1.0" encoding="utf-8"?>
<!-- Generator: Adobe Illustrator 15.0.2, SVG Export Plug-In . SVG Version: 6.00 Build 0)  -->
<!DOCTYPE svg PUBLIC "-//W3C//DTD SVG 1.1//EN" "http://www.w3.org/Graphics/SVG/1.1/DTD/svg11.dtd">
<svg version="1.1" id="Livello_1" xmlns="http://www.w3.org/2000/svg" xmlns:xlink="http://www.w3.org/1999/xlink" x="0px" y="0px"
	 width="61.102px" height="53.781px" viewBox="0 0 61.102 53.781" enable-background="new 0 0 61.102 53.781" xml:space="preserve">
<g>
	<defs>
		<rect id="SVGID_1_" y="0" width="61.102" height="80.281"/>
	</defs>
	<clipPath id="SVGID_2_">
		<use xlink:href="#SVGID_1_"  overflow="visible"/>
	</clipPath>
	<path clip-path="url(#SVGID_2_)" fill="none" stroke="#58595B" stroke-width="0.963" d="M30.122,51.425
		c13.438,0,24.33-10.891,24.33-24.332c0-13.431-10.892-24.328-24.33-24.328c-13.438,0-24.331,10.897-24.331,24.328
		C5.792,40.534,16.685,51.425,30.122,51.425z"/>
	<path clip-path="url(#SVGID_2_)" fill="#58595B" d="M42.51,17.15l-3.918,19.757c0,0-0.549,1.37-2.056,0.712l-9.042-6.932
		l-3.288-1.59l-5.535-1.864c0,0-0.85-0.3-0.932-0.958c-0.083-0.658,0.959-1.015,0.959-1.015l22.003-8.631
		C40.701,16.629,42.51,15.835,42.51,17.15"/>
	<path clip-path="url(#SVGID_2_)" fill="#58595B" d="M26.798,36.685c0,0-0.263-0.024-0.593-1.066c-0.328-1.041-2-6.521-2-6.521
		l3.316,1.423L26.798,36.685z"/>
	<path clip-path="url(#SVGID_2_)" fill="#58595B" d="M30.961,33.344l-3.577,3.261c0,0-0.279,0.213-0.586,0.08l0.685-6.058"/>
	<path clip-path="url(#SVGID_2_)" fill="#FFFFFF" d="M38.235,20.658c0.027-0.466-0.74,0-0.74,0l-12.534,7.96
		c0.614,2.009,1.317,4.311,2.012,6.578l0.548-4.674c0,0,10.029-9.015,10.439-9.399C38.373,20.74,38.235,20.658,38.235,20.658"/>
</g>
</svg>
