<?xml version="1.0" encoding="utf-8"?>
<!-- Generator: Adobe Illustrator 15.0.2, SVG Export Plug-In . SVG Version: 6.00 Build 0)  -->
<!DOCTYPE svg PUBLIC "-//W3C//DTD SVG 1.1//EN" "http://www.w3.org/Graphics/SVG/1.1/DTD/svg11.dtd">
<svg version="1.1" id="Livello_1" xmlns="http://www.w3.org/2000/svg" xmlns:xlink="http://www.w3.org/1999/xlink" x="0px" y="0px"
	 width="61.102px" height="80.281px" viewBox="0 0 61.102 80.281" enable-background="new 0 0 61.102 80.281" xml:space="preserve">
<g>
	<defs>
		<rect id="SVGID_1_" y="0" width="61.102" height="80.281"/>
	</defs>
	<clipPath id="SVGID_2_">
		<use xlink:href="#SVGID_1_"  overflow="visible"/>
	</clipPath>
	<path clip-path="url(#SVGID_2_)" fill="#58595B" d="M10.252,58.807h1.079v0.759l0.021,0.02c0.339-0.568,0.929-0.92,1.609-0.92
		c1.119,0,1.828,0.601,1.828,1.761v3.548H13.65v-3.248c-0.02-0.811-0.339-1.16-1.009-1.16c-0.76,0-1.249,0.599-1.249,1.359v3.049
		h-1.14V58.807z"/>
	<path clip-path="url(#SVGID_2_)" fill="#58595B" d="M16.882,61.685c0,0.81,0.439,1.528,1.388,1.528c0.661,0,1.06-0.29,1.26-0.858
		h1.079c-0.25,1.129-1.209,1.759-2.339,1.759c-1.618,0-2.528-1.129-2.528-2.719c0-1.47,0.96-2.729,2.499-2.729
		c1.629,0,2.628,1.47,2.439,3.02H16.882z M19.541,60.936c-0.04-0.721-0.529-1.37-1.299-1.37c-0.79,0-1.329,0.599-1.359,1.37H19.541z
		"/>
	<polygon clip-path="url(#SVGID_2_)" fill="#58595B" points="21.083,58.807 22.292,58.807 23.301,62.663 23.321,62.663 
		24.291,58.807 25.439,58.807 26.37,62.663 26.391,62.663 27.438,58.807 28.599,58.807 26.979,63.974 25.811,63.974 24.851,60.136 
		24.831,60.136 23.881,63.974 22.683,63.974 	"/>
	<path clip-path="url(#SVGID_2_)" fill="#58595B" d="M32.144,56.836h1.14v1.08h-1.14V56.836z M32.144,58.807h1.14v5.167h-1.14
		V58.807z"/>
	<path clip-path="url(#SVGID_2_)" fill="#58595B" d="M34.004,58.807h0.859v-1.55h1.14v1.55h1.029v0.85h-1.029v2.757
		c0,0.471,0.04,0.71,0.55,0.71c0.159,0,0.319,0,0.479-0.04v0.88c-0.25,0.021-0.49,0.061-0.739,0.061c-1.189,0-1.41-0.46-1.43-1.32
		v-3.047h-0.859V58.807z"/>
	<path clip-path="url(#SVGID_2_)" fill="#58595B" d="M38.743,61.685c0,0.81,0.439,1.528,1.39,1.528c0.659,0,1.059-0.29,1.259-0.858
		h1.079c-0.25,1.129-1.209,1.759-2.338,1.759c-1.619,0-2.529-1.129-2.529-2.719c0-1.47,0.96-2.729,2.499-2.729
		c1.629,0,2.628,1.47,2.438,3.02H38.743z M41.401,60.936c-0.04-0.721-0.529-1.37-1.299-1.37c-0.79,0-1.329,0.599-1.359,1.37H41.401z
		"/>
	<path clip-path="url(#SVGID_2_)" fill="#58595B" d="M43.413,58.807h1.079v0.719h0.03c0.34-0.509,0.77-0.86,1.589-0.86
		c0.63,0,1.22,0.271,1.449,0.86c0.38-0.53,0.87-0.86,1.619-0.86c1.09,0,1.729,0.481,1.729,1.74v3.568h-1.14v-3.02
		c0-0.818-0.05-1.389-0.939-1.389c-0.77,0-1.1,0.51-1.1,1.38v3.028h-1.139v-3.318c0-0.71-0.221-1.09-0.91-1.09
		c-0.59,0-1.129,0.479-1.129,1.34v3.068h-1.14V58.807z"/>
	<path clip-path="url(#SVGID_2_)" fill="none" stroke="#58595B" stroke-width="0.963" d="M30.038,51.013
		c13.439,0,24.33-10.891,24.33-24.332c0-13.432-10.891-24.328-24.33-24.328c-13.436,0-24.329,10.896-24.329,24.328
		C5.709,40.122,16.602,51.013,30.038,51.013z"/>
	<path clip-path="url(#SVGID_2_)" fill="#152A6E" d="M17.526,35.54l0.035-0.031c0.151,0.11,0.403,0.103,0.778,0.031
		c1.527-0.293,5.673-2.523,11.529-2.549h0.092h0.091c5.856,0.026,10.002,2.256,11.53,2.549c0.374,0.072,0.627,0.079,0.778-0.031
		l0.034,0.031l-0.063,0.93c-0.024,1.626,1.323,5.488,1.217,6.664c-0.009,0.585-0.159,0.799-0.695,0.799
		c-1.175,0-3.284-0.813-6.821-1.934c-1.934-0.613-4.23-0.773-6.167-0.773c-1.936,0-4.232,0.16-6.165,0.773
		c-3.537,1.12-5.457,1.934-6.631,1.934c-0.537,0-0.686-0.214-0.697-0.799c-0.105-1.176,1.242-5.038,1.218-6.664L17.526,35.54z"/>
	<path clip-path="url(#SVGID_2_)" fill="none" stroke="#FFFFFF" stroke-width="0.506" stroke-miterlimit="3.864" d="M17.526,35.54
		l0.035-0.031c0.151,0.11,0.403,0.103,0.778,0.031c1.527-0.293,5.673-2.523,11.529-2.549h0.092h0.091
		c5.856,0.026,10.002,2.256,11.53,2.549c0.374,0.072,0.627,0.079,0.778-0.031l0.034,0.031l-0.063,0.93
		c-0.024,1.626,1.323,5.488,1.217,6.664c-0.009,0.585-0.159,0.799-0.695,0.799c-1.175,0-3.284-0.813-6.821-1.934
		c-1.934-0.613-4.23-0.773-6.167-0.773c-1.936,0-4.232,0.16-6.165,0.773c-3.537,1.12-5.457,1.934-6.631,1.934
		c-0.537,0-0.686-0.214-0.697-0.799c-0.105-1.176,1.242-5.038,1.218-6.664L17.526,35.54z"/>
	<path clip-path="url(#SVGID_2_)" fill="#58585A" d="M17.526,35.54l0.035-0.031c0.151,0.11,0.403,0.103,0.778,0.031
		c1.527-0.293,5.673-2.523,11.529-2.549h0.092h0.091c5.856,0.026,10.002,2.256,11.53,2.549c0.374,0.072,0.627,0.079,0.778-0.031
		l0.034,0.031l-0.063,0.93c-0.024,1.626,1.323,5.488,1.217,6.664c-0.009,0.585-0.159,0.799-0.695,0.799
		c-1.175,0-4.571-1.29-6.821-1.934c-1.951-0.559-4.23-0.773-6.167-0.773c-1.936,0-3.916,0.167-6.165,0.773
		c-3.582,0.967-5.457,1.934-6.631,1.934c-0.537,0-0.686-0.214-0.697-0.799c-0.105-1.176,1.242-5.038,1.218-6.664L17.526,35.54z"/>
	<path clip-path="url(#SVGID_2_)" fill="none" stroke="#58595B" stroke-width="0.5" stroke-miterlimit="3.864" d="M17.526,35.54
		l0.035-0.031c0.151,0.11,0.403,0.103,0.778,0.031c1.527-0.293,5.673-2.523,11.529-2.549h0.092h0.091
		c5.856,0.026,10.002,2.256,11.53,2.549c0.374,0.072,0.627,0.079,0.778-0.031l0.034,0.031l-0.063,0.93
		c-0.024,1.626,1.323,5.488,1.217,6.664c-0.009,0.585-0.159,0.799-0.695,0.799c-1.175,0-4.571-1.29-6.821-1.934
		c-1.951-0.559-4.23-0.773-6.167-0.773c-1.936,0-3.916,0.167-6.165,0.773c-3.582,0.967-5.457,1.934-6.631,1.934
		c-0.537,0-0.686-0.214-0.697-0.799c-0.105-1.176,1.242-5.038,1.218-6.664L17.526,35.54z"/>
	<path clip-path="url(#SVGID_2_)" fill="none" stroke="#58595B" stroke-width="0.5" stroke-miterlimit="3.864" d="M29.959,33.526
		c-5.903,0-10.084,2.254-11.62,2.548c-0.549,0.106-0.836,0.073-0.928-0.27c-0.998-4.794-0.731-8.883,0.552-11.995
		c1.519-3.681,4.949-6.847,11.996-6.847c7.048,0,10.478,3.166,11.997,6.847c1.283,3.112,1.551,7.201,0.552,11.995
		c-0.09,0.343-0.378,0.376-0.927,0.27C40.045,35.78,35.864,33.526,29.959,33.526z"/>
	<path clip-path="url(#SVGID_2_)" fill="none" stroke="#58595B" stroke-width="0.5" stroke-miterlimit="3.864" d="M29.959,33.526
		c-5.903,0-10.084,2.254-11.62,2.548c-0.549,0.106-0.836,0.073-0.928-0.27c-0.998-4.794-0.731-8.883,0.552-11.995
		c1.519-3.681,4.949-6.847,11.996-6.847c7.048,0,10.478,3.166,11.997,6.847c1.283,3.112,1.551,7.201,0.552,11.995
		c-0.09,0.343-0.378,0.376-0.927,0.27C40.045,35.78,35.864,33.526,29.959,33.526z"/>
	<path clip-path="url(#SVGID_2_)" fill="none" stroke="#FFFFFF" stroke-width="0.375" stroke-miterlimit="3.864" d="M28.711,17.698
		c0-0.373,0.577-0.678,1.289-0.678c0.711,0,1.289,0.305,1.289,0.678c0,0.105-0.047,0.206-0.128,0.295
		c-0.39-0.022-0.788-0.031-1.201-0.031c-0.386,0-0.761,0.009-1.124,0.027C28.756,17.902,28.711,17.803,28.711,17.698z"/>
	<path clip-path="url(#SVGID_2_)" fill="none" stroke="#58595B" stroke-width="0.5" stroke-miterlimit="3.864" d="M28.711,17.698
		c0-0.373,0.577-0.678,1.289-0.678c0.711,0,1.289,0.305,1.289,0.678c0,0.105-0.047,0.206-0.128,0.295
		c-0.39-0.022-0.788-0.031-1.201-0.031c-0.386,0-0.761,0.009-1.124,0.027C28.756,17.902,28.711,17.803,28.711,17.698z"/>
	<path clip-path="url(#SVGID_2_)" fill="#FFFFFF" d="M38.837,19.645c5.107,4.547,3.148,12.758,2.744,16.429"/>
	<path clip-path="url(#SVGID_2_)" fill="none" stroke="#58595B" stroke-width="0.5" stroke-miterlimit="3.864" d="M38.837,19.645
		c5.107,4.547,3.148,12.758,2.744,16.429"/>
	<path clip-path="url(#SVGID_2_)" fill="none" stroke="#58595B" stroke-width="0.5" stroke-miterlimit="3.864" d="M21.74,19.102
		l-0.657,0.543c-5.108,4.547-3.149,12.758-2.744,16.429"/>
</g>
<g>
	<defs>
		<path id="SVGID_3_" d="M5.63,26.542c0,13.441,10.892,24.331,24.329,24.331c13.439,0,24.33-10.89,24.33-24.331
			c0-13.432-10.891-24.328-24.33-24.328C16.522,2.214,5.63,13.11,5.63,26.542"/>
	</defs>
	<clipPath id="SVGID_4_">
		<use xlink:href="#SVGID_3_"  overflow="visible"/>
	</clipPath>
	<polygon clip-path="url(#SVGID_4_)" fill="#58595B" points="51.274,2.914 1.356,27.55 -11.184,8.144 38.734,-16.494 	"/>
</g>
<g>
	<defs>
		<rect id="SVGID_5_" y="0" width="61.102" height="80.281"/>
	</defs>
	<clipPath id="SVGID_6_">
		<use xlink:href="#SVGID_5_"  overflow="visible"/>
	</clipPath>
	<path clip-path="url(#SVGID_6_)" fill="#FFFFFF" d="M15.476,10.228l0.742-0.368l3.328,6.717l-1.217,0.604l-4.543-4.442
		c-0.259-0.251-0.491-0.515-0.752-0.888l-0.018,0.009c0.177,0.337,0.359,0.681,0.528,1.021l2.654,5.355l-0.744,0.369l-3.328-6.717
		l1.209-0.599l4.632,4.554c0.183,0.166,0.352,0.35,0.597,0.618l0.017-0.008c-0.128-0.237-0.266-0.493-0.39-0.744L15.476,10.228z"/>
	<polygon clip-path="url(#SVGID_6_)" fill="#FFFFFF" points="20.902,15.906 17.574,9.189 20.933,7.525 21.266,8.198 18.651,9.493 
		19.752,11.714 22.205,10.498 22.538,11.17 20.085,12.385 21.313,14.866 23.946,13.561 24.279,14.233 	"/>
	<path clip-path="url(#SVGID_6_)" fill="#FFFFFF" d="M27.228,12.772l-0.924,0.458l-4.76-6.007l0.825-0.409l3.172,4.196
		c0.306,0.417,0.599,0.851,0.963,1.451l0.018-0.008c-0.194-0.551-0.385-1.07-0.525-1.602l-1.335-5.173l0.921-0.457l3.181,4.191
		c0.302,0.408,0.577,0.829,0.964,1.452l0.019-0.009c-0.196-0.55-0.385-1.07-0.527-1.602l-1.344-5.168L28.7,3.677l1.752,7.498
		l-0.923,0.457l-3.155-4.115c-0.306-0.394-0.581-0.815-1-1.523l-0.016,0.009c0.256,0.676,0.446,1.195,0.587,1.727L27.228,12.772z"/>
	
		<line clip-path="url(#SVGID_6_)" fill="none" stroke="#58595B" stroke-width="0.466" x1="5.011" y1="53.79" x2="55.421" y2="53.79"/>
</g>
</svg>
