<?xml version="1.0" encoding="utf-8"?>
<!-- Generator: Adobe Illustrator 15.0.2, SVG Export Plug-In . SVG Version: 6.00 Build 0)  -->
<!DOCTYPE svg PUBLIC "-//W3C//DTD SVG 1.1//EN" "http://www.w3.org/Graphics/SVG/1.1/DTD/svg11.dtd">
<svg version="1.1" id="Livello_1" xmlns="http://www.w3.org/2000/svg" xmlns:xlink="http://www.w3.org/1999/xlink" x="0px" y="0px"
	 width="61.102px" height="53.796px" viewBox="0 0 61.102 53.796" enable-background="new 0 0 61.102 53.796" xml:space="preserve">
<g>
	<defs>
		<rect id="SVGID_1_" y="0" width="61.102" height="80.281"/>
	</defs>
	<clipPath id="SVGID_2_">
		<use xlink:href="#SVGID_1_"  overflow="visible"/>
	</clipPath>
	<path clip-path="url(#SVGID_2_)" fill="none" stroke="#58595B" stroke-width="0.963" d="M30.122,51.425
		c13.438,0,24.33-10.891,24.33-24.332c0-13.431-10.892-24.328-24.33-24.328c-13.438,0-24.331,10.897-24.331,24.328
		C5.792,40.534,16.685,51.425,30.122,51.425z"/>
	<path clip-path="url(#SVGID_2_)" fill="#FFFFFF" d="M36.575,22.695c-0.032-0.143-0.061-0.283-0.097-0.421
		c-0.244-0.979-0.671-1.874-1.258-2.694c-0.698-0.977-1.565-1.779-2.569-2.434c-1.479-0.965-3.107-1.531-4.853-1.77
		c-0.384-0.053-0.771-0.087-1.158-0.1c-0.593-0.02-1.187-0.013-1.777,0.051c-0.327,0.035-0.653,0.078-0.976,0.135
		c-0.633,0.109-1.254,0.271-1.861,0.485c-1.461,0.513-2.773,1.274-3.897,2.345c-0.804,0.766-1.453,1.646-1.916,2.659
		c-0.371,0.809-0.593,1.658-0.664,2.546c-0.028,0.348-0.029,0.696-0.007,1.045c0.024,0.388,0.078,0.772,0.163,1.15
		c0.223,1,0.636,1.916,1.216,2.759c0.618,0.896,1.378,1.652,2.262,2.284c0.234,0.167,0.353,0.441,0.268,0.745
		c-0.169,0.603-0.327,1.209-0.487,1.814c-0.031,0.117-0.054,0.235-0.032,0.358c0.035,0.187,0.143,0.27,0.333,0.253
		c0.129-0.011,0.242-0.067,0.352-0.13c0.742-0.434,1.484-0.866,2.226-1.301c0.231-0.136,0.471-0.168,0.728-0.092
		c0.916,0.272,1.852,0.432,2.804,0.485c0.362,0.02,0.726,0.014,1.088,0.018c0.072,0,0.144-0.009,0.214-0.014
		c0.002-0.011,0.003-0.013,0.003-0.016c-0.004-0.014-0.008-0.027-0.012-0.04c-0.183-0.564-0.294-1.141-0.328-1.734
		c-0.03-0.527,0.002-1.051,0.095-1.57c0.147-0.809,0.434-1.568,0.848-2.278c0.568-0.973,1.319-1.782,2.216-2.458
		c0.927-0.697,1.95-1.206,3.054-1.557c0.501-0.159,1.01-0.282,1.528-0.366c0.282-0.046,0.566-0.078,0.852-0.107
		c0.221-0.023,0.442-0.041,0.664-0.046c0.307-0.007,0.613,0.001,0.919,0.002C36.533,22.701,36.55,22.698,36.575,22.695
		 M35.915,23.378c-0.449,0.003-0.938,0.039-1.388,0.097c-0.429,0.056-0.853,0.139-1.271,0.25c-1.237,0.327-2.37,0.863-3.38,1.653
		c-0.784,0.613-1.438,1.34-1.932,2.207c-0.48,0.84-0.762,1.741-0.835,2.707c-0.035,0.47-0.013,0.938,0.06,1.404
		c0.104,0.669,0.312,1.304,0.619,1.907c0.491,0.965,1.179,1.77,2.022,2.444c0.831,0.664,1.757,1.156,2.762,1.499
		c0.692,0.236,1.402,0.398,2.13,0.473c0.266,0.027,0.532,0.055,0.798,0.063c0.422,0.012,0.844,0.017,1.265-0.029
		c0.262-0.028,0.525-0.051,0.786-0.091c0.449-0.067,0.892-0.168,1.327-0.3c0.194-0.059,0.375-0.04,0.55,0.064
		c0.241,0.144,0.485,0.282,0.729,0.423c0.377,0.218,0.754,0.436,1.131,0.654c0.095,0.055,0.192,0.102,0.304,0.117
		c0.148,0.02,0.253-0.049,0.287-0.195c0.008-0.03,0.01-0.06,0.011-0.091c0.007-0.12-0.029-0.234-0.06-0.348
		c-0.128-0.491-0.258-0.983-0.385-1.475c-0.041-0.159-0.001-0.301,0.111-0.42c0.032-0.034,0.073-0.061,0.111-0.09
		c0.638-0.461,1.205-0.995,1.68-1.624c0.946-1.253,1.43-2.655,1.362-4.235c-0.016-0.363-0.065-0.722-0.146-1.076
		c-0.243-1.065-0.735-2.004-1.435-2.839c-0.604-0.72-1.319-1.31-2.127-1.787c-1.293-0.763-2.696-1.183-4.188-1.315
		C36.517,23.399,36.215,23.394,35.915,23.378"/>
	<path clip-path="url(#SVGID_2_)" fill="#58595B" d="M36.575,22.695c-0.025,0.002-0.042,0.005-0.059,0.005
		c-0.306-0.001-0.612-0.009-0.919-0.002c-0.222,0.005-0.443,0.023-0.664,0.046c-0.285,0.029-0.569,0.061-0.852,0.107
		c-0.519,0.084-1.027,0.208-1.528,0.367c-1.104,0.35-2.126,0.86-3.053,1.557c-0.897,0.675-1.648,1.484-2.216,2.457
		c-0.415,0.711-0.701,1.469-0.848,2.279c-0.094,0.519-0.125,1.042-0.095,1.57c0.034,0.592,0.145,1.17,0.328,1.733
		c0.004,0.014,0.008,0.027,0.011,0.041c0.001,0.002-0.001,0.005-0.003,0.016c-0.069,0.005-0.141,0.014-0.213,0.013
		c-0.363-0.004-0.726,0.002-1.088-0.018c-0.953-0.053-1.889-0.212-2.805-0.485c-0.256-0.076-0.497-0.043-0.728,0.093
		c-0.741,0.435-1.484,0.867-2.226,1.3c-0.109,0.064-0.222,0.119-0.352,0.131c-0.19,0.016-0.298-0.067-0.332-0.254
		c-0.023-0.123,0-0.241,0.031-0.358c0.161-0.605,0.318-1.211,0.487-1.814c0.085-0.303-0.033-0.577-0.267-0.745
		c-0.884-0.631-1.644-1.388-2.262-2.284c-0.58-0.842-0.993-1.759-1.217-2.758c-0.085-0.379-0.138-0.762-0.162-1.15
		c-0.022-0.349-0.021-0.698,0.006-1.045c0.071-0.888,0.294-1.737,0.664-2.547c0.463-1.012,1.112-1.892,1.916-2.658
		c1.125-1.072,2.437-1.832,3.898-2.346c0.606-0.213,1.227-0.375,1.861-0.485c0.323-0.056,0.649-0.1,0.975-0.135
		c0.591-0.063,1.184-0.071,1.778-0.051c0.387,0.013,0.774,0.047,1.158,0.1c1.745,0.24,3.373,0.805,4.852,1.771
		c1.004,0.654,1.871,1.457,2.569,2.434c0.587,0.819,1.014,1.714,1.259,2.693C36.515,22.412,36.543,22.551,36.575,22.695
		 M22.563,22.647c0.742,0.009,1.404-0.595,1.403-1.403c0-0.782-0.63-1.391-1.382-1.4c-0.816-0.01-1.419,0.661-1.422,1.396
		C21.158,21.996,21.779,22.652,22.563,22.647 M29.629,22.647c0.728,0.009,1.404-0.579,1.403-1.404
		c-0.001-0.804-0.652-1.395-1.391-1.4c-0.792-0.004-1.41,0.643-1.412,1.397C28.227,22.016,28.864,22.654,29.629,22.647"/>
	<path clip-path="url(#SVGID_2_)" fill="#58595B" d="M35.915,23.379c0.3,0.015,0.602,0.02,0.9,0.046
		c1.491,0.133,2.895,0.552,4.188,1.316c0.808,0.477,1.523,1.066,2.127,1.787c0.699,0.834,1.191,1.774,1.435,2.838
		c0.081,0.355,0.13,0.713,0.146,1.077c0.067,1.579-0.416,2.982-1.362,4.235c-0.475,0.628-1.042,1.163-1.68,1.624
		c-0.038,0.028-0.079,0.055-0.111,0.089c-0.112,0.119-0.152,0.262-0.111,0.421c0.127,0.492,0.257,0.983,0.385,1.475
		c0.03,0.114,0.066,0.227,0.06,0.347c0,0.031-0.003,0.062-0.011,0.092c-0.034,0.146-0.139,0.215-0.287,0.195
		c-0.111-0.016-0.209-0.062-0.304-0.117c-0.377-0.218-0.754-0.437-1.131-0.654c-0.243-0.141-0.487-0.28-0.729-0.423
		c-0.175-0.104-0.355-0.124-0.55-0.065c-0.436,0.132-0.878,0.233-1.327,0.301c-0.261,0.039-0.524,0.063-0.786,0.091
		c-0.421,0.045-0.843,0.04-1.265,0.028c-0.266-0.007-0.532-0.035-0.798-0.062c-0.728-0.075-1.438-0.237-2.13-0.473
		c-1.005-0.344-1.932-0.835-2.762-1.499c-0.843-0.675-1.531-1.479-2.022-2.445c-0.307-0.602-0.515-1.238-0.619-1.907
		c-0.073-0.466-0.095-0.934-0.06-1.404c0.072-0.965,0.355-1.867,0.835-2.706c0.494-0.867,1.148-1.595,1.932-2.207
		c1.01-0.79,2.144-1.326,3.38-1.654c0.418-0.11,0.842-0.194,1.271-0.249C34.978,23.418,35.466,23.382,35.915,23.379 M31.78,28.38
		c-0.001,0.658,0.526,1.194,1.185,1.195c0.694,0.001,1.195-0.561,1.197-1.184c0.001-0.662-0.529-1.198-1.189-1.199
		C32.316,27.19,31.781,27.724,31.78,28.38 M37.618,28.382c-0.013,0.594,0.47,1.187,1.186,1.193c0.657,0.006,1.197-0.536,1.195-1.194
		c-0.001-0.655-0.537-1.192-1.192-1.189C38.099,27.195,37.607,27.781,37.618,28.382"/>
	<path clip-path="url(#SVGID_2_)" fill="#FFFFFF" d="M22.562,22.647c-0.782,0.005-1.403-0.651-1.4-1.407
		c0.003-0.735,0.606-1.406,1.421-1.396c0.752,0.009,1.382,0.618,1.383,1.4C23.967,22.052,23.304,22.656,22.562,22.647"/>
	<path clip-path="url(#SVGID_2_)" fill="#FFFFFF" d="M29.629,22.647c-0.765,0.007-1.403-0.631-1.4-1.407
		c0.002-0.754,0.62-1.401,1.412-1.397c0.738,0.005,1.39,0.596,1.391,1.4C31.033,22.068,30.357,22.656,29.629,22.647"/>
	<path clip-path="url(#SVGID_2_)" fill="#FFFFFF" d="M31.78,28.38c0.001-0.656,0.536-1.189,1.192-1.188
		c0.66,0.001,1.19,0.537,1.189,1.2c-0.002,0.622-0.503,1.184-1.197,1.183C32.307,29.574,31.779,29.038,31.78,28.38"/>
	<path clip-path="url(#SVGID_2_)" fill="#FFFFFF" d="M37.618,28.382c-0.011-0.601,0.48-1.187,1.188-1.19
		c0.655-0.003,1.191,0.534,1.192,1.189c0.002,0.658-0.538,1.2-1.195,1.194C38.088,29.569,37.605,28.976,37.618,28.382"/>
</g>
</svg>
