<?xml version="1.0" encoding="utf-8"?>
<!-- Generator: Adobe Illustrator 15.0.2, SVG Export Plug-In . SVG Version: 6.00 Build 0)  -->
<!DOCTYPE svg PUBLIC "-//W3C//DTD SVG 1.1//EN" "http://www.w3.org/Graphics/SVG/1.1/DTD/svg11.dtd">
<svg version="1.1" id="Livello_1" xmlns="http://www.w3.org/2000/svg" xmlns:xlink="http://www.w3.org/1999/xlink" x="0px" y="0px"
	 width="61.102px" height="80.281px" viewBox="0 0 61.102 80.281" enable-background="new 0 0 61.102 80.281" xml:space="preserve">
<g>
	<g>
		<defs>
			<rect id="SVGID_1_" x="0" y="0" width="61.102" height="80.281"/>
		</defs>
		<clipPath id="SVGID_2_">
			<use xlink:href="#SVGID_1_"  overflow="visible"/>
		</clipPath>
		<g clip-path="url(#SVGID_2_)">
			<g>
				<defs>
					<rect id="SVGID_3_" x="12.854" y="5.822" width="34.595" height="40.066"/>
				</defs>
				<clipPath id="SVGID_4_">
					<use xlink:href="#SVGID_3_"  overflow="visible"/>
				</clipPath>
				<g clip-path="url(#SVGID_4_)">
					<path fill="#06357A" d="M36.494,14.937l-0.002,0.008c0.2,0.415,0.328,0.74,0.406,0.961l0.083,0.252l0.024,0.085v0.001
						l0.009,0.006l0.006-0.009V16.24l-0.011-0.057c-0.122-0.592-0.319-1.16-0.56-1.715l-0.011-0.004l-0.043-0.1
						c-0.239-0.532-0.522-1.046-0.849-1.535c-0.696-1.041-1.596-1.96-2.641-2.681c-1.044-0.723-2.226-1.241-3.45-1.566
						c-1.226-0.328-2.492-0.469-3.747-0.479c-0.626-0.004-1.25,0.017-1.883,0.082c-0.63,0.065-1.258,0.175-1.875,0.335
						c-1.233,0.316-2.423,0.838-3.479,1.567c-1.055,0.728-1.969,1.661-2.67,2.727c-0.701,1.067-1.193,2.263-1.442,3.502
						c-0.25,1.24-0.261,2.529,0.018,3.77c0.14,0.62,0.354,1.226,0.648,1.795c0.15,0.287,0.312,0.554,0.506,0.826
						c0.197,0.271,0.421,0.521,0.663,0.744c0.487,0.45,1.045,0.792,1.618,1.049c0.575,0.255,1.167,0.428,1.754,0.544
						c1.179,0.23,2.347,0.25,3.474,0.172c1.128-0.082,2.222-0.268,3.278-0.515c1.058-0.249,2.077-0.561,3.06-0.917
						c1.967-0.713,3.789-1.598,5.459-2.575l1.211-0.725c0.396-0.232,0.79-0.454,1.184-0.667c0.787-0.426,1.573-0.813,2.353-1.152
						c0.778-0.338,1.551-0.629,2.317-0.853c0.761-0.221,1.519-0.38,2.238-0.418c0.359-0.018,0.71-0.005,1.029,0.057
						c0.159,0.031,0.312,0.075,0.452,0.131c0.129,0.052,0.248,0.119,0.354,0.205c0.215,0.169,0.361,0.415,0.414,0.677
						c0.057,0.249,0.041,0.557-0.018,0.852c-0.115,0.589-0.404,1.127-0.76,1.585c-0.355,0.461-0.772,0.851-1.201,1.175
						c-1.732,1.292-3.602,1.65-4.679,1.261c-0.27-0.095-0.487-0.229-0.65-0.373c-0.163-0.143-0.276-0.291-0.357-0.417
						c-0.076-0.127-0.126-0.23-0.156-0.302l-0.041-0.108c0.102,0.369,0.3,0.713,0.594,0.968c0.291,0.258,0.659,0.421,1.04,0.505
						c0.381,0.086,0.776,0.099,1.166,0.069s0.775-0.104,1.149-0.209c0.748-0.21,1.46-0.54,2.11-0.96
						c0.648-0.423,1.24-0.939,1.707-1.566c0.467-0.628,0.803-1.382,0.828-2.208c0.01-0.429-0.102-0.876-0.363-1.229
						c-0.129-0.174-0.289-0.328-0.469-0.454c-0.092-0.061-0.186-0.118-0.283-0.167l-0.287-0.125
						c-0.391-0.142-0.784-0.204-1.17-0.229c-0.387-0.024-0.766-0.011-1.14,0.023c-0.747,0.071-1.467,0.225-2.165,0.417
						c-1.399,0.388-2.714,0.924-3.972,1.521c-0.627,0.297-1.242,0.613-1.841,0.941l-0.446,0.246l-0.439,0.248l-0.859,0.469
						c-2.306,1.209-4.662,2.134-6.998,2.721c-1.168,0.292-2.329,0.499-3.469,0.59c-1.138,0.09-2.258,0.067-3.294-0.133
						c-1.034-0.196-1.986-0.585-2.672-1.201c-0.171-0.152-0.326-0.319-0.463-0.497l-0.098-0.136l-0.098-0.146l-0.183-0.304
						c-0.228-0.414-0.402-0.859-0.526-1.315c-0.249-0.914-0.298-1.872-0.196-2.792c0.104-0.919,0.358-1.805,0.727-2.614
						c0.369-0.808,0.853-1.541,1.415-2.173c0.562-0.635,1.201-1.171,1.882-1.606c1.367-0.873,2.879-1.336,4.329-1.54
						c0.726-0.1,1.453-0.146,2.144-0.155c0.693-0.008,1.362,0.028,1.999,0.104c1.276,0.151,2.425,0.479,3.41,0.928
						c0.987,0.447,1.808,1.013,2.467,1.6c0.664,0.587,1.171,1.193,1.561,1.747c0.367,0.519,0.633,0.994,0.833,1.392L36.494,14.937z"
						/>
					<rect x="16.1" y="38.75" fill="#06357A" width="29.09" height="0.08"/>
					<path fill="#06357A" d="M37.047,27.922v9.229h1.066v-9.229h1.068v-1.069h-3.201v1.069H37.047z M32.113,26.852V37.15h1.069
						v-2.985c0-0.91-0.088-2.74-0.146-3.605h0.029c0.158,1.146,0.375,2.252,0.599,3.344l0.334,1.626
						c0.11,0.54,0.215,1.078,0.308,1.62h1.01V26.852h-1.066v2.986c0,0.91,0.087,2.74,0.146,3.604h-0.032
						c-0.158-1.146-0.374-2.253-0.597-3.343l-0.334-1.625c-0.109-0.542-0.214-1.081-0.307-1.622H32.113z M29.981,31.469h-1.07
						v-3.548h1.07V31.469z M27.843,28.368v8.782h1.069v-4.615h1.068v4.615h1.067v-8.782c0-0.879-0.721-1.6-1.603-1.6
						C28.565,26.768,27.843,27.489,27.843,28.368z M23.834,26.852V37.15h3.202v-3.202h-1.068v2.134h-1.066v-9.229H23.834z
						 M21.037,27.922v9.229H22.1v-9.229h1.07v-1.069h-3.201v1.069H21.037z M18.237,31.469h-1.068v-3.548h1.068V31.469z M16.1,28.368
						v8.782h1.07v-4.615h1.067v4.615h1.067v-8.782c0-0.879-0.724-1.6-1.601-1.6C16.823,26.768,16.1,27.489,16.1,28.368z"/>
					<rect x="39.845" y="26.852" fill="#06357A" width="1.071" height="10.298"/>
					<path fill="#06357A" d="M41.98,34.466h1.068v1.616h1.068v-3.547h-1.068c-0.59,0-1.068-0.477-1.068-1.067v-3.1
						c0-0.879,0.721-1.601,1.602-1.601c0.879,0,1.604,0.721,1.604,1.601v1.167h-1.068v-1.613h-1.068v3.546h1.068
						c0.59,0,1.068,0.477,1.068,1.067v3.101c0,0.878-0.725,1.6-1.604,1.6c-0.881,0-1.602-0.722-1.602-1.6V34.466z"/>
					<path fill="#F6921E" d="M25.566,42.423h-0.141c0.011,0.442,0.336,0.675,0.766,0.675c0.332,0,0.74-0.114,0.74-0.523
						c0-0.398-0.295-0.486-0.67-0.557l-0.229-0.05c-0.074-0.019-0.143-0.041-0.202-0.069c-0.119-0.059-0.199-0.146-0.199-0.297
						c0-0.27,0.288-0.365,0.545-0.365c0.317,0,0.556,0.14,0.56,0.482h0.14c0-0.431-0.298-0.604-0.7-0.604
						c-0.32,0-0.685,0.109-0.685,0.486c0,0.387,0.324,0.472,0.651,0.537l0.237,0.053c0.076,0.017,0.148,0.04,0.209,0.07
						c0.122,0.06,0.203,0.152,0.203,0.313c0,0.328-0.354,0.4-0.601,0.4C25.849,42.974,25.588,42.773,25.566,42.423z M25.099,42.004
						H23.71c0.03-0.377,0.276-0.768,0.696-0.768C24.842,41.236,25.092,41.605,25.099,42.004z M23.71,42.125h1.528
						c0.026-0.542-0.239-1.01-0.833-1.01c-0.571,0-0.844,0.505-0.836,1.023c-0.008,0.523,0.283,0.959,0.836,0.959
						c0.449,0,0.744-0.243,0.818-0.686h-0.141c-0.065,0.349-0.32,0.563-0.677,0.563C23.939,42.974,23.703,42.57,23.71,42.125z
						 M21.453,42.914v-2.353h0.676c0.389,0,1.078,0.097,1.078,1.173c0,0.909-0.556,1.18-1.046,1.18H21.453z M21.291,40.422v2.632
						h0.854c0.844,0,1.224-0.575,1.224-1.319c0-0.667-0.276-1.313-1.216-1.313H21.291z"/>
					<path fill="#F6921E" d="M27.236,43.053h0.142v-1.896h-0.142V43.053z M27.236,40.802h0.142v-0.381h-0.142V40.802z"/>
					<path fill="#F6921E" d="M29.666,41.159v1.895h0.141v-1.024c0-0.465,0.258-0.793,0.681-0.793c0.516,0,0.538,0.424,0.538,0.619
						v1.198h0.141v-1.172c0-0.232-0.008-0.766-0.675-0.766c-0.294,0-0.582,0.164-0.677,0.448h-0.008v-0.405H29.666z M27.812,42.047
						c0-0.401,0.221-0.811,0.678-0.811c0.463,0,0.688,0.388,0.688,0.811c0,0.427-0.229,0.814-0.688,0.814
						C28.044,42.861,27.812,42.492,27.812,42.047z M29.323,41.159h-0.142v0.395h-0.008c-0.102-0.284-0.39-0.438-0.684-0.438
						c-0.535,0-0.818,0.43-0.818,0.931c0,0.527,0.262,0.937,0.818,0.937c0.32,0,0.552-0.151,0.684-0.432h0.008v0.435
						c0,0.126-0.011,0.667-0.673,0.667c-0.31,0-0.575-0.133-0.605-0.469h-0.139c0.022,0.439,0.335,0.59,0.74,0.59
						c0.408,0.013,0.612-0.156,0.715-0.345c0.051-0.096,0.077-0.196,0.09-0.282l0.014-0.115v-0.08V41.159z"/>
					<path fill="#F6921E" d="M45.039,42.004h-1.388c0.03-0.377,0.276-0.768,0.696-0.768C44.782,41.236,45.032,41.605,45.039,42.004z
						 M42.121,41.976v0.354c0,0.101-0.071,0.645-0.707,0.645c-0.333,0-0.498-0.184-0.498-0.411c0-0.284,0.187-0.403,0.52-0.44
						l0.402-0.039C41.962,42.068,42.065,42.04,42.121,41.976z M42.261,42.702v-1.094c0-0.39-0.331-0.493-0.664-0.493
						c-0.443,0-0.703,0.21-0.72,0.626h0.139c0.02-0.328,0.244-0.505,0.581-0.505c0.431,0,0.526,0.288,0.526,0.372
						c0,0.31-0.023,0.35-0.65,0.395c-0.313,0.026-0.696,0.118-0.696,0.561c0,0.396,0.276,0.534,0.634,0.534
						c0.36,0,0.615-0.195,0.702-0.422h0.009v0.101c0,0.155,0.033,0.276,0.253,0.276l0.117-0.016V42.92l-0.106,0.012
						c-0.062,0-0.094-0.029-0.109-0.072l-0.013-0.074L42.261,42.702z M35.502,42.974c-0.475,0-0.73-0.415-0.73-0.868
						s0.256-0.87,0.73-0.87s0.729,0.417,0.729,0.87S35.977,42.974,35.502,42.974z M35.502,41.115c-0.558,0-0.87,0.453-0.87,0.991
						c0,0.537,0.313,0.991,0.87,0.991c0.555,0,0.868-0.454,0.868-0.991C36.37,41.568,36.057,41.115,35.502,41.115z M34.209,41.174
						h0.162c-0.024-0.579-0.455-0.814-1.005-0.814c-0.416,0-0.884,0.196-0.884,0.701c0,0.5,0.449,0.607,0.895,0.699l0.33,0.073
						c0.104,0.026,0.204,0.059,0.287,0.103c0.17,0.086,0.282,0.217,0.282,0.439c0,0.457-0.445,0.6-0.763,0.6
						c-0.52,0-0.979-0.217-0.947-0.79h-0.161c-0.008,0.677,0.493,0.931,1.108,0.931c0.402,0,0.924-0.195,0.924-0.74
						c0-0.523-0.448-0.638-0.898-0.73l-0.328-0.069c-0.104-0.026-0.203-0.057-0.287-0.097c-0.168-0.083-0.279-0.207-0.279-0.418
						c0-0.436,0.424-0.561,0.722-0.561C33.853,40.5,34.193,40.724,34.209,41.174z M38.153,41.243l0.574,1.811h0.177l0.521-1.718
						h0.009l0.519,1.718h0.174l0.607-1.896h-0.155l-0.53,1.733h-0.007l-0.521-1.733h-0.187l-0.516,1.733H38.81l-0.533-1.733h-0.124
						l0,0h-0.418v-0.592h-0.14v0.592h-0.352v0.003l-0.338-0.001l-0.002-0.38c0-0.209,0.122-0.265,0.276-0.265
						c0.057,0,0.111,0.008,0.167,0.019v-0.121c-0.056-0.012-0.11-0.02-0.167-0.02c-0.229,0-0.416,0.111-0.416,0.376v0.389
						l-0.342,0.002l0.003,0.121h0.337l0.002,1.775l0.142-0.002l-0.002-1.774l0.392,0.001l0,0h0.3v1.325
						c-0.015,0.428,0.264,0.469,0.553,0.45v-0.122c-0.268,0.007-0.413-0.021-0.413-0.328V41.28h0.418V41.243z M43.652,42.125h1.529
						c0.026-0.542-0.239-1.01-0.833-1.01c-0.57,0-0.845,0.505-0.836,1.023c-0.009,0.523,0.283,0.959,0.836,0.959
						c0.45,0,0.744-0.243,0.817-0.686h-0.141c-0.065,0.349-0.32,0.563-0.677,0.563C43.88,42.974,43.645,42.57,43.652,42.125z
						 M42.779,41.579v-0.42h-0.142v1.895h0.142v-1.036c0.016-0.283,0.074-0.401,0.216-0.545c0.167-0.166,0.374-0.203,0.521-0.185
						v-0.141c-0.344-0.014-0.652,0.185-0.725,0.432H42.779z"/>
					<path fill="#F6921E" d="M18.203,40.3c0.101-0.003,0.187-0.091,0.186-0.189c-0.002-0.1-0.088-0.188-0.187-0.188
						c-0.1,0-0.187,0.087-0.189,0.188C18.012,40.209,18.105,40.301,18.203,40.3z"/>
					<path fill="#F6921E" d="M17.276,42.356c-0.161,0-0.303,0.142-0.305,0.304c-0.002,0.162,0.147,0.31,0.309,0.307
						c0.163-0.003,0.303-0.147,0.301-0.307C17.578,42.498,17.437,42.356,17.276,42.356z M19.071,41.28
						c-0.14,0-0.264,0.123-0.266,0.265c-0.002,0.142,0.128,0.271,0.269,0.268c0.142-0.004,0.264-0.129,0.262-0.268
						C19.335,41.403,19.211,41.28,19.071,41.28z M19.981,41.726l-0.167,0.024c-0.092,0.015-0.117,0.07-0.064,0.148l0.095,0.141
						c0.039,0.057,0.039,0.106-0.017,0.155l-0.101,0.099l-0.094,0.054l-0.076-0.056L19.49,42.23
						c-0.046-0.054-0.086-0.054-0.146-0.027c-0.043,0.02-0.061,0.047-0.065,0.091l-0.028,0.18c-0.012,0.054-0.048,0.084-0.108,0.083
						h-0.156c-0.053,0-0.086-0.025-0.096-0.077l-0.027-0.194c-0.009-0.086-0.1-0.129-0.17-0.079l-0.149,0.105
						c-0.054,0.039-0.103,0.035-0.152-0.012c-0.156-0.144-0.158-0.155-0.034-0.327l0.039-0.055c0.049-0.069,0.015-0.152-0.07-0.168
						l-0.173-0.025c-0.078-0.014-0.104-0.044-0.107-0.123v-0.122c0.003-0.074,0.041-0.115,0.115-0.126l0.167-0.024
						c0.092-0.017,0.115-0.071,0.064-0.15l-0.097-0.154c-0.036-0.058-0.031-0.112,0.023-0.158c0.099-0.085,0.148-0.122,0.192-0.121
						c0.022,0.001,0.043,0.011,0.069,0.029l0.098,0.078l0.039,0.038c0.015,0.011,0.032,0.015,0.057,0.001l0.066-0.039
						c0.017-0.018,0.028-0.04,0.026-0.076l0.005-0.079l0.018-0.081c0.015-0.061,0.052-0.098,0.123-0.095h0.122
						c0.083,0.003,0.114,0.029,0.126,0.111l0.018,0.148c0.011,0.104,0.097,0.144,0.184,0.082l0.15-0.105
						c0.045-0.031,0.088-0.028,0.128,0.01l0.106,0.104c0.042,0.044,0.042,0.088,0.009,0.135l-0.119,0.167
						c-0.037,0.053,0,0.143,0.065,0.153l0.18,0.026c0.078,0.011,0.112,0.048,0.112,0.125v0.123
						C20.091,41.68,20.063,41.713,19.981,41.726z M18.336,39.475l0.011,0.094c0.008,0.074,0.069,0.102,0.13,0.06l0.106-0.076
						c0.032-0.022,0.063-0.019,0.09,0.007l0.075,0.074c0.029,0.03,0.03,0.063,0.007,0.096l-0.083,0.116
						c-0.027,0.038,0,0.101,0.046,0.11l0.127,0.018c0.055,0.009,0.079,0.035,0.079,0.089v0.087c-0.001,0.056-0.021,0.08-0.079,0.089
						l-0.118,0.017c-0.066,0.01-0.083,0.049-0.046,0.104l0.067,0.099c0.027,0.04,0.027,0.076-0.011,0.11l-0.072,0.071l-0.067,0.037
						l-0.101-0.083c-0.033-0.037-0.061-0.037-0.104-0.019c-0.03,0.013-0.042,0.032-0.046,0.064l-0.019,0.126
						c-0.008,0.038-0.034,0.06-0.077,0.059h-0.11c-0.038,0-0.062-0.018-0.068-0.053l-0.019-0.139
						c-0.006-0.06-0.071-0.091-0.121-0.056l-0.105,0.075c-0.04,0.027-0.073,0.025-0.108-0.008c-0.11-0.102-0.11-0.109-0.023-0.231
						l0.028-0.039c0.035-0.05,0.01-0.108-0.05-0.118l-0.123-0.019c-0.055-0.01-0.074-0.031-0.074-0.087v-0.087
						c0.001-0.053,0.027-0.082,0.08-0.09l0.119-0.017c0.066-0.012,0.082-0.051,0.045-0.105l-0.069-0.11
						c-0.024-0.041-0.021-0.079,0.016-0.111c0.07-0.062,0.104-0.088,0.136-0.087l0.049,0.021l0.07,0.056l0.027,0.028
						c0.01,0.006,0.022,0.009,0.042,0l0.046-0.028c0.012-0.011,0.019-0.028,0.018-0.053l0.011-0.094
						c-1.096,0.07-1.964,0.958-1.967,2.082c0,0.313,0.067,0.61,0.189,0.876l0.134-0.019c0.107-0.02,0.134-0.082,0.075-0.172
						l-0.113-0.178c-0.04-0.067-0.034-0.13,0.027-0.182c0.113-0.098,0.169-0.142,0.22-0.141c0.026,0.001,0.049,0.014,0.079,0.034
						l0.114,0.091l0.044,0.043c0.017,0.013,0.037,0.018,0.065,0.002l0.075-0.046c0.02-0.02,0.032-0.047,0.03-0.087
						c-0.001-0.061,0.013-0.124,0.027-0.184c0.016-0.071,0.061-0.113,0.139-0.107l0.14,0.001c0.095,0.002,0.131,0.031,0.146,0.126
						l0.021,0.169c0.012,0.12,0.111,0.165,0.21,0.096l0.172-0.122c0.052-0.036,0.102-0.033,0.148,0.012l0.122,0.121
						c0.048,0.048,0.048,0.1,0.01,0.153l-0.136,0.19c-0.042,0.061,0,0.164,0.075,0.176l0.207,0.031
						c0.089,0.012,0.127,0.055,0.128,0.144v0.141c-0.001,0.092-0.035,0.131-0.127,0.146l-0.192,0.026
						c-0.107,0.017-0.135,0.08-0.075,0.171l0.108,0.161c0.045,0.065,0.046,0.123-0.017,0.179L18.03,43.52l-0.107,0.061l-0.087-0.063
						l-0.078-0.071c-0.052-0.06-0.101-0.061-0.167-0.03c-0.051,0.021-0.07,0.052-0.076,0.104l-0.002,0.014
						c0.21,0.072,0.437,0.111,0.673,0.112c1.154,0.004,2.088-0.917,2.091-2.083C20.28,40.455,19.433,39.558,18.336,39.475z"/>
					<path fill="#FFFFFF" d="M19.074,41.812c-0.141,0.003-0.271-0.126-0.269-0.268c0.001-0.142,0.125-0.265,0.265-0.265
						c0.141,0,0.265,0.123,0.266,0.265C19.338,41.683,19.216,41.808,19.074,41.812z M17.28,42.967
						c-0.162,0.003-0.312-0.145-0.309-0.307c0.001-0.162,0.144-0.304,0.305-0.304c0.162,0,0.303,0.142,0.306,0.304
						C17.583,42.819,17.443,42.964,17.28,42.967z M19.981,41.353l-0.18-0.026c-0.065-0.012-0.103-0.103-0.065-0.153l0.119-0.167
						c0.033-0.047,0.033-0.091-0.009-0.135l-0.106-0.104c-0.04-0.038-0.083-0.041-0.128-0.01l-0.15,0.105
						c-0.087,0.062-0.173,0.022-0.184-0.082l-0.018-0.148c-0.013-0.082-0.044-0.107-0.126-0.111h-0.122
						c-0.071-0.003-0.108,0.034-0.123,0.095l-0.018,0.081l-0.005,0.079c0.001,0.036-0.009,0.059-0.026,0.076l-0.066,0.039
						c-0.025,0.014-0.042,0.01-0.057-0.001l-0.039-0.038l-0.098-0.078c-0.026-0.019-0.047-0.028-0.069-0.029
						c-0.044-0.001-0.093,0.036-0.192,0.122c-0.054,0.045-0.059,0.1-0.023,0.157l0.097,0.154c0.051,0.079,0.028,0.134-0.064,0.15
						l-0.167,0.024c-0.075,0.011-0.112,0.052-0.115,0.126v0.122c0.003,0.079,0.029,0.109,0.107,0.123l0.173,0.025
						c0.085,0.016,0.12,0.099,0.07,0.168l-0.039,0.056c-0.124,0.169-0.123,0.183,0.034,0.326c0.049,0.047,0.098,0.051,0.152,0.012
						l0.149-0.105c0.07-0.049,0.162-0.007,0.17,0.079l0.027,0.194c0.009,0.052,0.042,0.077,0.096,0.077h0.156
						c0.06,0.001,0.096-0.029,0.108-0.083l0.028-0.18c0.005-0.045,0.022-0.071,0.065-0.091c0.06-0.026,0.1-0.026,0.146,0.027
						l0.067,0.062l0.076,0.056l0.094-0.054l0.101-0.099c0.055-0.049,0.055-0.099,0.017-0.155l-0.095-0.141
						c-0.053-0.079-0.028-0.134,0.064-0.148l0.167-0.024c0.082-0.014,0.11-0.047,0.112-0.125v-0.123
						C20.094,41.401,20.059,41.364,19.981,41.353z M17.59,43.416c0.067-0.03,0.115-0.029,0.167,0.03l0.078,0.071l0.087,0.063
						l0.107-0.061l0.117-0.114c0.063-0.056,0.062-0.113,0.018-0.179l-0.109-0.161c-0.06-0.091-0.033-0.154,0.075-0.171l0.192-0.026
						c0.092-0.015,0.126-0.054,0.128-0.146v-0.141c-0.002-0.089-0.041-0.132-0.128-0.144l-0.208-0.031
						c-0.075-0.012-0.118-0.115-0.075-0.176l0.136-0.19c0.038-0.054,0.038-0.105-0.01-0.153l-0.122-0.121
						c-0.046-0.045-0.096-0.048-0.148-0.012l-0.172,0.122c-0.099,0.069-0.198,0.024-0.21-0.096l-0.021-0.17
						c-0.015-0.094-0.05-0.124-0.145-0.128h-0.141c-0.08-0.004-0.123,0.04-0.139,0.109c-0.015,0.06-0.029,0.123-0.026,0.184
						c0.001,0.04-0.011,0.067-0.03,0.087l-0.075,0.046c-0.03,0.016-0.05,0.011-0.067-0.002l-0.044-0.043l-0.114-0.091
						c-0.03-0.021-0.053-0.033-0.079-0.034c-0.051-0.001-0.107,0.043-0.221,0.141c-0.061,0.052-0.066,0.114-0.026,0.182l0.113,0.178
						c0.059,0.09,0.032,0.152-0.075,0.172l-0.134,0.02c0.235,0.517,0.676,0.919,1.222,1.103l0.002-0.014
						C17.519,43.468,17.539,43.437,17.59,43.416z"/>
					<path fill="#FFFFFF" d="M18.201,39.923c0.1,0,0.187,0.087,0.188,0.188c0.001,0.098-0.085,0.186-0.186,0.189
						c-0.098,0.001-0.191-0.09-0.19-0.189C18.015,40.01,18.102,39.923,18.201,39.923z M17.992,39.648
						c-0.019,0.009-0.032,0.006-0.042,0l-0.027-0.028l-0.07-0.056l-0.048-0.02c-0.031-0.001-0.065,0.025-0.136,0.086
						c-0.038,0.032-0.041,0.07-0.017,0.111l0.07,0.11c0.036,0.055,0.02,0.094-0.046,0.105l-0.119,0.017
						c-0.053,0.009-0.079,0.037-0.081,0.09v0.087c0,0.056,0.02,0.077,0.075,0.087l0.123,0.019c0.06,0.01,0.085,0.067,0.05,0.118
						l-0.028,0.039c-0.089,0.12-0.087,0.129,0.023,0.23c0.035,0.034,0.07,0.037,0.108,0.009l0.105-0.075
						c0.05-0.035,0.115-0.003,0.121,0.056l0.019,0.139c0.006,0.035,0.03,0.054,0.068,0.054h0.11c0.042,0,0.068-0.021,0.077-0.06
						l0.019-0.127c0.004-0.032,0.017-0.05,0.047-0.063c0.041-0.019,0.07-0.019,0.103,0.019l0.048,0.045l0.053,0.038l0.067-0.038
						l0.072-0.07c0.039-0.034,0.039-0.07,0.011-0.11l-0.067-0.099c-0.037-0.055-0.02-0.095,0.046-0.104l0.118-0.017
						c0.058-0.01,0.078-0.033,0.08-0.089v-0.087c-0.002-0.055-0.025-0.081-0.08-0.089l-0.127-0.018
						c-0.046-0.007-0.072-0.072-0.046-0.11l0.083-0.116c0.024-0.033,0.024-0.065-0.006-0.095l-0.075-0.075
						c-0.028-0.027-0.059-0.029-0.091-0.007l-0.105,0.075c-0.061,0.043-0.122,0.016-0.13-0.059l-0.011-0.094l-0.143-0.006
						l-0.125,0.004l-0.011,0.094c0.001,0.025-0.006,0.042-0.018,0.053L17.992,39.648z"/>
				</g>
			</g>
			<g>
				<defs>
					<rect id="SVGID_5_" x="0" y="0" width="61.102" height="80.281"/>
				</defs>
				<clipPath id="SVGID_6_">
					<use xlink:href="#SVGID_5_"  overflow="visible"/>
				</clipPath>
				<g clip-path="url(#SVGID_6_)">
					<g>
						<defs>
							<rect id="SVGID_7_" x="0" y="0" width="61.102" height="80.281"/>
						</defs>
						<defs>
							<rect id="SVGID_8_" x="0" y="0" width="61.102" height="80.281"/>
						</defs>
						<defs>
							<rect id="SVGID_9_" x="0" y="0" width="61.102" height="80.281"/>
						</defs>
						<defs>
							<rect id="SVGID_10_" x="0" y="0" width="61.102" height="80.281"/>
						</defs>
						<defs>
							<rect id="SVGID_11_" x="0" y="0" width="61.102" height="80.281"/>
						</defs>
						<defs>
							<rect id="SVGID_12_" x="0" y="0" width="61.102" height="80.281"/>
						</defs>
						<defs>
							<rect id="SVGID_13_" x="0" y="0" width="61.102" height="80.281"/>
						</defs>
						<defs>
							<rect id="SVGID_14_" x="0" y="0" width="61.102" height="80.281"/>
						</defs>
						<defs>
							<rect id="SVGID_15_" x="0" y="0" width="61.102" height="80.281"/>
						</defs>
						<defs>
							<rect id="SVGID_16_" x="0" y="0" width="61.102" height="80.281"/>
						</defs>
						<defs>
							<rect id="SVGID_17_" x="0" y="0" width="61.102" height="80.281"/>
						</defs>
						<defs>
							<rect id="SVGID_18_" x="0" y="0" width="61.102" height="80.281"/>
						</defs>
						<defs>
							<rect id="SVGID_19_" x="0" y="0" width="61.102" height="80.281"/>
						</defs>
						<defs>
							<rect id="SVGID_20_" x="0" y="0" width="61.102" height="80.281"/>
						</defs>
						<defs>
							<rect id="SVGID_21_" x="0" y="0" width="61.102" height="80.281"/>
						</defs>
						<defs>
							<rect id="SVGID_22_" x="0" y="0" width="61.102" height="80.281"/>
						</defs>
						<defs>
							<rect id="SVGID_23_" x="0" y="0" width="61.102" height="80.281"/>
						</defs>
						<defs>
							<rect id="SVGID_24_" x="0" y="0" width="61.102" height="80.281"/>
						</defs>
						<defs>
							<rect id="SVGID_25_" x="0" y="0" width="61.102" height="80.281"/>
						</defs>
						<clipPath id="SVGID_26_">
							<use xlink:href="#SVGID_7_"  overflow="visible"/>
						</clipPath>
						<clipPath id="SVGID_27_" clip-path="url(#SVGID_26_)">
							<use xlink:href="#SVGID_8_"  overflow="visible"/>
						</clipPath>
						<clipPath id="SVGID_28_" clip-path="url(#SVGID_27_)">
							<use xlink:href="#SVGID_9_"  overflow="visible"/>
						</clipPath>
						<clipPath id="SVGID_29_" clip-path="url(#SVGID_28_)">
							<use xlink:href="#SVGID_10_"  overflow="visible"/>
						</clipPath>
						<clipPath id="SVGID_30_" clip-path="url(#SVGID_29_)">
							<use xlink:href="#SVGID_11_"  overflow="visible"/>
						</clipPath>
						<clipPath id="SVGID_31_" clip-path="url(#SVGID_30_)">
							<use xlink:href="#SVGID_12_"  overflow="visible"/>
						</clipPath>
						<clipPath id="SVGID_32_" clip-path="url(#SVGID_31_)">
							<use xlink:href="#SVGID_13_"  overflow="visible"/>
						</clipPath>
						<clipPath id="SVGID_33_" clip-path="url(#SVGID_32_)">
							<use xlink:href="#SVGID_14_"  overflow="visible"/>
						</clipPath>
						<clipPath id="SVGID_34_" clip-path="url(#SVGID_33_)">
							<use xlink:href="#SVGID_15_"  overflow="visible"/>
						</clipPath>
						<clipPath id="SVGID_35_" clip-path="url(#SVGID_34_)">
							<use xlink:href="#SVGID_16_"  overflow="visible"/>
						</clipPath>
						<clipPath id="SVGID_36_" clip-path="url(#SVGID_35_)">
							<use xlink:href="#SVGID_17_"  overflow="visible"/>
						</clipPath>
						<clipPath id="SVGID_37_" clip-path="url(#SVGID_36_)">
							<use xlink:href="#SVGID_18_"  overflow="visible"/>
						</clipPath>
						<clipPath id="SVGID_38_" clip-path="url(#SVGID_37_)">
							<use xlink:href="#SVGID_19_"  overflow="visible"/>
						</clipPath>
						<clipPath id="SVGID_39_" clip-path="url(#SVGID_38_)">
							<use xlink:href="#SVGID_20_"  overflow="visible"/>
						</clipPath>
						<clipPath id="SVGID_40_" clip-path="url(#SVGID_39_)">
							<use xlink:href="#SVGID_21_"  overflow="visible"/>
						</clipPath>
						<clipPath id="SVGID_41_" clip-path="url(#SVGID_40_)">
							<use xlink:href="#SVGID_22_"  overflow="visible"/>
						</clipPath>
						<clipPath id="SVGID_42_" clip-path="url(#SVGID_41_)">
							<use xlink:href="#SVGID_23_"  overflow="visible"/>
						</clipPath>
						<clipPath id="SVGID_43_" clip-path="url(#SVGID_42_)">
							<use xlink:href="#SVGID_24_"  overflow="visible"/>
						</clipPath>
						<clipPath id="SVGID_44_" clip-path="url(#SVGID_43_)">
							<use xlink:href="#SVGID_25_"  overflow="visible"/>
						</clipPath>
						<path clip-path="url(#SVGID_44_)" fill="none" stroke="#58595B" stroke-width="0.963" d="M30.149,51.186
							c13.439,0,24.331-10.892,24.331-24.333c0-13.433-10.892-24.328-24.331-24.328C16.713,2.525,5.82,13.421,5.82,26.853
							C5.821,40.294,16.714,51.186,30.149,51.186z"/>
						<path clip-path="url(#SVGID_44_)" fill="#58595B" d="M10.478,60.057c-0.09-0.63-0.55-0.972-1.18-0.972
							c-0.59,0-1.419,0.312-1.419,1.88c0,0.859,0.38,1.77,1.37,1.77c0.659,0,1.119-0.44,1.229-1.179h1.141
							c-0.21,1.339-1.04,2.079-2.369,2.079c-1.62,0-2.509-1.149-2.509-2.67c0-1.56,0.849-2.777,2.549-2.777
							c1.198,0,2.218,0.599,2.329,1.869H10.478z"/>
						<path clip-path="url(#SVGID_44_)" fill="#58595B" d="M17.086,63.494h-1.119v-0.721h-0.021c-0.279,0.521-0.898,0.86-1.469,0.86
							c-1.349,0-1.929-0.68-1.929-2.029v-3.277h1.14v3.168c0,0.91,0.369,1.238,0.989,1.238c0.949,0,1.269-0.608,1.269-1.408v-2.998
							h1.14V63.494z"/>
						<path clip-path="url(#SVGID_44_)" fill="#58595B" d="M19.149,61.835c0.062,0.66,0.561,0.898,1.17,0.898
							c0.431,0,1.18-0.089,1.149-0.679c-0.03-0.601-0.86-0.669-1.689-0.86c-0.84-0.179-1.658-0.479-1.658-1.528
							c0-1.129,1.219-1.479,2.158-1.479c1.06,0,2.019,0.438,2.158,1.588h-1.188c-0.101-0.54-0.549-0.688-1.049-0.688
							c-0.33,0-0.94,0.08-0.94,0.529c0,0.561,0.839,0.64,1.679,0.829c0.83,0.19,1.669,0.49,1.669,1.51
							c0,1.229-1.238,1.681-2.309,1.681c-1.298,0-2.269-0.58-2.289-1.801H19.149z"/>
						<path clip-path="url(#SVGID_44_)" fill="#58595B" d="M22.96,58.327h0.858v-1.549h1.141v1.549h1.028v0.851h-1.028v2.758
							c0,0.471,0.04,0.709,0.55,0.709c0.159,0,0.319,0,0.479-0.04v0.88c-0.25,0.021-0.489,0.061-0.738,0.061
							c-1.189,0-1.41-0.459-1.431-1.319v-3.047H22.96V58.327z"/>
						<path clip-path="url(#SVGID_44_)" fill="#58595B" d="M26.57,60.906c0-1.579,0.95-2.72,2.609-2.72s2.609,1.141,2.609,2.72
							c0,1.589-0.95,2.729-2.609,2.729S26.57,62.495,26.57,60.906 M30.647,60.906c0-0.891-0.447-1.819-1.469-1.819
							c-1.019,0-1.469,0.93-1.469,1.819c0,0.898,0.45,1.828,1.469,1.828C30.199,62.734,30.647,61.805,30.647,60.906"/>
						<path clip-path="url(#SVGID_44_)" fill="#58595B" d="M32.739,58.327h1.08v0.72h0.029c0.34-0.51,0.771-0.859,1.59-0.859
							c0.629,0,1.22,0.271,1.449,0.859c0.379-0.529,0.869-0.859,1.619-0.859c1.09,0,1.729,0.479,1.729,1.74v3.566h-1.139v-3.02
							c0-0.818-0.051-1.389-0.938-1.389c-0.771,0-1.101,0.511-1.101,1.379v3.028h-1.139v-3.318c0-0.709-0.222-1.089-0.909-1.089
							c-0.591,0-1.13,0.479-1.13,1.339v3.068h-1.142L32.739,58.327L32.739,58.327z"/>
						<path clip-path="url(#SVGID_44_)" fill="#58595B" d="M41.47,56.358h1.14v1.079h-1.14V56.358z M41.47,58.327h1.14v5.167h-1.14
							V58.327z"/>
						<polygon clip-path="url(#SVGID_44_)" fill="#58595B" points="43.671,58.327 47.868,58.327 47.868,59.127 44.909,62.595 
							48.019,62.595 48.019,63.494 43.47,63.494 43.47,62.694 46.329,59.226 43.671,59.226 						"/>
						<path clip-path="url(#SVGID_44_)" fill="#58595B" d="M49.739,61.206c0,0.811,0.439,1.527,1.39,1.527
							c0.66,0,1.061-0.289,1.26-0.858h1.08c-0.25,1.13-1.209,1.761-2.34,1.761c-1.617,0-2.527-1.131-2.527-2.72
							c0-1.471,0.959-2.729,2.498-2.729c1.629,0,2.629,1.469,2.439,3.02L49.739,61.206L49.739,61.206z M52.397,60.456
							c-0.039-0.721-0.528-1.369-1.299-1.369c-0.789,0-1.328,0.6-1.359,1.369H52.397z"/>
						<path clip-path="url(#SVGID_44_)" fill="#58595B" d="M13.097,73.494h-1.119v-0.721h-0.02c-0.28,0.521-0.899,0.861-1.47,0.861
							c-1.349,0-1.929-0.681-1.929-2.03v-3.277H9.7v3.168c0,0.91,0.368,1.238,0.988,1.238c0.949,0,1.27-0.608,1.27-1.408v-2.998
							h1.139V73.494z"/>
						<path clip-path="url(#SVGID_44_)" fill="#58595B" d="M15.16,71.835c0.061,0.66,0.56,0.898,1.17,0.898
							c0.43,0,1.179-0.089,1.148-0.679c-0.029-0.601-0.859-0.669-1.688-0.86c-0.84-0.179-1.659-0.479-1.659-1.528
							c0-1.129,1.219-1.479,2.159-1.479c1.059,0,2.018,0.438,2.157,1.588h-1.188c-0.1-0.54-0.549-0.688-1.049-0.688
							c-0.33,0-0.94,0.08-0.94,0.529c0,0.561,0.839,0.64,1.68,0.829c0.829,0.19,1.669,0.49,1.669,1.51
							c0,1.229-1.239,1.681-2.31,1.681c-1.298,0-2.268-0.58-2.288-1.801H15.16z"/>
						<path clip-path="url(#SVGID_44_)" fill="#58595B" d="M19.521,66.358h1.14v1.079h-1.14V66.358z M19.521,68.327h1.14v5.167
							h-1.14V68.327z"/>
						<path clip-path="url(#SVGID_44_)" fill="#58595B" d="M21.901,68.327h1.079v0.76l0.021,0.02
							c0.339-0.568,0.929-0.919,1.608-0.919c1.119,0,1.828,0.601,1.828,1.76v3.548h-1.139v-3.248
							c-0.021-0.811-0.339-1.159-1.009-1.159c-0.761,0-1.249,0.6-1.249,1.359v3.048h-1.141V68.327z"/>
						<path clip-path="url(#SVGID_44_)" fill="#58595B" d="M32.419,73.225c0,1.549-0.91,2.317-2.538,2.317
							c-1.04,0-2.209-0.398-2.311-1.607h1.141c0.139,0.648,0.66,0.758,1.239,0.758c0.92,0,1.328-0.469,1.328-1.318v-0.789h-0.02
							c-0.32,0.568-0.909,0.908-1.548,0.908c-1.641,0-2.32-1.238-2.32-2.719c0-1.388,0.87-2.587,2.339-2.587
							c0.65,0,1.239,0.27,1.529,0.85h0.02v-0.711h1.142L32.419,73.225L32.419,73.225z M31.278,70.796
							c0-0.891-0.397-1.709-1.389-1.709c-1.009,0-1.359,0.938-1.359,1.8c0,0.849,0.41,1.709,1.359,1.709
							C30.898,72.595,31.278,71.677,31.278,70.796"/>
						<path clip-path="url(#SVGID_44_)" fill="#58595B" d="M41.218,73.494H40.14v-0.699h-0.021c-0.3,0.59-0.949,0.84-1.599,0.84
							c-1.629,0-2.42-1.211-2.42-2.759c0-1.87,1.109-2.688,2.24-2.688c0.647,0,1.369,0.238,1.719,0.81h0.021v-2.639h1.139
							L41.218,73.494L41.218,73.494z M38.669,72.734c1.02,0,1.449-0.93,1.449-1.828c0-1.14-0.55-1.819-1.43-1.819
							c-1.068,0-1.447,0.949-1.447,1.878C37.241,71.855,37.681,72.734,38.669,72.734"/>
						<path clip-path="url(#SVGID_44_)" fill="#58595B" d="M43.321,71.835c0.062,0.66,0.56,0.898,1.171,0.898
							c0.43,0,1.178-0.089,1.147-0.679c-0.029-0.601-0.859-0.669-1.688-0.86c-0.841-0.179-1.658-0.479-1.658-1.528
							c0-1.129,1.219-1.479,2.158-1.479c1.061,0,2.02,0.438,2.157,1.588h-1.188c-0.101-0.54-0.549-0.688-1.049-0.688
							c-0.33,0-0.939,0.08-0.939,0.529c0,0.561,0.84,0.64,1.68,0.829c0.83,0.19,1.668,0.49,1.668,1.51
							c0,1.229-1.237,1.681-2.309,1.681c-1.299,0-2.268-0.58-2.289-1.801H43.321z"/>
						<path clip-path="url(#SVGID_44_)" fill="#58595B" d="M48.511,71.835c0.061,0.66,0.561,0.898,1.17,0.898
							c0.43,0,1.18-0.089,1.15-0.679c-0.031-0.601-0.861-0.669-1.689-0.86c-0.84-0.179-1.66-0.479-1.66-1.528
							c0-1.129,1.222-1.479,2.16-1.479c1.059,0,2.019,0.438,2.158,1.588h-1.19c-0.1-0.54-0.549-0.688-1.049-0.688
							c-0.33,0-0.938,0.08-0.938,0.529c0,0.561,0.838,0.64,1.678,0.829c0.83,0.19,1.67,0.49,1.67,1.51
							c0,1.229-1.24,1.681-2.309,1.681c-1.3,0-2.271-0.58-2.289-1.801H48.511z"/>
						
							<line clip-path="url(#SVGID_44_)" fill="none" stroke="#58595B" stroke-width="0.466" x1="4.945" y1="53.79" x2="55.355" y2="53.79"/>
					</g>
				</g>
			</g>
		</g>
	</g>
</g>
</svg>
