<?xml version="1.0" encoding="utf-8"?>
<!-- Generator: Adobe Illustrator 15.0.2, SVG Export Plug-In . SVG Version: 6.00 Build 0)  -->
<!DOCTYPE svg PUBLIC "-//W3C//DTD SVG 1.1//EN" "http://www.w3.org/Graphics/SVG/1.1/DTD/svg11.dtd">
<svg version="1.1" id="Livello_1" xmlns="http://www.w3.org/2000/svg" xmlns:xlink="http://www.w3.org/1999/xlink" x="0px" y="0px"
	 width="61.102px" height="53.948px" viewBox="0 0 61.102 53.948" enable-background="new 0 0 61.102 53.948" xml:space="preserve">
<g>
	<defs>
		<rect id="SVGID_1_" y="0" width="61.102" height="80.281"/>
	</defs>
	<clipPath id="SVGID_2_">
		<use xlink:href="#SVGID_1_"  overflow="visible"/>
	</clipPath>
	<path clip-path="url(#SVGID_2_)" fill="none" stroke="#58595B" stroke-width="0.963" d="M30.122,51.425
		c13.438,0,24.33-10.891,24.33-24.332c0-13.431-10.892-24.328-24.33-24.328c-13.438,0-24.331,10.897-24.331,24.328
		C5.792,40.534,16.685,51.425,30.122,51.425z"/>
	<path clip-path="url(#SVGID_2_)" fill-rule="evenodd" clip-rule="evenodd" fill="#58595B" d="M42.681,26.461
		c-0.178-6.623-5.629-11.924-12.333-11.924c-6.624,0-12.034,5.164-12.307,11.692c-0.027,0.164-0.027,0.355-0.027,0.531
		c0,2.304,0.654,4.47,1.772,6.324l-2.235,6.569l6.84-2.167c1.772,0.967,3.803,1.513,5.957,1.513c6.813,0,12.346-5.465,12.346-12.239
		C42.693,26.652,42.681,26.57,42.681,26.461 M36.002,29.241c-0.313-0.15-1.784-0.886-2.058-0.995c-0.3-0.081-0.49-0.15-0.694,0.164
		c-0.191,0.299-0.777,0.967-0.953,1.158c-0.178,0.218-0.355,0.232-0.641,0.095c-0.327-0.15-1.295-0.463-2.44-1.498
		c-0.913-0.805-1.526-1.772-1.689-2.059c-0.164-0.327-0.029-0.462,0.122-0.64c0.15-0.122,0.313-0.327,0.463-0.518
		c0.041-0.04,0.082-0.082,0.109-0.136c0.082-0.123,0.123-0.218,0.191-0.354c0.108-0.205,0.068-0.382-0.027-0.519
		c-0.055-0.149-0.668-1.648-0.928-2.234c-0.244-0.613-0.504-0.505-0.666-0.505c-0.192,0-0.382-0.027-0.587-0.027
		c-0.218,0-0.531,0.068-0.803,0.382c-0.301,0.3-1.077,1.008-1.077,2.507c0,0.341,0.067,0.695,0.177,1.009
		c0.286,1.076,0.967,1.935,1.063,2.085c0.15,0.204,2.085,3.325,5.165,4.524c3.094,1.199,3.094,0.791,3.639,0.75
		s1.785-0.709,2.044-1.431c0.245-0.695,0.245-1.294,0.164-1.431C36.507,29.473,36.302,29.377,36.002,29.241 M30.348,37.063
		c-2.1,0-4.062-0.627-5.696-1.703l-3.979,1.267l1.28-3.829c-1.239-1.691-1.976-3.789-1.976-6.038c0-0.34,0.014-0.654,0.055-0.994
		c0.518-5.22,4.946-9.294,10.316-9.294c5.45,0,9.934,4.184,10.343,9.485c0.027,0.272,0.027,0.544,0.027,0.803
		C40.718,32.43,36.07,37.063,30.348,37.063"/>
</g>
</svg>
