<?xml version="1.0" encoding="utf-8"?>
<!-- Generator: Adobe Illustrator 15.0.2, SVG Export Plug-In . SVG Version: 6.00 Build 0)  -->
<!DOCTYPE svg PUBLIC "-//W3C//DTD SVG 1.1//EN" "http://www.w3.org/Graphics/SVG/1.1/DTD/svg11.dtd">
<svg version="1.1" id="Livello_1" xmlns="http://www.w3.org/2000/svg" xmlns:xlink="http://www.w3.org/1999/xlink" x="0px" y="0px"
	 width="61.102px" height="80.281px" viewBox="0 0 61.102 80.281" enable-background="new 0 0 61.102 80.281" xml:space="preserve">
<g>
	<defs>
		<rect id="SVGID_1_" y="0" width="61.102" height="80.281"/>
	</defs>
	<clipPath id="SVGID_2_">
		<use xlink:href="#SVGID_1_"  overflow="visible"/>
	</clipPath>
	<path clip-path="url(#SVGID_2_)" fill="#58595B" d="M39.583,26.557c0,1.41-0.262,2.73-0.785,3.96
		c-0.525,1.229-1.244,2.295-2.154,3.199c-0.912,0.903-1.986,1.616-3.227,2.141c-1.236,0.524-2.561,0.786-3.97,0.786
		c-1.463,0-2.809-0.253-4.037-0.761c-1.23-0.507-2.289-1.203-3.174-2.089c-0.885-0.886-1.578-1.939-2.076-3.16
		c-0.5-1.221-0.748-2.562-0.748-4.024c0-1.41,0.261-2.726,0.787-3.947c0.523-1.221,1.242-2.283,2.154-3.186
		c0.91-0.903,1.981-1.612,3.211-2.128c1.228-0.516,2.559-0.774,3.984-0.774c1.463,0,2.809,0.25,4.038,0.748
		c1.23,0.499,2.289,1.191,3.174,2.077c0.885,0.886,1.578,1.939,2.076,3.159C39.335,23.78,39.583,25.113,39.583,26.557
		 M37.263,26.712c0-1.221-0.195-2.33-0.582-3.328c-0.387-0.997-0.924-1.852-1.611-2.567c-0.688-0.713-1.506-1.259-2.451-1.638
		c-0.945-0.378-1.969-0.567-3.071-0.567c-1.185,0-2.256,0.206-3.21,0.619c-0.955,0.413-1.776,0.98-2.463,1.702
		c-0.688,0.723-1.217,1.561-1.586,2.516c-0.372,0.954-0.557,1.973-0.557,3.056c0,1.204,0.195,2.305,0.582,3.303
		c0.387,0.997,0.924,1.853,1.612,2.566c0.687,0.714,1.505,1.264,2.45,1.651c0.946,0.387,1.97,0.58,3.071,0.58
		c1.186,0,2.262-0.21,3.222-0.631c0.965-0.422,1.786-0.989,2.465-1.703c0.68-0.713,1.203-1.548,1.574-2.502
		C37.077,28.814,37.263,27.795,37.263,26.712 M34.218,31.433c0,0.068-0.011,0.133-0.039,0.193c-0.025,0.06-0.09,0.103-0.193,0.129
		s-0.25,0.048-0.438,0.064c-0.189,0.018-0.447,0.027-0.775,0.027c-0.293,0-0.527-0.009-0.709-0.027
		c-0.18-0.016-0.326-0.047-0.438-0.09c-0.113-0.043-0.199-0.103-0.258-0.18c-0.06-0.077-0.109-0.185-0.143-0.323l-0.542-1.78
		c-0.206-0.636-0.45-1.078-0.735-1.328c-0.283-0.249-0.709-0.374-1.276-0.374h-0.697v3.611c0,0.19-0.074,0.318-0.218,0.387
		c-0.147,0.069-0.487,0.104-1.02,0.104c-0.533,0-0.887-0.035-1.058-0.104c-0.172-0.069-0.259-0.197-0.259-0.387v-9.26
		c0-0.379,0.094-0.675,0.284-0.891c0.189-0.214,0.475-0.322,0.851-0.322h2.967c0.688,0,1.295,0.06,1.819,0.181
		c0.524,0.12,0.972,0.309,1.341,0.567c0.371,0.258,0.649,0.58,0.838,0.968c0.189,0.386,0.285,0.847,0.285,1.379
		c0,0.826-0.224,1.467-0.672,1.922c-0.447,0.456-1.049,0.779-1.804,0.968c0.411,0.137,0.798,0.37,1.159,0.696
		c0.361,0.327,0.672,0.817,0.928,1.471l0.622,1.65C34.157,31.08,34.218,31.329,34.218,31.433 M31.019,24.287
		c0-0.189-0.025-0.37-0.076-0.542c-0.053-0.171-0.15-0.322-0.297-0.451c-0.146-0.129-0.34-0.228-0.58-0.297
		c-0.242-0.068-0.543-0.103-0.902-0.103h-1.188v2.889h1.135c0.723,0,1.221-0.138,1.496-0.413
		C30.883,25.096,31.019,24.735,31.019,24.287"/>
	<path clip-path="url(#SVGID_2_)" fill="none" stroke="#58595B" stroke-width="0.963" d="M29.497,50.938
		c13.438,0,24.33-10.891,24.33-24.332c0-13.431-10.892-24.328-24.33-24.328c-13.437,0-24.33,10.897-24.33,24.328
		C5.167,40.047,16.06,50.938,29.497,50.938z"/>
	<path clip-path="url(#SVGID_2_)" fill="#58595B" d="M8.019,58.761h1.069v0.999h0.021c0.13-0.551,0.809-1.141,1.509-1.141
		c0.259,0,0.33,0.021,0.429,0.031v1.099c-0.16-0.02-0.33-0.05-0.489-0.05c-0.78,0-1.399,0.629-1.399,1.77v2.459h-1.14V58.761z"/>
	<path clip-path="url(#SVGID_2_)" fill="#58595B" d="M12.248,61.639c0,0.81,0.439,1.528,1.389,1.528c0.66,0,1.059-0.29,1.259-0.858
		h1.079c-0.25,1.129-1.209,1.759-2.338,1.759c-1.619,0-2.529-1.129-2.529-2.719c0-1.47,0.96-2.729,2.499-2.729
		c1.629,0,2.628,1.47,2.439,3.02H12.248z M14.906,60.89c-0.04-0.721-0.529-1.37-1.299-1.37c-0.79,0-1.329,0.599-1.359,1.37H14.906z"
		/>
	<path clip-path="url(#SVGID_2_)" fill="#58595B" d="M21.696,63.657c0,1.55-0.91,2.319-2.538,2.319c-1.04,0-2.209-0.4-2.31-1.609
		h1.14c0.139,0.649,0.66,0.759,1.239,0.759c0.92,0,1.329-0.469,1.329-1.318v-0.79h-0.02c-0.32,0.569-0.909,0.91-1.548,0.91
		c-1.64,0-2.32-1.239-2.32-2.72c0-1.389,0.87-2.588,2.339-2.588c0.65,0,1.239,0.271,1.529,0.85h0.02v-0.71h1.14V63.657z
		 M20.556,61.229c0-0.89-0.399-1.709-1.389-1.709c-1.009,0-1.359,0.938-1.359,1.8c0,0.849,0.41,1.709,1.359,1.709
		C20.176,63.028,20.556,62.108,20.556,61.229"/>
	<path clip-path="url(#SVGID_2_)" fill="#58595B" d="M22.878,56.791h1.139v1.08h-1.139V56.791z M22.878,58.76h1.139v5.168h-1.139
		V58.76z"/>
	<path clip-path="url(#SVGID_2_)" fill="#58595B" d="M26.117,62.269c0.061,0.659,0.56,0.898,1.17,0.898
		c0.43,0,1.179-0.089,1.149-0.679c-0.03-0.6-0.86-0.67-1.689-0.86c-0.84-0.179-1.659-0.479-1.659-1.528
		c0-1.129,1.219-1.479,2.159-1.479c1.059,0,2.018,0.44,2.158,1.589h-1.189c-0.1-0.54-0.549-0.689-1.049-0.689
		c-0.33,0-0.94,0.08-0.94,0.529c0,0.561,0.839,0.641,1.679,0.829c0.83,0.191,1.669,0.491,1.669,1.511
		c0,1.229-1.239,1.679-2.309,1.679c-1.298,0-2.268-0.58-2.289-1.799H26.117z"/>
	<path clip-path="url(#SVGID_2_)" fill="#58595B" d="M29.929,58.761h0.859v-1.55h1.14v1.55h1.029v0.85h-1.029v2.757
		c0,0.471,0.04,0.71,0.55,0.71c0.159,0,0.319,0,0.479-0.04v0.88c-0.25,0.021-0.49,0.061-0.739,0.061c-1.189,0-1.41-0.46-1.43-1.32
		V59.61h-0.859V58.761z"/>
	<path clip-path="url(#SVGID_2_)" fill="#58595B" d="M34.668,61.639c0,0.81,0.439,1.528,1.39,1.528c0.659,0,1.059-0.29,1.259-0.858
		h1.079c-0.25,1.129-1.209,1.759-2.338,1.759c-1.619,0-2.529-1.129-2.529-2.719c0-1.47,0.96-2.729,2.499-2.729
		c1.629,0,2.628,1.47,2.438,3.02H34.668z M37.326,60.89c-0.04-0.721-0.529-1.37-1.299-1.37c-0.79,0-1.329,0.599-1.359,1.37H37.326z"
		/>
	<path clip-path="url(#SVGID_2_)" fill="#58595B" d="M39.338,58.761h1.069v0.999h0.021c0.13-0.551,0.81-1.141,1.509-1.141
		c0.26,0,0.33,0.021,0.43,0.031v1.099c-0.16-0.02-0.33-0.05-0.489-0.05c-0.78,0-1.399,0.629-1.399,1.77v2.459h-1.14V58.761z"/>
	<path clip-path="url(#SVGID_2_)" fill="#58595B" d="M43.567,61.639c0,0.81,0.439,1.528,1.389,1.528c0.66,0,1.06-0.29,1.26-0.858
		h1.079c-0.25,1.129-1.209,1.759-2.339,1.759c-1.618,0-2.528-1.129-2.528-2.719c0-1.47,0.96-2.729,2.499-2.729
		c1.629,0,2.628,1.47,2.438,3.02H43.567z M46.226,60.89c-0.04-0.721-0.529-1.37-1.299-1.37c-0.79,0-1.329,0.599-1.359,1.37H46.226z"
		/>
	<path clip-path="url(#SVGID_2_)" fill="#58595B" d="M53.104,63.928h-1.079v-0.7h-0.021c-0.3,0.589-0.949,0.839-1.599,0.839
		c-1.629,0-2.419-1.209-2.419-2.758c0-1.869,1.109-2.688,2.239-2.688c0.649,0,1.369,0.239,1.719,0.81h0.02v-2.639h1.14V63.928z
		 M50.556,63.168c1.021,0,1.449-0.931,1.449-1.829c0-1.14-0.549-1.819-1.428-1.819c-1.07,0-1.45,0.95-1.45,1.878
		C49.127,62.288,49.566,63.168,50.556,63.168"/>
	<path clip-path="url(#SVGID_2_)" fill="#58595B" d="M20.58,73.928h-1.079v-0.7H19.48c-0.3,0.589-0.949,0.839-1.598,0.839
		c-1.629,0-2.419-1.209-2.419-2.758c0-1.869,1.109-2.688,2.239-2.688c0.649,0,1.369,0.239,1.719,0.81h0.019v-2.639h1.14V73.928z
		 M18.031,73.168c1.02,0,1.449-0.931,1.449-1.829c0-1.14-0.549-1.819-1.428-1.819c-1.07,0-1.45,0.95-1.45,1.878
		C16.603,72.288,17.042,73.168,18.031,73.168"/>
	<path clip-path="url(#SVGID_2_)" fill="#58595B" d="M22.713,71.639c0,0.81,0.439,1.528,1.389,1.528c0.66,0,1.059-0.29,1.259-0.858
		h1.079c-0.25,1.129-1.209,1.759-2.338,1.759c-1.619,0-2.529-1.129-2.529-2.719c0-1.47,0.96-2.729,2.499-2.729
		c1.629,0,2.628,1.47,2.439,3.02H22.713z M25.371,70.89c-0.04-0.721-0.529-1.37-1.299-1.37c-0.79,0-1.329,0.599-1.359,1.37H25.371z"
		/>
	<path clip-path="url(#SVGID_2_)" fill="#58595B" d="M28.242,72.269c0.061,0.659,0.56,0.898,1.17,0.898
		c0.43,0,1.179-0.089,1.149-0.679c-0.03-0.6-0.86-0.67-1.689-0.86c-0.84-0.179-1.659-0.479-1.659-1.528
		c0-1.129,1.219-1.479,2.159-1.479c1.06,0,2.019,0.44,2.158,1.589h-1.189c-0.1-0.54-0.549-0.689-1.049-0.689
		c-0.33,0-0.94,0.08-0.94,0.529c0,0.561,0.839,0.641,1.679,0.829c0.83,0.191,1.669,0.491,1.669,1.511
		c0,1.229-1.239,1.679-2.309,1.679c-1.298,0-2.268-0.58-2.289-1.799H28.242z"/>
	<path clip-path="url(#SVGID_2_)" fill="#58595B" d="M32.604,66.791h1.14v1.08h-1.14V66.791z M32.604,68.76h1.14v5.168h-1.14V68.76z
		"/>
	<path clip-path="url(#SVGID_2_)" fill="#58595B" d="M39.761,73.657c0,1.55-0.909,2.319-2.538,2.319c-1.04,0-2.209-0.4-2.31-1.609
		h1.14c0.14,0.649,0.66,0.759,1.239,0.759c0.92,0,1.329-0.469,1.329-1.318v-0.79h-0.02c-0.32,0.569-0.909,0.91-1.549,0.91
		c-1.64,0-2.319-1.239-2.319-2.72c0-1.389,0.87-2.588,2.339-2.588c0.649,0,1.239,0.271,1.529,0.85h0.02v-0.71h1.14V73.657z
		 M38.621,71.229c0-0.89-0.399-1.709-1.389-1.709c-1.01,0-1.359,0.938-1.359,1.8c0,0.849,0.41,1.709,1.359,1.709
		C38.241,73.028,38.621,72.108,38.621,71.229"/>
	<path clip-path="url(#SVGID_2_)" fill="#58595B" d="M40.913,68.761h1.079v0.759l0.021,0.02c0.34-0.568,0.93-0.92,1.609-0.92
		c1.119,0,1.828,0.601,1.828,1.761v3.548h-1.139V70.68c-0.021-0.811-0.34-1.16-1.01-1.16c-0.76,0-1.249,0.599-1.249,1.359v3.049
		h-1.14V68.761z"/>
	
		<line clip-path="url(#SVGID_2_)" fill="none" stroke="#58595B" stroke-width="0.466" x1="5.011" y1="53.79" x2="55.421" y2="53.79"/>
</g>
</svg>
