<?xml version="1.0" encoding="utf-8"?>
<!-- Generator: Adobe Illustrator 15.0.2, SVG Export Plug-In . SVG Version: 6.00 Build 0)  -->
<!DOCTYPE svg PUBLIC "-//W3C//DTD SVG 1.1//EN" "http://www.w3.org/Graphics/SVG/1.1/DTD/svg11.dtd">
<svg version="1.1" id="Livello_1" xmlns="http://www.w3.org/2000/svg" xmlns:xlink="http://www.w3.org/1999/xlink" x="0px" y="0px"
	 width="61.102px" height="53.906px" viewBox="0 0 61.102 53.906" enable-background="new 0 0 61.102 53.906" xml:space="preserve">
<g>
	<g>
		<g>
			<path fill="#58595B" d="M29.883,52.217c-13.707,0-24.812-11.106-24.812-24.813c0-13.706,11.105-24.811,24.812-24.811
				c13.705,0,24.811,11.105,24.811,24.811C54.693,41.111,43.588,52.217,29.883,52.217z M29.883,3.494
				c-13.107,0-23.812,10.705-23.812,23.911c0,13.207,10.705,23.912,23.812,23.912c13.205-0.1,23.91-10.805,23.91-23.912
				C53.793,14.199,43.088,3.494,29.883,3.494z"/>
		</g>
	</g>
	<g>
		<g>
			<path fill="#58595B" d="M19.377,39.61c-0.5,0-1-0.1-1.5-0.3l-1.102-0.3l0.801-0.801c1.101-1.101,1.401-2.302,1.401-3.202
				c-1.901-2.101-3.001-4.803-3.001-7.604c0-6.703,6.202-12.205,13.907-12.205c7.703,0,13.906,5.502,13.906,12.205
				c0,6.704-6.203,12.206-13.906,12.206c-2.302,0-4.502-0.5-6.503-1.4C22.579,38.71,21.078,39.61,19.377,39.61L19.377,39.61z
				 M23.179,36.509l0.4,0.2c1.9,1.001,4.101,1.501,6.303,1.501c6.902,0,12.506-4.802,12.506-10.806
				c0-5.903-5.604-10.805-12.506-10.805c-6.904,0-12.507,4.802-12.507,10.805c0,2.502,1.001,4.903,2.802,6.804l0.2,0.2v0.3
				c0,1-0.1,2.3-1.001,3.501c1.602,0,3.102-1.201,3.402-1.4L23.179,36.509z"/>
		</g>
		<path fill="#58595B" d="M23.179,30.707c-0.5,0-0.9,0-1.3-0.101c-0.301-0.1-0.5-0.2-0.7-0.2c0,0,0-0.1,0-0.2c0-0.1,0-0.2,0.1-0.299
			c0-0.101,0.101-0.2,0.101-0.3c0-0.101,0.1-0.101,0.1-0.101c0.2,0.101,0.4,0.101,0.7,0.2c0.2,0.1,0.501,0.1,0.9,0.1
			c0.4,0,0.701-0.1,0.9-0.199c0.301-0.101,0.4-0.301,0.4-0.601c0-0.2-0.1-0.4-0.3-0.601s-0.5-0.3-0.9-0.5
			c-0.2-0.101-0.5-0.2-0.7-0.301c-0.2-0.1-0.4-0.2-0.6-0.399c-0.2-0.101-0.301-0.301-0.4-0.501s-0.1-0.5-0.1-0.7s0-0.5,0.1-0.7
			s0.2-0.4,0.4-0.5c0.2-0.2,0.4-0.301,0.7-0.4c0.3-0.101,0.601-0.101,1.001-0.101c0.3,0,0.5,0,0.7,0s0.3,0,0.4,0
			c0.1,0,0.2,0,0.3,0.101c0.1,0,0.1,0,0.2,0.1c0.1,0,0.1,0.101,0.1,0.2c0,0.101,0,0.2,0,0.4c0,0.1-0.1,0.2-0.1,0.3
			c-0.101,0.101-0.101,0.101-0.2,0.101s-0.3-0.101-0.5-0.101s-0.501-0.1-0.7-0.1c-0.4,0-0.701,0.1-0.901,0.2
			c-0.199,0.1-0.199,0.3-0.199,0.5s0.1,0.4,0.3,0.5c0.2,0.101,0.5,0.301,0.9,0.4c0.601,0.2,1.101,0.5,1.4,0.9
			c0.301,0.301,0.4,0.7,0.4,1.201c0,0.4-0.1,0.7-0.2,0.9c-0.1,0.2-0.3,0.4-0.6,0.6c-0.2,0.1-0.501,0.2-0.801,0.3
			C23.78,30.707,23.479,30.707,23.179,30.707L23.179,30.707z"/>
		<path fill="#58595B" d="M31.483,30.707c-0.2,0-0.301,0-0.301-0.101c-0.1-0.1-0.1-0.2-0.1-0.3v-4.102c-0.3,0.5-0.5,0.9-0.7,1.2
			c-0.2,0.301-0.301,0.501-0.4,0.601c-0.1,0.101-0.1,0.2-0.1,0.2l0,0c-0.101,0.2-0.101,0.2-0.101,0.3c0,0-0.1,0.101-0.2,0.101h-0.2
			c-0.1,0-0.2,0-0.2-0.101c0,0-0.1-0.1-0.1-0.199l-1.201-2.002v4.002c0,0.1,0,0.2-0.1,0.2c0,0.1-0.101,0.1-0.3,0.1h-0.5
			c-0.1,0-0.2,0-0.3-0.1c-0.101,0-0.101-0.101-0.101-0.301v-5.602c0-0.2,0-0.301,0.101-0.301c0.1-0.1,0.1-0.1,0.2-0.1h0.6
			c0.1,0,0.199,0,0.199,0c0.101,0,0.101,0.1,0.2,0.2l1.501,2.5l1.501-2.401c0-0.1,0.101-0.1,0.2-0.2c0.1,0,0.1-0.1,0.2-0.1h0.601
			c0.1,0,0.2,0,0.3,0.1c0,0.101,0,0.2,0,0.301v5.702c0,0.1,0,0.2,0,0.3c0,0.101-0.1,0.101-0.3,0.101H31.483z"/>
		<path fill="#58595B" d="M35.385,30.707c-0.5,0-0.9,0-1.301-0.101c-0.301-0.1-0.5-0.2-0.701-0.2c0,0,0-0.1,0-0.2
			c0-0.1,0-0.2,0.102-0.299c0-0.101,0.1-0.2,0.1-0.3c0-0.101,0.1-0.101,0.1-0.101c0.201,0.101,0.4,0.101,0.701,0.2
			c0.199,0.1,0.5,0.1,0.9,0.1s0.699-0.1,0.9-0.199c0.301-0.101,0.4-0.301,0.4-0.601c0-0.2-0.1-0.4-0.301-0.601
			c-0.199-0.2-0.5-0.3-0.9-0.5c-0.199-0.101-0.5-0.2-0.699-0.301c-0.201-0.1-0.4-0.2-0.602-0.399
			c-0.199-0.101-0.301-0.301-0.4-0.501s-0.1-0.5-0.1-0.7s0-0.5,0.1-0.7s0.201-0.4,0.4-0.5c0.201-0.2,0.4-0.301,0.701-0.4
			c0.299-0.101,0.6-0.101,1-0.101c0.301,0,0.5,0,0.701,0c0.199,0,0.299,0,0.4,0c0.1,0,0.199,0,0.299,0.101c0.1,0,0.1,0,0.201,0.1
			c0.1,0,0.1,0.101,0.1,0.2c0,0.101,0,0.2,0,0.4c0,0.1-0.1,0.2-0.1,0.3c-0.102,0.101-0.102,0.101-0.201,0.101
			s-0.299-0.101-0.5-0.101c-0.199,0-0.5-0.1-0.701-0.1c-0.398,0-0.699,0.1-0.9,0.2c-0.199,0.1-0.199,0.3-0.199,0.5
			s0.1,0.4,0.301,0.5c0.199,0.101,0.5,0.301,0.9,0.4c0.6,0.2,1.1,0.5,1.4,0.9c0.301,0.301,0.399,0.7,0.399,1.201
			c0,0.4-0.099,0.7-0.2,0.9c-0.1,0.2-0.299,0.4-0.6,0.6c-0.199,0.1-0.5,0.2-0.801,0.3C35.984,30.707,35.686,30.707,35.385,30.707
			L35.385,30.707z"/>
	</g>
</g>
</svg>
