<?xml version="1.0" encoding="utf-8"?>
<!-- Generator: Adobe Illustrator 15.0.2, SVG Export Plug-In . SVG Version: 6.00 Build 0)  -->
<!DOCTYPE svg PUBLIC "-//W3C//DTD SVG 1.1//EN" "http://www.w3.org/Graphics/SVG/1.1/DTD/svg11.dtd">
<svg version="1.1" id="Livello_1" xmlns="http://www.w3.org/2000/svg" xmlns:xlink="http://www.w3.org/1999/xlink" x="0px" y="0px"
	 width="61.102px" height="53.781px" viewBox="0 0 61.102 53.781" enable-background="new 0 0 61.102 53.781" xml:space="preserve">
<g>
	<defs>
		<rect id="SVGID_1_" y="0" width="61.102" height="80.281"/>
	</defs>
	<clipPath id="SVGID_2_">
		<use xlink:href="#SVGID_1_"  overflow="visible"/>
	</clipPath>
	<path clip-path="url(#SVGID_2_)" fill="none" stroke="#58595B" stroke-width="0.963" d="M30.122,51.425
		c13.438,0,24.33-10.891,24.33-24.332c0-13.431-10.892-24.328-24.33-24.328c-13.438,0-24.331,10.897-24.331,24.328
		C5.792,40.534,16.685,51.425,30.122,51.425z"/>
	<path clip-path="url(#SVGID_2_)" fill-rule="evenodd" clip-rule="evenodd" fill="#58595B" d="M40.129,20.989
		c-0.728,0.315-1.52,0.532-2.355,0.641c0.857-0.51,1.508-1.292,1.813-2.247c-0.792,0.466-1.682,0.803-2.615,0.987
		c-0.739-0.791-1.813-1.28-3.007-1.28c-2.257,0-4.103,1.813-4.103,4.037c0,0.326,0.055,0.63,0.12,0.923
		c-3.419-0.163-6.447-1.769-8.466-4.222c-0.347,0.608-0.564,1.292-0.564,2.03c0,1.411,0.738,2.648,1.823,3.364
		c-0.673-0.01-1.302-0.195-1.855-0.499v0.054c0,0.521,0.097,0.999,0.281,1.454c0.5,1.271,1.639,2.225,3.018,2.497
		c-0.359,0.097-0.706,0.152-1.086,0.152c-0.26,0-0.521-0.033-0.771-0.087c0.533,1.606,2.041,2.778,3.832,2.822
		c-1.411,1.085-3.169,1.726-5.09,1.726c-0.337,0-0.651-0.022-0.988-0.055c1.824,1.14,3.983,1.813,6.295,1.813
		c6.415,0,10.376-4.44,11.406-9.052c0.187-0.825,0.272-1.639,0.272-2.442v-0.521C38.88,22.509,39.586,21.792,40.129,20.989"/>
</g>
</svg>
