<?xml version="1.0" encoding="utf-8"?>
<!-- Generator: Adobe Illustrator 15.0.2, SVG Export Plug-In . SVG Version: 6.00 Build 0)  -->
<!DOCTYPE svg PUBLIC "-//W3C//DTD SVG 1.1//EN" "http://www.w3.org/Graphics/SVG/1.1/DTD/svg11.dtd">
<svg version="1.1" id="Livello_1" xmlns="http://www.w3.org/2000/svg" xmlns:xlink="http://www.w3.org/1999/xlink" x="0px" y="0px"
	 width="61.102px" height="80.281px" viewBox="0 0 61.102 80.281" enable-background="new 0 0 61.102 80.281" xml:space="preserve">
<g>
	<defs>
		<rect id="SVGID_1_" y="0" width="61.102" height="80.281"/>
	</defs>
	<clipPath id="SVGID_2_">
		<use xlink:href="#SVGID_1_"  overflow="visible"/>
	</clipPath>
	<circle clip-path="url(#SVGID_2_)" fill="none" stroke="#58585A" stroke-width="0.96" cx="30.216" cy="26.299" r="24.241"/>
	<polygon clip-path="url(#SVGID_2_)" fill="#58595B" points="38.647,19.886 37.299,20.705 37.421,19.318 35.289,19.109 
		35.02,22.083 31.294,24.341 31.294,19.826 33.613,18.094 32.374,16.259 31.294,17.066 31.294,15.429 29.146,15.429 29.146,17.066 
		28.068,16.259 26.826,18.097 29.148,19.829 29.148,24.346 25.422,22.089 25.153,19.114 23.022,19.324 23.145,20.71 21.794,19.891 
		20.715,21.836 22.067,22.654 20.862,23.234 21.756,25.282 24.346,24.036 28.071,26.296 24.346,28.555 21.756,27.31 20.862,29.358 
		22.067,29.937 20.715,30.755 21.792,32.708 23.142,31.89 23.02,33.277 25.15,33.486 25.419,30.511 29.146,28.251 29.146,32.768 
		26.824,34.5 28.066,36.338 29.144,35.533 29.144,37.168 31.291,37.168 31.291,35.533 32.368,36.338 33.611,34.5 31.291,32.768 
		31.291,28.251 35.017,30.511 35.286,33.486 37.419,33.277 37.296,31.89 38.645,32.708 39.716,30.755 38.367,29.94 39.572,29.361 
		38.677,27.313 36.086,28.558 32.36,26.299 36.086,24.039 38.677,25.284 39.572,23.237 38.364,22.657 39.716,21.839 	"/>
	<polygon clip-path="url(#SVGID_2_)" fill="#58595B" points="16.057,58.246 17.266,58.246 18.275,62.104 18.295,62.104 
		19.265,58.246 20.414,58.246 21.344,62.104 21.365,62.104 22.413,58.246 23.573,58.246 21.953,63.413 20.785,63.413 19.825,59.575 
		19.805,59.575 18.855,63.413 17.657,63.413 	"/>
	<path clip-path="url(#SVGID_2_)" fill="#58595B" d="M24.337,56.277h1.139v1.079h-1.139V56.277z M24.337,58.246h1.139v5.167h-1.139
		V58.246z"/>
	<path clip-path="url(#SVGID_2_)" fill="#58595B" d="M26.717,58.246h1.079v0.76l0.021,0.019c0.339-0.568,0.929-0.919,1.609-0.919
		c1.119,0,1.828,0.601,1.828,1.76v3.548h-1.139v-3.248c-0.021-0.811-0.339-1.159-1.009-1.159c-0.76,0-1.249,0.599-1.249,1.359v3.048
		h-1.14V58.246z"/>
	<path clip-path="url(#SVGID_2_)" fill="#58595B" d="M31.938,58.246h0.859v-1.549h1.14v1.549h1.029v0.85h-1.029v2.758
		c0,0.471,0.04,0.709,0.55,0.709c0.159,0,0.319,0,0.479-0.04v0.881c-0.25,0.02-0.49,0.06-0.739,0.06c-1.189,0-1.409-0.459-1.43-1.32
		v-3.047h-0.859V58.246z"/>
	<path clip-path="url(#SVGID_2_)" fill="#58595B" d="M36.677,61.125c0,0.81,0.439,1.527,1.389,1.527c0.66,0,1.06-0.289,1.26-0.858
		h1.079c-0.25,1.13-1.209,1.76-2.339,1.76c-1.618,0-2.528-1.13-2.528-2.719c0-1.47,0.96-2.729,2.499-2.729
		c1.629,0,2.628,1.47,2.438,3.02H36.677z M39.335,60.375c-0.04-0.721-0.529-1.369-1.299-1.369c-0.79,0-1.329,0.599-1.359,1.369
		H39.335z"/>
	<path clip-path="url(#SVGID_2_)" fill="#58595B" d="M41.347,58.246h1.069v1h0.021c0.13-0.55,0.81-1.141,1.509-1.141
		c0.26,0,0.33,0.021,0.43,0.03v1.099c-0.16-0.019-0.33-0.05-0.489-0.05c-0.78,0-1.399,0.63-1.399,1.771v2.458h-1.14V58.246z"/>
	
		<line clip-path="url(#SVGID_2_)" fill="none" stroke="#58585A" stroke-width="0.466" x1="5.011" y1="53.79" x2="55.421" y2="53.79"/>
</g>
</svg>
