<?xml version="1.0" encoding="utf-8"?>
<!-- Generator: Adobe Illustrator 15.0.2, SVG Export Plug-In . SVG Version: 6.00 Build 0)  -->
<!DOCTYPE svg PUBLIC "-//W3C//DTD SVG 1.1//EN" "http://www.w3.org/Graphics/SVG/1.1/DTD/svg11.dtd">
<svg version="1.1" id="Livello_1" xmlns="http://www.w3.org/2000/svg" xmlns:xlink="http://www.w3.org/1999/xlink" x="0px" y="0px"
	 width="61.102px" height="80.281px" viewBox="0 0 61.102 80.281" enable-background="new 0 0 61.102 80.281" xml:space="preserve">
<g>
	<defs>
		<rect id="SVGID_1_" width="61.102" height="80.281"/>
	</defs>
	<clipPath id="SVGID_2_">
		<use xlink:href="#SVGID_1_"  overflow="visible"/>
	</clipPath>
	<g clip-path="url(#SVGID_2_)">
		<defs>
			<rect id="SVGID_3_" y="0" width="61.102" height="80.281"/>
		</defs>
		<clipPath id="SVGID_4_">
			<use xlink:href="#SVGID_3_"  overflow="visible"/>
		</clipPath>
		<path clip-path="url(#SVGID_4_)" fill="none" stroke="#58595B" stroke-width="0.963" d="M30.215,50.629
			c13.439,0,24.331-10.891,24.331-24.332c0-13.432-10.892-24.328-24.331-24.328c-13.437,0-24.33,10.896-24.33,24.328
			C5.885,39.738,16.778,50.629,30.215,50.629z"/>
		<g clip-path="url(#SVGID_4_)">
			<g>
				<defs>
					<rect id="SVGID_5_" x="22.074" y="33.343" width="9.643" height="9.768"/>
				</defs>
				<clipPath id="SVGID_6_">
					<use xlink:href="#SVGID_5_"  overflow="visible"/>
				</clipPath>
				<path clip-path="url(#SVGID_6_)" fill="#67AE23" d="M29.47,34.034c2.251,1.382,2.923,4.38,1.501,6.695
					c-1.422,2.316-4.399,3.073-6.65,1.69c-2.252-1.383-2.924-4.381-1.502-6.696C24.241,33.408,27.219,32.651,29.47,34.034"/>
			</g>
		</g>
		<g clip-path="url(#SVGID_4_)">
			<g>
				<defs>
					<rect id="SVGID_7_" x="25.67" y="27.487" width="9.644" height="9.768"/>
				</defs>
				<clipPath id="SVGID_8_">
					<use xlink:href="#SVGID_7_"  overflow="visible"/>
				</clipPath>
				<path clip-path="url(#SVGID_8_)" fill="#E32121" d="M33.066,28.178c2.251,1.383,2.923,4.38,1.501,6.696
					c-1.422,2.315-4.399,3.072-6.65,1.689c-2.252-1.383-2.924-4.38-1.502-6.696C27.837,27.552,30.815,26.796,33.066,28.178"/>
			</g>
		</g>
		<g clip-path="url(#SVGID_4_)">
			<g>
				<defs>
					<rect id="SVGID_9_" x="28.714" y="33.169" width="9.643" height="9.767"/>
				</defs>
				<clipPath id="SVGID_10_">
					<use xlink:href="#SVGID_9_"  overflow="visible"/>
				</clipPath>
				<path clip-path="url(#SVGID_10_)" fill="#304A96" d="M36.11,33.86c2.252,1.382,2.924,4.38,1.502,6.696
					c-1.422,2.314-4.398,3.071-6.651,1.688c-2.25-1.382-2.922-4.379-1.5-6.696C30.882,33.234,33.859,32.479,36.11,33.86"/>
			</g>
		</g>
		<path clip-path="url(#SVGID_4_)" fill="#58595B" d="M27.559,11.744h2.484c0.672,0,1.188,0.053,1.55,0.158
			c0.361,0.106,0.633,0.258,0.814,0.457c0.182,0.199,0.305,0.441,0.369,0.724c0.064,0.283,0.097,0.721,0.097,1.315v0.826
			c0,0.606-0.063,1.047-0.188,1.325c-0.125,0.277-0.354,0.49-0.688,0.638c-0.334,0.149-0.771,0.223-1.31,0.223h-0.662v3.82h-2.467
			V11.744z M30.025,13.366v2.414c0.07,0.004,0.131,0.006,0.182,0.006c0.227,0,0.384-0.056,0.472-0.167
			c0.088-0.111,0.132-0.343,0.132-0.694v-0.78c0-0.324-0.051-0.535-0.152-0.633C30.557,13.416,30.346,13.366,30.025,13.366"/>
		<path clip-path="url(#SVGID_4_)" fill="#58595B" d="M5.616,62.497c0.061,0.66,0.56,0.898,1.17,0.898
			c0.43,0,1.179-0.089,1.149-0.679c-0.03-0.6-0.86-0.669-1.689-0.86c-0.84-0.179-1.659-0.479-1.659-1.528
			c0-1.129,1.219-1.479,2.159-1.479c1.059,0,2.018,0.439,2.158,1.588H7.715c-0.1-0.54-0.549-0.688-1.049-0.688
			c-0.33,0-0.94,0.08-0.94,0.529c0,0.56,0.839,0.64,1.679,0.829c0.83,0.19,1.669,0.49,1.669,1.51c0,1.229-1.239,1.68-2.309,1.68
			c-1.298,0-2.268-0.58-2.288-1.8H5.616z"/>
		<path clip-path="url(#SVGID_4_)" fill="#58595B" d="M14.484,64.156h-1.119v-0.721h-0.02c-0.28,0.521-0.899,0.861-1.469,0.861
			c-1.349,0-1.929-0.68-1.929-2.03v-3.277h1.14v3.168c0,0.91,0.369,1.238,0.989,1.238c0.949,0,1.269-0.608,1.269-1.408v-2.998h1.139
			V64.156z"/>
		<path clip-path="url(#SVGID_4_)" fill="#58595B" d="M15.717,57.021h1.139V58.1h-1.139V57.021z M15.717,58.989h1.139v5.167h-1.139
			V58.989z"/>
		<path clip-path="url(#SVGID_4_)" fill="#58595B" d="M17.578,58.989h0.859V57.44h1.14v1.549h1.029v0.85h-1.029v2.758
			c0,0.471,0.04,0.709,0.55,0.709c0.159,0,0.319,0,0.479-0.04v0.88c-0.25,0.021-0.49,0.061-0.739,0.061
			c-1.189,0-1.409-0.459-1.43-1.32v-3.047h-0.859V58.989z"/>
		<path clip-path="url(#SVGID_4_)" fill="#58595B" d="M25.756,63.006c0,0.281,0.059,0.391,0.269,0.391c0.07,0,0.16,0,0.279-0.02
			v0.789c-0.169,0.06-0.529,0.131-0.718,0.131c-0.46,0-0.79-0.161-0.88-0.63c-0.45,0.439-1.18,0.63-1.789,0.63
			c-0.93,0-1.77-0.5-1.77-1.51c0-1.289,1.031-1.499,1.99-1.61c0.819-0.148,1.548-0.059,1.548-0.729c0-0.59-0.609-0.699-1.069-0.699
			c-0.64,0-1.089,0.259-1.139,0.819h-1.139c0.08-1.329,1.209-1.72,2.348-1.72c1.01,0,2.07,0.409,2.07,1.499V63.006z M24.616,61.568
			c-0.35,0.229-0.899,0.22-1.399,0.31c-0.49,0.08-0.93,0.259-0.93,0.859c0,0.51,0.649,0.659,1.05,0.659
			c0.5,0,1.279-0.261,1.279-0.979V61.568z"/>
		<path clip-path="url(#SVGID_4_)" fill="#58595B" d="M27.017,57.02h1.139v2.64h0.02c0.31-0.5,0.959-0.81,1.539-0.81
			c1.629,0,2.419,1.239,2.419,2.748c0,1.389-0.7,2.699-2.229,2.699c-0.699,0-1.448-0.17-1.788-0.851h-0.021v0.709h-1.079V57.02z
			 M29.566,59.749c-0.96,0-1.449,0.729-1.449,1.829c0,1.039,0.529,1.817,1.449,1.817c1.039,0,1.429-0.918,1.429-1.817
			C30.995,60.639,30.505,59.749,29.566,59.749"/>
		<rect x="33.127" y="57.021" clip-path="url(#SVGID_4_)" fill="#58595B" width="1.139" height="7.136"/>
		<path clip-path="url(#SVGID_4_)" fill="#58595B" d="M36.396,61.868c0,0.81,0.439,1.527,1.389,1.527c0.66,0,1.06-0.288,1.26-0.858
			h1.079c-0.25,1.13-1.209,1.76-2.339,1.76c-1.618,0-2.528-1.13-2.528-2.719c0-1.47,0.96-2.729,2.499-2.729
			c1.629,0,2.628,1.47,2.438,3.02H36.396z M39.055,61.118c-0.04-0.72-0.529-1.369-1.299-1.369c-0.79,0-1.329,0.599-1.359,1.369
			H39.055z"/>
		<path clip-path="url(#SVGID_4_)" fill="#58595B" d="M43.337,58.989h0.85v-0.431c0-1.318,0.689-1.539,1.43-1.539
			c0.359,0,0.619,0.021,0.799,0.071v0.888c-0.149-0.04-0.3-0.059-0.529-0.059c-0.31,0-0.56,0.11-0.56,0.54v0.529h0.969v0.85h-0.969
			v4.317h-1.14v-4.317h-0.85V58.989z"/>
		<path clip-path="url(#SVGID_4_)" fill="#58595B" d="M46.756,61.568c0-1.579,0.95-2.72,2.609-2.72s2.608,1.141,2.608,2.72
			c0,1.589-0.949,2.729-2.608,2.729S46.756,63.157,46.756,61.568 M50.834,61.568c0-0.891-0.449-1.819-1.469-1.819
			s-1.469,0.929-1.469,1.819c0,0.898,0.449,1.828,1.469,1.828S50.834,62.467,50.834,61.568"/>
		<path clip-path="url(#SVGID_4_)" fill="#58595B" d="M52.926,58.989h1.069v1h0.021c0.13-0.551,0.81-1.141,1.509-1.141
			c0.26,0,0.33,0.021,0.43,0.03v1.099c-0.16-0.019-0.33-0.05-0.489-0.05c-0.78,0-1.399,0.63-1.399,1.771v2.458h-1.14V58.989z"/>
		<path clip-path="url(#SVGID_4_)" fill="#58595B" d="M13.037,67.988h1.079v0.699h0.021c0.319-0.588,0.939-0.838,1.598-0.838
			c1.629,0,2.419,1.239,2.419,2.748c0,1.389-0.7,2.699-2.229,2.699c-0.659,0-1.369-0.24-1.729-0.811h-0.02v2.578h-1.139V67.988z
			 M15.585,68.749c-0.96,0-1.449,0.729-1.449,1.829c0,1.039,0.529,1.817,1.449,1.817c1.039,0,1.429-0.918,1.429-1.817
			C17.014,69.639,16.524,68.749,15.585,68.749"/>
		<path clip-path="url(#SVGID_4_)" fill="#58595B" d="M19.117,67.989h1.069v1h0.021c0.13-0.551,0.809-1.141,1.509-1.141
			c0.259,0,0.33,0.021,0.429,0.03v1.099c-0.16-0.019-0.33-0.05-0.489-0.05c-0.78,0-1.399,0.63-1.399,1.771v2.458h-1.14V67.989z"/>
		<path clip-path="url(#SVGID_4_)" fill="#58595B" d="M22.667,66.021h1.139V67.1h-1.139V66.021z M22.667,67.989h1.139v5.167h-1.139
			V67.989z"/>
		<path clip-path="url(#SVGID_4_)" fill="#58595B" d="M25.046,67.989h1.079v0.76l0.021,0.019c0.339-0.568,0.929-0.919,1.609-0.919
			c1.119,0,1.828,0.601,1.828,1.76v3.548h-1.139v-3.248c-0.02-0.811-0.339-1.159-1.009-1.159c-0.76,0-1.249,0.599-1.249,1.359v3.048
			h-1.14V67.989z"/>
		<path clip-path="url(#SVGID_4_)" fill="#58595B" d="M30.268,67.989h0.858V66.44h1.14v1.549h1.029v0.85h-1.029v2.758
			c0,0.471,0.04,0.709,0.55,0.709c0.159,0,0.319,0,0.479-0.04v0.88c-0.25,0.021-0.49,0.061-0.739,0.061
			c-1.188,0-1.408-0.459-1.43-1.32v-3.047h-0.858V67.989z"/>
		<path clip-path="url(#SVGID_4_)" fill="#58595B" d="M34.146,66.021h1.139V67.1h-1.139V66.021z M34.146,67.989h1.139v5.167h-1.139
			V67.989z"/>
		<path clip-path="url(#SVGID_4_)" fill="#58595B" d="M36.526,67.989h1.079v0.76l0.021,0.019c0.34-0.568,0.93-0.919,1.609-0.919
			c1.119,0,1.828,0.601,1.828,1.76v3.548h-1.139v-3.248c-0.021-0.811-0.34-1.159-1.01-1.159c-0.76,0-1.249,0.599-1.249,1.359v3.048
			h-1.14V67.989z"/>
		<path clip-path="url(#SVGID_4_)" fill="#58595B" d="M47.044,72.887c0,1.549-0.909,2.318-2.538,2.318
			c-1.04,0-2.209-0.399-2.31-1.608h1.14c0.14,0.649,0.66,0.758,1.239,0.758c0.92,0,1.329-0.469,1.329-1.318v-0.789h-0.02
			c-0.32,0.568-0.909,0.908-1.549,0.908c-1.64,0-2.319-1.238-2.319-2.719c0-1.388,0.87-2.587,2.339-2.587
			c0.649,0,1.239,0.27,1.529,0.85h0.02v-0.711h1.14V72.887z M45.904,70.458c0-0.891-0.399-1.709-1.389-1.709
			c-1.01,0-1.359,0.938-1.359,1.799c0,0.849,0.41,1.709,1.359,1.709C45.524,72.257,45.904,71.338,45.904,70.458"/>
		
			<line clip-path="url(#SVGID_4_)" fill="none" stroke="#58595B" stroke-width="0.466" x1="5.012" y1="53.791" x2="55.422" y2="53.791"/>
	</g>
</g>
</svg>
