<?xml version="1.0" encoding="utf-8"?>
<!-- Generator: Adobe Illustrator 15.0.2, SVG Export Plug-In . SVG Version: 6.00 Build 0)  -->
<!DOCTYPE svg PUBLIC "-//W3C//DTD SVG 1.1//EN" "http://www.w3.org/Graphics/SVG/1.1/DTD/svg11.dtd">
<svg version="1.1" id="Livello_1" xmlns="http://www.w3.org/2000/svg" xmlns:xlink="http://www.w3.org/1999/xlink" x="0px" y="0px"
	 width="61.102px" height="80.281px" viewBox="0 0 61.102 80.281" enable-background="new 0 0 61.102 80.281" xml:space="preserve">
<g>
	<defs>
		<rect id="SVGID_1_" y="0" width="61.102" height="80.281"/>
	</defs>
	<clipPath id="SVGID_2_">
		<use xlink:href="#SVGID_1_"  overflow="visible"/>
	</clipPath>
	<path clip-path="url(#SVGID_2_)" fill="#58595B" d="M13.492,64.706h-1.079v-0.7h-0.021c-0.3,0.589-0.949,0.839-1.598,0.839
		c-1.629,0-2.419-1.209-2.419-2.758c0-1.869,1.109-2.688,2.239-2.688c0.649,0,1.369,0.239,1.719,0.81h0.019v-2.639h1.14V64.706z
		 M10.943,63.946c1.02,0,1.449-0.931,1.449-1.829c0-1.141-0.549-1.819-1.428-1.819c-1.07,0-1.45,0.95-1.45,1.878
		C9.514,63.066,9.954,63.946,10.943,63.946"/>
	<path clip-path="url(#SVGID_2_)" fill="#58595B" d="M19.272,64.706h-1.119v-0.721h-0.02c-0.28,0.521-0.899,0.86-1.469,0.86
		c-1.349,0-1.929-0.68-1.929-2.03v-3.276h1.14v3.168c0,0.909,0.369,1.238,0.989,1.238c0.949,0,1.269-0.608,1.269-1.408v-2.998h1.139
		V64.706z"/>
	<path clip-path="url(#SVGID_2_)" fill="#58595B" d="M24.804,63.556c0,0.28,0.059,0.391,0.269,0.391c0.07,0,0.16,0,0.279-0.021v0.79
		c-0.169,0.06-0.529,0.13-0.718,0.13c-0.46,0-0.79-0.161-0.88-0.63c-0.45,0.44-1.18,0.63-1.789,0.63c-0.93,0-1.77-0.5-1.77-1.509
		c0-1.29,1.031-1.5,1.99-1.61c0.819-0.149,1.548-0.059,1.548-0.729c0-0.59-0.609-0.7-1.069-0.7c-0.64,0-1.089,0.259-1.139,0.82
		h-1.139c0.08-1.33,1.209-1.72,2.348-1.72c1.01,0,2.07,0.409,2.07,1.498V63.556z M23.664,62.117c-0.35,0.229-0.899,0.22-1.399,0.31
		c-0.49,0.08-0.93,0.259-0.93,0.859c0,0.51,0.649,0.66,1.05,0.66c0.5,0,1.279-0.261,1.279-0.979V62.117z"/>
	<rect x="26.065" y="57.569" clip-path="url(#SVGID_2_)" fill="#58595B" width="1.139" height="7.137"/>
	<path clip-path="url(#SVGID_2_)" fill="#58595B" d="M32.085,63.047c0.062,0.659,0.56,0.898,1.17,0.898
		c0.43,0,1.179-0.089,1.149-0.679c-0.03-0.6-0.86-0.67-1.689-0.86c-0.84-0.179-1.66-0.479-1.66-1.528
		c0-1.129,1.221-1.479,2.16-1.479c1.06,0,2.019,0.44,2.158,1.589h-1.189c-0.1-0.54-0.549-0.689-1.049-0.689
		c-0.33,0-0.939,0.08-0.939,0.53c0,0.56,0.839,0.64,1.679,0.828c0.83,0.191,1.669,0.491,1.669,1.511
		c0,1.229-1.239,1.679-2.309,1.679c-1.3,0-2.27-0.58-2.289-1.799H32.085z"/>
	<path clip-path="url(#SVGID_2_)" fill="#58595B" d="M35.896,59.539h0.859v-1.55h1.14v1.55h1.029v0.85h-1.029v2.757
		c0,0.471,0.04,0.71,0.55,0.71c0.159,0,0.319,0,0.479-0.04v0.881c-0.25,0.02-0.49,0.06-0.739,0.06c-1.189,0-1.41-0.46-1.43-1.32
		v-3.047h-0.859V59.539z"/>
	<path clip-path="url(#SVGID_2_)" fill="#58595B" d="M39.177,59.539h1.249l1.35,3.856h0.02l1.31-3.856h1.189l-2.009,5.445
		c-0.37,0.931-0.64,1.771-1.829,1.771c-0.271,0-0.53-0.021-0.79-0.061v-0.96c0.18,0.031,0.36,0.071,0.54,0.071
		c0.529,0,0.659-0.281,0.8-0.72l0.13-0.401L39.177,59.539z"/>
	<rect x="44.967" y="57.569" clip-path="url(#SVGID_2_)" fill="#58595B" width="1.14" height="7.137"/>
	<path clip-path="url(#SVGID_2_)" fill="#58595B" d="M48.236,62.417c0,0.81,0.439,1.528,1.388,1.528c0.661,0,1.061-0.29,1.261-0.858
		h1.079c-0.25,1.129-1.209,1.759-2.34,1.759c-1.617,0-2.527-1.129-2.527-2.719c0-1.469,0.96-2.729,2.499-2.729
		c1.629,0,2.628,1.471,2.438,3.02H48.236z M50.895,61.668c-0.04-0.721-0.529-1.37-1.299-1.37c-0.79,0-1.329,0.599-1.359,1.37H50.895
		z"/>
	
		<line clip-path="url(#SVGID_2_)" fill="none" stroke="#58595B" stroke-width="0.466" x1="5.011" y1="53.79" x2="55.421" y2="53.79"/>
	<path clip-path="url(#SVGID_2_)" fill="none" stroke="#58595B" stroke-width="0.459" stroke-miterlimit="57" d="M24.517,28.185
		c0,0-0.252-0.971,0.283-0.936c0.536,0.037,1.448,0.01,2.299,0.253c0.663,0.18,1.387-0.324,1.23-0.9c0,0-0.189-1.242,0.519-1.439
		c0.269-0.198,0.19-0.647,0.063-0.827c0,0,0.774-0.306,0.473-1.081c-0.127-0.269-0.3-0.43-0.174-0.43
		c0.141,0.035,1.308-0.18,1.056-0.756c-0.205-0.594-0.947-2.321-0.947-2.321s-0.235-0.72-0.032-1.115
		c0.208-0.396,0.176-0.918,0.097-1.314c-0.081-0.395-0.598-1.529-0.598-1.529l-6.914,1.296l-3.625,1.692l-1.007,2.283
		c0,0,1.763,0.685,1.842,1.53c0.081,0.845,0.092,1.84,0.033,3.111c-0.067,1.39,0.048,2.483,0.048,2.483"/>
	<path clip-path="url(#SVGID_2_)" fill="#FFFFFF" d="M16.589,18.654c0,0.995-0.808,1.801-1.802,1.801c-0.993,0-1.8-0.806-1.8-1.801
		c0-0.994,0.807-1.8,1.8-1.8C15.781,16.854,16.589,17.66,16.589,18.654"/>
	
		<circle clip-path="url(#SVGID_2_)" fill="none" stroke="#58595B" stroke-width="0.459" stroke-miterlimit="57" cx="14.788" cy="18.654" r="1.801"/>
	<path clip-path="url(#SVGID_2_)" fill="#FFFFFF" d="M19.384,25.736c1.637-1.487,7.39-9.331,9.999-8.417
		c0.918-3.284-10.767-5.082-14.333-1.013c-1.46,2.375,0.979,3.481,0.979,3.481s3.051,4.033,3.041,5.796
		C19.069,25.755,19.257,25.852,19.384,25.736"/>
	<path clip-path="url(#SVGID_2_)" fill="none" stroke="#58595B" stroke-width="0.459" stroke-miterlimit="57" d="M19.384,25.736
		c1.637-1.487,7.39-9.331,9.999-8.417c0.918-3.284-10.767-5.082-14.333-1.013c-1.46,2.375,0.979,3.481,0.979,3.481
		s3.051,4.033,3.041,5.796C19.069,25.755,19.257,25.852,19.384,25.736z"/>
	<path clip-path="url(#SVGID_2_)" fill="none" stroke="#58595B" stroke-width="0.459" stroke-miterlimit="57" d="M39.18,28.751
		c0,0-0.251-0.972,0.283-0.935c0.535,0.036,1.447,0.009,2.301,0.252c0.661,0.18,1.385-0.324,1.229-0.9c0,0-0.19-1.241,0.518-1.439
		c0.269-0.198,0.188-0.647,0.065-0.827c0,0,0.771-0.307,0.472-1.08c-0.129-0.27-0.299-0.431-0.176-0.431
		c0.142,0.036,1.309-0.18,1.058-0.756c-0.204-0.594-0.946-2.321-0.946-2.321s-0.234-0.72-0.032-1.115
		c0.206-0.396,0.174-0.918,0.095-1.313c-0.078-0.396-0.598-1.529-0.598-1.529l-6.914,1.295l-3.623,1.691l-1.007,2.284
		c0,0,1.764,0.685,1.841,1.53c0.078,0.845,0.091,1.84,0.032,3.112c-0.064,1.389,0.046,2.482,0.046,2.482"/>
	<path clip-path="url(#SVGID_2_)" fill="#FFFFFF" d="M34.582,8.199c0.471,0.875,0.145,1.968-0.729,2.439
		c-0.875,0.473-1.968,0.145-2.44-0.73c-0.472-0.875-0.144-1.968,0.73-2.439C33.018,6.998,34.11,7.324,34.582,8.199"/>
	
		<circle clip-path="url(#SVGID_2_)" fill="none" stroke="#58595B" stroke-width="0.459" stroke-miterlimit="57" cx="32.997" cy="9.054" r="1.801"/>
	<path clip-path="url(#SVGID_2_)" fill="#FFFFFF" d="M31.251,20.186c-0.575-2.354,0.853-9.571,0.853-9.571l2.655-1.221
		c0,0,6.354,2.52,7.896,4.644"/>
	<path clip-path="url(#SVGID_2_)" fill="none" stroke="#58595B" stroke-width="0.459" stroke-miterlimit="57" d="M31.251,20.186
		c-0.575-2.354,0.853-9.571,0.853-9.571l2.655-1.221c0,0,6.354,2.52,7.896,4.644"/>
	<path clip-path="url(#SVGID_2_)" fill="#FFFFFF" d="M43.679,16.585c-1.535,0.601-8.771,4.501-10.982,5.921
		c-0.327,0.157-0.5-0.122-0.5-0.122l-0.983-1.825c0,0-0.19-0.215,0.165-0.502c1.652-1.304,9.654-5.619,11.045-5.956
		c0.384-0.207,0.571,0.145,0.571,0.145l0.864,1.602C43.858,15.848,44.159,16.325,43.679,16.585"/>
	<path clip-path="url(#SVGID_2_)" fill="none" stroke="#58595B" stroke-width="0.459" stroke-miterlimit="57" d="M43.679,16.585
		c-1.535,0.601-8.771,4.501-10.982,5.921c-0.327,0.157-0.5-0.122-0.5-0.122l-0.983-1.825c0,0-0.19-0.215,0.165-0.502
		c1.652-1.304,9.654-5.619,11.045-5.956c0.384-0.207,0.571,0.145,0.571,0.145l0.864,1.602
		C43.858,15.848,44.159,16.325,43.679,16.585z"/>
	<path clip-path="url(#SVGID_2_)" fill="none" stroke="#58595B" stroke-width="0.963" d="M30.215,50.629
		c13.439,0,24.331-10.891,24.331-24.332c0-13.432-10.892-24.328-24.331-24.328c-13.437,0-24.33,10.896-24.33,24.328
		C5.885,39.738,16.778,50.629,30.215,50.629z"/>
	<path clip-path="url(#SVGID_2_)" fill="#58595B" d="M36.533,35.243h0.409l-0.951,0.956c-0.21,0.211-0.21,0.553,0,0.763
		c0.104,0.106,0.242,0.159,0.38,0.159c0.137,0,0.274-0.053,0.38-0.159l1.868-1.877c0.21-0.211,0.21-0.553,0-0.764l-1.868-1.877
		c-0.21-0.21-0.55-0.21-0.76,0s-0.21,0.552,0,0.763l0.951,0.956h-0.409c-2.33,0-3.748,1.872-5.247,3.854
		c-1.646,2.173-3.347,4.542-6.387,4.542h-1.873c-0.297,0-0.537,0.241-0.537,0.54c0,0.298,0.241,0.539,0.537,0.539h1.873
		c3.572,0,5.606-2.81,7.241-4.967C33.59,36.755,34.735,35.243,36.533,35.243 M38.619,42.595l-1.868-1.876
		c-0.21-0.211-0.55-0.211-0.76,0c-0.21,0.21-0.21,0.552,0,0.763l0.951,0.956h-0.409c-1.631,0-2.727-1.247-3.997-2.909l-0.704,0.852
		c1.313,1.693,2.654,3.136,4.701,3.136h0.409l-0.951,0.957c-0.21,0.211-0.21,0.552,0,0.763c0.104,0.105,0.242,0.158,0.38,0.158
		c0.137,0,0.274-0.053,0.38-0.158l1.868-1.877c0.101-0.104,0.157-0.239,0.157-0.383C38.776,42.834,38.72,42.696,38.619,42.595
		 M23.026,35.109h1.873c2.243,0,3.757,1.359,5.057,2.874l0.726-0.798c-1.407-1.603-3.189-3.155-5.783-3.155h-1.873
		c-0.296,0-0.537,0.242-0.537,0.54C22.489,34.868,22.73,35.109,23.026,35.109"/>
</g>
</svg>
