<?xml version="1.0" encoding="utf-8"?>
<!-- Generator: Adobe Illustrator 15.0.2, SVG Export Plug-In . SVG Version: 6.00 Build 0)  -->
<!DOCTYPE svg PUBLIC "-//W3C//DTD SVG 1.1//EN" "http://www.w3.org/Graphics/SVG/1.1/DTD/svg11.dtd">
<svg version="1.1" id="Livello_1" xmlns="http://www.w3.org/2000/svg" xmlns:xlink="http://www.w3.org/1999/xlink" x="0px" y="0px"
	 width="61.102px" height="80.281px" viewBox="0 0 61.102 80.281" enable-background="new 0 0 61.102 80.281" xml:space="preserve">
<g>
	<defs>
		<rect id="SVGID_1_" y="0" width="61.102" height="80.281"/>
	</defs>
	<clipPath id="SVGID_2_">
		<use xlink:href="#SVGID_1_"  overflow="visible"/>
	</clipPath>
	<circle clip-path="url(#SVGID_2_)" fill="none" stroke="#58585A" stroke-width="0.96" cx="30.216" cy="26.299" r="24.241"/>
	<path clip-path="url(#SVGID_2_)" fill="none" stroke="#58585A" stroke-width="1.218" stroke-miterlimit="10" d="M18.617,28.479
		c-2.488,0-4.683,1.961-4.683,4.449c0,1.99,1.614,3.604,3.604,3.604c1.592,0,2.884-1.291,2.884-2.883
		c0-1.274-1.033-2.307-2.307-2.307"/>
	<path clip-path="url(#SVGID_2_)" fill="none" stroke="#58585A" stroke-width="1.218" stroke-miterlimit="10" d="M18.45,28.479
		c5.033,0.074,18.167,0.146,28.047,0"/>
	<path clip-path="url(#SVGID_2_)" fill="none" stroke="#58585A" stroke-width="1.218" stroke-miterlimit="10" d="M28.402,30.888
		c-2.488,0-4.615,1.961-4.615,4.449c0,1.99,1.613,3.603,3.604,3.603c1.592,0,2.883-1.29,2.883-2.883
		c0-1.273-1.033-2.306-2.307-2.306"/>
	<path clip-path="url(#SVGID_2_)" fill="none" stroke="#58585A" stroke-width="1.218" stroke-miterlimit="10" d="M28.303,30.888
		c4.16,0.11,14.013,0.11,18.149,0"/>
	<path clip-path="url(#SVGID_2_)" fill="none" stroke="#58585A" stroke-width="1.218" stroke-miterlimit="10" d="M28.959,26.072
		c-3.772,0-6.851-3.179-6.851-6.951c0-3.018,2.446-5.464,5.464-5.464c2.414,0,4.371,1.957,4.371,4.372
		c0,1.931-1.564,3.497-3.497,3.497"/>
	<path clip-path="url(#SVGID_2_)" fill="none" stroke="#58585A" stroke-width="1.218" stroke-miterlimit="10" d="M28.959,26.072
		c3.941,0.109,13.575,0.109,17.511,0"/>
	<path clip-path="url(#SVGID_2_)" fill="none" stroke="#58585A" stroke-width="1.218" stroke-miterlimit="10" d="M18.252,25.506
		c-1.718,0-3.402-1.626-3.402-3.346c0-1.375,1.115-2.49,2.49-2.49c1.1,0,1.993,0.892,1.993,1.993c0,0.88-0.714,1.593-1.595,1.593"/>
	
		<line clip-path="url(#SVGID_2_)" fill="none" stroke="#58585A" stroke-width="1.218" stroke-miterlimit="10" x1="18.032" y1="25.539" x2="22.746" y2="25.539"/>
	<polygon clip-path="url(#SVGID_2_)" fill="#58595B" points="5.631,58.128 6.84,58.128 7.85,61.985 7.87,61.985 8.839,58.128 
		9.988,58.128 10.918,61.985 10.939,61.985 11.987,58.128 13.147,58.128 11.527,63.295 10.359,63.295 9.399,59.457 9.379,59.457 
		8.43,63.295 7.231,63.295 	"/>
	<path clip-path="url(#SVGID_2_)" fill="#58595B" d="M13.912,56.159h1.139v1.079h-1.139V56.159z M13.912,58.127h1.139v5.167h-1.139
		V58.127z"/>
	<path clip-path="url(#SVGID_2_)" fill="#58595B" d="M16.292,58.128h1.079v0.76l0.021,0.019c0.339-0.568,0.929-0.919,1.609-0.919
		c1.119,0,1.828,0.601,1.828,1.76v3.548h-1.139v-3.248c-0.02-0.811-0.339-1.159-1.009-1.159c-0.76,0-1.249,0.599-1.249,1.359v3.048
		h-1.14V58.128z"/>
	<path clip-path="url(#SVGID_2_)" fill="#58595B" d="M26.899,63.295H25.82v-0.699h-0.021c-0.3,0.589-0.949,0.839-1.598,0.839
		c-1.629,0-2.419-1.21-2.419-2.758c0-1.87,1.109-2.688,2.239-2.688c0.649,0,1.369,0.238,1.719,0.81h0.019v-2.639h1.14V63.295z
		 M24.35,62.535c1.02,0,1.449-0.93,1.449-1.828c0-1.141-0.549-1.819-1.428-1.819c-1.07,0-1.45,0.949-1.45,1.878
		C22.921,61.656,23.361,62.535,24.35,62.535"/>
	<path clip-path="url(#SVGID_2_)" fill="#58595B" d="M30.953,58.128h1.078v0.698h0.021c0.319-0.588,0.939-0.838,1.599-0.838
		c1.629,0,2.419,1.239,2.419,2.748c0,1.389-0.7,2.699-2.229,2.699c-0.66,0-1.37-0.24-1.729-0.811h-0.021v2.578h-1.138V58.128z
		 M33.501,58.888c-0.96,0-1.449,0.729-1.449,1.829c0,1.039,0.529,1.817,1.449,1.817c1.039,0,1.429-0.918,1.429-1.817
		C34.93,59.777,34.44,58.888,33.501,58.888"/>
	<path clip-path="url(#SVGID_2_)" fill="#58595B" d="M37.032,58.128h1.069v1h0.021c0.13-0.55,0.81-1.141,1.509-1.141
		c0.26,0,0.33,0.021,0.43,0.03v1.099c-0.16-0.019-0.33-0.05-0.489-0.05c-0.78,0-1.399,0.63-1.399,1.771v2.458h-1.14V58.128z"/>
	<path clip-path="url(#SVGID_2_)" fill="#58595B" d="M40.132,60.707c0-1.579,0.95-2.72,2.609-2.72s2.608,1.141,2.608,2.72
		c0,1.589-0.949,2.729-2.608,2.729S40.132,62.296,40.132,60.707 M44.21,60.707c0-0.891-0.449-1.819-1.469-1.819
		s-1.469,0.929-1.469,1.819c0,0.898,0.449,1.828,1.469,1.828S44.21,61.605,44.21,60.707"/>
	<path clip-path="url(#SVGID_2_)" fill="#58595B" d="M46.062,60.707c0-1.579,0.95-2.72,2.609-2.72s2.608,1.141,2.608,2.72
		c0,1.589-0.949,2.729-2.608,2.729S46.062,62.296,46.062,60.707 M50.14,60.707c0-0.891-0.449-1.819-1.469-1.819
		s-1.47,0.929-1.47,1.819c0,0.898,0.45,1.828,1.47,1.828S50.14,61.605,50.14,60.707"/>
	<path clip-path="url(#SVGID_2_)" fill="#58595B" d="M51.722,58.128h0.85v-0.431c0-1.318,0.689-1.539,1.43-1.539
		c0.359,0,0.619,0.021,0.799,0.071v0.888c-0.149-0.039-0.3-0.059-0.529-0.059c-0.31,0-0.56,0.11-0.56,0.54v0.529h0.969v0.85h-0.969
		v4.317h-1.14v-4.317h-0.85V58.128z"/>
	
		<line clip-path="url(#SVGID_2_)" fill="none" stroke="#58585A" stroke-width="0.466" x1="5.011" y1="53.79" x2="55.421" y2="53.79"/>
</g>
</svg>
