<?xml version="1.0" encoding="utf-8"?>
<!-- Generator: Adobe Illustrator 15.0.2, SVG Export Plug-In . SVG Version: 6.00 Build 0)  -->
<!DOCTYPE svg PUBLIC "-//W3C//DTD SVG 1.1//EN" "http://www.w3.org/Graphics/SVG/1.1/DTD/svg11.dtd">
<svg version="1.1" id="Livello_1" xmlns="http://www.w3.org/2000/svg" xmlns:xlink="http://www.w3.org/1999/xlink" x="0px" y="0px"
	 width="61.102px" height="80.281px" viewBox="0 0 61.102 80.281" enable-background="new 0 0 61.102 80.281" xml:space="preserve">
<g>
	<defs>
		<rect id="SVGID_1_" width="61.102" height="80.281"/>
	</defs>
	<clipPath id="SVGID_2_">
		<use xlink:href="#SVGID_1_"  overflow="visible"/>
	</clipPath>
	<g clip-path="url(#SVGID_2_)">
		<defs>
			<rect id="SVGID_3_" y="0" width="61.102" height="80.281"/>
		</defs>
		<clipPath id="SVGID_4_">
			<use xlink:href="#SVGID_3_"  overflow="visible"/>
		</clipPath>
		<path clip-path="url(#SVGID_4_)" fill="#58595B" d="M8.495,58.962h1.079v0.76l0.021,0.019c0.339-0.568,0.929-0.919,1.609-0.919
			c1.119,0,1.828,0.601,1.828,1.76v3.548h-1.139v-3.248c-0.02-0.811-0.339-1.159-1.009-1.159c-0.76,0-1.249,0.599-1.249,1.359v3.048
			h-1.14V58.962z"/>
		<path clip-path="url(#SVGID_4_)" fill="#58595B" d="M15.125,61.841c0,0.81,0.439,1.527,1.389,1.527
			c0.66,0,1.059-0.289,1.259-0.858h1.079c-0.25,1.13-1.209,1.76-2.338,1.76c-1.619,0-2.529-1.13-2.529-2.719
			c0-1.471,0.96-2.729,2.499-2.729c1.629,0,2.628,1.47,2.439,3.02H15.125z M17.783,61.091c-0.04-0.721-0.529-1.369-1.299-1.369
			c-0.79,0-1.329,0.599-1.359,1.369H17.783z"/>
		<polygon clip-path="url(#SVGID_4_)" fill="#58595B" points="19.325,58.962 20.534,58.962 21.544,62.819 21.564,62.819 
			22.533,58.962 23.682,58.962 24.612,62.819 24.632,62.819 25.681,58.962 26.841,58.962 25.221,64.129 24.053,64.129 
			23.093,60.291 23.073,60.291 22.124,64.129 20.925,64.129 		"/>
		<path clip-path="url(#SVGID_4_)" fill="#58595B" d="M33.844,60.691c-0.09-0.63-0.55-0.971-1.18-0.971
			c-0.59,0-1.419,0.311-1.419,1.88c0,0.859,0.38,1.769,1.37,1.769c0.659,0,1.118-0.44,1.229-1.179h1.14
			c-0.21,1.339-1.04,2.079-2.368,2.079c-1.62,0-2.51-1.149-2.51-2.669c0-1.56,0.85-2.778,2.55-2.778
			c1.198,0,2.218,0.599,2.328,1.869H33.844z"/>
		<path clip-path="url(#SVGID_4_)" fill="#58595B" d="M35.675,61.541c0-1.579,0.95-2.72,2.609-2.72s2.608,1.141,2.608,2.72
			c0,1.589-0.949,2.729-2.608,2.729S35.675,63.13,35.675,61.541 M39.753,61.541c0-0.891-0.449-1.819-1.469-1.819
			s-1.47,0.929-1.47,1.819c0,0.898,0.45,1.828,1.47,1.828S39.753,62.439,39.753,61.541"/>
		<rect x="41.875" y="56.993" clip-path="url(#SVGID_4_)" fill="#58595B" width="1.139" height="7.136"/>
		<path clip-path="url(#SVGID_4_)" fill="#58595B" d="M44.015,61.541c0-1.579,0.95-2.72,2.609-2.72s2.608,1.141,2.608,2.72
			c0,1.589-0.949,2.729-2.608,2.729S44.015,63.13,44.015,61.541 M48.093,61.541c0-0.891-0.449-1.819-1.469-1.819
			s-1.469,0.929-1.469,1.819c0,0.898,0.449,1.828,1.469,1.828S48.093,62.439,48.093,61.541"/>
		<path clip-path="url(#SVGID_4_)" fill="#58595B" d="M50.185,58.962h1.069v1h0.021c0.13-0.55,0.81-1.141,1.509-1.141
			c0.26,0,0.33,0.021,0.43,0.03v1.099c-0.16-0.019-0.33-0.05-0.489-0.05c-0.78,0-1.399,0.63-1.399,1.771v2.458h-1.14V58.962z"/>
		<path clip-path="url(#SVGID_4_)" fill="none" stroke="#58595B" stroke-width="0.963" d="M29.719,51.07
			c13.439,0,24.331-10.891,24.331-24.332c0-13.432-10.892-24.328-24.331-24.328c-13.437,0-24.33,10.896-24.33,24.328
			C5.389,40.179,16.282,51.07,29.719,51.07z"/>
		<g clip-path="url(#SVGID_4_)">
			<g>
				<defs>
					<rect id="SVGID_5_" x="15.607" y="17.625" width="10.9" height="7.913"/>
				</defs>
				<clipPath id="SVGID_6_">
					<use xlink:href="#SVGID_5_"  overflow="visible"/>
				</clipPath>
				<polygon clip-path="url(#SVGID_6_)" fill="#FFD400" points="26.283,25.537 15.607,20.52 18.451,17.625 26.507,24 				"/>
			</g>
		</g>
		<g clip-path="url(#SVGID_4_)">
			<g>
				<defs>
					<rect id="SVGID_7_" x="13.311" y="19.534" width="13.089" height="6.984"/>
				</defs>
				<clipPath id="SVGID_8_">
					<use xlink:href="#SVGID_7_"  overflow="visible"/>
				</clipPath>
				<polygon clip-path="url(#SVGID_8_)" fill="#F19300" points="25.997,26.518 13.311,25.203 15.237,19.533 26.399,25.15 				"/>
			</g>
		</g>
		<g clip-path="url(#SVGID_4_)">
			<g>
				<defs>
					<rect id="SVGID_9_" x="16.773" y="24.186" width="9.626" height="4.336"/>
				</defs>
				<clipPath id="SVGID_10_">
					<use xlink:href="#SVGID_9_"  overflow="visible"/>
				</clipPath>
				<polygon clip-path="url(#SVGID_10_)" fill="#E1001A" points="26.399,27.528 18.292,28.521 16.773,24.186 25.824,26.085 				"/>
			</g>
		</g>
		<g clip-path="url(#SVGID_4_)">
			<g>
				<defs>
					<rect id="SVGID_11_" x="13.831" y="27.189" width="12.568" height="5.247"/>
				</defs>
				<clipPath id="SVGID_12_">
					<use xlink:href="#SVGID_11_"  overflow="visible"/>
				</clipPath>
				<polygon clip-path="url(#SVGID_12_)" fill="#BD0926" points="26.399,28.583 15.112,32.436 13.832,27.853 25.909,27.189 				"/>
			</g>
		</g>
		<g clip-path="url(#SVGID_4_)">
			<g>
				<defs>
					<rect id="SVGID_13_" x="16.773" y="28.233" width="10.722" height="7.7"/>
				</defs>
				<clipPath id="SVGID_14_">
					<use xlink:href="#SVGID_13_"  overflow="visible"/>
				</clipPath>
				<polygon clip-path="url(#SVGID_14_)" fill="#673A15" points="27.496,29.195 17.813,35.933 16.773,31.347 26.276,28.233 				"/>
			</g>
		</g>
		<g clip-path="url(#SVGID_4_)">
			<g>
				<defs>
					<rect id="SVGID_15_" x="14.477" y="29.146" width="13.852" height="9.628"/>
				</defs>
				<clipPath id="SVGID_16_">
					<use xlink:href="#SVGID_15_"  overflow="visible"/>
				</clipPath>
				<polygon clip-path="url(#SVGID_16_)" fill="#41281B" points="28.328,29.76 20.719,38.774 14.476,35.933 26.901,29.146 				"/>
			</g>
		</g>
		<g clip-path="url(#SVGID_4_)">
			<g>
				<defs>
					<rect id="SVGID_17_" x="19.67" y="29.867" width="9.608" height="11.129"/>
				</defs>
				<clipPath id="SVGID_18_">
					<use xlink:href="#SVGID_17_"  overflow="visible"/>
				</clipPath>
				<polygon clip-path="url(#SVGID_18_)" fill="#604C3F" points="29.278,30.09 22.585,40.997 19.67,38.876 27.741,29.867 				"/>
			</g>
		</g>
		<g clip-path="url(#SVGID_4_)">
			<g>
				<defs>
					<rect id="SVGID_19_" x="22.903" y="30.164" width="7.378" height="11.611"/>
				</defs>
				<clipPath id="SVGID_20_">
					<use xlink:href="#SVGID_19_"  overflow="visible"/>
				</clipPath>
				<polygon clip-path="url(#SVGID_20_)" fill="#E30E6F" points="30.281,30.164 28.199,41.775 22.903,38.188 28.74,30.345 				"/>
			</g>
		</g>
		<g clip-path="url(#SVGID_4_)">
			<g>
				<defs>
					<rect id="SVGID_21_" x="27.102" y="29.974" width="5.162" height="11.755"/>
				</defs>
				<clipPath id="SVGID_22_">
					<use xlink:href="#SVGID_21_"  overflow="visible"/>
				</clipPath>
				<polygon clip-path="url(#SVGID_22_)" fill="#D40050" points="31.27,29.974 32.263,41.729 27.102,38.028 29.827,30.549 				"/>
			</g>
		</g>
		<g clip-path="url(#SVGID_4_)">
			<g>
				<defs>
					<rect id="SVGID_23_" x="30.837" y="29.536" width="6.003" height="14.534"/>
				</defs>
				<clipPath id="SVGID_24_">
					<use xlink:href="#SVGID_23_"  overflow="visible"/>
				</clipPath>
				<polygon clip-path="url(#SVGID_24_)" fill="#A00D59" points="32.176,29.536 36.84,42.162 30.837,44.07 30.931,30.465 				"/>
			</g>
		</g>
		<g clip-path="url(#SVGID_4_)">
			<g>
				<defs>
					<rect id="SVGID_25_" x="31.975" y="28.878" width="7.699" height="9.896"/>
				</defs>
				<clipPath id="SVGID_26_">
					<use xlink:href="#SVGID_25_"  overflow="visible"/>
				</clipPath>
				<polygon clip-path="url(#SVGID_26_)" fill="#92117E" points="32.937,28.878 39.674,38.561 34.563,38.774 31.975,30.097 				"/>
			</g>
		</g>
		<g clip-path="url(#SVGID_4_)">
			<g>
				<defs>
					<rect id="SVGID_27_" x="32.888" y="28.045" width="9.628" height="13.269"/>
				</defs>
				<clipPath id="SVGID_28_">
					<use xlink:href="#SVGID_27_"  overflow="visible"/>
				</clipPath>
				<polygon clip-path="url(#SVGID_28_)" fill="#622280" points="33.501,28.045 42.516,35.655 40.445,41.314 32.888,29.473 				"/>
			</g>
		</g>
		<g clip-path="url(#SVGID_4_)">
			<g>
				<defs>
					<rect id="SVGID_29_" x="33.608" y="27.095" width="9.698" height="11.679"/>
				</defs>
				<clipPath id="SVGID_30_">
					<use xlink:href="#SVGID_29_"  overflow="visible"/>
				</clipPath>
				<polygon clip-path="url(#SVGID_30_)" fill="#13235B" points="33.832,27.095 42.936,31.085 43.307,38.774 33.608,28.632 				"/>
			</g>
		</g>
		<g clip-path="url(#SVGID_4_)">
			<g>
				<defs>
					<rect id="SVGID_31_" x="33.905" y="26.092" width="11.61" height="6.633"/>
				</defs>
				<clipPath id="SVGID_32_">
					<use xlink:href="#SVGID_31_"  overflow="visible"/>
				</clipPath>
				<polygon clip-path="url(#SVGID_32_)" fill="#0D3082" points="33.905,26.092 45.516,28.175 43.015,32.725 34.087,27.634 				"/>
			</g>
		</g>
		<g clip-path="url(#SVGID_4_)">
			<g>
				<defs>
					<rect id="SVGID_33_" x="33.716" y="22.469" width="12.413" height="6.563"/>
				</defs>
				<clipPath id="SVGID_34_">
					<use xlink:href="#SVGID_33_"  overflow="visible"/>
				</clipPath>
				<polygon clip-path="url(#SVGID_34_)" fill="#0A71B3" points="33.716,25.104 45.927,22.469 46.129,29.032 34.291,26.547 				"/>
			</g>
		</g>
		<g clip-path="url(#SVGID_4_)">
			<g>
				<defs>
					<rect id="SVGID_35_" x="32.888" y="20.197" width="12.446" height="5.34"/>
				</defs>
				<clipPath id="SVGID_36_">
					<use xlink:href="#SVGID_35_"  overflow="visible"/>
				</clipPath>
				<polygon clip-path="url(#SVGID_36_)" fill="#37A8DB" points="32.888,23.754 44.375,20.196 45.333,23.025 33.337,25.537 				"/>
			</g>
		</g>
		<g clip-path="url(#SVGID_4_)">
			<g>
				<defs>
					<rect id="SVGID_37_" x="33.554" y="18.887" width="8.962" height="5.512"/>
				</defs>
				<clipPath id="SVGID_38_">
					<use xlink:href="#SVGID_37_"  overflow="visible"/>
				</clipPath>
				<polygon clip-path="url(#SVGID_38_)" fill="#009F95" points="33.554,23.264 38.652,18.887 42.516,21.971 33.839,24.399 				"/>
			</g>
		</g>
		<g clip-path="url(#SVGID_4_)">
			<g>
				<defs>
					<rect id="SVGID_39_" x="32.264" y="13.858" width="8.562" height="9.628"/>
				</defs>
				<clipPath id="SVGID_40_">
					<use xlink:href="#SVGID_39_"  overflow="visible"/>
				</clipPath>
				<polygon clip-path="url(#SVGID_40_)" fill="#36A862" points="32.263,22.469 39.396,13.858 40.826,18.516 33.214,23.486 				"/>
			</g>
		</g>
		<g clip-path="url(#SVGID_4_)">
			<g>
				<defs>
					<rect id="SVGID_41_" x="30.837" y="11.371" width="9.608" height="11.725"/>
				</defs>
				<clipPath id="SVGID_42_">
					<use xlink:href="#SVGID_41_"  overflow="visible"/>
				</clipPath>
				<polygon clip-path="url(#SVGID_42_)" fill="#00632E" points="30.837,22.542 35.824,11.371 40.445,13.756 32.263,23.097 				"/>
			</g>
		</g>
		<g clip-path="url(#SVGID_4_)">
			<g>
				<defs>
					<rect id="SVGID_43_" x="29.833" y="9.728" width="7.006" height="12.741"/>
				</defs>
				<clipPath id="SVGID_44_">
					<use xlink:href="#SVGID_43_"  overflow="visible"/>
				</clipPath>
				<polygon clip-path="url(#SVGID_44_)" fill="#00892E" points="29.833,22.469 31.488,9.728 36.84,13.65 31.376,22.287 				"/>
			</g>
		</g>
		<g clip-path="url(#SVGID_4_)">
			<g>
				<defs>
					<rect id="SVGID_45_" x="25.818" y="10.245" width="6.956" height="12.413"/>
				</defs>
				<clipPath id="SVGID_46_">
					<use xlink:href="#SVGID_45_"  overflow="visible"/>
				</clipPath>
				<polygon clip-path="url(#SVGID_46_)" fill="#40A52B" points="28.845,22.658 25.818,10.858 32.773,10.245 30.282,22.469 				"/>
			</g>
		</g>
		<g clip-path="url(#SVGID_4_)">
			<g>
				<defs>
					<rect id="SVGID_47_" x="25.018" y="9.41" width="4.167" height="13.686"/>
				</defs>
				<clipPath id="SVGID_48_">
					<use xlink:href="#SVGID_47_"  overflow="visible"/>
				</clipPath>
				<polygon clip-path="url(#SVGID_48_)" fill="#96BD0D" points="27.94,23.097 25.019,15.292 26.778,9.411 29.185,22.167 				"/>
			</g>
		</g>
		<g clip-path="url(#SVGID_4_)">
			<g>
				<defs>
					<rect id="SVGID_49_" x="21.896" y="14.019" width="6.245" height="9.735"/>
				</defs>
				<clipPath id="SVGID_50_">
					<use xlink:href="#SVGID_49_"  overflow="visible"/>
				</clipPath>
				<polygon clip-path="url(#SVGID_50_)" fill="#DEDA00" points="27.179,23.754 21.896,15.929 25.35,14.019 28.141,22.535 				"/>
			</g>
		</g>
		<g clip-path="url(#SVGID_4_)">
			<g>
				<defs>
					<rect id="SVGID_51_" x="15.96" y="13.032" width="11.267" height="10.968"/>
				</defs>
				<clipPath id="SVGID_52_">
					<use xlink:href="#SVGID_51_"  overflow="visible"/>
				</clipPath>
				<polygon clip-path="url(#SVGID_52_)" fill="#FFEC00" points="26.507,24 15.961,16.7 20.614,13.032 27.227,23.16 				"/>
			</g>
		</g>
		<g clip-path="url(#SVGID_4_)">
			<g>
				<defs>
					<rect id="SVGID_53_" x="20.275" y="16.795" width="19.116" height="19.116"/>
				</defs>
				<clipPath id="SVGID_54_">
					<use xlink:href="#SVGID_53_"  overflow="visible"/>
				</clipPath>
				<path clip-path="url(#SVGID_54_)" fill="#FFFFFF" d="M39.392,26.354c0,5.279-4.279,9.558-9.558,9.558s-9.558-4.279-9.558-9.558
					c0-5.279,4.279-9.558,9.558-9.558S39.392,21.075,39.392,26.354"/>
			</g>
		</g>
		<path clip-path="url(#SVGID_4_)" fill="#FFFFFF" d="M36.603,26.354c0,3.738-3.031,6.769-6.769,6.769s-6.769-3.031-6.769-6.769
			c0-3.738,3.031-6.769,6.769-6.769S36.603,22.616,36.603,26.354"/>
		
			<line clip-path="url(#SVGID_4_)" fill="none" stroke="#58595B" stroke-width="0.466" x1="5.011" y1="53.79" x2="55.421" y2="53.79"/>
	</g>
</g>
</svg>
