<?xml version="1.0" encoding="utf-8"?>
<!-- Generator: Adobe Illustrator 15.0.2, SVG Export Plug-In . SVG Version: 6.00 Build 0)  -->
<!DOCTYPE svg PUBLIC "-//W3C//DTD SVG 1.1//EN" "http://www.w3.org/Graphics/SVG/1.1/DTD/svg11.dtd">
<svg version="1.1" id="Livello_1" xmlns="http://www.w3.org/2000/svg" xmlns:xlink="http://www.w3.org/1999/xlink" x="0px" y="0px"
	 width="61.102px" height="80.281px" viewBox="0 0 61.102 80.281" enable-background="new 0 0 61.102 80.281" xml:space="preserve">
<g>
	<defs>
		<rect id="SVGID_1_" y="0" width="61.102" height="80.281"/>
	</defs>
	<clipPath id="SVGID_2_">
		<use xlink:href="#SVGID_1_"  overflow="visible"/>
	</clipPath>
	<path clip-path="url(#SVGID_2_)" fill="#58595B" d="M12.043,56.303h1.139v2.64h0.02c0.31-0.5,0.959-0.81,1.539-0.81
		c1.629,0,2.419,1.239,2.419,2.748c0,1.389-0.7,2.699-2.228,2.699c-0.7,0-1.449-0.17-1.789-0.851h-0.021v0.709h-1.079V56.303z
		 M14.592,59.032c-0.96,0-1.449,0.729-1.449,1.829c0,1.039,0.529,1.817,1.449,1.817c1.039,0,1.429-0.918,1.429-1.817
		C16.021,59.922,15.531,59.032,14.592,59.032"/>
	<path clip-path="url(#SVGID_2_)" fill="#58595B" d="M22.452,62.289c0,0.281,0.059,0.391,0.269,0.391c0.07,0,0.16,0,0.279-0.02
		v0.789c-0.169,0.061-0.529,0.131-0.718,0.131c-0.46,0-0.79-0.161-0.88-0.63c-0.45,0.439-1.18,0.63-1.789,0.63
		c-0.93,0-1.769-0.5-1.769-1.51c0-1.289,1.03-1.499,1.989-1.61c0.819-0.148,1.548-0.059,1.548-0.729c0-0.59-0.609-0.699-1.069-0.699
		c-0.64,0-1.089,0.259-1.139,0.819h-1.139c0.08-1.329,1.209-1.719,2.348-1.719c1.01,0,2.07,0.408,2.07,1.499V62.289z M21.312,60.852
		c-0.35,0.229-0.899,0.22-1.399,0.31c-0.49,0.08-0.93,0.259-0.93,0.859c0,0.51,0.649,0.659,1.05,0.659
		c0.5,0,1.279-0.261,1.279-0.979V60.852z"/>
	<path clip-path="url(#SVGID_2_)" fill="#58595B" d="M23.683,58.272h1.079v0.72h0.03c0.34-0.51,0.77-0.86,1.589-0.86
		c0.63,0,1.22,0.271,1.449,0.86c0.38-0.53,0.871-0.86,1.62-0.86c1.089,0,1.729,0.48,1.729,1.74v3.567h-1.14v-3.02
		c0-0.818-0.049-1.388-0.939-1.388c-0.77,0-1.1,0.51-1.1,1.379v3.028h-1.138v-3.318c0-0.709-0.221-1.089-0.91-1.089
		c-0.59,0-1.129,0.479-1.129,1.339v3.068h-1.14V58.272z"/>
	<path clip-path="url(#SVGID_2_)" fill="#58595B" d="M32.413,56.303h1.139v2.64h0.021c0.31-0.5,0.959-0.81,1.539-0.81
		c1.629,0,2.419,1.239,2.419,2.748c0,1.389-0.7,2.699-2.229,2.699c-0.699,0-1.448-0.17-1.788-0.851h-0.021v0.709h-1.079V56.303z
		 M34.962,59.032c-0.96,0-1.449,0.729-1.449,1.829c0,1.039,0.529,1.817,1.449,1.817c1.039,0,1.429-0.918,1.429-1.817
		C36.391,59.922,35.901,59.032,34.962,59.032"/>
	<path clip-path="url(#SVGID_2_)" fill="#58595B" d="M38.253,60.852c0-1.579,0.95-2.719,2.609-2.719s2.608,1.14,2.608,2.719
		c0,1.589-0.949,2.729-2.608,2.729S38.253,62.44,38.253,60.852 M42.331,60.852c0-0.891-0.449-1.819-1.469-1.819
		s-1.469,0.929-1.469,1.819c0,0.898,0.449,1.828,1.469,1.828S42.331,61.75,42.331,60.852"/>
	<path clip-path="url(#SVGID_2_)" fill="#58595B" d="M44.183,60.852c0-1.579,0.95-2.719,2.609-2.719s2.608,1.14,2.608,2.719
		c0,1.589-0.949,2.729-2.608,2.729S44.183,62.44,44.183,60.852 M48.261,60.852c0-0.891-0.449-1.819-1.469-1.819
		s-1.47,0.929-1.47,1.819c0,0.898,0.45,1.828,1.47,1.828S48.261,61.75,48.261,60.852"/>
	<path clip-path="url(#SVGID_2_)" fill="#58595B" d="M14.841,70.002c-0.09-0.63-0.55-0.971-1.18-0.971
		c-0.59,0-1.419,0.311-1.419,1.88c0,0.859,0.38,1.769,1.37,1.769c0.66,0,1.119-0.44,1.229-1.179h1.14
		c-0.21,1.339-1.04,2.079-2.369,2.079c-1.62,0-2.509-1.149-2.509-2.669c0-1.56,0.849-2.778,2.549-2.778
		c1.199,0,2.218,0.599,2.329,1.869H14.841z"/>
	<path clip-path="url(#SVGID_2_)" fill="#58595B" d="M16.912,66.304h1.14v2.647h0.019c0.28-0.469,0.87-0.818,1.55-0.818
		c1.119,0,1.828,0.6,1.828,1.759v3.548H20.31v-3.248c-0.02-0.81-0.339-1.159-1.009-1.159c-0.76,0-1.249,0.6-1.249,1.359v3.048h-1.14
		V66.304z"/>
	<path clip-path="url(#SVGID_2_)" fill="#58595B" d="M26.981,72.289c0,0.281,0.059,0.391,0.269,0.391c0.07,0,0.16,0,0.279-0.02
		v0.789C27.36,73.51,27,73.58,26.811,73.58c-0.46,0-0.79-0.161-0.88-0.63c-0.45,0.439-1.18,0.63-1.789,0.63
		c-0.93,0-1.769-0.5-1.769-1.51c0-1.289,1.03-1.499,1.989-1.61c0.819-0.148,1.548-0.059,1.548-0.729c0-0.59-0.609-0.699-1.069-0.699
		c-0.64,0-1.089,0.259-1.139,0.819h-1.139c0.08-1.329,1.209-1.719,2.348-1.719c1.01,0,2.07,0.408,2.07,1.499V72.289z M25.841,70.852
		c-0.35,0.229-0.899,0.22-1.399,0.31c-0.49,0.08-0.93,0.259-0.93,0.859c0,0.51,0.649,0.659,1.05,0.659
		c0.5,0,1.279-0.261,1.279-0.979V70.852z"/>
	<path clip-path="url(#SVGID_2_)" fill="#58595B" d="M28.212,68.272h1.069v1h0.021c0.13-0.55,0.81-1.141,1.509-1.141
		c0.26,0,0.33,0.021,0.43,0.03v1.1c-0.16-0.02-0.33-0.051-0.489-0.051c-0.78,0-1.399,0.63-1.399,1.771v2.458h-1.14V68.272z"/>
	<path clip-path="url(#SVGID_2_)" fill="#58595B" d="M35.04,70.002c-0.09-0.63-0.55-0.971-1.18-0.971
		c-0.591,0-1.419,0.311-1.419,1.88c0,0.859,0.38,1.769,1.369,1.769c0.66,0,1.119-0.44,1.229-1.179h1.14
		c-0.21,1.339-1.04,2.079-2.369,2.079c-1.619,0-2.509-1.149-2.509-2.669c0-1.56,0.85-2.778,2.549-2.778
		c1.199,0,2.219,0.599,2.329,1.869H35.04z"/>
	<path clip-path="url(#SVGID_2_)" fill="#58595B" d="M36.871,70.852c0-1.579,0.95-2.719,2.609-2.719s2.608,1.14,2.608,2.719
		c0,1.589-0.949,2.729-2.608,2.729S36.871,72.44,36.871,70.852 M40.949,70.852c0-0.891-0.449-1.819-1.469-1.819
		s-1.47,0.929-1.47,1.819c0,0.898,0.45,1.828,1.47,1.828S40.949,71.75,40.949,70.852"/>
	<path clip-path="url(#SVGID_2_)" fill="#58595B" d="M47.369,72.289c0,0.281,0.06,0.391,0.27,0.391c0.07,0,0.16,0,0.279-0.02v0.789
		c-0.17,0.061-0.529,0.131-0.719,0.131c-0.46,0-0.79-0.161-0.88-0.63c-0.45,0.439-1.18,0.63-1.789,0.63
		c-0.93,0-1.769-0.5-1.769-1.51c0-1.289,1.029-1.499,1.989-1.61c0.818-0.148,1.548-0.059,1.548-0.729
		c0-0.59-0.609-0.699-1.069-0.699c-0.64,0-1.089,0.259-1.139,0.819h-1.14c0.08-1.329,1.209-1.719,2.349-1.719
		c1.01,0,2.069,0.408,2.069,1.499V72.289z M46.229,70.852c-0.35,0.229-0.899,0.22-1.399,0.31c-0.489,0.08-0.93,0.259-0.93,0.859
		c0,0.51,0.649,0.659,1.05,0.659c0.5,0,1.279-0.261,1.279-0.979V70.852z"/>
	<rect x="48.631" y="66.304" clip-path="url(#SVGID_2_)" fill="#58595B" width="1.139" height="7.136"/>
	<path clip-path="url(#SVGID_2_)" fill="none" stroke="#58595B" stroke-width="0.963" d="M29.958,51.628
		c13.437,0,24.327-10.89,24.327-24.333c0-13.431-10.89-24.327-24.327-24.327S5.63,13.865,5.63,27.295
		C5.63,40.738,16.521,51.628,29.958,51.628z"/>
</g>
<g>
	<defs>
		<path id="SVGID_3_" d="M5.947,27.253c0,13.176,10.751,23.858,24.011,23.858c13.261,0,24.011-10.682,24.011-23.858
			c0-13.176-10.75-23.857-24.011-23.857C16.698,3.396,5.947,14.077,5.947,27.253"/>
	</defs>
	<clipPath id="SVGID_4_">
		<use xlink:href="#SVGID_3_"  overflow="visible"/>
	</clipPath>
	<path clip-path="url(#SVGID_4_)" fill="#58595B" d="M35.907,17.686c-0.375-3.016-0.338-13.313,0-15.227h-4.568
		c0.15,3.309,0.614,11.563,0,15.227H35.907z"/>
	<path clip-path="url(#SVGID_4_)" fill="#58595B" d="M31.339,19.165c0.15,3.306,0.614,11.563,0,15.225h4.568
		c-0.375-3.015-0.338-13.311,0-15.225H31.339z"/>
	<path clip-path="url(#SVGID_4_)" fill="#58595B" d="M31.339,35.87c0.15,3.307,0.614,11.562,0,15.226h4.568
		c-0.375-3.016-0.338-13.316,0-15.226H31.339z"/>
	<path clip-path="url(#SVGID_4_)" fill="#58595B" d="M23.702,23.169c0.151,2.441,0.614,8.522,0,11.221h4.569
		c-0.376-2.224-0.338-9.807,0-11.221H23.702z"/>
	<path clip-path="url(#SVGID_4_)" fill="#58595B" d="M23.702,35.87c0.151,3.307,0.614,11.562,0,15.226h4.569
		c-0.376-3.016-0.338-13.316,0-15.226H23.702z"/>
	<path clip-path="url(#SVGID_4_)" fill="#58595B" d="M31.59,18.339l-0.138-0.365c-3.659-1.657-6.076-3.315-7.427-4.37
		c0.4-0.37,1.805-1.782,2.236-3.753c0.504-2.307,0.072-7.185,0.072-7.185s-2.434,4.248-2.937,6.553
		c-0.402,1.827,0.147,3.553,0.398,4.201c-0.592-0.477-0.918-0.78-1.017-0.879c-0.235-0.993-0.856-2.935-2.353-4.434
		c-2.09-2.093-7.534-4.935-7.534-4.935s2.844,5.443,4.936,7.535c1.71,1.713,4,2.279,4.784,2.433c0.321,0.297,0.916,0.81,1.852,1.491
		c-0.793-0.245-1.809-0.438-2.897-0.305c-2.343,0.284-6.8,2.317-6.8,2.317s4.818,0.887,7.16,0.596
		c1.809-0.221,3.235-1.275,3.796-1.747c1.377,0.896,3.192,1.934,5.501,2.978l0.114,0.026L31.59,18.339z"/>
	<path clip-path="url(#SVGID_4_)" fill="#58595B" d="M23.974,35.157l-0.225-0.318c-3.236-0.562-5.971-2.105-7.757-3.339
		c0.327-0.503,0.912-1.556,0.943-2.805c0.042-1.74-0.951-5.213-0.951-5.213s-1.172,3.418-1.215,5.159
		c-0.024,0.955,0.278,1.808,0.557,2.392c-0.926-0.686-1.481-1.199-1.496-1.212l-0.017-0.007c-0.213-0.777-0.684-2.04-1.677-3.033
		c-1.54-1.545-5.558-3.641-5.558-3.641s2.1,4.016,3.644,5.56c1.268,1.275,2.976,1.689,3.544,1.796c0.555,0.476,1.83,1.5,3.584,2.507
		c-0.572-0.251-1.649-0.623-2.833-0.479C12.791,32.737,9.5,34.237,9.5,34.237s3.555,0.653,5.285,0.438
		c1.67-0.207,2.886-1.358,2.964-1.437c1.646,0.903,3.66,1.756,5.904,2.146l0.047,0.004L23.974,35.157z"/>
	<path clip-path="url(#SVGID_4_)" fill="#58595B" d="M41.7,32.44c1.694-1.134,2.641-2.017,2.869-2.246
		c0.85-0.174,3.055-0.757,4.713-2.418c2.093-2.093,4.936-7.536,4.936-7.536s-5.443,2.842-7.534,4.933
		c-1.542,1.544-2.157,3.572-2.378,4.533l-0.046,0.02c-0.014,0.012-0.723,0.733-2.113,1.737c0.414-0.758,1.01-2.123,0.97-3.682
		c-0.058-2.357-1.645-6.989-1.645-6.989s-1.347,4.707-1.288,7.065c0.047,1.871,1,3.419,1.398,3.987
		c-1.389,0.946-3.294,2.074-5.781,3.102l-0.149,0.359l0.256,0.172l0.104-0.02c1.742-0.721,3.175-1.478,4.385-2.197
		c0.511,0.443,1.969,1.56,3.845,1.79c2.344,0.29,7.159-0.595,7.159-0.595s-4.457-2.031-6.799-2.319
		C43.514,32.003,42.49,32.196,41.7,32.44"/>
</g>
<g>
	<defs>
		<rect id="SVGID_5_" y="0" width="61.102" height="80.281"/>
	</defs>
	<clipPath id="SVGID_6_">
		<use xlink:href="#SVGID_5_"  overflow="visible"/>
	</clipPath>
	
		<line clip-path="url(#SVGID_6_)" fill="none" stroke="#58595B" stroke-width="0.466" x1="4.945" y1="53.79" x2="55.355" y2="53.79"/>
</g>
</svg>
