<?xml version="1.0" encoding="utf-8"?>
<!-- Generator: Adobe Illustrator 15.0.2, SVG Export Plug-In . SVG Version: 6.00 Build 0)  -->
<!DOCTYPE svg PUBLIC "-//W3C//DTD SVG 1.1//EN" "http://www.w3.org/Graphics/SVG/1.1/DTD/svg11.dtd">
<svg version="1.1" id="Livello_1" xmlns="http://www.w3.org/2000/svg" xmlns:xlink="http://www.w3.org/1999/xlink" x="0px" y="0px"
	 width="61.102px" height="80.281px" viewBox="0 0 61.102 80.281" enable-background="new 0 0 61.102 80.281" xml:space="preserve">
<line fill="none" stroke="#58595B" stroke-width="0.466" x1="4.945" y1="53.79" x2="55.355" y2="53.79"/>
<g>
	<defs>
		<rect id="SVGID_1_" y="0" width="61.102" height="80.281"/>
	</defs>
	<clipPath id="SVGID_2_">
		<use xlink:href="#SVGID_1_"  overflow="visible"/>
	</clipPath>
	<path clip-path="url(#SVGID_2_)" fill="none" stroke="#58595B" stroke-width="0.963" d="M29.856,51.449
		c13.438,0,24.33-10.891,24.33-24.332c0-13.431-10.892-24.327-24.33-24.327C16.42,2.79,5.527,13.686,5.527,27.117
		C5.527,40.558,16.42,51.449,29.856,51.449z"/>
	<path clip-path="url(#SVGID_2_)" fill="#58595B" d="M41.45,15.092c-0.063-0.547-0.187-1.091-0.377-1.622
		c-0.649-1.82-1.968-3.277-3.714-4.105c-2.34-1.109-4.982-0.846-7.016,0.462C28.922,9.3,27.377,9.285,25.935,9.8
		c-1.625,0.58-2.927,1.758-3.665,3.317c-0.74,1.559-0.827,3.312-0.247,4.937c0.085,0.239,0.187,0.469,0.298,0.693
		c0.26,1.568,1.256,2.989,2.797,3.721l3.916,1.855l-0.734,1.275c-0.636,1.107-0.887,2.353-0.726,3.6l0.927,7.144
		c-3.521-1.402-4.974-4.14-5.393-5.114c0.664-0.612,0.999-1.469,0.829-2.283l-0.686-3.284c0.02-0.524-0.069-1.051-0.274-1.551
		l-0.291-1.756c0,0-0.212,0.2-0.501,0.554c-0.348-0.352-0.764-0.636-1.235-0.83c-0.921-0.379-1.933-0.377-2.852,0.004
		c-0.92,0.383-1.635,1.1-2.015,2.021c-0.201,0.487-0.291,0.999-0.279,1.51c-0.441-0.034-0.721-0.02-0.721-0.02l0.994,1.332
		c0.004,0.01,0.007,0.02,0.01,0.03c0.238,0.57,0.602,1.048,1.045,1.42l1.837,2.686c0.515,0.754,1.491,1.106,2.489,0.957
		c0.542,1.223,2.143,4.091,5.745,5.758c-0.835,0.513-1.626,1.835-1.626,1.835s1.279-0.762,2.345-0.511
		c0.361,0.085,0.672-0.018,0.911-0.194l0.322,2.48c0.091,0.705,0.047,1.413-0.131,2.104l-0.858,3.337
		c-0.126,0.49,0.169,0.989,0.658,1.115c0.076,0.019,0.153,0.029,0.229,0.029c0.407,0,0.779-0.274,0.885-0.688l0.859-3.338
		c0.235-0.918,0.294-1.859,0.172-2.796l-0.394-3.033c0.373,0.003,0.744-0.152,0.906-0.601c0.402-1.108,1.873-1.505,1.873-1.505
		s-2.241-0.657-3.054-0.094c-0.003,0.003-0.006,0.005-0.01,0.008l-0.902-6.964c-0.11-0.847,0.063-1.695,0.498-2.451l0.806-1.402
		l4.276,2.027c0.683,0.324,1.413,0.486,2.146,0.486c0.568,0,1.139-0.097,1.689-0.294c0.29-0.104,0.564-0.234,0.825-0.384
		c0.24-0.056,0.479-0.121,0.715-0.205c1.625-0.58,2.927-1.759,3.666-3.318C45.452,20.38,44.298,16.768,41.45,15.092 M17.21,24.568
		c0.255-0.619,0.737-1.102,1.355-1.359c0.311-0.129,0.637-0.194,0.963-0.194c0.324,0,0.648,0.064,0.956,0.191
		c0.388,0.16,0.723,0.409,0.981,0.725c-0.584,0.983-1.107,2.345-0.848,3.848c-0.042,0.02-0.083,0.041-0.126,0.059
		c-0.021,0.009-0.042,0.015-0.063,0.023c-0.913-1.239-2.272-1.804-3.392-2.061C16.991,25.386,17.047,24.964,17.21,24.568
		 M42.908,22.899c-0.282,0.596-0.67,1.12-1.135,1.56c0.455-1.136,0.485-2.382,0.07-3.544c-0.243-0.681-0.625-1.285-1.112-1.791
		c-0.146-0.152-0.303-0.295-0.468-0.427c-0.162-0.13-0.331-0.253-0.51-0.363c-0.157-0.096-0.318-0.187-0.486-0.266
		c-1.853-0.879-4.027-0.552-5.539,0.832c-0.058,0.052-0.101,0.114-0.133,0.179c-0.109,0.22-0.081,0.492,0.095,0.684
		c0.229,0.248,0.613,0.265,0.861,0.038c1.146-1.048,2.791-1.295,4.193-0.631c0.14,0.067,0.273,0.144,0.402,0.225
		c0.175,0.11,0.34,0.232,0.492,0.368c0.155,0.136,0.296,0.287,0.426,0.447c0.267,0.33,0.482,0.704,0.63,1.116
		c0.341,0.955,0.289,1.985-0.146,2.902c-0.309,0.651-0.785,1.185-1.377,1.565c-0.242,0.155-0.501,0.287-0.778,0.386
		c-0.426,0.152-0.866,0.221-1.305,0.218c-0.546-0.004-1.089-0.123-1.599-0.363l-0.214-0.102c0.066-0.028,0.132-0.058,0.198-0.093
		c0.193-0.102,0.382-0.235,0.567-0.403c0.518-0.471,1-1.215,1.399-2.34c0,0-0.955,0.952-3.047,1.188
		c-0.24,0.026-0.494,0.045-0.765,0.051c-0.248,0.005-0.51-0.001-0.783-0.018c-0.413-0.025-0.855-0.079-1.327-0.166l-0.218-0.103
		l-0.054-0.025c0.034-0.02,0.069-0.04,0.104-0.062c0.29-0.19,0.582-0.484,0.842-0.856c0.052-0.074,0.103-0.151,0.151-0.232
		c0.085-0.138,0.165-0.286,0.239-0.44c0.004-0.01,0.007-0.021,0.011-0.03c0.013-0.028,0.023-0.057,0.035-0.085
		c0.079-0.193,0.132-0.392,0.161-0.59c0.153-1.058-0.3-2.095-0.3-2.095s-1.09,0.306-1.811,1.095
		c-0.136,0.148-0.255,0.315-0.355,0.498c-0.014,0.027-0.029,0.053-0.044,0.08c-0.005,0.01-0.011,0.019-0.015,0.029
		c-0.074,0.154-0.137,0.308-0.191,0.461c-0.03,0.09-0.058,0.178-0.083,0.266c-0.083,0.294-0.13,0.577-0.14,0.835
		c-0.007,0.172,0.003,0.332,0.028,0.478l-0.238-0.113l-0.032-0.015c-0.366-0.311-0.689-0.619-0.969-0.922
		c-0.187-0.202-0.357-0.401-0.51-0.596c-0.167-0.213-0.313-0.421-0.444-0.624c-1.142-1.768-1.01-3.111-1.01-3.111
		c-0.617,1.023-0.888,1.866-0.925,2.566c-0.013,0.249,0.004,0.48,0.047,0.694c0.014,0.073,0.033,0.143,0.054,0.213l-0.215-0.102
		c-0.514-0.244-0.944-0.591-1.285-1.001c-0.475-0.57-0.77-1.265-0.856-1.996c-0.08-0.683,0.02-1.396,0.335-2.062
		c0.646-1.36,2-2.157,3.414-2.167c0.206-0.001,0.413,0.013,0.619,0.046c0.2,0.032,0.4,0.081,0.597,0.146
		c0.144,0.049,0.288,0.103,0.429,0.17c1.383,0.655,2.234,2.066,2.169,3.595c-0.014,0.337,0.247,0.621,0.584,0.635
		c0.244,0.008,0.465-0.131,0.57-0.338c0.037-0.074,0.061-0.156,0.064-0.245c0.086-2.02-1.039-3.884-2.865-4.75
		c-0.17-0.08-0.342-0.148-0.516-0.208c-0.199-0.069-0.4-0.121-0.603-0.163c-0.209-0.044-0.419-0.074-0.629-0.091
		c-1.917-0.151-3.816,0.814-4.787,2.571c0.046-0.639,0.207-1.271,0.49-1.868c0.599-1.264,1.655-2.22,2.973-2.69
		c0.924-0.33,1.897-0.388,2.833-0.19c0.231,0.049,0.462,0.108,0.687,0.189c0.164,0.059,0.325,0.126,0.485,0.201
		c0.048,0.023,0.094,0.05,0.141,0.074c1.979,1.011,3.104,3.14,2.809,5.353c-0.035,0.263,0.104,0.519,0.344,0.632
		c0.239,0.114,0.526,0.06,0.707-0.134c1.526-1.63,3.886-2.106,5.921-1.216c0.049,0.022,0.099,0.04,0.148,0.063
		c0.158,0.076,0.313,0.159,0.461,0.249c0.208,0.125,0.4,0.266,0.585,0.416C43.301,18.071,43.963,20.672,42.908,22.899 M34.272,9.889
		c0.861,0,1.736,0.186,2.564,0.579c1.451,0.688,2.548,1.899,3.087,3.411c0.072,0.202,0.132,0.407,0.182,0.613
		c-1.895-0.598-3.94-0.289-5.563,0.818c-0.171-1.955-1.226-3.733-2.886-4.821C32.47,10.099,33.362,9.889,34.272,9.889"/>
	<path clip-path="url(#SVGID_2_)" fill="#58595B" d="M13.535,61.018c0-1.579,0.95-2.719,2.609-2.719c1.659,0,2.609,1.14,2.609,2.719
		c0,1.589-0.95,2.729-2.609,2.729C14.485,63.746,13.535,62.606,13.535,61.018 M17.613,61.018c0-0.891-0.449-1.819-1.469-1.819
		c-1.019,0-1.469,0.929-1.469,1.819c0,0.898,0.45,1.829,1.469,1.829C17.164,62.847,17.613,61.916,17.613,61.018"/>
	<path clip-path="url(#SVGID_2_)" fill="#58595B" d="M19.705,58.439h1.069v0.999h0.021c0.13-0.551,0.809-1.141,1.509-1.141
		c0.259,0,0.33,0.021,0.429,0.031v1.099c-0.16-0.02-0.33-0.05-0.489-0.05c-0.78,0-1.399,0.629-1.399,1.77v2.459h-1.14V58.439z"/>
	<path clip-path="url(#SVGID_2_)" fill="#58595B" d="M28.002,63.336c0,1.55-0.91,2.319-2.538,2.319c-1.04,0-2.209-0.4-2.31-1.609
		h1.14c0.139,0.649,0.66,0.759,1.239,0.759c0.92,0,1.329-0.469,1.329-1.318v-0.79h-0.02c-0.32,0.569-0.909,0.909-1.548,0.909
		c-1.64,0-2.32-1.238-2.32-2.719c0-1.389,0.87-2.588,2.339-2.588c0.65,0,1.239,0.271,1.529,0.85h0.02v-0.71h1.14V63.336z
		 M26.862,60.907c0-0.89-0.399-1.709-1.389-1.709c-1.009,0-1.359,0.938-1.359,1.8c0,0.849,0.41,1.709,1.359,1.709
		C26.482,62.707,26.862,61.787,26.862,60.907"/>
	<path clip-path="url(#SVGID_2_)" fill="#58595B" d="M33.481,62.456c0,0.28,0.06,0.391,0.27,0.391c0.069,0,0.16,0,0.279-0.021v0.79
		c-0.17,0.06-0.529,0.13-0.719,0.13c-0.46,0-0.79-0.161-0.88-0.63c-0.45,0.44-1.179,0.63-1.789,0.63c-0.929,0-1.769-0.5-1.769-1.509
		c0-1.29,1.03-1.5,1.989-1.61c0.818-0.149,1.548-0.059,1.548-0.729c0-0.59-0.609-0.7-1.069-0.7c-0.639,0-1.088,0.259-1.138,0.82
		h-1.14c0.08-1.33,1.208-1.72,2.349-1.72c1.009,0,2.068,0.409,2.068,1.498V62.456z M32.342,61.018
		c-0.349,0.229-0.899,0.22-1.399,0.31c-0.488,0.08-0.93,0.259-0.93,0.859c0,0.51,0.65,0.66,1.05,0.66c0.5,0,1.279-0.261,1.279-0.979
		V61.018z"/>
	<path clip-path="url(#SVGID_2_)" fill="#58595B" d="M34.713,58.439h1.079v0.759l0.021,0.02c0.34-0.568,0.93-0.92,1.609-0.92
		c1.119,0,1.828,0.601,1.828,1.761v3.548h-1.139v-3.248c-0.021-0.811-0.34-1.16-1.01-1.16c-0.76,0-1.249,0.599-1.249,1.359v3.049
		h-1.14V58.439z"/>
	<path clip-path="url(#SVGID_2_)" fill="#58595B" d="M40.483,56.47h1.139v1.079h-1.139V56.47z M40.483,58.439h1.139v5.167h-1.139
		V58.439z"/>
	<path clip-path="url(#SVGID_2_)" fill="#58595B" d="M46.352,60.168c-0.09-0.63-0.55-0.971-1.18-0.971
		c-0.59,0-1.419,0.312-1.419,1.88c0,0.86,0.38,1.77,1.37,1.77c0.658,0,1.118-0.439,1.229-1.18h1.14
		c-0.21,1.34-1.04,2.079-2.368,2.079c-1.62,0-2.51-1.149-2.51-2.669c0-1.559,0.85-2.778,2.549-2.778
		c1.199,0,2.219,0.599,2.329,1.869H46.352z"/>
	<path clip-path="url(#SVGID_2_)" fill="#58595B" d="M19.678,70.168c-0.09-0.63-0.55-0.971-1.18-0.971
		c-0.59,0-1.419,0.312-1.419,1.88c0,0.86,0.38,1.77,1.37,1.77c0.659,0,1.119-0.439,1.229-1.18h1.14
		c-0.21,1.34-1.04,2.079-2.369,2.079c-1.62,0-2.509-1.149-2.509-2.669c0-1.559,0.849-2.778,2.549-2.778
		c1.199,0,2.218,0.599,2.329,1.869H19.678z"/>
	<path clip-path="url(#SVGID_2_)" fill="#58595B" d="M21.509,71.018c0-1.579,0.95-2.719,2.609-2.719c1.659,0,2.609,1.14,2.609,2.719
		c0,1.589-0.95,2.729-2.609,2.729C22.459,73.746,21.509,72.606,21.509,71.018 M25.587,71.018c0-0.891-0.449-1.819-1.469-1.819
		c-1.019,0-1.469,0.929-1.469,1.819c0,0.898,0.45,1.829,1.469,1.829C25.138,72.847,25.587,71.916,25.587,71.018"/>
	<path clip-path="url(#SVGID_2_)" fill="#58595B" d="M27.16,68.439h0.859v-1.551h1.14v1.551h1.029v0.85h-1.029v2.757
		c0,0.471,0.04,0.71,0.55,0.71c0.159,0,0.319,0,0.479-0.04v0.88c-0.25,0.021-0.49,0.061-0.739,0.061c-1.189,0-1.409-0.46-1.43-1.32
		v-3.047H27.16V68.439z"/>
	<path clip-path="url(#SVGID_2_)" fill="#58595B" d="M30.489,68.439h0.859v-1.551h1.14v1.551h1.029v0.85h-1.029v2.757
		c0,0.471,0.04,0.71,0.55,0.71c0.159,0,0.319,0,0.479-0.04v0.88c-0.25,0.021-0.49,0.061-0.739,0.061c-1.188,0-1.408-0.46-1.43-1.32
		v-3.047h-0.859V68.439z"/>
	<path clip-path="url(#SVGID_2_)" fill="#58595B" d="M34.099,71.018c0-1.579,0.95-2.719,2.609-2.719s2.608,1.14,2.608,2.719
		c0,1.589-0.949,2.729-2.608,2.729S34.099,72.606,34.099,71.018 M38.177,71.018c0-0.891-0.449-1.819-1.469-1.819
		s-1.469,0.929-1.469,1.819c0,0.898,0.449,1.829,1.469,1.829S38.177,71.916,38.177,71.018"/>
	<path clip-path="url(#SVGID_2_)" fill="#58595B" d="M40.269,68.439h1.079v0.759l0.021,0.02c0.34-0.568,0.93-0.92,1.609-0.92
		c1.119,0,1.828,0.601,1.828,1.761v3.548h-1.139v-3.248c-0.021-0.811-0.34-1.16-1.01-1.16c-0.76,0-1.249,0.599-1.249,1.359v3.049
		h-1.14V68.439z"/>
</g>
</svg>
