<?xml version="1.0" encoding="utf-8"?>
<!-- Generator: Adobe Illustrator 15.0.2, SVG Export Plug-In . SVG Version: 6.00 Build 0)  -->
<!DOCTYPE svg PUBLIC "-//W3C//DTD SVG 1.1//EN" "http://www.w3.org/Graphics/SVG/1.1/DTD/svg11.dtd">
<svg version="1.1" id="Livello_1" xmlns="http://www.w3.org/2000/svg" xmlns:xlink="http://www.w3.org/1999/xlink" x="0px" y="0px"
	 width="61.102px" height="53.948px" viewBox="0 0 61.102 53.948" enable-background="new 0 0 61.102 53.948" xml:space="preserve">
<g>
	<defs>
		<rect id="SVGID_1_" y="0" width="61.102" height="80.281"/>
	</defs>
	<clipPath id="SVGID_2_">
		<use xlink:href="#SVGID_1_"  overflow="visible"/>
	</clipPath>
	<path clip-path="url(#SVGID_2_)" fill="none" stroke="#58595B" stroke-width="0.963" d="M30.122,51.425
		c13.438,0,24.33-10.891,24.33-24.332c0-13.431-10.892-24.328-24.33-24.328c-13.438,0-24.331,10.897-24.331,24.328
		C5.792,40.534,16.685,51.425,30.122,51.425z"/>
	<path clip-path="url(#SVGID_2_)" fill-rule="evenodd" clip-rule="evenodd" fill="#58595B" d="M40.663,22.613
		c0,0-0.221-1.549-0.862-2.225c-0.815-0.886-1.736-0.898-2.144-0.956C34.65,19.21,30.14,19.21,30.14,19.21h-0.023
		c0,0-4.499,0-7.505,0.222c-0.431,0.058-1.34,0.07-2.156,0.956c-0.641,0.676-0.862,2.225-0.862,2.225s-0.222,1.819-0.222,3.613
		v0.234v1.479c0,1.818,0.222,3.614,0.222,3.614s0.221,1.55,0.862,2.237c0.816,0.898,1.888,0.863,2.378,0.956
		c1.713,0.174,7.307,0.233,7.307,0.233s4.511-0.023,7.518-0.233c0.407-0.058,1.328-0.058,2.144-0.956
		c0.642-0.687,0.862-2.237,0.862-2.237s0.21-1.796,0.21-3.614v-1.386v-0.327C40.873,24.432,40.663,22.613,40.663,22.613
		 M33.718,26.856l-5.816,3.135v-4.825v-1.469l2.634,1.434L33.718,26.856z"/>
</g>
</svg>
