<?xml version="1.0" encoding="utf-8"?>
<!-- Generator: Adobe Illustrator 15.0.2, SVG Export Plug-In . SVG Version: 6.00 Build 0)  -->
<!DOCTYPE svg PUBLIC "-//W3C//DTD SVG 1.1//EN" "http://www.w3.org/Graphics/SVG/1.1/DTD/svg11.dtd">
<svg version="1.1" id="Livello_1" xmlns="http://www.w3.org/2000/svg" xmlns:xlink="http://www.w3.org/1999/xlink" x="0px" y="0px"
	 width="61.102px" height="80.281px" viewBox="0 0 61.102 80.281" enable-background="new 0 0 61.102 80.281" xml:space="preserve">
<g>
	<defs>
		<rect id="SVGID_1_" y="0" width="61.102" height="80.281"/>
	</defs>
	<clipPath id="SVGID_2_">
		<use xlink:href="#SVGID_1_"  overflow="visible"/>
	</clipPath>
	<path clip-path="url(#SVGID_2_)" fill="none" stroke="#58595B" stroke-width="0.963" d="M29.393,50.92
		c13.439,0,24.33-10.89,24.33-24.332c0-13.431-10.891-24.327-24.33-24.327c-13.436,0-24.329,10.896-24.329,24.327
		C5.063,40.03,15.957,50.92,29.393,50.92z"/>
	<path clip-path="url(#SVGID_2_)" fill="#58595B" d="M8.16,58.962h0.859v-1.549h1.14v1.549h1.029v0.85h-1.029v2.758
		c0,0.471,0.04,0.709,0.55,0.709c0.159,0,0.319,0,0.479-0.04v0.881c-0.25,0.02-0.49,0.06-0.739,0.06c-1.189,0-1.409-0.459-1.43-1.32
		v-3.047H8.16V58.962z"/>
	<path clip-path="url(#SVGID_2_)" fill="#58595B" d="M12.899,61.841c0,0.81,0.439,1.527,1.388,1.527c0.661,0,1.06-0.289,1.26-0.858
		h1.079c-0.25,1.13-1.209,1.76-2.339,1.76c-1.618,0-2.528-1.13-2.528-2.719c0-1.471,0.96-2.729,2.499-2.729
		c1.629,0,2.628,1.47,2.439,3.02H12.899z M15.558,61.091c-0.04-0.721-0.529-1.369-1.299-1.369c-0.79,0-1.329,0.599-1.359,1.369
		H15.558z"/>
	<path clip-path="url(#SVGID_2_)" fill="#58595B" d="M21.898,62.979c0,0.281,0.059,0.391,0.269,0.391c0.07,0,0.16,0,0.279-0.02
		v0.789c-0.169,0.061-0.529,0.131-0.718,0.131c-0.46,0-0.79-0.161-0.88-0.63c-0.45,0.439-1.18,0.63-1.789,0.63
		c-0.93,0-1.769-0.5-1.769-1.51c0-1.289,1.03-1.499,1.989-1.61c0.819-0.148,1.548-0.059,1.548-0.729c0-0.59-0.609-0.699-1.069-0.699
		c-0.64,0-1.089,0.259-1.139,0.819H17.48c0.08-1.329,1.209-1.72,2.348-1.72c1.01,0,2.07,0.409,2.07,1.499V62.979z M20.758,61.541
		c-0.35,0.229-0.899,0.22-1.399,0.31c-0.49,0.08-0.93,0.259-0.93,0.859c0,0.51,0.649,0.659,1.05,0.659
		c0.5,0,1.279-0.261,1.279-0.979V61.541z"/>
	<path clip-path="url(#SVGID_2_)" fill="#58595B" d="M23.129,58.962h1.069v1h0.021c0.13-0.55,0.809-1.141,1.509-1.141
		c0.259,0,0.33,0.021,0.429,0.03v1.099c-0.16-0.019-0.33-0.05-0.489-0.05c-0.78,0-1.399,0.63-1.399,1.771v2.458h-1.14V58.962z"/>
	<path clip-path="url(#SVGID_2_)" fill="#58595B" d="M33.757,62.979c0,0.281,0.06,0.391,0.27,0.391c0.07,0,0.16,0,0.279-0.02v0.789
		c-0.17,0.061-0.529,0.131-0.719,0.131c-0.46,0-0.79-0.161-0.88-0.63c-0.45,0.439-1.18,0.63-1.789,0.63
		c-0.93,0-1.769-0.5-1.769-1.51c0-1.289,1.029-1.499,1.989-1.61c0.818-0.148,1.548-0.059,1.548-0.729
		c0-0.59-0.609-0.699-1.069-0.699c-0.64,0-1.089,0.259-1.139,0.819h-1.139c0.08-1.329,1.208-1.72,2.348-1.72
		c1.01,0,2.069,0.409,2.069,1.499V62.979z M32.617,61.541c-0.35,0.229-0.899,0.22-1.399,0.31c-0.489,0.08-0.93,0.259-0.93,0.859
		c0,0.51,0.649,0.659,1.05,0.659c0.5,0,1.279-0.261,1.279-0.979V61.541z"/>
	<polygon clip-path="url(#SVGID_2_)" fill="#58595B" points="34.519,58.962 35.728,58.962 36.737,62.819 36.758,62.819 
		37.727,58.962 38.876,58.962 39.806,62.819 39.825,62.819 40.875,58.962 42.034,58.962 40.415,64.129 39.247,64.129 38.286,60.291 
		38.267,60.291 37.317,64.129 36.118,64.129 	"/>
	<path clip-path="url(#SVGID_2_)" fill="#58595B" d="M47.097,62.979c0,0.281,0.06,0.391,0.27,0.391c0.069,0,0.16,0,0.278-0.02v0.789
		c-0.169,0.061-0.528,0.131-0.718,0.131c-0.46,0-0.79-0.161-0.88-0.63c-0.45,0.439-1.18,0.63-1.789,0.63
		c-0.93,0-1.769-0.5-1.769-1.51c0-1.289,1.029-1.499,1.988-1.61c0.819-0.148,1.549-0.059,1.549-0.729
		c0-0.59-0.609-0.699-1.069-0.699c-0.64,0-1.089,0.259-1.139,0.819h-1.14c0.08-1.329,1.209-1.72,2.349-1.72
		c1.01,0,2.069,0.409,2.069,1.499V62.979z M45.957,61.541c-0.35,0.229-0.899,0.22-1.399,0.31c-0.489,0.08-0.93,0.259-0.93,0.859
		c0,0.51,0.649,0.659,1.05,0.659c0.5,0,1.279-0.261,1.279-0.979V61.541z"/>
	<path clip-path="url(#SVGID_2_)" fill="#58595B" d="M47.759,58.962h1.249l1.35,3.857h0.02l1.31-3.857h1.189l-2.009,5.446
		c-0.37,0.931-0.64,1.77-1.829,1.77c-0.271,0-0.53-0.021-0.79-0.061v-0.96c0.18,0.031,0.36,0.071,0.54,0.071
		c0.529,0,0.659-0.281,0.8-0.72l0.13-0.4L47.759,58.962z"/>
	<rect x="20.104" y="65.993" clip-path="url(#SVGID_2_)" fill="#58595B" width="1.139" height="7.136"/>
	<path clip-path="url(#SVGID_2_)" fill="#58595B" d="M26.813,71.979c0,0.281,0.059,0.391,0.269,0.391c0.07,0,0.16,0,0.279-0.02
		v0.789c-0.169,0.061-0.529,0.131-0.718,0.131c-0.46,0-0.79-0.161-0.88-0.63c-0.45,0.439-1.18,0.63-1.789,0.63
		c-0.93,0-1.77-0.5-1.77-1.51c0-1.289,1.031-1.499,1.99-1.61c0.819-0.148,1.548-0.059,1.548-0.729c0-0.59-0.609-0.699-1.069-0.699
		c-0.64,0-1.089,0.259-1.139,0.819h-1.139c0.08-1.329,1.209-1.72,2.348-1.72c1.01,0,2.07,0.409,2.07,1.499V71.979z M25.673,70.541
		c-0.35,0.229-0.899,0.22-1.399,0.31c-0.49,0.08-0.93,0.259-0.93,0.859c0,0.51,0.649,0.659,1.05,0.659
		c0.5,0,1.279-0.261,1.279-0.979V70.541z"/>
	<path clip-path="url(#SVGID_2_)" fill="#58595B" d="M28.074,65.992h1.139v2.64h0.02c0.31-0.5,0.959-0.81,1.54-0.81
		c1.629,0,2.419,1.239,2.419,2.748c0,1.389-0.7,2.699-2.229,2.699c-0.699,0-1.448-0.17-1.788-0.85h-0.021v0.709h-1.079V65.992z
		 M30.623,68.722c-0.96,0-1.449,0.729-1.449,1.829c0,1.039,0.529,1.817,1.449,1.817c1.039,0,1.429-0.918,1.429-1.817
		C32.052,69.611,31.562,68.722,30.623,68.722"/>
	<path clip-path="url(#SVGID_2_)" fill="#58595B" d="M35.044,70.841c0,0.81,0.439,1.527,1.388,1.527
		c0.661,0,1.061-0.289,1.261-0.858h1.079c-0.25,1.13-1.209,1.76-2.34,1.76c-1.617,0-2.527-1.13-2.527-2.719
		c0-1.471,0.96-2.729,2.499-2.729c1.629,0,2.628,1.47,2.438,3.02H35.044z M37.702,70.091c-0.04-0.721-0.529-1.369-1.299-1.369
		c-0.79,0-1.329,0.599-1.359,1.369H37.702z"/>
	<rect x="39.744" y="65.993" clip-path="url(#SVGID_2_)" fill="#58595B" width="1.139" height="7.136"/>
</g>
<g>
	<defs>
		<rect id="SVGID_3_" x="13.48" y="14.406" width="31.826" height="24.745"/>
	</defs>
	<clipPath id="SVGID_4_">
		<use xlink:href="#SVGID_3_"  overflow="visible"/>
	</clipPath>
	<path clip-path="url(#SVGID_4_)" fill="#58595B" d="M18.327,28.347h0.881v-2.933h-0.881V28.347z M17.444,25.784
		c0-0.727,0.597-1.323,1.325-1.323c0.724,0,1.321,0.596,1.321,1.323v7.262h-0.881v-3.816h-0.882v3.816h-0.883V25.784z"/>
	<polygon clip-path="url(#SVGID_4_)" fill="#58595B" points="21.523,25.414 20.641,25.414 20.641,24.531 23.285,24.531 
		23.285,25.414 22.401,25.414 22.401,33.045 21.523,33.045 	"/>
	<polygon clip-path="url(#SVGID_4_)" fill="#58595B" points="23.835,24.531 24.717,24.531 24.717,32.163 25.597,32.163 
		25.597,30.399 26.481,30.399 26.481,33.046 23.835,33.046 	"/>
	<path clip-path="url(#SVGID_4_)" fill="#58595B" d="M28.031,28.347h0.882v-2.933h-0.882V28.347z M27.149,25.784
		c0-0.727,0.595-1.323,1.322-1.323c0.728,0,1.324,0.596,1.324,1.323v7.262h-0.881v-3.816h-0.883v3.816h-0.882V25.784z"/>
	<path clip-path="url(#SVGID_4_)" fill="#58595B" d="M30.678,24.531h0.834c0.312,1.788,0.764,3.554,1.024,5.45h0.026
		c-0.048-0.716-0.119-2.229-0.119-2.981v-2.469h0.881v8.515h-0.835c-0.309-1.789-0.764-3.553-1.025-5.449H31.44
		c0.048,0.715,0.12,2.229,0.12,2.98v2.469h-0.883V24.531z"/>
	<polygon clip-path="url(#SVGID_4_)" fill="#58595B" points="34.757,25.414 33.875,25.414 33.875,24.531 36.519,24.531 
		36.519,25.414 35.638,25.414 35.638,33.045 34.757,33.045 	"/>
	<rect x="37.07" y="24.531" clip-path="url(#SVGID_4_)" fill="#58595B" width="0.882" height="8.515"/>
	<path clip-path="url(#SVGID_4_)" fill="#58595B" d="M38.834,30.827h0.882v1.335H40.6v-2.933h-0.884
		c-0.488,0-0.882-0.393-0.882-0.882v-2.564c0-0.727,0.594-1.323,1.321-1.323c0.729,0,1.325,0.596,1.325,1.323v0.965H40.6v-1.334
		h-0.884v2.933H40.6c0.485,0,0.881,0.394,0.881,0.882v2.564c0,0.728-0.597,1.324-1.325,1.324c-0.728,0-1.321-0.596-1.321-1.324
		V30.827z"/>
	
		<rect x="15.053" y="15.979" clip-path="url(#SVGID_4_)" fill="none" stroke="#58595B" stroke-width="0.4" stroke-miterlimit="3.864" width="28.679" height="21.6"/>
	
		<line clip-path="url(#SVGID_4_)" fill="none" stroke="#58595B" stroke-width="0.2" stroke-miterlimit="3.864" x1="15.21" y1="18.698" x2="15.61" y2="18.698"/>
	
		<line clip-path="url(#SVGID_4_)" fill="none" stroke="#58595B" stroke-width="0.2" stroke-miterlimit="3.864" stroke-dasharray="0.787,0.787,0.787,0.787" x1="16.397" y1="18.698" x2="19.151" y2="18.698"/>
	
		<line clip-path="url(#SVGID_4_)" fill="none" stroke="#58595B" stroke-width="0.2" stroke-miterlimit="3.864" stroke-dasharray="0.787,0.787,0.787,0.787,0.787,0.787" x1="19.544" y1="18.699" x2="42.758" y2="18.701"/>
	
		<line clip-path="url(#SVGID_4_)" fill="none" stroke="#58595B" stroke-width="0.2" stroke-miterlimit="3.864" x1="43.151" y1="18.702" x2="43.551" y2="18.702"/>
	<rect x="33.324" y="21.646" clip-path="url(#SVGID_4_)" fill="#FFFFFF" width="8.827" height="10.652"/>
	<polygon clip-path="url(#SVGID_4_)" fill="#FFFFFF" points="28.181,18.854 43.663,33.746 28.104,33.746 	"/>
	
		<polygon clip-path="url(#SVGID_4_)" fill="none" stroke="#58595B" stroke-width="0.4" stroke-linecap="round" stroke-linejoin="round" stroke-miterlimit="3.864" points="
		28.181,18.854 43.663,33.746 28.104,33.746 	"/>
</g>
<g>
	<defs>
		<rect id="SVGID_5_" y="0" width="61.102" height="80.281"/>
	</defs>
	<clipPath id="SVGID_6_">
		<use xlink:href="#SVGID_5_"  overflow="visible"/>
	</clipPath>
	
		<line clip-path="url(#SVGID_6_)" fill="none" stroke="#58595B" stroke-width="0.466" x1="5.011" y1="53.79" x2="55.421" y2="53.79"/>
</g>
</svg>
