<?xml version="1.0" encoding="utf-8"?>
<!-- Generator: Adobe Illustrator 15.0.2, SVG Export Plug-In . SVG Version: 6.00 Build 0)  -->
<!DOCTYPE svg PUBLIC "-//W3C//DTD SVG 1.1//EN" "http://www.w3.org/Graphics/SVG/1.1/DTD/svg11.dtd">
<svg version="1.1" id="Livello_1" xmlns="http://www.w3.org/2000/svg" xmlns:xlink="http://www.w3.org/1999/xlink" x="0px" y="0px"
	 width="61.102px" height="80.281px" viewBox="0 0 61.102 80.281" enable-background="new 0 0 61.102 80.281" xml:space="preserve">
<polygon fill="#58595B" points="7.717,58.729 8.926,58.729 9.937,62.586 9.957,62.586 10.925,58.729 12.074,58.729 13.004,62.586 
	13.024,62.586 14.073,58.729 15.233,58.729 13.613,63.896 12.445,63.896 11.485,60.059 11.465,60.059 10.516,63.896 9.317,63.896 
	"/>
<g>
	<defs>
		<rect id="SVGID_1_" y="0" width="61.102" height="80.281"/>
	</defs>
	<clipPath id="SVGID_2_">
		<use xlink:href="#SVGID_1_"  overflow="visible"/>
	</clipPath>
	<path clip-path="url(#SVGID_2_)" fill="#58595B" d="M15.727,61.308c0-1.579,0.95-2.72,2.609-2.72c1.659,0,2.609,1.141,2.609,2.72
		c0,1.589-0.95,2.729-2.609,2.729C16.677,64.036,15.727,62.896,15.727,61.308 M19.805,61.308c0-0.891-0.449-1.819-1.469-1.819
		c-1.019,0-1.469,0.929-1.469,1.819c0,0.898,0.45,1.829,1.469,1.829C19.356,63.137,19.805,62.206,19.805,61.308"/>
	<path clip-path="url(#SVGID_2_)" fill="#58595B" d="M21.897,58.729h1.069v0.999h0.021c0.13-0.55,0.809-1.141,1.509-1.141
		c0.259,0,0.33,0.021,0.429,0.031v1.099c-0.16-0.02-0.33-0.05-0.489-0.05c-0.78,0-1.399,0.629-1.399,1.77v2.459h-1.14V58.729z"/>
	<polygon clip-path="url(#SVGID_2_)" fill="#58595B" points="25.447,56.76 26.586,56.76 26.586,60.818 28.645,58.729 30.045,58.729 
		28.065,60.628 30.233,63.896 28.844,63.896 27.265,61.388 26.586,62.047 26.586,63.896 25.447,63.896 	"/>
	<polygon clip-path="url(#SVGID_2_)" fill="#58595B" points="30.317,58.729 31.526,58.729 32.536,62.586 32.556,62.586 
		33.524,58.729 34.675,58.729 35.604,62.586 35.624,62.586 36.673,58.729 37.833,58.729 36.214,63.896 35.044,63.896 34.085,60.059 
		34.065,60.059 33.116,63.896 31.917,63.896 	"/>
	<path clip-path="url(#SVGID_2_)" fill="#58595B" d="M39.456,61.607c0,0.81,0.439,1.528,1.391,1.528c0.658,0,1.059-0.29,1.258-0.858
		h1.08c-0.25,1.129-1.209,1.759-2.338,1.759c-1.619,0-2.529-1.129-2.529-2.719c0-1.469,0.959-2.729,2.498-2.729
		c1.629,0,2.629,1.471,2.439,3.02H39.456z M42.114,60.858c-0.039-0.721-0.529-1.37-1.299-1.37c-0.789,0-1.328,0.599-1.359,1.37
		H42.114z"/>
	<path clip-path="url(#SVGID_2_)" fill="#58595B" d="M48.454,62.746c0,0.28,0.061,0.391,0.27,0.391c0.07,0,0.16,0,0.278-0.021v0.79
		c-0.169,0.06-0.528,0.13-0.718,0.13c-0.459,0-0.789-0.161-0.879-0.63c-0.451,0.44-1.18,0.63-1.789,0.63
		c-0.93,0-1.77-0.5-1.77-1.509c0-1.29,1.029-1.5,1.988-1.61c0.82-0.149,1.549-0.059,1.549-0.729c0-0.59-0.609-0.7-1.068-0.7
		c-0.641,0-1.09,0.259-1.139,0.82h-1.141c0.08-1.33,1.209-1.721,2.35-1.721c1.01,0,2.068,0.41,2.068,1.499V62.746z M47.315,61.308
		c-0.35,0.229-0.9,0.22-1.4,0.31c-0.488,0.08-0.93,0.259-0.93,0.859c0,0.51,0.65,0.66,1.051,0.66c0.5,0,1.279-0.261,1.279-0.979
		V61.308z"/>
	<path clip-path="url(#SVGID_2_)" fill="#58595B" d="M49.687,58.729h1.068v0.999h0.021c0.129-0.55,0.809-1.141,1.508-1.141
		c0.26,0,0.33,0.021,0.43,0.031v1.099c-0.16-0.02-0.33-0.05-0.488-0.05c-0.781,0-1.4,0.629-1.4,1.77v2.459h-1.139V58.729z"/>
	<path clip-path="url(#SVGID_2_)" fill="none" stroke="#58635B" stroke-width="0.963" d="M30.215,50.629
		c13.439,0,24.331-10.891,24.331-24.332c0-13.432-10.892-24.328-24.331-24.328c-13.437,0-24.33,10.896-24.33,24.328
		C5.885,39.738,16.778,50.629,30.215,50.629z"/>
	<path clip-path="url(#SVGID_2_)" fill-rule="evenodd" clip-rule="evenodd" d="M29.246,12.211c0.089,0.047,0.147,0.131,0.147,0.227
		c0,0.147-0.137,0.266-0.307,0.266c-0.171,0-0.308-0.119-0.308-0.266c0-0.096,0.059-0.18,0.147-0.227h-0.894
		c-0.067,0-0.115-0.083-0.153-0.15c-0.02-0.04-0.062-0.046-0.102-0.046c0.001,0.017,0.003,0.034,0.004,0.052
		c0.03,0.337,0.103,0.669,0.21,0.994l0.206,0.123c0.117,0.457,0.25,0.778,0.527,1.172l0.292-0.425
		c0.111-0.16,0.243-0.204,0.443-0.215c0.369-0.027,0.932-0.027,1.301,0c0.193,0.011,0.33,0.051,0.438,0.207l0.298,0.433
		c0.276-0.394,0.408-0.715,0.526-1.172l0.206-0.123c0.106-0.325,0.18-0.657,0.209-0.994c0.002-0.017,0.003-0.035,0.004-0.052
		c-0.039,0-0.081,0.007-0.101,0.046c-0.039,0.067-0.087,0.15-0.154,0.15h-0.893c0.088,0.047,0.146,0.131,0.146,0.227
		c0,0.147-0.138,0.266-0.308,0.266s-0.308-0.119-0.308-0.266c0-0.096,0.059-0.18,0.146-0.227H29.246z M32.146,15.391
		c1.068,0.26,2.989,0.666,3.532,1.174c0.971,0.908,3.035,3.438,3.497,4.062c0.372,0.501,0.359,1.169,0.014,1.651l-2.8,3.739
		c-0.506,0.736-0.884,1.192-1.664,1.624c-0.005,0.003-0.01,0.006-0.015,0.008l-0.092,7.633l0.256,7.747h-0.331
		c0.082,0.099,0.131,0.224,0.131,0.361v0.487c0,0.071-0.017,0.139-0.047,0.197c0.05,0.011,0.087,0.055,0.087,0.108v0.541
		c0,0.029-0.024,0.055-0.055,0.055h-3.437c-0.03,0-0.055-0.025-0.055-0.055v-0.541c0-0.061,0.05-0.11,0.11-0.11h0.065h1.504
		c0.021,0,0.04-0.02,0.04-0.04V43.97c0-0.021-0.019-0.04-0.04-0.04h-1.529v-0.499c0-0.153,0.059-0.295,0.153-0.401h-0.45
		l-0.098-7.677l-0.368-5.395h-0.34h-0.34l-0.368,5.395l-0.098,7.677h-0.318c0.083,0.099,0.132,0.224,0.132,0.361v0.487
		c0,0.071-0.017,0.139-0.047,0.197c0.049,0.011,0.087,0.055,0.087,0.108v0.541c0,0.029-0.025,0.055-0.055,0.055h-3.436
		c-0.031,0-0.056-0.025-0.056-0.055v-0.541c0-0.061,0.05-0.11,0.111-0.11h0.066h1.503c0.022,0,0.041-0.02,0.041-0.04V43.97
		c0-0.021-0.019-0.04-0.041-0.04h-1.529v-0.499c0-0.153,0.058-0.295,0.154-0.401h-0.465l0.256-7.747l-0.091-7.633
		c-0.005-0.002-0.01-0.005-0.015-0.008c-0.78-0.432-1.158-0.888-1.663-1.624l-2.801-3.739c-0.345-0.482-0.358-1.15,0.014-1.651
		c0.462-0.624,2.526-3.154,3.497-4.062c0.513-0.48,2.26-0.87,3.351-1.13c0.314,0.403,0.69,0.726,1.095,0.809
		c0.484,0.1,1.333,0.099,1.817,0C31.437,16.158,31.825,15.815,32.146,15.391 M25.842,23.483l-0.239-3.506l-1.359,1.531l1.199,2.042
		C25.558,23.747,25.842,23.475,25.842,23.483 M34.589,23.483c0.001-0.008,0.284,0.264,0.399,0.067l1.199-2.042l-1.358-1.531
		L34.589,23.483z M27.02,12.015c-0.018-0.028-0.03-0.063-0.034-0.108c-0.007-0.202,0.001-0.401,0.022-0.608
		c0.044-0.431,0.229-0.3,0.238-0.517c0.079-0.933,0.604-1.752,1.316-2.251c0.211,1.34,0.614,2.374,0.614,2.374
		c-0.124-0.985-0.297-1.847-0.317-2.503c-0.003-0.109,0.023-0.295,0.135-0.346c0.712-0.318,1.517-0.318,2.229,0
		c0.113,0.051,0.138,0.237,0.135,0.346c-0.02,0.656-0.192,1.518-0.317,2.503c0,0,0.403-1.034,0.613-2.375
		c0.714,0.499,1.238,1.319,1.317,2.252c0.01,0.217,0.194,0.086,0.238,0.517c0.021,0.207,0.029,0.406,0.022,0.608
		c-0.005,0.045-0.017,0.08-0.034,0.108h-0.304c-0.028,0.42-0.119,0.869-0.295,1.355l-0.188,0.111
		c-0.214,0.84-0.751,1.843-1.517,2.17c-0.385,0.079-1.188,0.079-1.573,0c-0.765-0.327-1.302-1.33-1.516-2.17l-0.187-0.111
		c-0.176-0.486-0.267-0.935-0.296-1.355H27.02z M30.477,13.372c-0.229,0.077-0.507,0.077-0.736,0
		c-0.054-0.018-0.083-0.077-0.065-0.131c0.018-0.054,0.076-0.084,0.129-0.066c0.188,0.037,0.419,0.037,0.607,0
		c0.054-0.018,0.111,0.012,0.13,0.066C30.559,13.295,30.53,13.354,30.477,13.372 M29.612,14.232c0.385,0.014,0.608,0.012,0.994,0
		v0.146c-0.386,0.07-0.609,0.078-0.994,0V14.232z"/>
	<path clip-path="url(#SVGID_2_)" fill-rule="evenodd" clip-rule="evenodd" fill="#58595B" d="M30.216,19.977h4.007l0.366,3.506
		c-0.029,0.437,0.168,0.671-0.277,0.968c-0.29,0.194-0.49,0.373-0.811,0.52c-0.361,0.155-0.433,0.35-0.355,0.756
		c0.104,0.547,0.72,1.923,1.374,1.986c0.044,0.004,0.096-0.013,0.19-0.063l-0.092,7.632l0.256,7.747h-3.852l-0.099-7.677
		l-0.368-5.395h-0.679l-0.369,5.395l-0.098,7.677h-3.852l0.256-7.747l-0.092-7.632c0.095,0.05,0.147,0.067,0.19,0.063
		c0.655-0.063,1.27-1.439,1.375-1.986c0.077-0.406,0.006-0.601-0.356-0.756c-0.321-0.147-0.52-0.326-0.811-0.52
		c-0.445-0.297-0.247-0.531-0.277-0.968l0.367-3.506H30.216z M26.595,20.986h0.832v-0.577h-0.832V20.986z M27.74,16.007
		l-1.458,0.357v3.149h1.458V16.007z M33.836,20.409h-0.831v0.577h0.831V20.409z M32.691,16.007l1.458,0.357v3.149h-1.458V16.007z"/>
	<path clip-path="url(#SVGID_2_)" fill-rule="evenodd" clip-rule="evenodd" d="M30.712,21.918l-0.256-0.529l0.152-0.589l0.461-0.469
		l0.122,0.031l-0.195,0.753c-0.012,0.045,0.016,0.091,0.061,0.103l0.573,0.148c0.045,0.012,0.092-0.016,0.103-0.06l0.195-0.753
		l0.121,0.031l0.175,0.635l-0.152,0.588l-0.489,0.346l-0.049,0.182h0.83v0.461h-4.295v-0.461h2.532L30.712,21.918z"/>
	
		<line clip-path="url(#SVGID_2_)" fill="none" stroke="#58595B" stroke-width="0.466" x1="5.011" y1="53.79" x2="55.421" y2="53.79"/>
</g>
</svg>
