<?xml version="1.0" encoding="utf-8"?>
<!-- Generator: Adobe Illustrator 15.0.2, SVG Export Plug-In . SVG Version: 6.00 Build 0)  -->
<!DOCTYPE svg PUBLIC "-//W3C//DTD SVG 1.1//EN" "http://www.w3.org/Graphics/SVG/1.1/DTD/svg11.dtd">
<svg version="1.1" id="Livello_1" xmlns="http://www.w3.org/2000/svg" xmlns:xlink="http://www.w3.org/1999/xlink" x="0px" y="0px"
	 width="61.102px" height="80.281px" viewBox="0 0 61.102 80.281" enable-background="new 0 0 61.102 80.281" xml:space="preserve">
<g>
	<defs>
		<rect id="SVGID_1_" y="0" width="61.102" height="80.281"/>
	</defs>
	<clipPath id="SVGID_2_">
		<use xlink:href="#SVGID_1_"  overflow="visible"/>
	</clipPath>
	<path clip-path="url(#SVGID_2_)" fill="#58595B" d="M12.756,61.522c0.061,0.66,0.56,0.898,1.17,0.898
		c0.43,0,1.179-0.089,1.149-0.679c-0.03-0.6-0.86-0.669-1.689-0.86c-0.84-0.179-1.659-0.479-1.659-1.528
		c0-1.129,1.219-1.479,2.159-1.479c1.059,0,2.018,0.439,2.158,1.588h-1.189c-0.1-0.54-0.549-0.688-1.049-0.688
		c-0.33,0-0.94,0.08-0.94,0.529c0,0.56,0.839,0.64,1.679,0.829c0.83,0.19,1.669,0.49,1.669,1.51c0,1.229-1.239,1.68-2.309,1.68
		c-1.298,0-2.268-0.58-2.289-1.8H12.756z"/>
	<path clip-path="url(#SVGID_2_)" fill="#58595B" d="M21.624,63.182h-1.119v-0.721h-0.02c-0.28,0.521-0.899,0.861-1.469,0.861
		c-1.349,0-1.929-0.68-1.929-2.03v-3.277h1.14v3.168c0,0.91,0.369,1.238,0.989,1.238c0.949,0,1.269-0.608,1.269-1.408v-2.998h1.139
		V63.182z"/>
	<path clip-path="url(#SVGID_2_)" fill="#58595B" d="M22.827,58.015h1.079v0.72h0.03c0.34-0.51,0.77-0.86,1.589-0.86
		c0.63,0,1.22,0.271,1.449,0.86c0.38-0.53,0.871-0.86,1.62-0.86c1.089,0,1.729,0.48,1.729,1.74v3.567h-1.14v-3.02
		c0-0.818-0.049-1.388-0.939-1.388c-0.77,0-1.1,0.51-1.1,1.379v3.028h-1.138v-3.318c0-0.709-0.221-1.089-0.91-1.089
		c-0.59,0-1.129,0.479-1.129,1.339v3.068h-1.14V58.015z"/>
	<path clip-path="url(#SVGID_2_)" fill="#58595B" d="M31.527,58.015h1.079v0.72h0.03c0.34-0.51,0.77-0.86,1.589-0.86
		c0.63,0,1.22,0.271,1.449,0.86c0.38-0.53,0.87-0.86,1.619-0.86c1.09,0,1.729,0.48,1.729,1.74v3.567h-1.14v-3.02
		c0-0.818-0.05-1.388-0.939-1.388c-0.77,0-1.1,0.51-1.1,1.379v3.028h-1.139v-3.318c0-0.709-0.221-1.089-0.91-1.089
		c-0.59,0-1.129,0.479-1.129,1.339v3.068h-1.14V58.015z"/>
	<path clip-path="url(#SVGID_2_)" fill="#58595B" d="M41.117,60.894c0,0.81,0.439,1.527,1.39,1.527c0.659,0,1.059-0.289,1.259-0.858
		h1.079c-0.25,1.13-1.209,1.76-2.338,1.76c-1.619,0-2.529-1.13-2.529-2.719c0-1.471,0.96-2.729,2.499-2.729
		c1.629,0,2.628,1.469,2.438,3.02H41.117z M43.775,60.144c-0.04-0.721-0.529-1.369-1.299-1.369c-0.79,0-1.329,0.599-1.359,1.369
		H43.775z"/>
	<path clip-path="url(#SVGID_2_)" fill="#58595B" d="M45.787,58.015h1.069v1h0.021c0.13-0.551,0.81-1.141,1.509-1.141
		c0.26,0,0.33,0.021,0.43,0.03v1.099c-0.16-0.019-0.33-0.05-0.489-0.05c-0.78,0-1.399,0.63-1.399,1.771v2.458h-1.14V58.015z"/>
	<circle clip-path="url(#SVGID_2_)" fill="none" stroke="#58585A" stroke-width="0.96" cx="30.216" cy="26.299" r="24.241"/>
	<path clip-path="url(#SVGID_2_)" fill="#58595B" d="M23.871,14.109c0.16,0.389,0.536,0.624,0.931,0.624
		c0.128,0,0.258-0.025,0.383-0.077c0.515-0.212,0.76-0.8,0.547-1.314l-0.029-0.073c-0.213-0.515-0.801-0.759-1.315-0.548
		c-0.514,0.212-0.759,0.801-0.547,1.315L23.871,14.109z"/>
	<path clip-path="url(#SVGID_2_)" fill="#58595B" d="M35.246,14.656c0.126,0.052,0.256,0.076,0.384,0.076
		c0.396,0,0.771-0.235,0.931-0.623l0.03-0.074c0.212-0.513-0.033-1.102-0.547-1.314c-0.514-0.211-1.103,0.034-1.314,0.548
		l-0.03,0.073C34.487,13.855,34.732,14.444,35.246,14.656"/>
	<path clip-path="url(#SVGID_2_)" fill="#58595B" d="M36.561,38.488c-0.212-0.514-0.801-0.759-1.314-0.547s-0.759,0.8-0.547,1.314
		l0.03,0.073c0.16,0.389,0.535,0.624,0.931,0.624c0.128,0,0.258-0.025,0.384-0.076c0.514-0.212,0.759-0.801,0.547-1.315
		L36.561,38.488z"/>
	<path clip-path="url(#SVGID_2_)" fill="#58595B" d="M25.185,37.941c-0.514-0.212-1.103,0.033-1.314,0.547l-0.031,0.073
		c-0.212,0.514,0.033,1.103,0.548,1.315c0.125,0.051,0.255,0.076,0.383,0.076c0.395,0,0.77-0.235,0.931-0.624l0.03-0.073
		C25.944,38.741,25.699,38.152,25.185,37.941"/>
	<path clip-path="url(#SVGID_2_)" fill="#58595B" d="M17.259,30.782l-0.073,0.03c-0.514,0.212-0.76,0.801-0.548,1.315
		c0.161,0.388,0.536,0.623,0.932,0.623c0.127,0,0.257-0.025,0.382-0.076l0.074-0.03c0.514-0.213,0.759-0.801,0.547-1.315
		C18.362,30.815,17.773,30.57,17.259,30.782"/>
	<path clip-path="url(#SVGID_2_)" fill="#58595B" d="M17.186,21.785l0.073,0.031c0.125,0.052,0.255,0.076,0.384,0.076
		c0.395,0,0.77-0.235,0.931-0.624c0.211-0.514-0.034-1.102-0.548-1.314l-0.073-0.03c-0.514-0.212-1.103,0.033-1.314,0.547
		C16.427,20.985,16.672,21.574,17.186,21.785"/>
	<path clip-path="url(#SVGID_2_)" fill="#58595B" d="M42.789,21.891c0.128,0,0.258-0.024,0.383-0.076l0.073-0.03
		c0.515-0.212,0.76-0.801,0.548-1.314c-0.212-0.515-0.801-0.76-1.314-0.548l-0.073,0.031c-0.515,0.211-0.759,0.799-0.547,1.313
		C42.019,21.656,42.394,21.891,42.789,21.891"/>
	<path clip-path="url(#SVGID_2_)" fill="#58595B" d="M43.245,30.812l-0.073-0.03c-0.514-0.212-1.103,0.033-1.313,0.547
		c-0.212,0.514,0.032,1.103,0.547,1.315l0.073,0.029c0.125,0.052,0.255,0.076,0.383,0.076c0.396,0,0.771-0.234,0.932-0.623
		C44.005,31.612,43.76,31.024,43.245,30.812"/>
	<path clip-path="url(#SVGID_2_)" fill="#58595B" d="M26.048,18.822c0.582-0.325,1.206-0.584,1.861-0.769l-0.854-2.074
		c-0.212-0.514-0.801-0.759-1.314-0.547c-0.514,0.211-0.759,0.8-0.548,1.314L26.048,18.822z"/>
	<path clip-path="url(#SVGID_2_)" fill="#58595B" d="M41.083,21.824c-0.212-0.514-0.801-0.759-1.314-0.547l-2.076,0.855
		c0.325,0.581,0.585,1.205,0.768,1.861l2.075-0.855C41.049,22.927,41.294,22.338,41.083,21.824"/>
	<path clip-path="url(#SVGID_2_)" fill="#58595B" d="M30.216,17.736c0.341,0,0.676,0.022,1.007,0.061v-5.643
		c0-0.556-0.451-1.007-1.007-1.007c-0.556,0-1.007,0.451-1.007,1.007v5.643C29.539,17.758,29.875,17.736,30.216,17.736"/>
	<path clip-path="url(#SVGID_2_)" fill="#58595B" d="M39.747,31.361c0.127,0.053,0.258,0.078,0.387,0.078
		c0.395,0,0.769-0.234,0.93-0.62c0.214-0.514-0.028-1.103-0.542-1.317l-2.07-0.863c-0.187,0.654-0.449,1.277-0.777,1.858
		L39.747,31.361z"/>
	<path clip-path="url(#SVGID_2_)" fill="#58595B" d="M34.414,18.839l0.863-2.073c0.214-0.513-0.028-1.102-0.542-1.316
		c-0.513-0.214-1.103,0.029-1.316,0.542l-0.862,2.071C33.211,18.25,33.833,18.512,34.414,18.839"/>
	<path clip-path="url(#SVGID_2_)" fill="#58595B" d="M19.349,30.773c0.16,0.388,0.536,0.623,0.931,0.623
		c0.128,0,0.257-0.024,0.383-0.076l2.076-0.855c-0.325-0.582-0.584-1.206-0.768-1.861l-2.075,0.854
		C19.382,29.671,19.138,30.259,19.349,30.773"/>
	<path clip-path="url(#SVGID_2_)" fill="#58595B" d="M36.937,21.001l3.993-3.993c0.393-0.393,0.393-1.03,0-1.424
		c-0.394-0.393-1.031-0.393-1.424,0l-3.993,3.993C36.04,19.996,36.519,20.474,36.937,21.001"/>
	<path clip-path="url(#SVGID_2_)" fill="#58595B" d="M20.684,21.236c-0.513-0.214-1.102,0.029-1.316,0.542
		c-0.214,0.513,0.029,1.103,0.542,1.316l2.071,0.863c0.186-0.654,0.448-1.277,0.776-1.858L20.684,21.236z"/>
	<path clip-path="url(#SVGID_2_)" fill="#58595B" d="M30.216,19.145c-3.945,0-7.154,3.209-7.154,7.153
		c0,3.945,3.209,7.154,7.154,7.154c3.944,0,7.153-3.209,7.153-7.154C37.369,22.354,34.16,19.145,30.216,19.145"/>
	<path clip-path="url(#SVGID_2_)" fill="#58595B" d="M34.383,33.775c-0.582,0.326-1.206,0.585-1.861,0.768l0.854,2.075
		c0.16,0.389,0.535,0.623,0.932,0.623c0.127,0,0.257-0.024,0.383-0.075c0.514-0.212,0.759-0.801,0.546-1.315L34.383,33.775z"/>
	<path clip-path="url(#SVGID_2_)" fill="#58595B" d="M23.495,21.001c0.417-0.528,0.895-1.006,1.424-1.424l-3.993-3.993
		c-0.394-0.393-1.031-0.393-1.424,0c-0.393,0.394-0.393,1.031,0,1.424L23.495,21.001z"/>
	<path clip-path="url(#SVGID_2_)" fill="#58595B" d="M30.216,34.861c-0.341,0-0.677-0.022-1.007-0.061v5.643
		c0,0.556,0.451,1.006,1.007,1.006c0.556,0,1.007-0.45,1.007-1.006v-5.643C30.892,34.839,30.557,34.861,30.216,34.861"/>
	<path clip-path="url(#SVGID_2_)" fill="#58595B" d="M44.36,25.292h-5.643c0.039,0.331,0.061,0.667,0.061,1.007
		c0,0.341-0.021,0.676-0.061,1.007h5.643c0.556,0,1.007-0.451,1.007-1.007S44.916,25.292,44.36,25.292"/>
	<path clip-path="url(#SVGID_2_)" fill="#58595B" d="M36.937,31.595c-0.418,0.528-0.896,1.006-1.424,1.424l3.993,3.993
		c0.196,0.196,0.453,0.295,0.712,0.295c0.257,0,0.515-0.099,0.711-0.295c0.394-0.393,0.394-1.031,0-1.424L36.937,31.595z"/>
	<path clip-path="url(#SVGID_2_)" fill="#58595B" d="M26.017,33.757l-0.864,2.073c-0.213,0.513,0.03,1.102,0.543,1.317
		c0.126,0.052,0.257,0.078,0.386,0.078c0.394,0,0.769-0.234,0.93-0.621l0.862-2.07C27.221,34.347,26.598,34.085,26.017,33.757"/>
	<path clip-path="url(#SVGID_2_)" fill="#58595B" d="M21.653,26.298c0-0.34,0.022-0.676,0.062-1.007h-5.644
		c-0.556,0-1.006,0.451-1.006,1.007c0,0.556,0.45,1.007,1.006,1.007h5.644C21.675,26.975,21.653,26.64,21.653,26.298"/>
	<path clip-path="url(#SVGID_2_)" fill="#58595B" d="M23.495,31.595l-3.993,3.993c-0.393,0.393-0.393,1.031,0,1.424
		c0.196,0.196,0.454,0.295,0.712,0.295c0.258,0,0.515-0.099,0.712-0.295l3.993-3.993C24.39,32.602,23.912,32.125,23.495,31.595"/>
	
		<line clip-path="url(#SVGID_2_)" fill="none" stroke="#58585A" stroke-width="0.466" x1="5.011" y1="53.79" x2="55.421" y2="53.79"/>
</g>
</svg>
