<?xml version="1.0" encoding="utf-8"?>
<!-- Generator: Adobe Illustrator 18.0.0, SVG Export Plug-In . SVG Version: 6.00 Build 0)  -->
<!DOCTYPE svg PUBLIC "-//W3C//DTD SVG 1.1//EN" "http://www.w3.org/Graphics/SVG/1.1/DTD/svg11.dtd">
<svg version="1.1" id="Livello_1" xmlns="http://www.w3.org/2000/svg" xmlns:xlink="http://www.w3.org/1999/xlink" x="0px" y="0px"
	 viewBox="0 0 86 11" enable-background="new 0 0 86 11" xml:space="preserve">
<title>arrow circle</title>
<desc>Created with Sketch.</desc>
<g id="Page-1">
	<g id="Atlantis---Index---2" transform="translate(-712.000000, -1074.000000)">
		<g id="SECTIONS" transform="translate(130.000000, 630.000000)">
			<g id="_x32_" transform="translate(402.000000, 0.000000)">
				<g id="arrow-circle" transform="translate(155.000000, 415.000000)">
					<g id="Arrow_Point" transform="translate(25.000000, 29.000000)">
						<path id="Path" fill="#39497E" d="M8.8,3.3c-1.2,0-2.1,1-2.1,2.2s0.9,2.2,2.1,2.2s2.1-1,2.1-2.2S9.9,3.3,8.8,3.3"/>
						<path id="Path_1_" fill="#39497E" d="M2.1,3.3C0.9,3.3,0,4.3,0,5.5s0.9,2.2,2.1,2.2s2.1-1,2.1-2.2S3.3,3.3,2.1,3.3"/>
						<path id="Fill-3" fill="#39497E" d="M14.4,0.3c0.4,0.4,4.2,4.5,4.2,4.5c0.2,0.2,0.3,0.5,0.3,0.7S18.8,6,18.6,6.2
							c0,0-3.8,4.1-4.2,4.5c-0.4,0.4-1.1,0.4-1.5,0c-0.4-0.4-0.4-1,0-1.5l3.5-3.7l-3.5-3.7c-0.4-0.5-0.4-1.1,0-1.5
							C13.3-0.1,14-0.1,14.4,0.3"/>
					</g>
					<g id="Arrow_Point_1_" transform="translate(92.000000, 29.000000)">
						<path id="Path_2_" fill="#39497E" d="M8.8,3.3c-1.2,0-2.1,1-2.1,2.2s0.9,2.2,2.1,2.2s2.1-1,2.1-2.2S9.9,3.3,8.8,3.3"/>
						<path id="Path_3_" fill="#39497E" d="M2.1,3.3C0.9,3.3,0,4.3,0,5.5s0.9,2.2,2.1,2.2s2.1-1,2.1-2.2S3.3,3.3,2.1,3.3"/>
						<path id="Fill-3_1_" fill="#39497E" d="M14.4,0.3c0.4,0.4,4.2,4.5,4.2,4.5c0.2,0.2,0.3,0.5,0.3,0.7S18.8,6,18.6,6.2
							c0,0-3.8,4.1-4.2,4.5c-0.4,0.4-1.1,0.4-1.5,0c-0.4-0.4-0.4-1,0-1.5l3.5-3.7l-3.5-3.7c-0.4-0.5-0.4-1.1,0-1.5
							C13.3-0.1,14-0.1,14.4,0.3"/>
					</g>
				</g>
			</g>
		</g>
	</g>
</g>
</svg>
