<?xml version="1.0" encoding="UTF-8"?>
<svg width="86px" height="11px" viewBox="0 0 86 11" version="1.1" xmlns="http://www.w3.org/2000/svg" xmlns:xlink="http://www.w3.org/1999/xlink">
    <!-- Generator: Sketch 49 (51002) - http://www.bohemiancoding.com/sketch -->
    <title>arrow circle</title>
    <desc>Created with Sketch.</desc>
    <defs></defs>
    <g id="Page-1" stroke="none" stroke-width="1" fill="none" fill-rule="evenodd">
        <g id="Atlantis---Index---2" transform="translate(-712.000000, -1074.000000)" fill="#FFFFFF">
            <g id="SECTIONS" transform="translate(130.000000, 630.000000)">
                <g id="2" transform="translate(402.000000, 0.000000)">
                    <g id="arrow-circle" transform="translate(155.000000, 415.000000)">
                        <g id="Arrow_Point" transform="translate(25.000000, 29.000000)">
                            <path d="M8.76190476,3.3 C7.60495238,3.3 6.66666667,4.2852 6.66666667,5.5 C6.66666667,6.7148 7.60495238,7.7 8.76190476,7.7 C9.91885714,7.7 10.8571429,6.7148 10.8571429,5.5 C10.8571429,4.2852 9.91885714,3.3 8.76190476,3.3" id="Path"></path>
                            <path d="M2.0952381,3.3 C0.938285714,3.3 0,4.2852 0,5.5 C0,6.7148 0.938285714,7.7 2.0952381,7.7 C3.25219048,7.7 4.19047619,6.7148 4.19047619,5.5 C4.19047619,4.2852 3.25219048,3.3 2.0952381,3.3" id="Path"></path>
                            <path d="M14.4104438,0.299863793 C14.7990674,0.686381034 18.6000601,4.75277759 18.6000601,4.75277759 C18.8075866,4.95912241 18.9112568,5.22938103 18.9112568,5.50001897 C18.9112568,5.7706569 18.8075866,6.04091552 18.6000601,6.24707069 C18.6000601,6.24707069 14.7990674,10.3136569 14.4104438,10.7001741 C14.0214478,11.0866914 13.3219997,11.1130534 12.9065744,10.7001741 C12.4917074,10.2878638 12.4587638,9.71207069 12.9069466,9.20607069 L16.3937646,5.50001897 L12.9069466,1.7941569 C12.4587638,1.28796724 12.4917074,0.712363793 12.9065744,0.299863793 C13.3219997,-0.113015517 14.0214478,-0.0866534483 14.4104438,0.299863793" id="Fill-3"></path>
                        </g>
                        <g id="Arrow_Point" transform="translate(92.000000, 29.000000)">
                            <path d="M8.76190476,3.3 C7.60495238,3.3 6.66666667,4.2852 6.66666667,5.5 C6.66666667,6.7148 7.60495238,7.7 8.76190476,7.7 C9.91885714,7.7 10.8571429,6.7148 10.8571429,5.5 C10.8571429,4.2852 9.91885714,3.3 8.76190476,3.3" id="Path"></path>
                            <path d="M2.0952381,3.3 C0.938285714,3.3 0,4.2852 0,5.5 C0,6.7148 0.938285714,7.7 2.0952381,7.7 C3.25219048,7.7 4.19047619,6.7148 4.19047619,5.5 C4.19047619,4.2852 3.25219048,3.3 2.0952381,3.3" id="Path"></path>
                            <path d="M14.4104438,0.299863793 C14.7990674,0.686381034 18.6000601,4.75277759 18.6000601,4.75277759 C18.8075866,4.95912241 18.9112568,5.22938103 18.9112568,5.50001897 C18.9112568,5.7706569 18.8075866,6.04091552 18.6000601,6.24707069 C18.6000601,6.24707069 14.7990674,10.3136569 14.4104438,10.7001741 C14.0214478,11.0866914 13.3219997,11.1130534 12.9065744,10.7001741 C12.4917074,10.2878638 12.4587638,9.71207069 12.9069466,9.20607069 L16.3937646,5.50001897 L12.9069466,1.7941569 C12.4587638,1.28796724 12.4917074,0.712363793 12.9065744,0.299863793 C13.3219997,-0.113015517 14.0214478,-0.0866534483 14.4104438,0.299863793" id="Fill-3"></path>
                        </g>
                    </g>
                </g>
            </g>
        </g>
    </g>
</svg>