<?xml version="1.0" encoding="utf-8"?>
<!-- Generator: Adobe Illustrator 15.0.2, SVG Export Plug-In . SVG Version: 6.00 Build 0)  -->
<!DOCTYPE svg PUBLIC "-//W3C//DTD SVG 1.1//EN" "http://www.w3.org/Graphics/SVG/1.1/DTD/svg11.dtd">
<svg version="1.1" id="Livello_1" xmlns="http://www.w3.org/2000/svg" xmlns:xlink="http://www.w3.org/1999/xlink" x="0px" y="0px"
	 width="567.989px" height="567.989px" viewBox="0 0 567.989 567.989" enable-background="new 0 0 567.989 567.989"
	 xml:space="preserve">
<g>
	<g>
		<defs>
			<path id="SVGID_1_" d="M370.079,298.032c-10.03,0.001-20.78,2.556-20.78,2.556l-0.736,0.263
				c-7.718,2.764-73.75,26.427-80.229,29.518c-1.409,0.672-85.352,32.601-85.352,32.601l202.5-60.41
				c-2.805-3.47-8.951-4.526-15.398-4.526H370.079z"/>
		</defs>
		<clipPath id="SVGID_2_">
			<use xlink:href="#SVGID_1_"  overflow="visible"/>
		</clipPath>
		<defs>
			<filter id="Adobe_OpacityMaskFilter" filterUnits="userSpaceOnUse" x="182.981" y="298.032" width="202.5" height="64.937">
				<feColorMatrix  type="matrix" values="1 0 0 0 0  0 1 0 0 0  0 0 1 0 0  0 0 0 1 0"/>
			</filter>
		</defs>
		<mask maskUnits="userSpaceOnUse" x="182.981" y="298.032" width="202.5" height="64.937" id="SVGID_3_">
			<g filter="url(#Adobe_OpacityMaskFilter)">
				
					<linearGradient id="SVGID_4_" gradientUnits="userSpaceOnUse" x1="-166.3687" y1="728.001" x2="-165.3687" y2="728.001" gradientTransform="matrix(-202.5011 0 0 -202.5011 -33304.3242 147751.5)">
					<stop  offset="0" style="stop-color:#000000"/>
					<stop  offset="0.9846" style="stop-color:#000000"/>
					<stop  offset="1" style="stop-color:#000000"/>
				</linearGradient>
				<rect x="182.982" y="298.032" clip-path="url(#SVGID_2_)" fill="url(#SVGID_4_)" width="202.5" height="64.937"/>
			</g>
		</mask>
		
			<linearGradient id="SVGID_5_" gradientUnits="userSpaceOnUse" x1="-166.3677" y1="728.002" x2="-165.3677" y2="728.002" gradientTransform="matrix(-202.5011 0 0 -202.5011 -33304.3203 147751.5)">
			<stop  offset="0" style="stop-color:#FFFFFF"/>
			<stop  offset="0.9846" style="stop-color:#231F20"/>
			<stop  offset="1" style="stop-color:#231F20"/>
		</linearGradient>
		
			<rect x="182.981" y="298.032" clip-path="url(#SVGID_2_)" mask="url(#SVGID_3_)" fill="url(#SVGID_5_)" width="202.5" height="64.937"/>
	</g>
	<g>
		<defs>
			<rect id="SVGID_6_" x="39.292" y="152.431" width="465.53" height="310.416"/>
		</defs>
		<clipPath id="SVGID_7_">
			<use xlink:href="#SVGID_6_"  overflow="visible"/>
		</clipPath>
		<path clip-path="url(#SVGID_7_)" fill="none" stroke="#000000" stroke-width="0.657" stroke-miterlimit="10" d="M182.982,362.97
			c0,0,83.943-31.93,85.351-32.602c6.478-3.092,72.511-26.754,80.23-29.518l0.735-0.262c0,0,29.013-6.898,36.185,1.97"/>
	</g>
	<g>
		<defs>
			<path id="SVGID_8_" d="M241.293,171.398l40.178,18.829C280.291,188.951,266.031,173.05,241.293,171.398z"/>
		</defs>
		<clipPath id="SVGID_9_">
			<use xlink:href="#SVGID_8_"  overflow="visible"/>
		</clipPath>
		<defs>
			<filter id="Adobe_OpacityMaskFilter_1_" filterUnits="userSpaceOnUse" x="241.293" y="171.398" width="40.178" height="18.829">
				<feColorMatrix  type="matrix" values="1 0 0 0 0  0 1 0 0 0  0 0 1 0 0  0 0 0 1 0"/>
			</filter>
		</defs>
		<mask maskUnits="userSpaceOnUse" x="241.293" y="171.398" width="40.178" height="18.829" id="SVGID_10_">
			<g filter="url(#Adobe_OpacityMaskFilter_1_)">
				
					<linearGradient id="SVGID_11_" gradientUnits="userSpaceOnUse" x1="-166.3682" y1="728.001" x2="-165.3682" y2="728.001" gradientTransform="matrix(-40.1786 0 0 -40.1786 -6402.9746 29430.8477)">
					<stop  offset="0" style="stop-color:#000000"/>
					<stop  offset="0" style="stop-color:#000000"/>
					<stop  offset="1" style="stop-color:#000000"/>
				</linearGradient>
				<rect x="241.293" y="171.398" clip-path="url(#SVGID_9_)" fill="url(#SVGID_11_)" width="40.178" height="18.828"/>
			</g>
		</mask>
		
			<linearGradient id="SVGID_12_" gradientUnits="userSpaceOnUse" x1="-166.3682" y1="728.001" x2="-165.3682" y2="728.001" gradientTransform="matrix(-40.1786 0 0 -40.1786 -6402.9746 29430.8477)">
			<stop  offset="0" style="stop-color:#FFFFFF"/>
			<stop  offset="0" style="stop-color:#2D292A"/>
			<stop  offset="1" style="stop-color:#2D292A"/>
		</linearGradient>
		
			<rect x="241.293" y="171.398" clip-path="url(#SVGID_9_)" mask="url(#SVGID_10_)" fill="url(#SVGID_12_)" width="40.178" height="18.829"/>
	</g>
	<g>
		<defs>
			<rect id="SVGID_13_" x="39.292" y="152.431" width="465.53" height="310.416"/>
		</defs>
		<clipPath id="SVGID_14_">
			<use xlink:href="#SVGID_13_"  overflow="visible"/>
		</clipPath>
		<path clip-path="url(#SVGID_14_)" fill="none" stroke="#000000" stroke-width="0.657" stroke-miterlimit="10" d="M241.293,171.397
			c24.737,1.653,38.998,17.553,40.178,18.829"/>
	</g>
	<g>
		<defs>
			<path id="SVGID_15_" d="M465.38,347.695c-0.927-0.987-5.215-3.648-11.372-7.22L465.38,347.695z M384.606,296.428
				c0.577,1.688,1.028,3.799,0.663,5.119c-0.122,0.441-0.334,0.793-0.663,1.012c0,0,47.03,24.947,69.402,37.917L384.606,296.428z"/>
		</defs>
		<clipPath id="SVGID_16_">
			<use xlink:href="#SVGID_15_"  overflow="visible"/>
		</clipPath>
		<defs>
			<filter id="Adobe_OpacityMaskFilter_2_" filterUnits="userSpaceOnUse" x="384.606" y="296.428" width="80.774" height="51.268">
				<feColorMatrix  type="matrix" values="1 0 0 0 0  0 1 0 0 0  0 0 1 0 0  0 0 0 1 0"/>
			</filter>
		</defs>
		<mask maskUnits="userSpaceOnUse" x="384.606" y="296.428" width="80.774" height="51.268" id="SVGID_17_">
			<g filter="url(#Adobe_OpacityMaskFilter_2_)">
				
					<linearGradient id="SVGID_18_" gradientUnits="userSpaceOnUse" x1="-166.3687" y1="728.002" x2="-165.3687" y2="728.002" gradientTransform="matrix(-80.7729 0 0 -80.7729 -12972.7031 59124.8281)">
					<stop  offset="0" style="stop-color:#000000"/>
					<stop  offset="0.9846" style="stop-color:#000000"/>
					<stop  offset="1" style="stop-color:#000000"/>
				</linearGradient>
				<rect x="384.607" y="296.427" clip-path="url(#SVGID_16_)" fill="url(#SVGID_18_)" width="80.773" height="51.269"/>
			</g>
		</mask>
		
			<linearGradient id="SVGID_19_" gradientUnits="userSpaceOnUse" x1="-166.3687" y1="728.001" x2="-165.3687" y2="728.001" gradientTransform="matrix(-80.7729 0 0 -80.7729 -12972.707 59124.8242)">
			<stop  offset="0" style="stop-color:#FFFFFF"/>
			<stop  offset="0.9846" style="stop-color:#231F20"/>
			<stop  offset="1" style="stop-color:#231F20"/>
		</linearGradient>
		
			<rect x="384.606" y="296.428" clip-path="url(#SVGID_16_)" mask="url(#SVGID_17_)" fill="url(#SVGID_19_)" width="80.774" height="51.268"/>
	</g>
	<g>
		<defs>
			<rect id="SVGID_20_" x="39.292" y="152.431" width="465.53" height="310.416"/>
		</defs>
		<clipPath id="SVGID_21_">
			<use xlink:href="#SVGID_20_"  overflow="visible"/>
		</clipPath>
		<path clip-path="url(#SVGID_21_)" fill="none" stroke="#000000" stroke-width="0.657" stroke-miterlimit="10" d="M384.607,296.428
			c0.577,1.687,1.027,3.8,0.662,5.12c-0.121,0.439-0.334,0.792-0.662,1.011c0,0,76.476,40.565,80.773,45.136"/>
	</g>
	<g>
		<defs>
			<path id="SVGID_22_" d="M214.248,169.643c-11.168,2.19-8.102,8.102-8.102,8.102s-62.549,19.244-86.494,55.509
				c-23.495,35.583-17.491,81.048-16.095,88.356c0,0,6.569,35.793,10.183,48.61c0.842,7.435,46.749,0.739,55.838-2.628l13.795-5.091
				c0,0,0.062,0.041,0.181,0.118l-0.181,0.349l53.64,37.252c0,0,32.853,22.526,55.626,21.021
				c22.773-1.505,42.37-14.015,42.37-14.015l63.6-37.868c0,0,39.662-26.905,58.08-19.94c13.318,5.036,12.004,13.029,12.004,13.029
				s-0.766,8.54-9.963,7.554c-9.196-0.985-28.028-10.073-32.846-14.452c-3.09-2.81,7.227,8.679,21.131,15.438
				c14.452,7.007,22.116,0.219,22.116,0.219s12.81-9.444,0-20.201c-6.018-5.381-13.423-6.607-19.2-6.607
				c-4.628,0-8.214,0.786-9.211,0.859c-30.548,7.007-105.191,57.371-105.191,57.371c-37.188,21.667-53.573,13.622-67.306,9.86
				c-13.328-3.651-80.716-47.305-84.669-49.869l98.57-189.92c-24.695-2.771-56.708-0.649-56.708-0.649s0-2.999-5.885-2.999
				C218.129,169.052,216.396,169.222,214.248,169.643"/>
		</defs>
		<clipPath id="SVGID_23_">
			<use xlink:href="#SVGID_22_"  overflow="visible"/>
		</clipPath>
		<defs>
			<filter id="Adobe_OpacityMaskFilter_3_" filterUnits="userSpaceOnUse" x="96.156" y="169.052" width="385.784" height="255.244">
				<feColorMatrix  type="matrix" values="1 0 0 0 0  0 1 0 0 0  0 0 1 0 0  0 0 0 1 0"/>
			</filter>
		</defs>
		<mask maskUnits="userSpaceOnUse" x="96.156" y="169.052" width="385.784" height="255.244" id="SVGID_24_">
			<g filter="url(#Adobe_OpacityMaskFilter_3_)">
				
					<linearGradient id="SVGID_25_" gradientUnits="userSpaceOnUse" x1="-166.3687" y1="727.9971" x2="-165.3687" y2="727.9971" gradientTransform="matrix(-372.9834 0 0 -372.9834 -61577.9766 271827.375)">
					<stop  offset="0" style="stop-color:#000000"/>
					<stop  offset="0.9846" style="stop-color:#000000"/>
					<stop  offset="1" style="stop-color:#000000"/>
				</linearGradient>
				<rect x="96.155" y="169.052" clip-path="url(#SVGID_23_)" fill="url(#SVGID_25_)" width="385.784" height="255.244"/>
			</g>
		</mask>
		
			<linearGradient id="SVGID_26_" gradientUnits="userSpaceOnUse" x1="-166.3687" y1="727.9971" x2="-165.3687" y2="727.9971" gradientTransform="matrix(-372.9833 0 0 -372.9833 -61577.9922 271827.3438)">
			<stop  offset="0" style="stop-color:#FFFFFF"/>
			<stop  offset="0.9846" style="stop-color:#231F20"/>
			<stop  offset="1" style="stop-color:#231F20"/>
		</linearGradient>
		
			<rect x="96.156" y="169.052" clip-path="url(#SVGID_23_)" mask="url(#SVGID_24_)" fill="url(#SVGID_26_)" width="385.784" height="255.244"/>
	</g>
	<g>
		<defs>
			<rect id="SVGID_27_" x="39.292" y="152.431" width="465.53" height="310.416"/>
		</defs>
		<clipPath id="SVGID_28_">
			<use xlink:href="#SVGID_27_"  overflow="visible"/>
		</clipPath>
		<path clip-path="url(#SVGID_28_)" fill="none" stroke="#000000" stroke-width="0.657" stroke-miterlimit="10" d="M183.373,362.97
			l53.64,37.251c0,0,32.853,22.525,55.627,21.021c22.773-1.505,42.369-14.014,42.369-14.014l63.6-37.869
			c0,0,39.662-26.904,58.08-19.94c13.318,5.037,12.004,13.029,12.004,13.029s-0.766,8.54-9.963,7.555
			c-9.195-0.984-28.027-10.072-32.845-14.451c-3.092-2.811,7.226,8.678,21.13,15.437c14.452,7.007,22.116,0.219,22.116,0.219
			s12.81-9.442,0-20.199c-10.839-9.69-26.167-5.912-28.411-5.748c-30.547,7.007-105.193,57.369-105.193,57.369
			c-37.187,21.668-53.57,13.623-67.304,9.861c-13.732-3.763-84.85-49.987-84.85-49.987l-13.795,5.092
			c-9.088,3.366-54.997,10.061-55.838,2.628c-3.613-12.819-10.182-48.612-10.182-48.612c-1.396-7.308-7.402-52.772,16.094-88.355
			c23.945-36.265,86.494-55.51,86.494-55.51s-3.066-5.912,8.102-8.101c11.168-2.19,11.168,2.409,11.168,2.409
			s32.013-2.124,56.708,0.648"/>
	</g>
	<g>
		<defs>
			<path id="SVGID_29_" d="M172.423,244.257c-1.752,48.823,14.23,86.358,25.187,113.146l-5.894-174.125
				C172.581,194.56,172.423,244.257,172.423,244.257"/>
		</defs>
		<clipPath id="SVGID_30_">
			<use xlink:href="#SVGID_29_"  overflow="visible"/>
		</clipPath>
		<defs>
			<filter id="Adobe_OpacityMaskFilter_4_" filterUnits="userSpaceOnUse" x="170.671" y="183.279" width="26.939" height="174.125">
				<feColorMatrix  type="matrix" values="1 0 0 0 0  0 1 0 0 0  0 0 1 0 0  0 0 0 1 0"/>
			</filter>
		</defs>
		<mask maskUnits="userSpaceOnUse" x="170.671" y="183.279" width="26.939" height="174.125" id="SVGID_31_">
			<g filter="url(#Adobe_OpacityMaskFilter_4_)">
				
					<linearGradient id="SVGID_32_" gradientUnits="userSpaceOnUse" x1="-166.3682" y1="728.001" x2="-165.3682" y2="728.001" gradientTransform="matrix(-25.3191 0 0 -25.3191 -4014.6897 18702.6445)">
					<stop  offset="0" style="stop-color:#000000"/>
					<stop  offset="0.9846" style="stop-color:#000000"/>
					<stop  offset="1" style="stop-color:#000000"/>
				</linearGradient>
				<rect x="170.671" y="183.279" clip-path="url(#SVGID_30_)" fill="url(#SVGID_32_)" width="26.939" height="174.125"/>
			</g>
		</mask>
		
			<linearGradient id="SVGID_33_" gradientUnits="userSpaceOnUse" x1="-166.3682" y1="728.001" x2="-165.3682" y2="728.001" gradientTransform="matrix(-25.3191 0 0 -25.3191 -4014.6897 18702.6445)">
			<stop  offset="0" style="stop-color:#FFFFFF"/>
			<stop  offset="0.9846" style="stop-color:#231F20"/>
			<stop  offset="1" style="stop-color:#231F20"/>
		</linearGradient>
		
			<rect x="170.671" y="183.279" clip-path="url(#SVGID_30_)" mask="url(#SVGID_31_)" fill="url(#SVGID_33_)" width="26.939" height="174.125"/>
	</g>
	<g>
		<defs>
			<rect id="SVGID_34_" x="39.292" y="152.431" width="465.53" height="310.416"/>
		</defs>
		<clipPath id="SVGID_35_">
			<use xlink:href="#SVGID_34_"  overflow="visible"/>
		</clipPath>
		<path clip-path="url(#SVGID_35_)" fill="none" stroke="#000000" stroke-width="0.657" stroke-miterlimit="10" d="M197.61,357.403
			c-10.957-26.788-26.939-64.323-25.187-113.146c0,0,0.157-49.697,19.293-60.979"/>
	</g>
	<g>
		<defs>
			<path id="SVGID_36_" d="M182.667,187.009c-19.138,11.283-19.292,60.979-19.292,60.979
				c-1.753,48.822,14.229,86.355,25.185,113.143v-0.024L182.667,187.009L182.667,187.009z"/>
		</defs>
		<clipPath id="SVGID_37_">
			<use xlink:href="#SVGID_36_"  overflow="visible"/>
		</clipPath>
		<defs>
			<filter id="Adobe_OpacityMaskFilter_5_" filterUnits="userSpaceOnUse" x="161.623" y="187.009" width="26.938" height="174.122">
				<feColorMatrix  type="matrix" values="1 0 0 0 0  0 1 0 0 0  0 0 1 0 0  0 0 0 1 0"/>
			</filter>
		</defs>
		<mask maskUnits="userSpaceOnUse" x="161.623" y="187.009" width="26.938" height="174.122" id="SVGID_38_">
			<g filter="url(#Adobe_OpacityMaskFilter_5_)">
				
					<linearGradient id="SVGID_39_" gradientUnits="userSpaceOnUse" x1="-166.3682" y1="728.001" x2="-165.3682" y2="728.001" gradientTransform="matrix(-25.3191 0 0 -25.3191 -4023.7366 18706.3789)">
					<stop  offset="0" style="stop-color:#000000"/>
					<stop  offset="0.9846" style="stop-color:#000000"/>
					<stop  offset="1" style="stop-color:#000000"/>
				</linearGradient>
				<rect x="161.624" y="187.009" clip-path="url(#SVGID_37_)" fill="url(#SVGID_39_)" width="26.938" height="174.125"/>
			</g>
		</mask>
		
			<linearGradient id="SVGID_40_" gradientUnits="userSpaceOnUse" x1="-166.3682" y1="728.002" x2="-165.3682" y2="728.002" gradientTransform="matrix(-25.3191 0 0 -25.3191 -4023.7366 18706.3789)">
			<stop  offset="0" style="stop-color:#FFFFFF"/>
			<stop  offset="0.9846" style="stop-color:#231F20"/>
			<stop  offset="1" style="stop-color:#231F20"/>
		</linearGradient>
		
			<rect x="161.623" y="187.009" clip-path="url(#SVGID_37_)" mask="url(#SVGID_38_)" fill="url(#SVGID_40_)" width="26.938" height="174.122"/>
	</g>
	<g>
		<defs>
			<rect id="SVGID_41_" x="39.292" y="152.431" width="465.53" height="310.416"/>
		</defs>
		<clipPath id="SVGID_42_">
			<use xlink:href="#SVGID_41_"  overflow="visible"/>
		</clipPath>
		<path clip-path="url(#SVGID_42_)" fill="none" stroke="#000000" stroke-width="0.657" stroke-miterlimit="10" d="M188.561,361.134
			c-0.408-0.998-0.822-2.011-1.244-3.037"/>
		
			<path clip-path="url(#SVGID_42_)" fill="none" stroke="#000000" stroke-width="0.657" stroke-miterlimit="10" stroke-dasharray="6.414,3.207" d="
			M186.104,355.129c-10.726-26.293-24.354-61.863-22.73-107.142c0,0,0.135-42.793,15.445-57.974"/>
		<path clip-path="url(#SVGID_42_)" fill="none" stroke="#000000" stroke-width="0.657" stroke-miterlimit="10" d="M180.003,188.922
			c0.844-0.722,1.732-1.363,2.665-1.913"/>
	</g>
	<g>
		<defs>
			<path id="SVGID_43_" d="M181.692,240.366c-1.751,48.822,14.23,86.356,25.186,113.146l-5.893-174.126
				C181.848,190.67,181.692,240.366,181.692,240.366"/>
		</defs>
		<clipPath id="SVGID_44_">
			<use xlink:href="#SVGID_43_"  overflow="visible"/>
		</clipPath>
		<defs>
			<filter id="Adobe_OpacityMaskFilter_6_" filterUnits="userSpaceOnUse" x="179.941" y="179.387" width="26.937" height="174.126">
				<feColorMatrix  type="matrix" values="1 0 0 0 0  0 1 0 0 0  0 0 1 0 0  0 0 0 1 0"/>
			</filter>
		</defs>
		<mask maskUnits="userSpaceOnUse" x="179.941" y="179.387" width="26.937" height="174.126" id="SVGID_45_">
			<g filter="url(#Adobe_OpacityMaskFilter_6_)">
				
					<linearGradient id="SVGID_46_" gradientUnits="userSpaceOnUse" x1="-166.3682" y1="728.001" x2="-165.3682" y2="728.001" gradientTransform="matrix(-25.3191 0 0 -25.3191 -4005.4241 18698.7539)">
					<stop  offset="0" style="stop-color:#000000"/>
					<stop  offset="0.9846" style="stop-color:#000000"/>
					<stop  offset="1" style="stop-color:#000000"/>
				</linearGradient>
				<rect x="179.941" y="179.387" clip-path="url(#SVGID_44_)" fill="url(#SVGID_46_)" width="26.937" height="174.125"/>
			</g>
		</mask>
		
			<linearGradient id="SVGID_47_" gradientUnits="userSpaceOnUse" x1="-166.3682" y1="728.001" x2="-165.3682" y2="728.001" gradientTransform="matrix(-25.3191 0 0 -25.3191 -4005.4241 18698.7539)">
			<stop  offset="0" style="stop-color:#FFFFFF"/>
			<stop  offset="0.9846" style="stop-color:#231F20"/>
			<stop  offset="1" style="stop-color:#231F20"/>
		</linearGradient>
		
			<rect x="179.941" y="179.387" clip-path="url(#SVGID_44_)" mask="url(#SVGID_45_)" fill="url(#SVGID_47_)" width="26.937" height="174.126"/>
	</g>
	<g>
		<defs>
			<rect id="SVGID_48_" x="39.292" y="152.431" width="465.53" height="310.416"/>
		</defs>
		<clipPath id="SVGID_49_">
			<use xlink:href="#SVGID_48_"  overflow="visible"/>
		</clipPath>
		<path clip-path="url(#SVGID_49_)" fill="none" stroke="#000000" stroke-width="0.657" stroke-miterlimit="10" d="M206.879,353.512
			c-0.408-0.997-0.822-2.01-1.244-3.037"/>
		
			<path clip-path="url(#SVGID_49_)" fill="none" stroke="#000000" stroke-width="0.657" stroke-miterlimit="10" stroke-dasharray="6.414,3.207" d="
			M204.422,347.508c-10.726-26.293-24.355-61.863-22.73-107.142c0,0,0.135-42.793,15.445-57.975"/>
		<path clip-path="url(#SVGID_49_)" fill="none" stroke="#000000" stroke-width="0.657" stroke-miterlimit="10" d="M198.321,181.301
			c0.844-0.723,1.732-1.363,2.665-1.914"/>
	</g>
	<g>
		<defs>
			<path id="SVGID_50_" d="M260.281,171.365l124.768,130.707c0,0-3.724-130.702-123.674-130.711
				C261.008,171.361,260.65,171.363,260.281,171.365"/>
		</defs>
		<clipPath id="SVGID_51_">
			<use xlink:href="#SVGID_50_"  overflow="visible"/>
		</clipPath>
		<defs>
			
				<filter id="Adobe_OpacityMaskFilter_7_" filterUnits="userSpaceOnUse" x="260.281" y="171.361" width="124.768" height="130.711">
				<feColorMatrix  type="matrix" values="1 0 0 0 0  0 1 0 0 0  0 0 1 0 0  0 0 0 1 0"/>
			</filter>
		</defs>
		<mask maskUnits="userSpaceOnUse" x="260.281" y="171.361" width="124.768" height="130.711" id="SVGID_52_">
			<g filter="url(#Adobe_OpacityMaskFilter_7_)">
				
					<linearGradient id="SVGID_53_" gradientUnits="userSpaceOnUse" x1="-166.3687" y1="728.001" x2="-165.3687" y2="728.001" gradientTransform="matrix(-124.7674 0 0 -124.7674 -20372.332 91067.5234)">
					<stop  offset="0" style="stop-color:#000000"/>
					<stop  offset="0.9846" style="stop-color:#000000"/>
					<stop  offset="1" style="stop-color:#000000"/>
				</linearGradient>
				<rect x="260.282" y="171.361" clip-path="url(#SVGID_51_)" fill="url(#SVGID_53_)" width="124.767" height="130.712"/>
			</g>
		</mask>
		
			<linearGradient id="SVGID_54_" gradientUnits="userSpaceOnUse" x1="-166.3682" y1="728.001" x2="-165.3682" y2="728.001" gradientTransform="matrix(-124.7675 0 0 -124.7675 -20372.3262 91067.5859)">
			<stop  offset="0" style="stop-color:#FFFFFF"/>
			<stop  offset="0.9846" style="stop-color:#231F20"/>
			<stop  offset="1" style="stop-color:#231F20"/>
		</linearGradient>
		
			<rect x="260.281" y="171.361" clip-path="url(#SVGID_51_)" mask="url(#SVGID_52_)" fill="url(#SVGID_54_)" width="124.768" height="130.711"/>
	</g>
	<g>
		<defs>
			<rect id="SVGID_55_" x="39.292" y="152.431" width="465.53" height="310.416"/>
		</defs>
		<clipPath id="SVGID_56_">
			<use xlink:href="#SVGID_55_"  overflow="visible"/>
		</clipPath>
		<path clip-path="url(#SVGID_56_)" fill="none" stroke="#000000" stroke-width="0.657" stroke-miterlimit="10" d="M385.049,302.073
			c0,0-3.735-131.505-124.767-130.708"/>
	</g>
	<g>
		<defs>
			<path id="SVGID_57_" d="M278.022,203.857l1.807-12.646C279.83,191.211,276.708,200.08,278.022,203.857"/>
		</defs>
		<clipPath id="SVGID_58_">
			<use xlink:href="#SVGID_57_"  overflow="visible"/>
		</clipPath>
		<defs>
			<filter id="Adobe_OpacityMaskFilter_8_" filterUnits="userSpaceOnUse" x="276.708" y="191.211" width="3.121" height="12.646">
				<feColorMatrix  type="matrix" values="1 0 0 0 0  0 1 0 0 0  0 0 1 0 0  0 0 0 1 0"/>
			</filter>
		</defs>
		<mask maskUnits="userSpaceOnUse" x="276.708" y="191.211" width="3.121" height="12.646" id="SVGID_59_">
			<g filter="url(#Adobe_OpacityMaskFilter_8_)">
				
					<linearGradient id="SVGID_60_" gradientUnits="userSpaceOnUse" x1="-166.3687" y1="728.001" x2="-165.3687" y2="728.001" gradientTransform="matrix(-2.1294 0 0 -2.1294 -74.4349 1747.7307)">
					<stop  offset="0" style="stop-color:#000000"/>
					<stop  offset="0" style="stop-color:#000000"/>
					<stop  offset="1" style="stop-color:#000000"/>
				</linearGradient>
				<rect x="276.709" y="191.212" clip-path="url(#SVGID_58_)" fill="url(#SVGID_60_)" width="3.12" height="12.646"/>
			</g>
		</mask>
		
			<linearGradient id="SVGID_61_" gradientUnits="userSpaceOnUse" x1="-166.3691" y1="728.001" x2="-165.3691" y2="728.001" gradientTransform="matrix(-2.1294 0 0 -2.1294 -74.4348 1747.7307)">
			<stop  offset="0" style="stop-color:#FFFFFF"/>
			<stop  offset="0" style="stop-color:#2D292A"/>
			<stop  offset="1" style="stop-color:#2D292A"/>
		</linearGradient>
		
			<rect x="276.708" y="191.211" clip-path="url(#SVGID_58_)" mask="url(#SVGID_59_)" fill="url(#SVGID_61_)" width="3.121" height="12.646"/>
	</g>
	<g>
		<defs>
			<rect id="SVGID_62_" x="39.292" y="152.431" width="465.53" height="310.416"/>
		</defs>
		<clipPath id="SVGID_63_">
			<use xlink:href="#SVGID_62_"  overflow="visible"/>
		</clipPath>
		<path clip-path="url(#SVGID_63_)" fill="none" stroke="#000000" stroke-width="0.657" stroke-miterlimit="10" d="M279.829,191.211
			c0,0-3.12,8.868-1.807,12.646"/>
	</g>
	<g>
		<defs>
			<path id="SVGID_64_" d="M284.107,190.386l8.449,9.391C292.208,196.122,287.552,192.317,284.107,190.386z"/>
		</defs>
		<clipPath id="SVGID_65_">
			<use xlink:href="#SVGID_64_"  overflow="visible"/>
		</clipPath>
		<defs>
			<filter id="Adobe_OpacityMaskFilter_9_" filterUnits="userSpaceOnUse" x="281.655" y="188.18" width="13.353" height="13.804">
				<feColorMatrix  type="matrix" values="1 0 0 0 0  0 1 0 0 0  0 0 1 0 0  0 0 0 1 0"/>
			</filter>
		</defs>
		<mask maskUnits="userSpaceOnUse" x="281.655" y="188.18" width="13.353" height="13.804" id="SVGID_66_">
			<g filter="url(#Adobe_OpacityMaskFilter_9_)">
				<g>
					<defs>
						
							<rect id="SVGID_67_" x="282.666" y="189.742" transform="matrix(-0.2713 -0.9625 0.9625 -0.2713 178.7967 525.5269)" width="11.331" height="10.679"/>
					</defs>
					<clipPath id="SVGID_68_" clip-path="url(#SVGID_65_)">
						<use xlink:href="#SVGID_67_"  overflow="visible"/>
					</clipPath>
					
						<linearGradient id="SVGID_69_" gradientUnits="userSpaceOnUse" x1="-166.3687" y1="728.001" x2="-165.3687" y2="728.001" gradientTransform="matrix(-5.4528 1.537 -1.537 -5.4528 502.8791 4419.6265)">
						<stop  offset="0" style="stop-color:#000000"/>
						<stop  offset="0" style="stop-color:#000000"/>
						<stop  offset="1" style="stop-color:#000000"/>
					</linearGradient>
					<polygon clip-path="url(#SVGID_68_)" fill="url(#SVGID_69_)" points="294.026,184.693 278.051,189.196 282.638,205.47 
						298.613,200.967 					"/>
				</g>
			</g>
		</mask>
		
			<linearGradient id="SVGID_70_" gradientUnits="userSpaceOnUse" x1="-166.3687" y1="728.001" x2="-165.3687" y2="728.001" gradientTransform="matrix(-5.4528 1.537 -1.537 -5.4528 502.8788 4419.6221)">
			<stop  offset="0" style="stop-color:#FFFFFF"/>
			<stop  offset="0" style="stop-color:#2D292A"/>
			<stop  offset="1" style="stop-color:#2D292A"/>
		</linearGradient>
		<polygon clip-path="url(#SVGID_65_)" mask="url(#SVGID_66_)" fill="url(#SVGID_70_)" points="291.934,188.18 281.655,191.077 
			284.729,201.983 295.008,199.086 		"/>
	</g>
	<g>
		<defs>
			<rect id="SVGID_71_" x="39.292" y="152.431" width="465.53" height="310.416"/>
		</defs>
		<clipPath id="SVGID_72_">
			<use xlink:href="#SVGID_71_"  overflow="visible"/>
		</clipPath>
		<path clip-path="url(#SVGID_72_)" fill="none" stroke="#000000" stroke-width="0.657" stroke-miterlimit="10" d="M284.108,190.386
			c3.445,1.93,8.101,5.736,8.449,9.392"/>
	</g>
</g>
</svg>
