<?xml version="1.0" encoding="utf-8"?>
<!-- Generator: Adobe Illustrator 18.0.0, SVG Export Plug-In . SVG Version: 6.00 Build 0)  -->
<!DOCTYPE svg PUBLIC "-//W3C//DTD SVG 1.1//EN" "http://www.w3.org/Graphics/SVG/1.1/DTD/svg11.dtd">
<svg version="1.1" id="Livello_1" xmlns="http://www.w3.org/2000/svg" xmlns:xlink="http://www.w3.org/1999/xlink" x="0px" y="0px"
	 viewBox="0 0 86 11" enable-background="new 0 0 86 11" xml:space="preserve">
<title>arrow circle</title>
<desc>Created with Sketch.</desc>
<g id="Page-1">
	<g id="Atlantis---Index---2" transform="translate(-712.000000, -1074.000000)">
		<g id="SECTIONS" transform="translate(130.000000, 630.000000)">
			<g id="_x32_" transform="translate(402.000000, 0.000000)">
				<g id="arrow-circle" transform="translate(155.000000, 415.000000)">
					<g id="Arrow_Point" transform="translate(25.000000, 29.000000)">
						<path id="Path" fill="#202C54" d="M77.1,7.7c1.2,0,2.1-1,2.1-2.2s-0.9-2.2-2.1-2.2s-2.1,1-2.1,2.2S76,7.7,77.1,7.7"/>
						<path id="Path_1_" fill="#202C54" d="M83.8,7.7c1.2,0,2.1-1,2.1-2.2S85,3.3,83.8,3.3s-2.1,1-2.1,2.2S82.7,7.7,83.8,7.7"/>
						<path id="Fill-3" fill="#202C54" d="M71.5,10.7c-0.4-0.4-4.2-4.5-4.2-4.5C67.1,6,67,5.8,67,5.5s0.1-0.5,0.3-0.7
							c0,0,3.8-4.1,4.2-4.5c0.4-0.4,1.1-0.4,1.5,0c0.4,0.4,0.4,1,0,1.5l-3.5,3.7L73,9.2c0.4,0.5,0.4,1.1,0,1.5
							C72.6,11.1,71.9,11.1,71.5,10.7"/>
					</g>
					<g id="Arrow_Point_1_" transform="translate(92.000000, 29.000000)">
						<path id="Path_2_" fill="#202C54" d="M-56.9,7.7c1.2,0,2.1-1,2.1-2.2s-0.9-2.2-2.1-2.2c-1.2,0-2.1,1-2.1,2.2S-58,7.7-56.9,7.7
							"/>
						<path id="Path_3_" fill="#202C54" d="M-50.2,7.7c1.2,0,2.1-1,2.1-2.2c0-1.2-0.9-2.2-2.1-2.2c-1.2,0-2.1,1-2.1,2.2
							S-51.3,7.7-50.2,7.7"/>
						<path id="Fill-3_1_" fill="#202C54" d="M-62.5,10.7c-0.4-0.4-4.2-4.5-4.2-4.5C-66.9,6-67,5.8-67,5.5s0.1-0.5,0.3-0.7
							c0,0,3.8-4.1,4.2-4.5c0.4-0.4,1.1-0.4,1.5,0c0.4,0.4,0.4,1,0,1.5l-3.5,3.7l3.5,3.7c0.4,0.5,0.4,1.1,0,1.5
							C-61.4,11.1-62.1,11.1-62.5,10.7"/>
					</g>
				</g>
			</g>
		</g>
	</g>
</g>
</svg>
